<?xml version="1.0" encoding="utf-8" standalone="no"?>
<!DOCTYPE svg PUBLIC "-//W3C//DTD SVG 1.1//EN"
  "http://www.w3.org/Graphics/SVG/1.1/DTD/svg11.dtd">
<svg xmlns:xlink="http://www.w3.org/1999/xlink" width="576pt" height="360pt" viewBox="0 0 576 360" xmlns="http://www.w3.org/2000/svg" version="1.1">
 <metadata>
  <rdf:RDF xmlns:dc="http://purl.org/dc/elements/1.1/" xmlns:cc="http://creativecommons.org/ns#" xmlns:rdf="http://www.w3.org/1999/02/22-rdf-syntax-ns#">
   <cc:Work>
    <dc:type rdf:resource="http://purl.org/dc/dcmitype/StillImage"/>
    <dc:date>2026-01-21T19:55:01.102895</dc:date>
    <dc:format>image/svg+xml</dc:format>
    <dc:creator>
     <cc:Agent>
      <dc:title>Matplotlib v3.9.4, https://matplotlib.org/</dc:title>
     </cc:Agent>
    </dc:creator>
   </cc:Work>
  </rdf:RDF>
 </metadata>
 <defs>
  <style type="text/css">*{stroke-linejoin: round; stroke-linecap: butt}</style>
 </defs>
 <g id="figure_1">
  <g id="patch_1">
   <path d="M 0 360 
L 576 360 
L 576 0 
L 0 0 
z
" style="fill: #ffffff"/>
  </g>
  <g id="axes_1">
   <g id="patch_2">
    <path d="M 47.72 318.04 
L 551.025 318.04 
L 551.025 42.72 
L 47.72 42.72 
z
" style="fill: #ffffff"/>
   </g>
   <g id="matplotlib.axis_1">
    <g id="xtick_1">
     <g id="line2d_1">
      <path d="M 47.72 318.04 
L 47.72 42.72 
" clip-path="url(#pc651e4fb0e)" style="fill: none; stroke: #b0b0b0; stroke-width: 0.8; stroke-linecap: square"/>
     </g>
     <g id="line2d_2">
      <defs>
       <path id="m3fb45d5438" d="M 0 0 
L 0 3.5 
" style="stroke: #000000; stroke-width: 0.8"/>
      </defs>
      <g>
       <use xlink:href="#m3fb45d5438" x="47.72" y="318.04" style="stroke: #000000; stroke-width: 0.8"/>
      </g>
     </g>
     <g id="text_1">
      <!-- 0.000 -->
      <g transform="translate(33.405938 332.638438) scale(0.1 -0.1)">
       <defs>
        <path id="DejaVuSans-30" d="M 2034 4250 
Q 1547 4250 1301 3770 
Q 1056 3291 1056 2328 
Q 1056 1369 1301 889 
Q 1547 409 2034 409 
Q 2525 409 2770 889 
Q 3016 1369 3016 2328 
Q 3016 3291 2770 3770 
Q 2525 4250 2034 4250 
z
M 2034 4750 
Q 2819 4750 3233 4129 
Q 3647 3509 3647 2328 
Q 3647 1150 3233 529 
Q 2819 -91 2034 -91 
Q 1250 -91 836 529 
Q 422 1150 422 2328 
Q 422 3509 836 4129 
Q 1250 4750 2034 4750 
z
" transform="scale(0.015625)"/>
        <path id="DejaVuSans-2e" d="M 684 794 
L 1344 794 
L 1344 0 
L 684 0 
L 684 794 
z
" transform="scale(0.015625)"/>
       </defs>
       <use xlink:href="#DejaVuSans-30"/>
       <use xlink:href="#DejaVuSans-2e" x="63.623047"/>
       <use xlink:href="#DejaVuSans-30" x="95.410156"/>
       <use xlink:href="#DejaVuSans-30" x="159.033203"/>
       <use xlink:href="#DejaVuSans-30" x="222.65625"/>
      </g>
     </g>
    </g>
    <g id="xtick_2">
     <g id="line2d_3">
      <path d="M 103.642778 318.04 
L 103.642778 42.72 
" clip-path="url(#pc651e4fb0e)" style="fill: none; stroke: #b0b0b0; stroke-width: 0.8; stroke-linecap: square"/>
     </g>
     <g id="line2d_4">
      <g>
       <use xlink:href="#m3fb45d5438" x="103.642778" y="318.04" style="stroke: #000000; stroke-width: 0.8"/>
      </g>
     </g>
     <g id="text_2">
      <!-- 0.005 -->
      <g transform="translate(89.328715 332.638438) scale(0.1 -0.1)">
       <defs>
        <path id="DejaVuSans-35" d="M 691 4666 
L 3169 4666 
L 3169 4134 
L 1269 4134 
L 1269 2991 
Q 1406 3038 1543 3061 
Q 1681 3084 1819 3084 
Q 2600 3084 3056 2656 
Q 3513 2228 3513 1497 
Q 3513 744 3044 326 
Q 2575 -91 1722 -91 
Q 1428 -91 1123 -41 
Q 819 9 494 109 
L 494 744 
Q 775 591 1075 516 
Q 1375 441 1709 441 
Q 2250 441 2565 725 
Q 2881 1009 2881 1497 
Q 2881 1984 2565 2268 
Q 2250 2553 1709 2553 
Q 1456 2553 1204 2497 
Q 953 2441 691 2322 
L 691 4666 
z
" transform="scale(0.015625)"/>
       </defs>
       <use xlink:href="#DejaVuSans-30"/>
       <use xlink:href="#DejaVuSans-2e" x="63.623047"/>
       <use xlink:href="#DejaVuSans-30" x="95.410156"/>
       <use xlink:href="#DejaVuSans-30" x="159.033203"/>
       <use xlink:href="#DejaVuSans-35" x="222.65625"/>
      </g>
     </g>
    </g>
    <g id="xtick_3">
     <g id="line2d_5">
      <path d="M 159.565556 318.04 
L 159.565556 42.72 
" clip-path="url(#pc651e4fb0e)" style="fill: none; stroke: #b0b0b0; stroke-width: 0.8; stroke-linecap: square"/>
     </g>
     <g id="line2d_6">
      <g>
       <use xlink:href="#m3fb45d5438" x="159.565556" y="318.04" style="stroke: #000000; stroke-width: 0.8"/>
      </g>
     </g>
     <g id="text_3">
      <!-- 0.010 -->
      <g transform="translate(145.251493 332.638438) scale(0.1 -0.1)">
       <defs>
        <path id="DejaVuSans-31" d="M 794 531 
L 1825 531 
L 1825 4091 
L 703 3866 
L 703 4441 
L 1819 4666 
L 2450 4666 
L 2450 531 
L 3481 531 
L 3481 0 
L 794 0 
L 794 531 
z
" transform="scale(0.015625)"/>
       </defs>
       <use xlink:href="#DejaVuSans-30"/>
       <use xlink:href="#DejaVuSans-2e" x="63.623047"/>
       <use xlink:href="#DejaVuSans-30" x="95.410156"/>
       <use xlink:href="#DejaVuSans-31" x="159.033203"/>
       <use xlink:href="#DejaVuSans-30" x="222.65625"/>
      </g>
     </g>
    </g>
    <g id="xtick_4">
     <g id="line2d_7">
      <path d="M 215.488333 318.04 
L 215.488333 42.72 
" clip-path="url(#pc651e4fb0e)" style="fill: none; stroke: #b0b0b0; stroke-width: 0.8; stroke-linecap: square"/>
     </g>
     <g id="line2d_8">
      <g>
       <use xlink:href="#m3fb45d5438" x="215.488333" y="318.04" style="stroke: #000000; stroke-width: 0.8"/>
      </g>
     </g>
     <g id="text_4">
      <!-- 0.015 -->
      <g transform="translate(201.174271 332.638438) scale(0.1 -0.1)">
       <use xlink:href="#DejaVuSans-30"/>
       <use xlink:href="#DejaVuSans-2e" x="63.623047"/>
       <use xlink:href="#DejaVuSans-30" x="95.410156"/>
       <use xlink:href="#DejaVuSans-31" x="159.033203"/>
       <use xlink:href="#DejaVuSans-35" x="222.65625"/>
      </g>
     </g>
    </g>
    <g id="xtick_5">
     <g id="line2d_9">
      <path d="M 271.411111 318.04 
L 271.411111 42.72 
" clip-path="url(#pc651e4fb0e)" style="fill: none; stroke: #b0b0b0; stroke-width: 0.8; stroke-linecap: square"/>
     </g>
     <g id="line2d_10">
      <g>
       <use xlink:href="#m3fb45d5438" x="271.411111" y="318.04" style="stroke: #000000; stroke-width: 0.8"/>
      </g>
     </g>
     <g id="text_5">
      <!-- 0.020 -->
      <g transform="translate(257.097049 332.638438) scale(0.1 -0.1)">
       <defs>
        <path id="DejaVuSans-32" d="M 1228 531 
L 3431 531 
L 3431 0 
L 469 0 
L 469 531 
Q 828 903 1448 1529 
Q 2069 2156 2228 2338 
Q 2531 2678 2651 2914 
Q 2772 3150 2772 3378 
Q 2772 3750 2511 3984 
Q 2250 4219 1831 4219 
Q 1534 4219 1204 4116 
Q 875 4013 500 3803 
L 500 4441 
Q 881 4594 1212 4672 
Q 1544 4750 1819 4750 
Q 2544 4750 2975 4387 
Q 3406 4025 3406 3419 
Q 3406 3131 3298 2873 
Q 3191 2616 2906 2266 
Q 2828 2175 2409 1742 
Q 1991 1309 1228 531 
z
" transform="scale(0.015625)"/>
       </defs>
       <use xlink:href="#DejaVuSans-30"/>
       <use xlink:href="#DejaVuSans-2e" x="63.623047"/>
       <use xlink:href="#DejaVuSans-30" x="95.410156"/>
       <use xlink:href="#DejaVuSans-32" x="159.033203"/>
       <use xlink:href="#DejaVuSans-30" x="222.65625"/>
      </g>
     </g>
    </g>
    <g id="xtick_6">
     <g id="line2d_11">
      <path d="M 327.333889 318.04 
L 327.333889 42.72 
" clip-path="url(#pc651e4fb0e)" style="fill: none; stroke: #b0b0b0; stroke-width: 0.8; stroke-linecap: square"/>
     </g>
     <g id="line2d_12">
      <g>
       <use xlink:href="#m3fb45d5438" x="327.333889" y="318.04" style="stroke: #000000; stroke-width: 0.8"/>
      </g>
     </g>
     <g id="text_6">
      <!-- 0.025 -->
      <g transform="translate(313.019826 332.638438) scale(0.1 -0.1)">
       <use xlink:href="#DejaVuSans-30"/>
       <use xlink:href="#DejaVuSans-2e" x="63.623047"/>
       <use xlink:href="#DejaVuSans-30" x="95.410156"/>
       <use xlink:href="#DejaVuSans-32" x="159.033203"/>
       <use xlink:href="#DejaVuSans-35" x="222.65625"/>
      </g>
     </g>
    </g>
    <g id="xtick_7">
     <g id="line2d_13">
      <path d="M 383.256667 318.04 
L 383.256667 42.72 
" clip-path="url(#pc651e4fb0e)" style="fill: none; stroke: #b0b0b0; stroke-width: 0.8; stroke-linecap: square"/>
     </g>
     <g id="line2d_14">
      <g>
       <use xlink:href="#m3fb45d5438" x="383.256667" y="318.04" style="stroke: #000000; stroke-width: 0.8"/>
      </g>
     </g>
     <g id="text_7">
      <!-- 0.030 -->
      <g transform="translate(368.942604 332.638438) scale(0.1 -0.1)">
       <defs>
        <path id="DejaVuSans-33" d="M 2597 2516 
Q 3050 2419 3304 2112 
Q 3559 1806 3559 1356 
Q 3559 666 3084 287 
Q 2609 -91 1734 -91 
Q 1441 -91 1130 -33 
Q 819 25 488 141 
L 488 750 
Q 750 597 1062 519 
Q 1375 441 1716 441 
Q 2309 441 2620 675 
Q 2931 909 2931 1356 
Q 2931 1769 2642 2001 
Q 2353 2234 1838 2234 
L 1294 2234 
L 1294 2753 
L 1863 2753 
Q 2328 2753 2575 2939 
Q 2822 3125 2822 3475 
Q 2822 3834 2567 4026 
Q 2313 4219 1838 4219 
Q 1578 4219 1281 4162 
Q 984 4106 628 3988 
L 628 4550 
Q 988 4650 1302 4700 
Q 1616 4750 1894 4750 
Q 2613 4750 3031 4423 
Q 3450 4097 3450 3541 
Q 3450 3153 3228 2886 
Q 3006 2619 2597 2516 
z
" transform="scale(0.015625)"/>
       </defs>
       <use xlink:href="#DejaVuSans-30"/>
       <use xlink:href="#DejaVuSans-2e" x="63.623047"/>
       <use xlink:href="#DejaVuSans-30" x="95.410156"/>
       <use xlink:href="#DejaVuSans-33" x="159.033203"/>
       <use xlink:href="#DejaVuSans-30" x="222.65625"/>
      </g>
     </g>
    </g>
    <g id="xtick_8">
     <g id="line2d_15">
      <path d="M 439.179444 318.04 
L 439.179444 42.72 
" clip-path="url(#pc651e4fb0e)" style="fill: none; stroke: #b0b0b0; stroke-width: 0.8; stroke-linecap: square"/>
     </g>
     <g id="line2d_16">
      <g>
       <use xlink:href="#m3fb45d5438" x="439.179444" y="318.04" style="stroke: #000000; stroke-width: 0.8"/>
      </g>
     </g>
     <g id="text_8">
      <!-- 0.035 -->
      <g transform="translate(424.865382 332.638438) scale(0.1 -0.1)">
       <use xlink:href="#DejaVuSans-30"/>
       <use xlink:href="#DejaVuSans-2e" x="63.623047"/>
       <use xlink:href="#DejaVuSans-30" x="95.410156"/>
       <use xlink:href="#DejaVuSans-33" x="159.033203"/>
       <use xlink:href="#DejaVuSans-35" x="222.65625"/>
      </g>
     </g>
    </g>
    <g id="xtick_9">
     <g id="line2d_17">
      <path d="M 495.102222 318.04 
L 495.102222 42.72 
" clip-path="url(#pc651e4fb0e)" style="fill: none; stroke: #b0b0b0; stroke-width: 0.8; stroke-linecap: square"/>
     </g>
     <g id="line2d_18">
      <g>
       <use xlink:href="#m3fb45d5438" x="495.102222" y="318.04" style="stroke: #000000; stroke-width: 0.8"/>
      </g>
     </g>
     <g id="text_9">
      <!-- 0.040 -->
      <g transform="translate(480.78816 332.638438) scale(0.1 -0.1)">
       <defs>
        <path id="DejaVuSans-34" d="M 2419 4116 
L 825 1625 
L 2419 1625 
L 2419 4116 
z
M 2253 4666 
L 3047 4666 
L 3047 1625 
L 3713 1625 
L 3713 1100 
L 3047 1100 
L 3047 0 
L 2419 0 
L 2419 1100 
L 313 1100 
L 313 1709 
L 2253 4666 
z
" transform="scale(0.015625)"/>
       </defs>
       <use xlink:href="#DejaVuSans-30"/>
       <use xlink:href="#DejaVuSans-2e" x="63.623047"/>
       <use xlink:href="#DejaVuSans-30" x="95.410156"/>
       <use xlink:href="#DejaVuSans-34" x="159.033203"/>
       <use xlink:href="#DejaVuSans-30" x="222.65625"/>
      </g>
     </g>
    </g>
    <g id="xtick_10">
     <g id="line2d_19">
      <path d="M 551.025 318.04 
L 551.025 42.72 
" clip-path="url(#pc651e4fb0e)" style="fill: none; stroke: #b0b0b0; stroke-width: 0.8; stroke-linecap: square"/>
     </g>
     <g id="line2d_20">
      <g>
       <use xlink:href="#m3fb45d5438" x="551.025" y="318.04" style="stroke: #000000; stroke-width: 0.8"/>
      </g>
     </g>
     <g id="text_10">
      <!-- 0.045 -->
      <g transform="translate(536.710938 332.638438) scale(0.1 -0.1)">
       <use xlink:href="#DejaVuSans-30"/>
       <use xlink:href="#DejaVuSans-2e" x="63.623047"/>
       <use xlink:href="#DejaVuSans-30" x="95.410156"/>
       <use xlink:href="#DejaVuSans-34" x="159.033203"/>
       <use xlink:href="#DejaVuSans-35" x="222.65625"/>
      </g>
     </g>
    </g>
    <g id="text_11">
     <!-- Time / s -->
     <g transform="translate(279.671719 346.316563) scale(0.1 -0.1)">
      <defs>
       <path id="DejaVuSans-54" d="M -19 4666 
L 3928 4666 
L 3928 4134 
L 2272 4134 
L 2272 0 
L 1638 0 
L 1638 4134 
L -19 4134 
L -19 4666 
z
" transform="scale(0.015625)"/>
       <path id="DejaVuSans-69" d="M 603 3500 
L 1178 3500 
L 1178 0 
L 603 0 
L 603 3500 
z
M 603 4863 
L 1178 4863 
L 1178 4134 
L 603 4134 
L 603 4863 
z
" transform="scale(0.015625)"/>
       <path id="DejaVuSans-6d" d="M 3328 2828 
Q 3544 3216 3844 3400 
Q 4144 3584 4550 3584 
Q 5097 3584 5394 3201 
Q 5691 2819 5691 2113 
L 5691 0 
L 5113 0 
L 5113 2094 
Q 5113 2597 4934 2840 
Q 4756 3084 4391 3084 
Q 3944 3084 3684 2787 
Q 3425 2491 3425 1978 
L 3425 0 
L 2847 0 
L 2847 2094 
Q 2847 2600 2669 2842 
Q 2491 3084 2119 3084 
Q 1678 3084 1418 2786 
Q 1159 2488 1159 1978 
L 1159 0 
L 581 0 
L 581 3500 
L 1159 3500 
L 1159 2956 
Q 1356 3278 1631 3431 
Q 1906 3584 2284 3584 
Q 2666 3584 2933 3390 
Q 3200 3197 3328 2828 
z
" transform="scale(0.015625)"/>
       <path id="DejaVuSans-65" d="M 3597 1894 
L 3597 1613 
L 953 1613 
Q 991 1019 1311 708 
Q 1631 397 2203 397 
Q 2534 397 2845 478 
Q 3156 559 3463 722 
L 3463 178 
Q 3153 47 2828 -22 
Q 2503 -91 2169 -91 
Q 1331 -91 842 396 
Q 353 884 353 1716 
Q 353 2575 817 3079 
Q 1281 3584 2069 3584 
Q 2775 3584 3186 3129 
Q 3597 2675 3597 1894 
z
M 3022 2063 
Q 3016 2534 2758 2815 
Q 2500 3097 2075 3097 
Q 1594 3097 1305 2825 
Q 1016 2553 972 2059 
L 3022 2063 
z
" transform="scale(0.015625)"/>
       <path id="DejaVuSans-20" transform="scale(0.015625)"/>
       <path id="DejaVuSans-2f" d="M 1625 4666 
L 2156 4666 
L 531 -594 
L 0 -594 
L 1625 4666 
z
" transform="scale(0.015625)"/>
       <path id="DejaVuSans-73" d="M 2834 3397 
L 2834 2853 
Q 2591 2978 2328 3040 
Q 2066 3103 1784 3103 
Q 1356 3103 1142 2972 
Q 928 2841 928 2578 
Q 928 2378 1081 2264 
Q 1234 2150 1697 2047 
L 1894 2003 
Q 2506 1872 2764 1633 
Q 3022 1394 3022 966 
Q 3022 478 2636 193 
Q 2250 -91 1575 -91 
Q 1294 -91 989 -36 
Q 684 19 347 128 
L 347 722 
Q 666 556 975 473 
Q 1284 391 1588 391 
Q 1994 391 2212 530 
Q 2431 669 2431 922 
Q 2431 1156 2273 1281 
Q 2116 1406 1581 1522 
L 1381 1569 
Q 847 1681 609 1914 
Q 372 2147 372 2553 
Q 372 3047 722 3315 
Q 1072 3584 1716 3584 
Q 2034 3584 2315 3537 
Q 2597 3491 2834 3397 
z
" transform="scale(0.015625)"/>
      </defs>
      <use xlink:href="#DejaVuSans-54"/>
      <use xlink:href="#DejaVuSans-69" x="57.958984"/>
      <use xlink:href="#DejaVuSans-6d" x="85.742188"/>
      <use xlink:href="#DejaVuSans-65" x="183.154297"/>
      <use xlink:href="#DejaVuSans-20" x="244.677734"/>
      <use xlink:href="#DejaVuSans-2f" x="276.464844"/>
      <use xlink:href="#DejaVuSans-20" x="310.15625"/>
      <use xlink:href="#DejaVuSans-73" x="341.943359"/>
     </g>
    </g>
   </g>
   <g id="matplotlib.axis_2">
    <g id="ytick_1">
     <g id="line2d_21">
      <path d="M 47.72 318.04 
L 551.025 318.04 
" clip-path="url(#pc651e4fb0e)" style="fill: none; stroke: #b0b0b0; stroke-width: 0.8; stroke-linecap: square"/>
     </g>
     <g id="line2d_22">
      <defs>
       <path id="m6c2eb0208b" d="M 0 0 
L -3.5 0 
" style="stroke: #000000; stroke-width: 0.8"/>
      </defs>
      <g>
       <use xlink:href="#m6c2eb0208b" x="47.72" y="318.04" style="stroke: #000000; stroke-width: 0.8"/>
      </g>
     </g>
     <g id="text_12">
      <!-- 0.0 -->
      <g transform="translate(24.816875 321.839219) scale(0.1 -0.1)">
       <use xlink:href="#DejaVuSans-30"/>
       <use xlink:href="#DejaVuSans-2e" x="63.623047"/>
       <use xlink:href="#DejaVuSans-30" x="95.410156"/>
      </g>
     </g>
    </g>
    <g id="ytick_2">
     <g id="line2d_23">
      <path d="M 47.72 272.693963 
L 551.025 272.693963 
" clip-path="url(#pc651e4fb0e)" style="fill: none; stroke: #b0b0b0; stroke-width: 0.8; stroke-linecap: square"/>
     </g>
     <g id="line2d_24">
      <g>
       <use xlink:href="#m6c2eb0208b" x="47.72" y="272.693963" style="stroke: #000000; stroke-width: 0.8"/>
      </g>
     </g>
     <g id="text_13">
      <!-- 0.1 -->
      <g transform="translate(24.816875 276.493182) scale(0.1 -0.1)">
       <use xlink:href="#DejaVuSans-30"/>
       <use xlink:href="#DejaVuSans-2e" x="63.623047"/>
       <use xlink:href="#DejaVuSans-31" x="95.410156"/>
      </g>
     </g>
    </g>
    <g id="ytick_3">
     <g id="line2d_25">
      <path d="M 47.72 227.347926 
L 551.025 227.347926 
" clip-path="url(#pc651e4fb0e)" style="fill: none; stroke: #b0b0b0; stroke-width: 0.8; stroke-linecap: square"/>
     </g>
     <g id="line2d_26">
      <g>
       <use xlink:href="#m6c2eb0208b" x="47.72" y="227.347926" style="stroke: #000000; stroke-width: 0.8"/>
      </g>
     </g>
     <g id="text_14">
      <!-- 0.2 -->
      <g transform="translate(24.816875 231.147145) scale(0.1 -0.1)">
       <use xlink:href="#DejaVuSans-30"/>
       <use xlink:href="#DejaVuSans-2e" x="63.623047"/>
       <use xlink:href="#DejaVuSans-32" x="95.410156"/>
      </g>
     </g>
    </g>
    <g id="ytick_4">
     <g id="line2d_27">
      <path d="M 47.72 182.001889 
L 551.025 182.001889 
" clip-path="url(#pc651e4fb0e)" style="fill: none; stroke: #b0b0b0; stroke-width: 0.8; stroke-linecap: square"/>
     </g>
     <g id="line2d_28">
      <g>
       <use xlink:href="#m6c2eb0208b" x="47.72" y="182.001889" style="stroke: #000000; stroke-width: 0.8"/>
      </g>
     </g>
     <g id="text_15">
      <!-- 0.3 -->
      <g transform="translate(24.816875 185.801108) scale(0.1 -0.1)">
       <use xlink:href="#DejaVuSans-30"/>
       <use xlink:href="#DejaVuSans-2e" x="63.623047"/>
       <use xlink:href="#DejaVuSans-33" x="95.410156"/>
      </g>
     </g>
    </g>
    <g id="ytick_5">
     <g id="line2d_29">
      <path d="M 47.72 136.655853 
L 551.025 136.655853 
" clip-path="url(#pc651e4fb0e)" style="fill: none; stroke: #b0b0b0; stroke-width: 0.8; stroke-linecap: square"/>
     </g>
     <g id="line2d_30">
      <g>
       <use xlink:href="#m6c2eb0208b" x="47.72" y="136.655853" style="stroke: #000000; stroke-width: 0.8"/>
      </g>
     </g>
     <g id="text_16">
      <!-- 0.4 -->
      <g transform="translate(24.816875 140.455071) scale(0.1 -0.1)">
       <use xlink:href="#DejaVuSans-30"/>
       <use xlink:href="#DejaVuSans-2e" x="63.623047"/>
       <use xlink:href="#DejaVuSans-34" x="95.410156"/>
      </g>
     </g>
    </g>
    <g id="ytick_6">
     <g id="line2d_31">
      <path d="M 47.72 91.309816 
L 551.025 91.309816 
" clip-path="url(#pc651e4fb0e)" style="fill: none; stroke: #b0b0b0; stroke-width: 0.8; stroke-linecap: square"/>
     </g>
     <g id="line2d_32">
      <g>
       <use xlink:href="#m6c2eb0208b" x="47.72" y="91.309816" style="stroke: #000000; stroke-width: 0.8"/>
      </g>
     </g>
     <g id="text_17">
      <!-- 0.5 -->
      <g transform="translate(24.816875 95.109035) scale(0.1 -0.1)">
       <use xlink:href="#DejaVuSans-30"/>
       <use xlink:href="#DejaVuSans-2e" x="63.623047"/>
       <use xlink:href="#DejaVuSans-35" x="95.410156"/>
      </g>
     </g>
    </g>
    <g id="ytick_7">
     <g id="line2d_33">
      <path d="M 47.72 45.963779 
L 551.025 45.963779 
" clip-path="url(#pc651e4fb0e)" style="fill: none; stroke: #b0b0b0; stroke-width: 0.8; stroke-linecap: square"/>
     </g>
     <g id="line2d_34">
      <g>
       <use xlink:href="#m6c2eb0208b" x="47.72" y="45.963779" style="stroke: #000000; stroke-width: 0.8"/>
      </g>
     </g>
     <g id="text_18">
      <!-- 0.6 -->
      <g transform="translate(24.816875 49.762998) scale(0.1 -0.1)">
       <defs>
        <path id="DejaVuSans-36" d="M 2113 2584 
Q 1688 2584 1439 2293 
Q 1191 2003 1191 1497 
Q 1191 994 1439 701 
Q 1688 409 2113 409 
Q 2538 409 2786 701 
Q 3034 994 3034 1497 
Q 3034 2003 2786 2293 
Q 2538 2584 2113 2584 
z
M 3366 4563 
L 3366 3988 
Q 3128 4100 2886 4159 
Q 2644 4219 2406 4219 
Q 1781 4219 1451 3797 
Q 1122 3375 1075 2522 
Q 1259 2794 1537 2939 
Q 1816 3084 2150 3084 
Q 2853 3084 3261 2657 
Q 3669 2231 3669 1497 
Q 3669 778 3244 343 
Q 2819 -91 2113 -91 
Q 1303 -91 875 529 
Q 447 1150 447 2328 
Q 447 3434 972 4092 
Q 1497 4750 2381 4750 
Q 2619 4750 2861 4703 
Q 3103 4656 3366 4563 
z
" transform="scale(0.015625)"/>
       </defs>
       <use xlink:href="#DejaVuSans-30"/>
       <use xlink:href="#DejaVuSans-2e" x="63.623047"/>
       <use xlink:href="#DejaVuSans-36" x="95.410156"/>
      </g>
     </g>
    </g>
    <g id="text_19">
     <!-- Distance / m -->
     <g transform="translate(18.737187 211.975313) rotate(-90) scale(0.1 -0.1)">
      <defs>
       <path id="DejaVuSans-44" d="M 1259 4147 
L 1259 519 
L 2022 519 
Q 2988 519 3436 956 
Q 3884 1394 3884 2338 
Q 3884 3275 3436 3711 
Q 2988 4147 2022 4147 
L 1259 4147 
z
M 628 4666 
L 1925 4666 
Q 3281 4666 3915 4102 
Q 4550 3538 4550 2338 
Q 4550 1131 3912 565 
Q 3275 0 1925 0 
L 628 0 
L 628 4666 
z
" transform="scale(0.015625)"/>
       <path id="DejaVuSans-74" d="M 1172 4494 
L 1172 3500 
L 2356 3500 
L 2356 3053 
L 1172 3053 
L 1172 1153 
Q 1172 725 1289 603 
Q 1406 481 1766 481 
L 2356 481 
L 2356 0 
L 1766 0 
Q 1100 0 847 248 
Q 594 497 594 1153 
L 594 3053 
L 172 3053 
L 172 3500 
L 594 3500 
L 594 4494 
L 1172 4494 
z
" transform="scale(0.015625)"/>
       <path id="DejaVuSans-61" d="M 2194 1759 
Q 1497 1759 1228 1600 
Q 959 1441 959 1056 
Q 959 750 1161 570 
Q 1363 391 1709 391 
Q 2188 391 2477 730 
Q 2766 1069 2766 1631 
L 2766 1759 
L 2194 1759 
z
M 3341 1997 
L 3341 0 
L 2766 0 
L 2766 531 
Q 2569 213 2275 61 
Q 1981 -91 1556 -91 
Q 1019 -91 701 211 
Q 384 513 384 1019 
Q 384 1609 779 1909 
Q 1175 2209 1959 2209 
L 2766 2209 
L 2766 2266 
Q 2766 2663 2505 2880 
Q 2244 3097 1772 3097 
Q 1472 3097 1187 3025 
Q 903 2953 641 2809 
L 641 3341 
Q 956 3463 1253 3523 
Q 1550 3584 1831 3584 
Q 2591 3584 2966 3190 
Q 3341 2797 3341 1997 
z
" transform="scale(0.015625)"/>
       <path id="DejaVuSans-6e" d="M 3513 2113 
L 3513 0 
L 2938 0 
L 2938 2094 
Q 2938 2591 2744 2837 
Q 2550 3084 2163 3084 
Q 1697 3084 1428 2787 
Q 1159 2491 1159 1978 
L 1159 0 
L 581 0 
L 581 3500 
L 1159 3500 
L 1159 2956 
Q 1366 3272 1645 3428 
Q 1925 3584 2291 3584 
Q 2894 3584 3203 3211 
Q 3513 2838 3513 2113 
z
" transform="scale(0.015625)"/>
       <path id="DejaVuSans-63" d="M 3122 3366 
L 3122 2828 
Q 2878 2963 2633 3030 
Q 2388 3097 2138 3097 
Q 1578 3097 1268 2742 
Q 959 2388 959 1747 
Q 959 1106 1268 751 
Q 1578 397 2138 397 
Q 2388 397 2633 464 
Q 2878 531 3122 666 
L 3122 134 
Q 2881 22 2623 -34 
Q 2366 -91 2075 -91 
Q 1284 -91 818 406 
Q 353 903 353 1747 
Q 353 2603 823 3093 
Q 1294 3584 2113 3584 
Q 2378 3584 2631 3529 
Q 2884 3475 3122 3366 
z
" transform="scale(0.015625)"/>
      </defs>
      <use xlink:href="#DejaVuSans-44"/>
      <use xlink:href="#DejaVuSans-69" x="77.001953"/>
      <use xlink:href="#DejaVuSans-73" x="104.785156"/>
      <use xlink:href="#DejaVuSans-74" x="156.884766"/>
      <use xlink:href="#DejaVuSans-61" x="196.09375"/>
      <use xlink:href="#DejaVuSans-6e" x="257.373047"/>
      <use xlink:href="#DejaVuSans-63" x="320.751953"/>
      <use xlink:href="#DejaVuSans-65" x="375.732422"/>
      <use xlink:href="#DejaVuSans-20" x="437.255859"/>
      <use xlink:href="#DejaVuSans-2f" x="469.042969"/>
      <use xlink:href="#DejaVuSans-20" x="502.734375"/>
      <use xlink:href="#DejaVuSans-6d" x="534.521484"/>
     </g>
    </g>
   </g>
   <g id="line2d_35">
    <path d="M 47.72 318.04 
L 51.246662 315.234303 
L 54.773323 314.310466 
L 65.857117 307.717878 
L 68.87997 306.594428 
L 75.933293 302.285122 
L 79.459955 300.974611 
L 83.490425 298.670559 
L 86.513278 296.718894 
L 89.536131 295.681517 
L 91.047558 294.650455 
L 93.566602 292.970669 
L 97.597072 291.148276 
L 101.123734 289.189155 
L 103.642778 287.60894 
L 107.169439 286.340084 
L 111.19991 283.618072 
L 114.726572 281.858178 
L 117.749424 280.73663 
L 121.276086 278.323878 
L 124.802748 277.019783 
L 129.840836 274.121542 
L 139.413203 268.970202 
L 144.9551 265.602891 
L 145.962718 265.067991 
L 148.985571 263.948179 
L 151.504615 262.25064 
L 152.512232 261.559712 
L 157.046512 259.622484 
L 160.069364 257.853483 
L 164.099835 255.981262 
L 182.236952 246.306177 
L 184.755996 244.884123 
L 188.786466 242.993193 
L 202.893113 235.424842 
L 205.412157 233.948819 
L 212.46548 230.789204 
L 216.495951 228.360028 
L 220.526421 226.342045 
L 223.045465 225.103001 
L 226.572127 223.041004 
L 230.602598 221.160635 
L 248.235906 211.940494 
L 251.258759 210.442843 
L 255.793038 207.830943 
L 258.312082 206.552617 
L 261.334935 205.150812 
L 265.869214 202.536388 
L 279.975861 195.198888 
L 282.494905 193.962831 
L 286.021567 191.947894 
L 289.044419 190.569958 
L 292.571081 188.165471 
L 296.097743 186.806139 
L 300.128213 184.508982 
L 303.654875 182.869856 
L 312.723433 177.846678 
L 313.731051 177.330712 
L 317.257713 176.040694 
L 324.814845 172.053262 
L 327.837698 170.672875 
L 334.891021 166.482473 
L 337.913874 165.379553 
L 342.448153 162.693802 
L 345.974815 160.931142 
L 349.501476 159.251009 
L 352.524329 157.497534 
L 355.547182 155.448317 
L 366.630976 150.460781 
L 370.661446 148.143498 
L 374.188108 146.382216 
L 377.71477 144.668133 
L 380.737623 143.155349 
L 383.760475 141.738727 
L 390.813799 137.590063 
L 393.836652 136.446723 
L 401.393784 132.027076 
L 405.424254 130.486513 
L 407.943298 129.334195 
L 412.981386 126.36792 
L 418.019474 123.72982 
L 420.538519 122.801325 
L 422.049945 122.202697 
L 430.110886 117.824378 
L 433.637548 115.783977 
L 437.164209 114.027077 
L 439.683253 112.804544 
L 443.209915 110.812822 
L 446.736577 109.422998 
L 450.767047 107.257835 
L 453.7899 105.544491 
L 459.835606 102.778568 
L 461.850841 101.611114 
L 464.369885 100.204521 
L 468.904164 98.032779 
L 472.430826 96.323107 
L 475.957487 94.608095 
L 484.018428 90.581461 
L 487.041281 89.30493 
L 490.064134 88.165349 
L 491.575561 87.626037 
L 496.10984 84.623829 
L 499.132693 83.075796 
L 502.155546 81.938106 
L 506.186016 79.575691 
L 510.216486 77.737049 
L 514.246957 75.489587 
L 516.262192 74.376032 
L 519.285045 74.073907 
L 519.788854 73.891435 
L 523.819324 71.202142 
L 530.368839 67.77852 
L 533.391692 67.002104 
L 534.399309 66.39131 
L 536.918353 64.701368 
L 538.42978 64.241226 
L 540.445015 63.694833 
L 541.956441 62.556814 
L 543.971677 60.974723 
L 547.498338 59.343602 
L 551.025 59.079489 
L 551.025 59.079489 
" clip-path="url(#pc651e4fb0e)" style="fill: none; stroke: #808080; stroke-opacity: 0.3; stroke-linecap: square"/>
   </g>
   <g id="line2d_36">
    <path d="M 47.72 318.04 
L 52.758088 315.262182 
L 59.811411 311.106747 
L 62.834264 309.635347 
L 69.383779 306.717093 
L 73.414249 304.50908 
L 75.933293 303.011072 
L 82.482808 300.127025 
L 83.994234 299.116869 
L 86.513278 297.479349 
L 89.536131 296.458772 
L 91.047558 295.45694 
L 93.566602 293.816202 
L 97.093263 292.189246 
L 100.619925 290.112667 
L 104.650395 288.281882 
L 108.177057 286.353395 
L 111.19991 284.598957 
L 114.726572 282.943831 
L 117.749424 281.124143 
L 121.779895 279.615404 
L 125.810365 277.617983 
L 128.833218 276.168054 
L 132.863689 273.826983 
L 136.39035 272.081756 
L 139.917012 270.415018 
L 143.443674 268.451072 
L 145.962718 266.988767 
L 150.496997 264.881272 
L 153.016041 263.494674 
L 156.542703 261.149816 
L 160.069364 259.513927 
L 163.596026 257.46785 
L 167.626496 255.60929 
L 171.153158 253.675724 
L 174.176011 251.936049 
L 180.725526 249.052217 
L 184.252187 246.617663 
L 188.786466 244.548601 
L 195.83979 240.992888 
L 198.358834 239.824286 
L 201.885495 237.727239 
L 206.419775 235.619676 
L 209.946436 233.903855 
L 212.46548 232.716862 
L 215.992142 230.665515 
L 222.541657 227.765895 
L 226.068318 225.358705 
L 229.59498 224.068194 
L 233.121642 221.680897 
L 236.648303 220.341718 
L 240.174965 217.97935 
L 243.701627 216.672738 
L 247.228288 214.329153 
L 250.75495 213.002214 
L 254.281612 210.922083 
L 259.3197 208.545408 
L 261.838744 207.172607 
L 264.861597 205.415581 
L 271.411111 202.532361 
L 275.441582 199.878958 
L 282.494905 196.674957 
L 286.021567 194.644433 
L 290.052037 192.77846 
L 296.601552 189.472361 
L 299.624404 188.317557 
L 303.151066 185.947337 
L 307.181537 184.018084 
L 310.204389 182.267715 
L 314.738669 180.162588 
L 325.318654 174.789965 
L 327.837698 173.593958 
L 330.860551 171.748598 
L 334.387212 170.484953 
L 337.913874 168.37429 
L 341.440536 167.082922 
L 344.967197 164.657481 
L 349.501476 162.584363 
L 356.050991 159.227706 
L 359.073844 157.849997 
L 363.608123 155.220126 
L 371.165255 151.42018 
L 377.71477 148.434283 
L 380.737623 146.790362 
L 383.760475 145.023934 
L 387.790946 143.151067 
L 391.317608 141.383202 
L 397.363313 138.728785 
L 401.393784 136.050168 
L 405.424254 134.030501 
L 408.950916 132.381345 
L 419.530901 126.986122 
L 423.057563 125.30982 
L 426.584224 123.589091 
L 429.103268 122.412417 
L 432.62993 120.388948 
L 437.164209 118.668403 
L 439.683253 117.492371 
L 444.217533 114.869229 
L 447.240385 113.369505 
L 454.797518 109.926652 
L 462.35465 106.166345 
L 464.369885 105.159606 
L 467.896547 103.149902 
L 475.453679 99.718679 
L 482.507002 96.168576 
L 486.033664 94.504636 
L 496.613649 89.118934 
L 499.636502 87.713998 
L 503.666972 85.714417 
L 507.193634 84.02024 
L 510.216486 82.354264 
L 512.735531 80.868066 
L 516.766001 79.306155 
L 524.826942 75.285697 
L 533.895501 71.238328 
L 537.422162 69.221267 
L 540.948824 67.880824 
L 545.483103 65.642392 
L 551.025 63.201979 
L 551.025 63.201979 
" clip-path="url(#pc651e4fb0e)" style="fill: none; stroke: #808080; stroke-opacity: 0.3; stroke-linecap: square"/>
   </g>
   <g id="line2d_37">
    <path d="M 47.72 318.04 
L 51.75047 316.046205 
L 54.773323 315.002725 
L 58.299985 312.048599 
L 61.826647 311.084956 
L 65.353308 308.704791 
L 68.87997 307.153006 
L 72.91044 304.50202 
L 76.437102 302.726924 
L 82.986617 299.854803 
L 86.513278 297.435882 
L 90.543749 295.301445 
L 93.566602 293.551087 
L 97.093263 291.97572 
L 100.619925 289.928557 
L 104.650395 288.095434 
L 107.673248 286.437173 
L 110.696101 284.373555 
L 117.749424 281.306037 
L 121.276086 278.690276 
L 124.802748 277.662875 
L 129.337027 275.043131 
L 132.863689 273.355862 
L 135.382733 272.234012 
L 139.917012 269.578603 
L 150.496997 263.970256 
L 153.016041 262.524683 
L 156.542703 260.913651 
L 160.573173 258.577247 
L 167.122688 255.157838 
L 171.153158 252.830375 
L 177.198864 249.670378 
L 182.236952 246.791173 
L 193.824555 240.560276 
L 194.832172 240.008859 
L 198.358834 238.423802 
L 201.885495 236.096738 
L 205.412157 234.52931 
L 208.938819 232.475728 
L 212.969289 230.63303 
L 216.495951 228.883114 
L 219.518804 227.527577 
L 223.549274 225.154421 
L 227.075936 223.429793 
L 233.121642 220.805786 
L 237.152112 218.526231 
L 240.174965 217.174321 
L 244.709244 214.509173 
L 251.762568 210.751764 
L 254.281612 209.313759 
L 257.808273 207.71854 
L 264.861597 203.57356 
L 268.388258 202.225911 
L 271.91492 200.215773 
L 274.937773 198.895255 
L 278.968243 196.229635 
L 284.006331 193.834654 
L 286.021567 192.84507 
L 289.548228 190.859408 
L 293.07489 189.21104 
L 297.10536 186.895687 
L 300.632022 184.983499 
L 304.158684 182.964488 
L 307.685345 181.246801 
L 311.212007 179.615524 
L 323.807227 173.140901 
L 327.837698 170.49509 
L 332.371977 168.364032 
L 348.997668 159.834183 
L 353.028138 157.993499 
L 356.5548 156.081535 
L 360.081461 154.076279 
L 377.210961 145.250028 
L 387.790946 139.672847 
L 390.813799 137.944478 
L 394.844269 136.101234 
L 402.401401 132.076621 
L 404.416637 130.908379 
L 407.943298 129.62221 
L 412.477578 127.027587 
L 416.004239 125.307155 
L 419.530901 123.678231 
L 422.049945 122.332197 
L 425.576607 119.999276 
L 429.103268 118.671466 
L 433.133739 116.444963 
L 437.668018 114.274883 
L 447.240385 109.309212 
L 450.767047 107.274173 
L 454.797518 105.304056 
L 458.324179 103.629595 
L 469.407973 98.090453 
L 474.446061 95.82635 
L 477.972723 93.517996 
L 481.499384 91.892665 
L 485.026046 89.867453 
L 489.056517 88.037454 
L 498.628884 83.113985 
L 502.659354 81.621477 
L 507.697442 79.22663 
L 511.224104 77.545302 
L 520.796471 72.853341 
L 523.315516 71.906426 
L 527.849795 69.24445 
L 530.872648 67.754195 
L 534.903118 65.932987 
L 550.521191 58.106105 
L 551.025 57.887373 
L 551.025 57.887373 
" clip-path="url(#pc651e4fb0e)" style="fill: none; stroke: #808080; stroke-opacity: 0.3; stroke-linecap: square"/>
   </g>
   <g id="line2d_38">
    <path d="M 47.72 318.04 
L 51.75047 315.683609 
L 55.780941 313.841141 
L 62.834264 310.263854 
L 66.360926 308.62864 
L 76.940911 303.214204 
L 80.467573 301.787613 
L 82.986617 300.80155 
L 89.536131 296.227435 
L 91.047558 295.65149 
L 93.062793 294.940645 
L 95.581837 293.211896 
L 96.589454 292.507302 
L 99.612307 291.416988 
L 100.116116 291.238899 
L 104.146587 288.245458 
L 108.680866 286.013923 
L 114.222763 283.552682 
L 118.757042 280.512751 
L 121.779895 278.791495 
L 125.810365 276.932181 
L 129.337027 275.214296 
L 132.863689 273.782179 
L 135.382733 272.809905 
L 141.932247 268.252961 
L 143.443674 267.656824 
L 145.962718 266.654957 
L 149.993188 264.270515 
L 154.023659 262.293232 
L 157.046512 260.879101 
L 163.596026 257.532769 
L 167.626496 255.680978 
L 171.656967 253.41528 
L 178.71029 249.25071 
L 181.733143 247.771836 
L 184.252187 246.644288 
L 188.786466 243.998302 
L 195.335981 240.647325 
L 199.366451 238.767355 
L 202.893113 236.81685 
L 208.938819 233.248494 
L 213.473098 231.106464 
L 216.495951 229.610042 
L 222.541657 226.953744 
L 226.068318 224.56027 
L 229.59498 222.96731 
L 233.121642 220.273795 
L 244.709244 215.079214 
L 254.78542 209.749859 
L 257.808273 207.984248 
L 261.334935 206.387388 
L 265.869214 203.745773 
L 268.892067 202.218375 
L 271.411111 201.092192 
L 274.937773 198.667781 
L 278.464434 197.99989 
L 282.494905 195.334704 
L 286.525375 193.311577 
L 289.044419 192.151426 
L 292.571081 189.509547 
L 296.097743 188.227493 
L 311.715816 180.230553 
L 313.731051 179.293292 
L 317.257713 177.222134 
L 320.784374 175.579548 
L 325.318654 172.961963 
L 337.410065 166.634434 
L 339.4253 165.71281 
L 342.448153 164.293531 
L 345.471006 162.838759 
L 348.493859 161.725842 
L 352.020521 159.33593 
L 355.547182 158.026532 
L 359.577653 155.710413 
L 362.600506 154.308986 
L 366.127167 152.233449 
L 370.661446 150.152264 
L 383.760475 143.24013 
L 386.783328 141.155583 
L 397.867122 136.181635 
L 402.401401 133.588484 
L 405.424254 132.101253 
L 408.950916 130.452942 
L 412.477578 128.712994 
L 416.004239 127.03405 
L 418.523283 125.764876 
L 422.049945 124.457242 
L 427.088033 121.565164 
L 438.675636 115.505535 
L 440.187062 114.804518 
L 443.713724 113.181599 
L 456.812753 106.375511 
L 460.843223 104.464139 
L 463.866076 102.68917 
L 467.392738 101.357848 
L 470.919399 98.988586 
L 477.972723 95.801453 
L 481.499384 93.511579 
L 485.026046 92.194895 
L 488.552708 90.414967 
L 491.575561 89.346835 
L 496.10984 86.783436 
L 499.132693 85.379402 
L 502.155546 83.542739 
L 509.712678 80.768376 
L 513.743148 78.768757 
L 517.26981 77.113819 
L 523.315516 74.00276 
L 526.842177 72.706945 
L 530.368839 70.62948 
L 533.391692 69.583625 
L 534.399309 68.854628 
L 536.918353 66.856034 
L 537.925971 66.610192 
L 540.445015 66.193301 
L 541.956441 65.309195 
L 547.498338 61.912448 
L 551.025 61.262194 
L 551.025 61.262194 
" clip-path="url(#pc651e4fb0e)" style="fill: none; stroke: #808080; stroke-opacity: 0.3; stroke-linecap: square"/>
   </g>
   <g id="line2d_39">
    <path d="M 47.72 318.04 
L 51.246662 316.81011 
L 55.780941 314.151259 
L 62.834264 310.379702 
L 65.857117 308.648962 
L 69.383779 306.987962 
L 73.414249 304.657495 
L 79.963764 301.148839 
L 82.986617 299.375167 
L 87.520896 297.267934 
L 91.047558 295.295154 
L 93.566602 293.827974 
L 97.093263 292.23199 
L 100.619925 290.180651 
L 105.154204 288.071201 
L 119.260851 280.883391 
L 121.779895 279.681922 
L 125.810365 277.341151 
L 129.337027 275.384228 
L 132.863689 273.346073 
L 135.886542 271.904897 
L 138.909394 270.742583 
L 147.474144 265.729939 
L 150.496997 264.266157 
L 153.016041 263.072892 
L 156.542703 261.061682 
L 159.565556 259.995704 
L 163.596026 257.34413 
L 171.153158 253.858995 
L 174.176011 252.105505 
L 177.198864 250.760005 
L 180.725526 248.365616 
L 184.252187 247.07285 
L 187.778849 244.725878 
L 191.305511 243.433236 
L 194.832172 241.333563 
L 198.358834 239.719863 
L 201.885495 237.35986 
L 205.915966 235.535406 
L 212.969289 231.929879 
L 216.495951 230.346983 
L 220.022613 228.433589 
L 223.045465 226.66223 
L 226.572127 224.998459 
L 230.098789 222.993855 
L 236.648303 220.072302 
L 240.174965 217.691599 
L 244.205435 215.778899 
L 247.228288 214.069552 
L 250.251141 213.264648 
L 251.258759 212.655109 
L 254.78542 210.380497 
L 261.838744 206.76263 
L 265.365405 205.152497 
L 269.395876 202.919254 
L 271.91492 201.480809 
L 278.968243 198.334544 
L 282.494905 196.265149 
L 289.548228 193.139148 
L 293.578699 190.940268 
L 297.10536 188.890059 
L 303.151066 185.766143 
L 306.677728 184.440334 
L 310.204389 182.063071 
L 317.761522 178.217937 
L 320.784374 176.799892 
L 324.311036 174.747711 
L 327.837698 173.116872 
L 331.364359 171.075088 
L 334.891021 169.433851 
L 337.913874 167.6317 
L 341.440536 166.356735 
L 344.967197 164.264938 
L 348.493859 162.95041 
L 352.524329 160.654988 
L 356.050991 158.961758 
L 360.081461 156.638969 
L 367.134785 153.078222 
L 370.661446 151.437168 
L 374.188108 149.733509 
L 376.707152 148.564016 
L 380.233814 146.47021 
L 383.760475 144.858055 
L 387.287137 142.798069 
L 390.813799 141.17457 
L 393.836652 139.350721 
L 397.363313 138.075429 
L 401.897593 135.437474 
L 409.454725 131.648506 
L 412.477578 130.23567 
L 419.530901 126.459932 
L 422.049945 125.039371 
L 425.072798 124.234516 
L 426.584224 123.24457 
L 429.103268 121.608583 
L 433.637548 119.504501 
L 440.690871 115.960699 
L 446.736577 113.199107 
L 450.263238 111.167936 
L 453.7899 109.51136 
L 457.316562 107.478901 
L 463.866076 104.584184 
L 467.896547 102.274814 
L 475.453679 98.870059 
L 478.476532 97.362192 
L 481.499384 95.957592 
L 484.522237 93.848357 
L 486.537472 93.1196 
L 488.552708 92.348083 
L 492.583178 90.177395 
L 495.606031 88.474489 
L 498.628884 87.378116 
L 502.659354 85.037577 
L 509.208869 82.15756 
L 512.735531 79.790109 
L 516.262192 78.786978 
L 520.796471 76.145253 
L 524.323133 74.401714 
L 527.849795 72.965033 
L 530.368839 71.970286 
L 533.895501 69.620719 
L 537.925971 67.909987 
L 540.948824 66.757907 
L 543.971677 64.909272 
L 545.986912 64.732249 
L 547.498338 64.625017 
L 551.025 61.855808 
L 551.025 61.855808 
" clip-path="url(#pc651e4fb0e)" style="fill: none; stroke: #808080; stroke-opacity: 0.3; stroke-linecap: square"/>
   </g>
   <g id="line2d_40">
    <path d="M 47.72 318.04 
L 59.307603 311.861348 
L 61.826647 310.348124 
L 65.857117 308.823513 
L 69.887588 306.814174 
L 73.414249 305.379936 
L 76.940911 304.036445 
L 80.467573 302.378699 
L 82.986617 300.996896 
L 86.513278 298.652017 
L 90.03994 297.319803 
L 93.566602 295.267911 
L 97.093263 293.949 
L 101.123734 291.752526 
L 104.146587 290.040007 
L 107.673248 288.706177 
L 111.19991 286.953935 
L 114.222763 285.8639 
L 117.749424 283.74837 
L 121.779895 282.216153 
L 125.810365 280.004764 
L 128.833218 278.27973 
L 132.863689 276.621641 
L 135.382733 275.691864 
L 143.443674 271.585799 
L 150.496997 268.374318 
L 154.023659 266.647627 
L 157.046512 265.236201 
L 160.069364 263.737422 
L 163.092217 262.664182 
L 167.626496 259.9834 
L 170.649349 258.502592 
L 174.176011 257.157616 
L 178.206481 255.137586 
L 181.229334 253.695421 
L 184.755996 251.662077 
L 188.786466 250.002495 
L 191.305511 249.073117 
L 199.366451 244.974416 
L 202.893113 243.300986 
L 206.419775 241.575272 
L 209.442628 240.173942 
L 212.46548 238.67637 
L 215.488333 237.611764 
L 219.014995 235.462031 
L 222.541657 234.212502 
L 226.572127 231.85735 
L 234.129259 228.436619 
L 244.709244 222.991565 
L 257.808273 217.196077 
L 261.334935 215.138041 
L 264.861597 213.835072 
L 268.892067 211.798329 
L 275.441582 208.840729 
L 278.464434 207.004881 
L 281.991096 206.038827 
L 285.517758 203.605402 
L 290.052037 201.51218 
L 293.578699 199.770639 
L 297.10536 198.339721 
L 299.624404 197.387274 
L 303.151066 195.28707 
L 307.685345 193.184525 
L 310.204389 191.927791 
L 313.731051 190.612435 
L 318.26533 188.363094 
L 320.784374 187.179302 
L 324.311036 185.145333 
L 327.837698 183.824197 
L 331.868168 181.79825 
L 334.891021 180.372661 
L 337.913874 178.555785 
L 342.448153 176.861918 
L 345.471006 175.426972 
L 348.493859 173.634025 
L 352.020521 172.353536 
L 356.5548 170.085529 
L 366.630976 165.597719 
L 374.188108 161.758127 
L 377.210961 160.354382 
L 380.737623 158.59005 
L 384.264284 157.133987 
L 387.287137 155.978112 
L 395.348078 151.889897 
L 398.370931 150.465444 
L 401.393784 149.006688 
L 404.920445 147.646836 
L 412.477578 143.797199 
L 418.523283 141.084761 
L 422.049945 139.017662 
L 426.080415 137.531318 
L 436.6604 132.812404 
L 440.187062 130.874687 
L 442.706106 129.341481 
L 447.240385 127.655895 
L 450.767047 126.021835 
L 453.7899 124.540037 
L 456.812753 123.428063 
L 460.339414 121.061467 
L 463.866076 120.356723 
L 467.392738 118.234181 
L 481.499384 111.993161 
L 485.026046 109.905677 
L 489.560325 107.792783 
L 492.079369 106.559773 
L 495.606031 105.238565 
L 499.132693 103.48102 
L 502.659354 102.140906 
L 506.689825 100.12033 
L 513.743148 97.1329 
L 516.262192 96.219107 
L 520.796471 93.736951 
L 523.315516 92.289039 
L 526.842177 91.281256 
L 531.376456 89.015115 
L 537.925971 86.22373 
L 540.948824 85.095243 
L 544.979294 83.063954 
L 551.025 80.421602 
L 551.025 80.421602 
" clip-path="url(#pc651e4fb0e)" style="fill: none; stroke: #808080; stroke-opacity: 0.3; stroke-linecap: square"/>
   </g>
   <g id="line2d_41">
    <path d="M 47.72 318.04 
L 51.246662 316.456431 
L 54.773323 313.637598 
L 59.307603 311.589199 
L 66.360926 307.812252 
L 69.383779 306.084685 
L 72.406632 304.687767 
L 75.933293 302.270753 
L 83.490425 298.874794 
L 87.520896 296.617764 
L 91.047558 294.559175 
L 94.574219 292.809369 
L 97.093263 291.613593 
L 101.627543 288.939569 
L 112.711336 282.96127 
L 115.734189 281.246439 
L 122.283704 277.881489 
L 124.802748 276.735447 
L 128.833218 274.020863 
L 132.863689 272.002231 
L 135.886542 270.612482 
L 143.443674 266.514941 
L 149.489379 262.886656 
L 153.016041 261.512388 
L 156.542703 259.419838 
L 160.573173 257.571177 
L 171.656967 251.561454 
L 174.176011 250.138509 
L 178.206481 248.274551 
L 180.725526 246.900573 
L 184.252187 244.426628 
L 187.778849 243.099976 
L 191.305511 240.972391 
L 194.832172 239.386728 
L 199.366451 236.747545 
L 209.442628 231.378401 
L 212.46548 229.612385 
L 215.992142 227.929525 
L 219.518804 225.84842 
L 223.045465 224.212404 
L 226.572127 222.148566 
L 229.59498 220.839661 
L 234.129259 218.139329 
L 237.655921 216.162767 
L 240.174965 214.665814 
L 243.701627 213.349813 
L 247.228288 210.938098 
L 254.78542 207.467654 
L 258.312082 205.373533 
L 273.930155 197.324198 
L 275.441582 196.565043 
L 278.968243 194.512837 
L 282.998714 192.637661 
L 293.07489 187.289712 
L 297.609169 184.648599 
L 300.632022 183.136401 
L 303.151066 181.971132 
L 306.677728 179.907778 
L 310.204389 178.621402 
L 314.23486 176.434309 
L 317.257713 174.64163 
L 321.288183 172.798759 
L 328.341507 168.96647 
L 334.891021 165.018237 
L 338.921491 163.13266 
L 345.974815 159.499706 
L 352.524329 156.564208 
L 356.050991 154.671384 
L 362.600506 150.686547 
L 367.134785 148.568219 
L 370.661446 146.836362 
L 373.684299 145.414717 
L 381.74524 141.013897 
L 383.760475 139.870514 
L 387.790946 137.990657 
L 391.317608 136.221311 
L 394.34046 134.803448 
L 398.87474 132.171269 
L 408.950916 126.939865 
L 411.973769 125.55324 
L 416.004239 123.301124 
L 418.523283 121.8268 
L 422.049945 120.51042 
L 426.080415 118.315127 
L 429.103268 116.493732 
L 433.637548 114.381739 
L 441.698488 110.359518 
L 443.713724 109.374313 
L 449.759429 106.213781 
L 453.286091 104.899497 
L 456.812753 102.175783 
L 460.339414 100.870427 
L 464.369885 98.568732 
L 471.423208 95.325464 
L 474.446061 93.517196 
L 478.476532 92.042072 
L 481.499384 90.659094 
L 485.529855 88.256734 
L 488.552708 86.752678 
L 491.575561 85.673236 
L 495.102222 83.198603 
L 498.628884 82.268027 
L 506.186016 77.787252 
L 509.208869 76.674989 
L 513.239339 74.305844 
L 517.773619 72.450832 
L 519.788854 71.660834 
L 523.315516 69.604588 
L 526.842177 68.192981 
L 530.368839 65.932611 
L 533.895501 64.872412 
L 537.422162 63.00831 
L 540.445015 60.5309 
L 541.452633 60.286091 
L 544.475485 59.655325 
L 547.498338 58.575624 
L 551.025 55.830476 
L 551.025 55.830476 
" clip-path="url(#pc651e4fb0e)" style="fill: none; stroke: #808080; stroke-opacity: 0.3; stroke-linecap: square"/>
   </g>
   <g id="line2d_42">
    <path d="M 47.72 318.04 
L 51.75047 316.196823 
L 55.780941 313.832599 
L 59.307603 312.095918 
L 66.360926 308.922682 
L 69.887588 306.990466 
L 73.414249 304.961318 
L 98.100881 291.947952 
L 101.627543 289.930445 
L 118.253233 281.31431 
L 121.779895 279.657668 
L 125.306557 277.636259 
L 128.329409 276.272846 
L 132.863689 273.615325 
L 136.39035 271.887863 
L 139.917012 270.234096 
L 142.436056 268.865988 
L 145.962718 266.554519 
L 149.489379 265.260007 
L 153.51985 263.230783 
L 156.038894 262.140436 
L 160.069364 259.484982 
L 164.099835 257.633637 
L 167.626496 255.708951 
L 170.649349 253.977119 
L 174.67982 252.118218 
L 189.290275 244.641532 
L 192.313128 243.209 
L 195.335981 241.576184 
L 199.366451 239.227996 
L 201.885495 237.97263 
L 204.908348 236.926024 
L 206.923584 235.551936 
L 208.43501 234.496424 
L 210.954054 233.814702 
L 211.961672 233.553065 
L 216.495951 231.004925 
L 220.022613 229.374459 
L 227.075936 225.587476 
L 234.129259 221.48926 
L 240.678774 218.522724 
L 244.205435 216.512192 
L 247.228288 215.114364 
L 250.75495 212.75393 
L 255.289229 210.908478 
L 257.304464 210.210612 
L 258.815891 209.071587 
L 260.831126 207.478265 
L 262.846361 206.572305 
L 268.388258 204.091982 
L 271.91492 202.039249 
L 279.975861 198.396734 
L 286.525375 194.876698 
L 290.052037 192.833808 
L 293.578699 191.085231 
L 297.10536 189.446212 
L 310.708198 182.501155 
L 313.731051 181.356354 
L 320.784374 177.174089 
L 323.807227 176.109744 
L 328.341507 173.544818 
L 331.868168 171.922436 
L 338.921491 168.319682 
L 341.944344 166.902475 
L 345.974815 164.554389 
L 352.524329 161.201922 
L 355.547182 159.848552 
L 359.073844 157.789109 
L 362.600506 156.747045 
L 366.127167 154.689071 
L 370.157638 152.863162 
L 373.18049 151.20229 
L 376.203343 149.073186 
L 379.226196 148.021779 
L 380.737623 147.411426 
L 383.256667 146.306326 
L 386.783328 143.898118 
L 390.30999 142.934932 
L 393.836652 140.524895 
L 397.867122 139.004135 
L 404.920445 135.453128 
L 407.943298 134.313839 
L 411.46996 131.93562 
L 414.996622 130.342891 
L 418.523283 128.302632 
L 422.049945 126.954649 
L 425.576607 124.881034 
L 429.103268 123.265493 
L 432.62993 121.243199 
L 436.156592 119.937603 
L 443.713724 116.078876 
L 446.736577 114.65801 
L 450.263238 112.624828 
L 454.293709 110.782339 
L 457.82037 109.04475 
L 461.347032 107.401222 
L 464.873694 105.675913 
L 467.392738 104.518762 
L 470.919399 102.15581 
L 474.446061 100.878373 
L 482.003193 97.006057 
L 486.033664 95.123704 
L 488.552708 93.889172 
L 491.575561 92.824715 
L 495.606031 90.219002 
L 498.628884 89.161307 
L 502.155546 86.726101 
L 505.682207 85.777073 
L 509.712678 83.423955 
L 513.743148 81.585591 
L 516.766001 80.141043 
L 520.292663 78.761822 
L 524.323133 76.770227 
L 527.849795 75.126571 
L 530.872648 73.484212 
L 533.895501 71.696968 
L 537.422162 70.394652 
L 540.948824 68.345645 
L 544.979294 66.857101 
L 549.009765 64.962995 
L 551.025 63.928803 
L 551.025 63.928803 
" clip-path="url(#pc651e4fb0e)" style="fill: none; stroke: #808080; stroke-opacity: 0.3; stroke-linecap: square"/>
   </g>
   <g id="line2d_43">
    <path d="M 47.72 318.04 
L 52.254279 315.591965 
L 55.277132 313.840225 
L 60.31522 311.454353 
L 62.330455 310.315516 
L 65.353308 308.249466 
L 68.87997 306.69508 
L 73.414249 304.039409 
L 76.940911 302.096818 
L 80.467573 300.053093 
L 90.543749 294.885814 
L 93.566602 293.471899 
L 98.100881 290.850258 
L 101.627543 288.882713 
L 104.146587 287.441613 
L 111.19991 284.220159 
L 114.222763 282.396406 
L 118.253233 280.895036 
L 135.382733 271.981227 
L 139.917012 269.886706 
L 146.466527 266.388755 
L 150.496997 264.045433 
L 154.023659 262.301798 
L 156.542703 261.056685 
L 160.069364 258.755996 
L 167.122688 255.542196 
L 170.145541 253.457405 
L 173.672202 251.875202 
L 177.702673 249.215807 
L 181.229334 247.50128 
L 184.755996 246.102473 
L 188.786466 243.874936 
L 191.305511 242.412475 
L 194.832172 241.146589 
L 199.366451 238.489355 
L 202.893113 236.52949 
L 205.412157 235.075261 
L 208.938819 233.423012 
L 212.46548 231.381337 
L 216.495951 229.551595 
L 219.518804 228.059736 
L 222.541657 227.002774 
L 226.068318 224.868979 
L 229.59498 223.546082 
L 233.62545 220.880769 
L 237.655921 218.876316 
L 240.174965 217.750907 
L 243.701627 215.607074 
L 251.258759 212.279483 
L 255.289229 210.04405 
L 258.815891 208.005724 
L 262.342553 206.273274 
L 265.869214 204.611991 
L 268.892067 202.968497 
L 272.922538 200.657448 
L 282.494905 195.710343 
L 289.548228 192.501405 
L 293.07489 190.490792 
L 297.609169 188.381286 
L 301.135831 186.712947 
L 303.151066 185.780924 
L 307.685345 183.151537 
L 317.257713 178.190208 
L 320.784374 176.871337 
L 336.402447 168.690134 
L 352.020521 160.566054 
L 356.5548 158.463906 
L 360.081461 156.498754 
L 363.608123 154.467958 
L 367.638594 152.511647 
L 369.653829 151.551754 
L 373.18049 149.52573 
L 377.71477 147.421372 
L 381.241431 145.714426 
L 384.264284 144.298602 
L 394.844269 138.841783 
L 398.370931 137.216831 
L 401.897593 135.474253 
L 404.416637 134.340479 
L 407.943298 131.955618 
L 411.46996 130.667205 
L 429.607077 121.354503 
L 432.62993 120.175721 
L 436.156592 118.129343 
L 439.683253 116.491884 
L 443.209915 114.426519 
L 447.744194 112.312519 
L 453.7899 109.288964 
L 457.316562 107.906169 
L 470.919399 100.794795 
L 474.446061 98.722797 
L 482.507002 95.072455 
L 486.033664 93.346867 
L 488.552708 92.147275 
L 492.079369 90.146274 
L 495.102222 89.106421 
L 499.132693 86.73289 
L 505.682207 83.793696 
L 509.208869 81.376252 
L 513.743148 79.68316 
L 516.766001 78.264605 
L 520.292663 76.252185 
L 524.826942 74.09631 
L 531.880265 70.578433 
L 539.437397 67.090864 
L 541.956441 65.884984 
L 544.979294 64.615889 
L 548.002147 63.433703 
L 551.025 61.644788 
L 551.025 61.644788 
" clip-path="url(#pc651e4fb0e)" style="fill: none; stroke: #808080; stroke-opacity: 0.3; stroke-linecap: square"/>
   </g>
   <g id="line2d_44">
    <path d="M 47.72 318.04 
L 56.788559 313.135514 
L 59.307603 311.704951 
L 62.834264 309.964227 
L 66.360926 308.33059 
L 69.887588 306.38468 
L 72.406632 304.912123 
L 79.459955 302.381419 
L 90.543749 295.774533 
L 93.566602 294.346623 
L 96.589454 292.271905 
L 99.612307 291.168994 
L 100.116116 290.988622 
L 103.642778 288.559093 
L 107.169439 287.629978 
L 111.19991 284.920385 
L 115.734189 282.713212 
L 117.749424 281.797151 
L 121.779895 279.101573 
L 125.810365 276.911792 
L 128.329409 275.453897 
L 131.856071 274.172031 
L 135.382733 272.389299 
L 138.909394 271.113418 
L 143.443674 268.633709 
L 146.970335 266.605448 
L 156.542703 261.696744 
L 160.069364 260.382746 
L 164.099835 258.35275 
L 167.122688 256.956787 
L 170.649349 254.904453 
L 174.176011 253.245651 
L 177.702673 251.189707 
L 181.229334 249.544427 
L 185.259805 247.209661 
L 188.786466 245.26227 
L 192.313128 243.232026 
L 195.83979 241.512695 
L 198.358834 240.337547 
L 201.885495 238.297424 
L 205.412157 236.987217 
L 208.938819 235.080246 
L 212.46548 232.758854 
L 215.992142 231.127906 
L 219.014995 229.305256 
L 222.541657 228.063147 
L 226.068318 225.672839 
L 230.098789 224.149646 
L 237.655921 220.10209 
L 240.174965 218.631941 
L 243.701627 217.327146 
L 247.228288 215.238109 
L 251.762568 213.135578 
L 255.289229 211.408987 
L 257.808273 210.251506 
L 262.342553 207.600733 
L 268.388258 204.510039 
L 271.91492 203.202536 
L 275.94539 201.020471 
L 282.494905 197.153597 
L 289.548228 193.953293 
L 293.07489 191.945907 
L 297.609169 189.811241 
L 308.692963 184.241438 
L 310.204389 183.51384 
L 313.731051 181.443294 
L 317.257713 179.808846 
L 320.280566 177.69841 
L 323.303418 176.630028 
L 324.311036 176.199543 
L 328.845315 173.958105 
L 331.364359 172.751872 
L 334.891021 170.714181 
L 338.417683 169.081408 
L 341.440536 167.265812 
L 344.967197 166.017142 
L 349.501476 163.532172 
L 352.524329 161.812707 
L 356.5548 159.952575 
L 359.577653 158.442601 
L 362.600506 157.068079 
L 366.127167 154.727666 
L 369.653829 153.409134 
L 374.188108 150.785542 
L 376.707152 149.548727 
L 380.233814 148.209468 
L 383.760475 146.291707 
L 386.783328 144.210203 
L 390.813799 142.6962 
L 401.897593 137.036244 
L 404.920445 135.594641 
L 407.943298 133.819746 
L 411.46996 132.514059 
L 416.004239 129.871833 
L 422.553754 126.526948 
L 429.103268 123.606818 
L 433.637548 120.977256 
L 439.683253 117.910584 
L 442.706106 116.838075 
L 446.232768 114.718268 
L 450.263238 113.198965 
L 458.324179 109.127263 
L 461.347032 107.704901 
L 468.400355 104.158669 
L 471.927017 102.494057 
L 475.453679 100.769733 
L 478.98034 99.105189 
L 485.529855 95.771429 
L 489.056517 94.158435 
L 499.132693 88.983366 
L 502.155546 87.921098 
L 505.682207 85.808911 
L 509.208869 84.502898 
L 512.735531 82.137281 
L 517.26981 80.436325 
L 519.788854 79.275065 
L 523.315516 76.943636 
L 526.842177 75.954918 
L 530.368839 74.066063 
L 533.391692 71.935989 
L 534.399309 71.604441 
L 537.422162 70.752274 
L 545.483103 67.116833 
L 551.025 64.222499 
L 551.025 64.222499 
" clip-path="url(#pc651e4fb0e)" style="fill: none; stroke: #808080; stroke-opacity: 0.3; stroke-linecap: square"/>
   </g>
   <g id="line2d_45">
    <path d="M 47.72 318.04 
L 51.75047 315.669044 
L 58.803794 312.566637 
L 62.330455 310.599614 
L 65.857117 308.234223 
L 68.87997 306.743255 
L 72.406632 305.707129 
L 75.933293 303.288814 
L 79.459955 301.534379 
L 82.482808 300.726327 
L 83.490425 300.033228 
L 86.513278 297.750108 
L 90.03994 295.795996 
L 93.566602 293.133626 
L 97.597072 291.10199 
L 101.123734 289.498561 
L 104.650395 287.578544 
L 107.673248 285.824234 
L 114.222763 282.952477 
L 118.757042 280.272845 
L 122.283704 278.326814 
L 125.306557 276.622261 
L 132.35988 273.478533 
L 135.886542 271.704228 
L 138.909394 270.36733 
L 143.443674 267.695623 
L 146.970335 265.701364 
L 149.489379 264.228871 
L 153.016041 262.604419 
L 156.542703 260.558386 
L 160.573173 258.725164 
L 164.099835 256.779558 
L 170.649349 252.870835 
L 177.198864 249.947986 
L 180.725526 247.580491 
L 184.252187 246.276828 
L 192.816937 241.215741 
L 195.83979 239.738352 
L 199.366451 238.081778 
L 202.893113 236.377911 
L 205.412157 235.214245 
L 208.938819 233.104961 
L 213.473098 231.037486 
L 216.99976 229.348715 
L 223.045465 226.573141 
L 226.572127 224.212263 
L 233.62545 220.588763 
L 236.648303 219.224235 
L 241.182583 216.533601 
L 244.709244 214.589792 
L 248.235906 212.540801 
L 250.75495 211.269076 
L 253.777803 210.19872 
L 255.289229 209.196859 
L 257.808273 207.501751 
L 261.334935 205.715593 
L 264.861597 204.360869 
L 268.388258 202.339995 
L 271.91492 200.705332 
L 275.94539 198.363494 
L 295.090125 188.341574 
L 309.700581 180.746146 
L 314.738669 178.290491 
L 317.257713 176.872499 
L 320.784374 175.510599 
L 327.837698 171.277249 
L 331.364359 169.637646 
L 334.387212 167.829476 
L 337.913874 166.55773 
L 342.951962 163.644036 
L 348.997668 160.555482 
L 352.020521 159.437473 
L 355.547182 157.068616 
L 360.081461 154.961587 
L 377.210961 146.067752 
L 380.737623 144.454924 
L 384.768093 142.217144 
L 386.783328 141.00951 
L 390.30999 139.771888 
L 393.836652 137.363377 
L 398.370931 135.27019 
L 411.46996 128.45362 
L 414.996622 127.134746 
L 418.523283 124.755497 
L 422.049945 123.475932 
L 425.576607 121.413566 
L 428.599459 120.343723 
L 430.614695 118.820146 
L 432.126121 117.647574 
L 434.645165 116.706994 
L 437.668018 115.492913 
L 439.683253 114.542154 
L 443.209915 112.451908 
L 446.736577 110.829138 
L 449.759429 109.002872 
L 453.286091 107.742359 
L 456.812753 105.318953 
L 461.347032 103.2201 
L 464.873694 101.481007 
L 467.392738 100.34969 
L 470.919399 98.265391 
L 474.446061 96.968069 
L 477.972723 94.896652 
L 481.499384 93.282851 
L 485.026046 91.253188 
L 488.552708 89.86691 
L 492.079369 87.820505 
L 496.10984 85.987338 
L 499.636502 84.220796 
L 503.666972 82.325567 
L 507.193634 80.625399 
L 510.216486 79.20762 
L 517.773619 75.413816 
L 520.796471 73.993922 
L 527.345986 70.646506 
L 531.376456 68.758729 
L 536.918353 65.872639 
L 538.933589 65.301739 
L 540.445015 64.897134 
L 541.956441 63.772529 
L 543.971677 62.209057 
L 545.986912 61.619754 
L 547.498338 61.201345 
L 551.025 59.083788 
L 551.025 59.083788 
" clip-path="url(#pc651e4fb0e)" style="fill: none; stroke: #808080; stroke-opacity: 0.3; stroke-linecap: square"/>
   </g>
   <g id="line2d_46">
    <path d="M 47.72 318.04 
L 66.360926 308.217249 
L 70.391396 306.180756 
L 77.44472 302.513389 
L 82.986617 299.848657 
L 87.017087 297.427204 
L 91.047558 295.297998 
L 94.574219 293.373291 
L 101.123734 289.942102 
L 104.650395 288.054095 
L 108.177057 286.315531 
L 112.207528 284.17989 
L 118.253233 281.096774 
L 123.291321 278.489576 
L 126.817983 276.640024 
L 131.352262 274.287865 
L 141.428438 269.222864 
L 147.977953 265.682656 
L 168.634114 255.049176 
L 172.160776 253.180717 
L 179.214099 249.484762 
L 188.786466 244.48564 
L 215.992142 230.546398 
L 221.03023 228.104038 
L 223.045465 227.100672 
L 226.572127 225.044411 
L 230.098789 223.380088 
L 234.129259 221.179736 
L 238.15973 219.117974 
L 241.686391 217.293463 
L 245.213053 215.460745 
L 248.235906 213.908271 
L 252.266376 211.939984 
L 280.47967 197.416129 
L 291.059655 191.943278 
L 293.578699 190.60901 
L 301.135831 186.819364 
L 307.685345 183.446891 
L 319.272948 177.618735 
L 323.807227 175.287055 
L 345.974815 163.953126 
L 352.524329 160.696412 
L 384.768093 144.302012 
L 387.790946 142.702134 
L 392.829034 140.218953 
L 396.355696 138.525068 
L 398.370931 137.479126 
L 402.401401 135.352041 
L 412.477578 130.354845 
L 417.011857 128.016592 
L 419.530901 126.774396 
L 423.561371 124.834532 
L 434.645165 119.235768 
L 439.683253 116.768277 
L 444.721341 114.242079 
L 448.248003 112.480124 
L 452.278473 110.502478 
L 455.301326 108.96093 
L 459.331797 106.969274 
L 466.38512 103.470815 
L 487.54509 93.043618 
L 491.575561 91.139444 
L 496.613649 88.528095 
L 503.666972 85.147873 
L 517.26981 78.671141 
L 520.796471 76.961975 
L 523.819324 75.398226 
L 527.849795 73.553928 
L 532.887883 71.085812 
L 551.025 62.583527 
L 551.025 62.583527 
" clip-path="url(#pc651e4fb0e)" style="fill: none; stroke: #000000; stroke-width: 2.5; stroke-linecap: square"/>
   </g>
   <g id="patch_3">
    <path d="M 47.72 318.04 
L 47.72 42.72 
" style="fill: none; stroke: #000000; stroke-width: 0.8; stroke-linejoin: miter; stroke-linecap: square"/>
   </g>
   <g id="patch_4">
    <path d="M 551.025 318.04 
L 551.025 42.72 
" style="fill: none; stroke: #000000; stroke-width: 0.8; stroke-linejoin: miter; stroke-linecap: square"/>
   </g>
   <g id="patch_5">
    <path d="M 47.72 318.04 
L 551.025 318.04 
" style="fill: none; stroke: #000000; stroke-width: 0.8; stroke-linejoin: miter; stroke-linecap: square"/>
   </g>
   <g id="patch_6">
    <path d="M 47.72 42.72 
L 551.025 42.72 
" style="fill: none; stroke: #000000; stroke-width: 0.8; stroke-linejoin: miter; stroke-linecap: square"/>
   </g>
   <g id="text_20">
    <!-- Distance over time (n = 11) -->
    <g transform="translate(215.519687 23.282625) scale(0.12 -0.12)">
     <defs>
      <path id="DejaVuSans-6f" d="M 1959 3097 
Q 1497 3097 1228 2736 
Q 959 2375 959 1747 
Q 959 1119 1226 758 
Q 1494 397 1959 397 
Q 2419 397 2687 759 
Q 2956 1122 2956 1747 
Q 2956 2369 2687 2733 
Q 2419 3097 1959 3097 
z
M 1959 3584 
Q 2709 3584 3137 3096 
Q 3566 2609 3566 1747 
Q 3566 888 3137 398 
Q 2709 -91 1959 -91 
Q 1206 -91 779 398 
Q 353 888 353 1747 
Q 353 2609 779 3096 
Q 1206 3584 1959 3584 
z
" transform="scale(0.015625)"/>
      <path id="DejaVuSans-76" d="M 191 3500 
L 800 3500 
L 1894 563 
L 2988 3500 
L 3597 3500 
L 2284 0 
L 1503 0 
L 191 3500 
z
" transform="scale(0.015625)"/>
      <path id="DejaVuSans-72" d="M 2631 2963 
Q 2534 3019 2420 3045 
Q 2306 3072 2169 3072 
Q 1681 3072 1420 2755 
Q 1159 2438 1159 1844 
L 1159 0 
L 581 0 
L 581 3500 
L 1159 3500 
L 1159 2956 
Q 1341 3275 1631 3429 
Q 1922 3584 2338 3584 
Q 2397 3584 2469 3576 
Q 2541 3569 2628 3553 
L 2631 2963 
z
" transform="scale(0.015625)"/>
      <path id="DejaVuSans-28" d="M 1984 4856 
Q 1566 4138 1362 3434 
Q 1159 2731 1159 2009 
Q 1159 1288 1364 580 
Q 1569 -128 1984 -844 
L 1484 -844 
Q 1016 -109 783 600 
Q 550 1309 550 2009 
Q 550 2706 781 3412 
Q 1013 4119 1484 4856 
L 1984 4856 
z
" transform="scale(0.015625)"/>
      <path id="DejaVuSans-3d" d="M 678 2906 
L 4684 2906 
L 4684 2381 
L 678 2381 
L 678 2906 
z
M 678 1631 
L 4684 1631 
L 4684 1100 
L 678 1100 
L 678 1631 
z
" transform="scale(0.015625)"/>
      <path id="DejaVuSans-29" d="M 513 4856 
L 1013 4856 
Q 1481 4119 1714 3412 
Q 1947 2706 1947 2009 
Q 1947 1309 1714 600 
Q 1481 -109 1013 -844 
L 513 -844 
Q 928 -128 1133 580 
Q 1338 1288 1338 2009 
Q 1338 2731 1133 3434 
Q 928 4138 513 4856 
z
" transform="scale(0.015625)"/>
     </defs>
     <use xlink:href="#DejaVuSans-44"/>
     <use xlink:href="#DejaVuSans-69" x="77.001953"/>
     <use xlink:href="#DejaVuSans-73" x="104.785156"/>
     <use xlink:href="#DejaVuSans-74" x="156.884766"/>
     <use xlink:href="#DejaVuSans-61" x="196.09375"/>
     <use xlink:href="#DejaVuSans-6e" x="257.373047"/>
     <use xlink:href="#DejaVuSans-63" x="320.751953"/>
     <use xlink:href="#DejaVuSans-65" x="375.732422"/>
     <use xlink:href="#DejaVuSans-20" x="437.255859"/>
     <use xlink:href="#DejaVuSans-6f" x="469.042969"/>
     <use xlink:href="#DejaVuSans-76" x="530.224609"/>
     <use xlink:href="#DejaVuSans-65" x="589.404297"/>
     <use xlink:href="#DejaVuSans-72" x="650.927734"/>
     <use xlink:href="#DejaVuSans-20" x="692.041016"/>
     <use xlink:href="#DejaVuSans-74" x="723.828125"/>
     <use xlink:href="#DejaVuSans-69" x="763.037109"/>
     <use xlink:href="#DejaVuSans-6d" x="790.820312"/>
     <use xlink:href="#DejaVuSans-65" x="888.232422"/>
     <use xlink:href="#DejaVuSans-20" x="949.755859"/>
     <use xlink:href="#DejaVuSans-28" x="981.542969"/>
     <use xlink:href="#DejaVuSans-6e" x="1020.556641"/>
     <use xlink:href="#DejaVuSans-20" x="1083.935547"/>
     <use xlink:href="#DejaVuSans-3d" x="1115.722656"/>
     <use xlink:href="#DejaVuSans-20" x="1199.511719"/>
     <use xlink:href="#DejaVuSans-31" x="1231.298828"/>
     <use xlink:href="#DejaVuSans-31" x="1294.921875"/>
     <use xlink:href="#DejaVuSans-29" x="1358.544922"/>
    </g>
    <!-- $v_{\mathrm{desired}} = 11,111\,\mathrm{m/s}$ -->
    <g transform="translate(238.5325 36.72) scale(0.12 -0.12)">
     <defs>
      <path id="DejaVuSans-Oblique-76" d="M 459 3500 
L 1069 3500 
L 1581 525 
L 3256 3500 
L 3866 3500 
L 1875 0 
L 1100 0 
L 459 3500 
z
" transform="scale(0.015625)"/>
      <path id="DejaVuSans-64" d="M 2906 2969 
L 2906 4863 
L 3481 4863 
L 3481 0 
L 2906 0 
L 2906 525 
Q 2725 213 2448 61 
Q 2172 -91 1784 -91 
Q 1150 -91 751 415 
Q 353 922 353 1747 
Q 353 2572 751 3078 
Q 1150 3584 1784 3584 
Q 2172 3584 2448 3432 
Q 2725 3281 2906 2969 
z
M 947 1747 
Q 947 1113 1208 752 
Q 1469 391 1925 391 
Q 2381 391 2643 752 
Q 2906 1113 2906 1747 
Q 2906 2381 2643 2742 
Q 2381 3103 1925 3103 
Q 1469 3103 1208 2742 
Q 947 2381 947 1747 
z
" transform="scale(0.015625)"/>
      <path id="DejaVuSans-2c" d="M 750 794 
L 1409 794 
L 1409 256 
L 897 -744 
L 494 -744 
L 750 256 
L 750 794 
z
" transform="scale(0.015625)"/>
     </defs>
     <use xlink:href="#DejaVuSans-Oblique-76" transform="translate(0 0.09375)"/>
     <use xlink:href="#DejaVuSans-64" transform="translate(59.179688 -16.3125) scale(0.7)"/>
     <use xlink:href="#DejaVuSans-65" transform="translate(103.613281 -16.3125) scale(0.7)"/>
     <use xlink:href="#DejaVuSans-73" transform="translate(146.679688 -16.3125) scale(0.7)"/>
     <use xlink:href="#DejaVuSans-69" transform="translate(183.149414 -16.3125) scale(0.7)"/>
     <use xlink:href="#DejaVuSans-72" transform="translate(202.597656 -16.3125) scale(0.7)"/>
     <use xlink:href="#DejaVuSans-65" transform="translate(231.376953 -16.3125) scale(0.7)"/>
     <use xlink:href="#DejaVuSans-64" transform="translate(274.443359 -16.3125) scale(0.7)"/>
     <use xlink:href="#DejaVuSans-3d" transform="translate(341.09375 0.09375)"/>
     <use xlink:href="#DejaVuSans-31" transform="translate(444.365234 0.09375)"/>
     <use xlink:href="#DejaVuSans-31" transform="translate(507.988281 0.09375)"/>
     <use xlink:href="#DejaVuSans-2c" transform="translate(571.611328 0.09375)"/>
     <use xlink:href="#DejaVuSans-31" transform="translate(622.880859 0.09375)"/>
     <use xlink:href="#DejaVuSans-31" transform="translate(686.503906 0.09375)"/>
     <use xlink:href="#DejaVuSans-31" transform="translate(750.126953 0.09375)"/>
     <use xlink:href="#DejaVuSans-6d" transform="translate(829.985676 0.09375)"/>
     <use xlink:href="#DejaVuSans-2f" transform="translate(927.397786 0.09375)"/>
     <use xlink:href="#DejaVuSans-73" transform="translate(961.089192 0.09375)"/>
    </g>
   </g>
   <g id="legend_1">
    <g id="patch_7">
     <path d="M 54.72 65.398125 
L 127.785625 65.398125 
Q 129.785625 65.398125 129.785625 63.398125 
L 129.785625 49.72 
Q 129.785625 47.72 127.785625 47.72 
L 54.72 47.72 
Q 52.72 47.72 52.72 49.72 
L 52.72 63.398125 
Q 52.72 65.398125 54.72 65.398125 
z
" style="fill: #ffffff; opacity: 0.8; stroke: #cccccc; stroke-linejoin: miter"/>
    </g>
    <g id="line2d_47">
     <path d="M 56.72 55.818438 
L 66.72 55.818438 
L 76.72 55.818438 
" style="fill: none; stroke: #000000; stroke-width: 2.5; stroke-linecap: square"/>
    </g>
    <g id="text_21">
     <!-- Average -->
     <g transform="translate(84.72 59.318438) scale(0.1 -0.1)">
      <defs>
       <path id="DejaVuSans-41" d="M 2188 4044 
L 1331 1722 
L 3047 1722 
L 2188 4044 
z
M 1831 4666 
L 2547 4666 
L 4325 0 
L 3669 0 
L 3244 1197 
L 1141 1197 
L 716 0 
L 50 0 
L 1831 4666 
z
" transform="scale(0.015625)"/>
       <path id="DejaVuSans-67" d="M 2906 1791 
Q 2906 2416 2648 2759 
Q 2391 3103 1925 3103 
Q 1463 3103 1205 2759 
Q 947 2416 947 1791 
Q 947 1169 1205 825 
Q 1463 481 1925 481 
Q 2391 481 2648 825 
Q 2906 1169 2906 1791 
z
M 3481 434 
Q 3481 -459 3084 -895 
Q 2688 -1331 1869 -1331 
Q 1566 -1331 1297 -1286 
Q 1028 -1241 775 -1147 
L 775 -588 
Q 1028 -725 1275 -790 
Q 1522 -856 1778 -856 
Q 2344 -856 2625 -561 
Q 2906 -266 2906 331 
L 2906 616 
Q 2728 306 2450 153 
Q 2172 0 1784 0 
Q 1141 0 747 490 
Q 353 981 353 1791 
Q 353 2603 747 3093 
Q 1141 3584 1784 3584 
Q 2172 3584 2450 3431 
Q 2728 3278 2906 2969 
L 2906 3500 
L 3481 3500 
L 3481 434 
z
" transform="scale(0.015625)"/>
      </defs>
      <use xlink:href="#DejaVuSans-41"/>
      <use xlink:href="#DejaVuSans-76" x="62.533203"/>
      <use xlink:href="#DejaVuSans-65" x="121.712891"/>
      <use xlink:href="#DejaVuSans-72" x="183.236328"/>
      <use xlink:href="#DejaVuSans-61" x="224.349609"/>
      <use xlink:href="#DejaVuSans-67" x="285.628906"/>
      <use xlink:href="#DejaVuSans-65" x="349.105469"/>
     </g>
    </g>
   </g>
  </g>
 </g>
 <defs>
  <clipPath id="pc651e4fb0e">
   <rect x="47.72" y="42.72" width="503.305" height="275.32"/>
  </clipPath>
 </defs>
</svg>
