<?xml version="1.0" encoding="utf-8" standalone="no"?>
<!DOCTYPE svg PUBLIC "-//W3C//DTD SVG 1.1//EN"
  "http://www.w3.org/Graphics/SVG/1.1/DTD/svg11.dtd">
<svg xmlns:xlink="http://www.w3.org/1999/xlink" width="576pt" height="360pt" viewBox="0 0 576 360" xmlns="http://www.w3.org/2000/svg" version="1.1">
 <metadata>
  <rdf:RDF xmlns:dc="http://purl.org/dc/elements/1.1/" xmlns:cc="http://creativecommons.org/ns#" xmlns:rdf="http://www.w3.org/1999/02/22-rdf-syntax-ns#">
   <cc:Work>
    <dc:type rdf:resource="http://purl.org/dc/dcmitype/StillImage"/>
    <dc:date>2026-01-21T19:54:39.029315</dc:date>
    <dc:format>image/svg+xml</dc:format>
    <dc:creator>
     <cc:Agent>
      <dc:title>Matplotlib v3.9.4, https://matplotlib.org/</dc:title>
     </cc:Agent>
    </dc:creator>
   </cc:Work>
  </rdf:RDF>
 </metadata>
 <defs>
  <style type="text/css">*{stroke-linejoin: round; stroke-linecap: butt}</style>
 </defs>
 <g id="figure_1">
  <g id="patch_1">
   <path d="M 0 360 
L 576 360 
L 576 0 
L 0 0 
z
" style="fill: #ffffff"/>
  </g>
  <g id="axes_1">
   <g id="patch_2">
    <path d="M 54.02 318.04 
L 554.175 318.04 
L 554.175 42.72 
L 54.02 42.72 
z
" style="fill: #ffffff"/>
   </g>
   <g id="matplotlib.axis_1">
    <g id="xtick_1">
     <g id="line2d_1">
      <path d="M 54.02 318.04 
L 54.02 42.72 
" clip-path="url(#pd654781b3f)" style="fill: none; stroke: #b0b0b0; stroke-width: 0.8; stroke-linecap: square"/>
     </g>
     <g id="line2d_2">
      <defs>
       <path id="mabac109700" d="M 0 0 
L 0 3.5 
" style="stroke: #000000; stroke-width: 0.8"/>
      </defs>
      <g>
       <use xlink:href="#mabac109700" x="54.02" y="318.04" style="stroke: #000000; stroke-width: 0.8"/>
      </g>
     </g>
     <g id="text_1">
      <!-- 0.00 -->
      <g transform="translate(42.887188 332.638438) scale(0.1 -0.1)">
       <defs>
        <path id="DejaVuSans-30" d="M 2034 4250 
Q 1547 4250 1301 3770 
Q 1056 3291 1056 2328 
Q 1056 1369 1301 889 
Q 1547 409 2034 409 
Q 2525 409 2770 889 
Q 3016 1369 3016 2328 
Q 3016 3291 2770 3770 
Q 2525 4250 2034 4250 
z
M 2034 4750 
Q 2819 4750 3233 4129 
Q 3647 3509 3647 2328 
Q 3647 1150 3233 529 
Q 2819 -91 2034 -91 
Q 1250 -91 836 529 
Q 422 1150 422 2328 
Q 422 3509 836 4129 
Q 1250 4750 2034 4750 
z
" transform="scale(0.015625)"/>
        <path id="DejaVuSans-2e" d="M 684 794 
L 1344 794 
L 1344 0 
L 684 0 
L 684 794 
z
" transform="scale(0.015625)"/>
       </defs>
       <use xlink:href="#DejaVuSans-30"/>
       <use xlink:href="#DejaVuSans-2e" x="63.623047"/>
       <use xlink:href="#DejaVuSans-30" x="95.410156"/>
       <use xlink:href="#DejaVuSans-30" x="159.033203"/>
      </g>
     </g>
    </g>
    <g id="xtick_2">
     <g id="line2d_3">
      <path d="M 154.051 318.04 
L 154.051 42.72 
" clip-path="url(#pd654781b3f)" style="fill: none; stroke: #b0b0b0; stroke-width: 0.8; stroke-linecap: square"/>
     </g>
     <g id="line2d_4">
      <g>
       <use xlink:href="#mabac109700" x="154.051" y="318.04" style="stroke: #000000; stroke-width: 0.8"/>
      </g>
     </g>
     <g id="text_2">
      <!-- 0.01 -->
      <g transform="translate(142.918187 332.638438) scale(0.1 -0.1)">
       <defs>
        <path id="DejaVuSans-31" d="M 794 531 
L 1825 531 
L 1825 4091 
L 703 3866 
L 703 4441 
L 1819 4666 
L 2450 4666 
L 2450 531 
L 3481 531 
L 3481 0 
L 794 0 
L 794 531 
z
" transform="scale(0.015625)"/>
       </defs>
       <use xlink:href="#DejaVuSans-30"/>
       <use xlink:href="#DejaVuSans-2e" x="63.623047"/>
       <use xlink:href="#DejaVuSans-30" x="95.410156"/>
       <use xlink:href="#DejaVuSans-31" x="159.033203"/>
      </g>
     </g>
    </g>
    <g id="xtick_3">
     <g id="line2d_5">
      <path d="M 254.082 318.04 
L 254.082 42.72 
" clip-path="url(#pd654781b3f)" style="fill: none; stroke: #b0b0b0; stroke-width: 0.8; stroke-linecap: square"/>
     </g>
     <g id="line2d_6">
      <g>
       <use xlink:href="#mabac109700" x="254.082" y="318.04" style="stroke: #000000; stroke-width: 0.8"/>
      </g>
     </g>
     <g id="text_3">
      <!-- 0.02 -->
      <g transform="translate(242.949187 332.638438) scale(0.1 -0.1)">
       <defs>
        <path id="DejaVuSans-32" d="M 1228 531 
L 3431 531 
L 3431 0 
L 469 0 
L 469 531 
Q 828 903 1448 1529 
Q 2069 2156 2228 2338 
Q 2531 2678 2651 2914 
Q 2772 3150 2772 3378 
Q 2772 3750 2511 3984 
Q 2250 4219 1831 4219 
Q 1534 4219 1204 4116 
Q 875 4013 500 3803 
L 500 4441 
Q 881 4594 1212 4672 
Q 1544 4750 1819 4750 
Q 2544 4750 2975 4387 
Q 3406 4025 3406 3419 
Q 3406 3131 3298 2873 
Q 3191 2616 2906 2266 
Q 2828 2175 2409 1742 
Q 1991 1309 1228 531 
z
" transform="scale(0.015625)"/>
       </defs>
       <use xlink:href="#DejaVuSans-30"/>
       <use xlink:href="#DejaVuSans-2e" x="63.623047"/>
       <use xlink:href="#DejaVuSans-30" x="95.410156"/>
       <use xlink:href="#DejaVuSans-32" x="159.033203"/>
      </g>
     </g>
    </g>
    <g id="xtick_4">
     <g id="line2d_7">
      <path d="M 354.113 318.04 
L 354.113 42.72 
" clip-path="url(#pd654781b3f)" style="fill: none; stroke: #b0b0b0; stroke-width: 0.8; stroke-linecap: square"/>
     </g>
     <g id="line2d_8">
      <g>
       <use xlink:href="#mabac109700" x="354.113" y="318.04" style="stroke: #000000; stroke-width: 0.8"/>
      </g>
     </g>
     <g id="text_4">
      <!-- 0.03 -->
      <g transform="translate(342.980187 332.638438) scale(0.1 -0.1)">
       <defs>
        <path id="DejaVuSans-33" d="M 2597 2516 
Q 3050 2419 3304 2112 
Q 3559 1806 3559 1356 
Q 3559 666 3084 287 
Q 2609 -91 1734 -91 
Q 1441 -91 1130 -33 
Q 819 25 488 141 
L 488 750 
Q 750 597 1062 519 
Q 1375 441 1716 441 
Q 2309 441 2620 675 
Q 2931 909 2931 1356 
Q 2931 1769 2642 2001 
Q 2353 2234 1838 2234 
L 1294 2234 
L 1294 2753 
L 1863 2753 
Q 2328 2753 2575 2939 
Q 2822 3125 2822 3475 
Q 2822 3834 2567 4026 
Q 2313 4219 1838 4219 
Q 1578 4219 1281 4162 
Q 984 4106 628 3988 
L 628 4550 
Q 988 4650 1302 4700 
Q 1616 4750 1894 4750 
Q 2613 4750 3031 4423 
Q 3450 4097 3450 3541 
Q 3450 3153 3228 2886 
Q 3006 2619 2597 2516 
z
" transform="scale(0.015625)"/>
       </defs>
       <use xlink:href="#DejaVuSans-30"/>
       <use xlink:href="#DejaVuSans-2e" x="63.623047"/>
       <use xlink:href="#DejaVuSans-30" x="95.410156"/>
       <use xlink:href="#DejaVuSans-33" x="159.033203"/>
      </g>
     </g>
    </g>
    <g id="xtick_5">
     <g id="line2d_9">
      <path d="M 454.144 318.04 
L 454.144 42.72 
" clip-path="url(#pd654781b3f)" style="fill: none; stroke: #b0b0b0; stroke-width: 0.8; stroke-linecap: square"/>
     </g>
     <g id="line2d_10">
      <g>
       <use xlink:href="#mabac109700" x="454.144" y="318.04" style="stroke: #000000; stroke-width: 0.8"/>
      </g>
     </g>
     <g id="text_5">
      <!-- 0.04 -->
      <g transform="translate(443.011188 332.638438) scale(0.1 -0.1)">
       <defs>
        <path id="DejaVuSans-34" d="M 2419 4116 
L 825 1625 
L 2419 1625 
L 2419 4116 
z
M 2253 4666 
L 3047 4666 
L 3047 1625 
L 3713 1625 
L 3713 1100 
L 3047 1100 
L 3047 0 
L 2419 0 
L 2419 1100 
L 313 1100 
L 313 1709 
L 2253 4666 
z
" transform="scale(0.015625)"/>
       </defs>
       <use xlink:href="#DejaVuSans-30"/>
       <use xlink:href="#DejaVuSans-2e" x="63.623047"/>
       <use xlink:href="#DejaVuSans-30" x="95.410156"/>
       <use xlink:href="#DejaVuSans-34" x="159.033203"/>
      </g>
     </g>
    </g>
    <g id="xtick_6">
     <g id="line2d_11">
      <path d="M 554.175 318.04 
L 554.175 42.72 
" clip-path="url(#pd654781b3f)" style="fill: none; stroke: #b0b0b0; stroke-width: 0.8; stroke-linecap: square"/>
     </g>
     <g id="line2d_12">
      <g>
       <use xlink:href="#mabac109700" x="554.175" y="318.04" style="stroke: #000000; stroke-width: 0.8"/>
      </g>
     </g>
     <g id="text_6">
      <!-- 0.05 -->
      <g transform="translate(543.042187 332.638438) scale(0.1 -0.1)">
       <defs>
        <path id="DejaVuSans-35" d="M 691 4666 
L 3169 4666 
L 3169 4134 
L 1269 4134 
L 1269 2991 
Q 1406 3038 1543 3061 
Q 1681 3084 1819 3084 
Q 2600 3084 3056 2656 
Q 3513 2228 3513 1497 
Q 3513 744 3044 326 
Q 2575 -91 1722 -91 
Q 1428 -91 1123 -41 
Q 819 9 494 109 
L 494 744 
Q 775 591 1075 516 
Q 1375 441 1709 441 
Q 2250 441 2565 725 
Q 2881 1009 2881 1497 
Q 2881 1984 2565 2268 
Q 2250 2553 1709 2553 
Q 1456 2553 1204 2497 
Q 953 2441 691 2322 
L 691 4666 
z
" transform="scale(0.015625)"/>
       </defs>
       <use xlink:href="#DejaVuSans-30"/>
       <use xlink:href="#DejaVuSans-2e" x="63.623047"/>
       <use xlink:href="#DejaVuSans-30" x="95.410156"/>
       <use xlink:href="#DejaVuSans-35" x="159.033203"/>
      </g>
     </g>
    </g>
    <g id="text_7">
     <!-- Time / s -->
     <g transform="translate(284.396719 346.316563) scale(0.1 -0.1)">
      <defs>
       <path id="DejaVuSans-54" d="M -19 4666 
L 3928 4666 
L 3928 4134 
L 2272 4134 
L 2272 0 
L 1638 0 
L 1638 4134 
L -19 4134 
L -19 4666 
z
" transform="scale(0.015625)"/>
       <path id="DejaVuSans-69" d="M 603 3500 
L 1178 3500 
L 1178 0 
L 603 0 
L 603 3500 
z
M 603 4863 
L 1178 4863 
L 1178 4134 
L 603 4134 
L 603 4863 
z
" transform="scale(0.015625)"/>
       <path id="DejaVuSans-6d" d="M 3328 2828 
Q 3544 3216 3844 3400 
Q 4144 3584 4550 3584 
Q 5097 3584 5394 3201 
Q 5691 2819 5691 2113 
L 5691 0 
L 5113 0 
L 5113 2094 
Q 5113 2597 4934 2840 
Q 4756 3084 4391 3084 
Q 3944 3084 3684 2787 
Q 3425 2491 3425 1978 
L 3425 0 
L 2847 0 
L 2847 2094 
Q 2847 2600 2669 2842 
Q 2491 3084 2119 3084 
Q 1678 3084 1418 2786 
Q 1159 2488 1159 1978 
L 1159 0 
L 581 0 
L 581 3500 
L 1159 3500 
L 1159 2956 
Q 1356 3278 1631 3431 
Q 1906 3584 2284 3584 
Q 2666 3584 2933 3390 
Q 3200 3197 3328 2828 
z
" transform="scale(0.015625)"/>
       <path id="DejaVuSans-65" d="M 3597 1894 
L 3597 1613 
L 953 1613 
Q 991 1019 1311 708 
Q 1631 397 2203 397 
Q 2534 397 2845 478 
Q 3156 559 3463 722 
L 3463 178 
Q 3153 47 2828 -22 
Q 2503 -91 2169 -91 
Q 1331 -91 842 396 
Q 353 884 353 1716 
Q 353 2575 817 3079 
Q 1281 3584 2069 3584 
Q 2775 3584 3186 3129 
Q 3597 2675 3597 1894 
z
M 3022 2063 
Q 3016 2534 2758 2815 
Q 2500 3097 2075 3097 
Q 1594 3097 1305 2825 
Q 1016 2553 972 2059 
L 3022 2063 
z
" transform="scale(0.015625)"/>
       <path id="DejaVuSans-20" transform="scale(0.015625)"/>
       <path id="DejaVuSans-2f" d="M 1625 4666 
L 2156 4666 
L 531 -594 
L 0 -594 
L 1625 4666 
z
" transform="scale(0.015625)"/>
       <path id="DejaVuSans-73" d="M 2834 3397 
L 2834 2853 
Q 2591 2978 2328 3040 
Q 2066 3103 1784 3103 
Q 1356 3103 1142 2972 
Q 928 2841 928 2578 
Q 928 2378 1081 2264 
Q 1234 2150 1697 2047 
L 1894 2003 
Q 2506 1872 2764 1633 
Q 3022 1394 3022 966 
Q 3022 478 2636 193 
Q 2250 -91 1575 -91 
Q 1294 -91 989 -36 
Q 684 19 347 128 
L 347 722 
Q 666 556 975 473 
Q 1284 391 1588 391 
Q 1994 391 2212 530 
Q 2431 669 2431 922 
Q 2431 1156 2273 1281 
Q 2116 1406 1581 1522 
L 1381 1569 
Q 847 1681 609 1914 
Q 372 2147 372 2553 
Q 372 3047 722 3315 
Q 1072 3584 1716 3584 
Q 2034 3584 2315 3537 
Q 2597 3491 2834 3397 
z
" transform="scale(0.015625)"/>
      </defs>
      <use xlink:href="#DejaVuSans-54"/>
      <use xlink:href="#DejaVuSans-69" x="57.958984"/>
      <use xlink:href="#DejaVuSans-6d" x="85.742188"/>
      <use xlink:href="#DejaVuSans-65" x="183.154297"/>
      <use xlink:href="#DejaVuSans-20" x="244.677734"/>
      <use xlink:href="#DejaVuSans-2f" x="276.464844"/>
      <use xlink:href="#DejaVuSans-20" x="310.15625"/>
      <use xlink:href="#DejaVuSans-73" x="341.943359"/>
     </g>
    </g>
   </g>
   <g id="matplotlib.axis_2">
    <g id="ytick_1">
     <g id="line2d_13">
      <path d="M 54.02 318.04 
L 554.175 318.04 
" clip-path="url(#pd654781b3f)" style="fill: none; stroke: #b0b0b0; stroke-width: 0.8; stroke-linecap: square"/>
     </g>
     <g id="line2d_14">
      <defs>
       <path id="mb297fdc934" d="M 0 0 
L -3.5 0 
" style="stroke: #000000; stroke-width: 0.8"/>
      </defs>
      <g>
       <use xlink:href="#mb297fdc934" x="54.02" y="318.04" style="stroke: #000000; stroke-width: 0.8"/>
      </g>
     </g>
     <g id="text_8">
      <!-- 0.00 -->
      <g transform="translate(24.754375 321.839219) scale(0.1 -0.1)">
       <use xlink:href="#DejaVuSans-30"/>
       <use xlink:href="#DejaVuSans-2e" x="63.623047"/>
       <use xlink:href="#DejaVuSans-30" x="95.410156"/>
       <use xlink:href="#DejaVuSans-30" x="159.033203"/>
      </g>
     </g>
    </g>
    <g id="ytick_2">
     <g id="line2d_15">
      <path d="M 54.02 281.939076 
L 554.175 281.939076 
" clip-path="url(#pd654781b3f)" style="fill: none; stroke: #b0b0b0; stroke-width: 0.8; stroke-linecap: square"/>
     </g>
     <g id="line2d_16">
      <g>
       <use xlink:href="#mb297fdc934" x="54.02" y="281.939076" style="stroke: #000000; stroke-width: 0.8"/>
      </g>
     </g>
     <g id="text_9">
      <!-- 0.05 -->
      <g transform="translate(24.754375 285.738295) scale(0.1 -0.1)">
       <use xlink:href="#DejaVuSans-30"/>
       <use xlink:href="#DejaVuSans-2e" x="63.623047"/>
       <use xlink:href="#DejaVuSans-30" x="95.410156"/>
       <use xlink:href="#DejaVuSans-35" x="159.033203"/>
      </g>
     </g>
    </g>
    <g id="ytick_3">
     <g id="line2d_17">
      <path d="M 54.02 245.838153 
L 554.175 245.838153 
" clip-path="url(#pd654781b3f)" style="fill: none; stroke: #b0b0b0; stroke-width: 0.8; stroke-linecap: square"/>
     </g>
     <g id="line2d_18">
      <g>
       <use xlink:href="#mb297fdc934" x="54.02" y="245.838153" style="stroke: #000000; stroke-width: 0.8"/>
      </g>
     </g>
     <g id="text_10">
      <!-- 0.10 -->
      <g transform="translate(24.754375 249.637372) scale(0.1 -0.1)">
       <use xlink:href="#DejaVuSans-30"/>
       <use xlink:href="#DejaVuSans-2e" x="63.623047"/>
       <use xlink:href="#DejaVuSans-31" x="95.410156"/>
       <use xlink:href="#DejaVuSans-30" x="159.033203"/>
      </g>
     </g>
    </g>
    <g id="ytick_4">
     <g id="line2d_19">
      <path d="M 54.02 209.737229 
L 554.175 209.737229 
" clip-path="url(#pd654781b3f)" style="fill: none; stroke: #b0b0b0; stroke-width: 0.8; stroke-linecap: square"/>
     </g>
     <g id="line2d_20">
      <g>
       <use xlink:href="#mb297fdc934" x="54.02" y="209.737229" style="stroke: #000000; stroke-width: 0.8"/>
      </g>
     </g>
     <g id="text_11">
      <!-- 0.15 -->
      <g transform="translate(24.754375 213.536448) scale(0.1 -0.1)">
       <use xlink:href="#DejaVuSans-30"/>
       <use xlink:href="#DejaVuSans-2e" x="63.623047"/>
       <use xlink:href="#DejaVuSans-31" x="95.410156"/>
       <use xlink:href="#DejaVuSans-35" x="159.033203"/>
      </g>
     </g>
    </g>
    <g id="ytick_5">
     <g id="line2d_21">
      <path d="M 54.02 173.636306 
L 554.175 173.636306 
" clip-path="url(#pd654781b3f)" style="fill: none; stroke: #b0b0b0; stroke-width: 0.8; stroke-linecap: square"/>
     </g>
     <g id="line2d_22">
      <g>
       <use xlink:href="#mb297fdc934" x="54.02" y="173.636306" style="stroke: #000000; stroke-width: 0.8"/>
      </g>
     </g>
     <g id="text_12">
      <!-- 0.20 -->
      <g transform="translate(24.754375 177.435524) scale(0.1 -0.1)">
       <use xlink:href="#DejaVuSans-30"/>
       <use xlink:href="#DejaVuSans-2e" x="63.623047"/>
       <use xlink:href="#DejaVuSans-32" x="95.410156"/>
       <use xlink:href="#DejaVuSans-30" x="159.033203"/>
      </g>
     </g>
    </g>
    <g id="ytick_6">
     <g id="line2d_23">
      <path d="M 54.02 137.535382 
L 554.175 137.535382 
" clip-path="url(#pd654781b3f)" style="fill: none; stroke: #b0b0b0; stroke-width: 0.8; stroke-linecap: square"/>
     </g>
     <g id="line2d_24">
      <g>
       <use xlink:href="#mb297fdc934" x="54.02" y="137.535382" style="stroke: #000000; stroke-width: 0.8"/>
      </g>
     </g>
     <g id="text_13">
      <!-- 0.25 -->
      <g transform="translate(24.754375 141.334601) scale(0.1 -0.1)">
       <use xlink:href="#DejaVuSans-30"/>
       <use xlink:href="#DejaVuSans-2e" x="63.623047"/>
       <use xlink:href="#DejaVuSans-32" x="95.410156"/>
       <use xlink:href="#DejaVuSans-35" x="159.033203"/>
      </g>
     </g>
    </g>
    <g id="ytick_7">
     <g id="line2d_25">
      <path d="M 54.02 101.434458 
L 554.175 101.434458 
" clip-path="url(#pd654781b3f)" style="fill: none; stroke: #b0b0b0; stroke-width: 0.8; stroke-linecap: square"/>
     </g>
     <g id="line2d_26">
      <g>
       <use xlink:href="#mb297fdc934" x="54.02" y="101.434458" style="stroke: #000000; stroke-width: 0.8"/>
      </g>
     </g>
     <g id="text_14">
      <!-- 0.30 -->
      <g transform="translate(24.754375 105.233677) scale(0.1 -0.1)">
       <use xlink:href="#DejaVuSans-30"/>
       <use xlink:href="#DejaVuSans-2e" x="63.623047"/>
       <use xlink:href="#DejaVuSans-33" x="95.410156"/>
       <use xlink:href="#DejaVuSans-30" x="159.033203"/>
      </g>
     </g>
    </g>
    <g id="ytick_8">
     <g id="line2d_27">
      <path d="M 54.02 65.333535 
L 554.175 65.333535 
" clip-path="url(#pd654781b3f)" style="fill: none; stroke: #b0b0b0; stroke-width: 0.8; stroke-linecap: square"/>
     </g>
     <g id="line2d_28">
      <g>
       <use xlink:href="#mb297fdc934" x="54.02" y="65.333535" style="stroke: #000000; stroke-width: 0.8"/>
      </g>
     </g>
     <g id="text_15">
      <!-- 0.35 -->
      <g transform="translate(24.754375 69.132754) scale(0.1 -0.1)">
       <use xlink:href="#DejaVuSans-30"/>
       <use xlink:href="#DejaVuSans-2e" x="63.623047"/>
       <use xlink:href="#DejaVuSans-33" x="95.410156"/>
       <use xlink:href="#DejaVuSans-35" x="159.033203"/>
      </g>
     </g>
    </g>
    <g id="text_16">
     <!-- Distance / m -->
     <g transform="translate(18.674688 211.975313) rotate(-90) scale(0.1 -0.1)">
      <defs>
       <path id="DejaVuSans-44" d="M 1259 4147 
L 1259 519 
L 2022 519 
Q 2988 519 3436 956 
Q 3884 1394 3884 2338 
Q 3884 3275 3436 3711 
Q 2988 4147 2022 4147 
L 1259 4147 
z
M 628 4666 
L 1925 4666 
Q 3281 4666 3915 4102 
Q 4550 3538 4550 2338 
Q 4550 1131 3912 565 
Q 3275 0 1925 0 
L 628 0 
L 628 4666 
z
" transform="scale(0.015625)"/>
       <path id="DejaVuSans-74" d="M 1172 4494 
L 1172 3500 
L 2356 3500 
L 2356 3053 
L 1172 3053 
L 1172 1153 
Q 1172 725 1289 603 
Q 1406 481 1766 481 
L 2356 481 
L 2356 0 
L 1766 0 
Q 1100 0 847 248 
Q 594 497 594 1153 
L 594 3053 
L 172 3053 
L 172 3500 
L 594 3500 
L 594 4494 
L 1172 4494 
z
" transform="scale(0.015625)"/>
       <path id="DejaVuSans-61" d="M 2194 1759 
Q 1497 1759 1228 1600 
Q 959 1441 959 1056 
Q 959 750 1161 570 
Q 1363 391 1709 391 
Q 2188 391 2477 730 
Q 2766 1069 2766 1631 
L 2766 1759 
L 2194 1759 
z
M 3341 1997 
L 3341 0 
L 2766 0 
L 2766 531 
Q 2569 213 2275 61 
Q 1981 -91 1556 -91 
Q 1019 -91 701 211 
Q 384 513 384 1019 
Q 384 1609 779 1909 
Q 1175 2209 1959 2209 
L 2766 2209 
L 2766 2266 
Q 2766 2663 2505 2880 
Q 2244 3097 1772 3097 
Q 1472 3097 1187 3025 
Q 903 2953 641 2809 
L 641 3341 
Q 956 3463 1253 3523 
Q 1550 3584 1831 3584 
Q 2591 3584 2966 3190 
Q 3341 2797 3341 1997 
z
" transform="scale(0.015625)"/>
       <path id="DejaVuSans-6e" d="M 3513 2113 
L 3513 0 
L 2938 0 
L 2938 2094 
Q 2938 2591 2744 2837 
Q 2550 3084 2163 3084 
Q 1697 3084 1428 2787 
Q 1159 2491 1159 1978 
L 1159 0 
L 581 0 
L 581 3500 
L 1159 3500 
L 1159 2956 
Q 1366 3272 1645 3428 
Q 1925 3584 2291 3584 
Q 2894 3584 3203 3211 
Q 3513 2838 3513 2113 
z
" transform="scale(0.015625)"/>
       <path id="DejaVuSans-63" d="M 3122 3366 
L 3122 2828 
Q 2878 2963 2633 3030 
Q 2388 3097 2138 3097 
Q 1578 3097 1268 2742 
Q 959 2388 959 1747 
Q 959 1106 1268 751 
Q 1578 397 2138 397 
Q 2388 397 2633 464 
Q 2878 531 3122 666 
L 3122 134 
Q 2881 22 2623 -34 
Q 2366 -91 2075 -91 
Q 1284 -91 818 406 
Q 353 903 353 1747 
Q 353 2603 823 3093 
Q 1294 3584 2113 3584 
Q 2378 3584 2631 3529 
Q 2884 3475 3122 3366 
z
" transform="scale(0.015625)"/>
      </defs>
      <use xlink:href="#DejaVuSans-44"/>
      <use xlink:href="#DejaVuSans-69" x="77.001953"/>
      <use xlink:href="#DejaVuSans-73" x="104.785156"/>
      <use xlink:href="#DejaVuSans-74" x="156.884766"/>
      <use xlink:href="#DejaVuSans-61" x="196.09375"/>
      <use xlink:href="#DejaVuSans-6e" x="257.373047"/>
      <use xlink:href="#DejaVuSans-63" x="320.751953"/>
      <use xlink:href="#DejaVuSans-65" x="375.732422"/>
      <use xlink:href="#DejaVuSans-20" x="437.255859"/>
      <use xlink:href="#DejaVuSans-2f" x="469.042969"/>
      <use xlink:href="#DejaVuSans-20" x="502.734375"/>
      <use xlink:href="#DejaVuSans-6d" x="534.521484"/>
     </g>
    </g>
   </g>
   <g id="line2d_29">
    <path d="M 54.02 318.04 
L 57.52459 316.344004 
L 60.528524 314.553001 
L 64.033113 313.362734 
L 67.037047 311.879651 
L 70.040981 310.128858 
L 73.044915 309.136867 
L 76.549505 307.370576 
L 79.553438 305.588067 
L 89.065896 301.052069 
L 95.073764 297.444802 
L 98.077698 296.416456 
L 101.582287 294.317794 
L 110.594089 290.067365 
L 114.098679 287.993978 
L 120.106547 285.255811 
L 123.11048 284.203297 
L 126.61507 282.148187 
L 132.622938 279.253169 
L 136.127528 277.171954 
L 142.636051 273.975723 
L 145.139329 272.491446 
L 169.671456 260.964332 
L 173.176046 258.932653 
L 176.17998 257.958015 
L 179.183914 256.492647 
L 182.187848 254.186673 
L 185.692437 253.010174 
L 195.204895 248.493965 
L 198.208829 246.683725 
L 211.726532 240.151087 
L 214.22981 238.702164 
L 229.249479 231.642801 
L 232.754069 229.549563 
L 235.758003 228.211825 
L 238.761937 227.205966 
L 242.266527 225.464703 
L 245.27046 223.684917 
L 251.278328 220.832842 
L 254.782918 218.756253 
L 274.308488 209.372768 
L 276.311111 208.181592 
L 282.819635 205.217256 
L 285.322913 204.461673 
L 289.328158 202.11071 
L 292.332092 200.824415 
L 295.336026 199.789189 
L 297.839304 198.600091 
L 300.843238 196.240056 
L 301.84455 195.875607 
L 304.347828 195.039745 
L 307.351762 193.211564 
L 310.856351 192.042999 
L 316.864219 189.197578 
L 320.368809 187.093576 
L 326.376677 184.353277 
L 329.380611 183.331215 
L 332.384545 181.486179 
L 335.388478 180.532502 
L 338.392412 177.703802 
L 339.393724 177.484899 
L 341.897002 177.025942 
L 344.900936 175.544588 
L 347.90487 172.724302 
L 350.908804 172.284752 
L 353.412082 171.142339 
L 354.413393 170.579291 
L 357.417327 168.302449 
L 360.921917 167.126363 
L 363.425195 165.959006 
L 366.929785 163.421708 
L 369.933719 162.895481 
L 372.937653 161.473374 
L 375.941587 159.138764 
L 377.944209 158.7944 
L 379.446176 158.459759 
L 382.45011 156.991907 
L 385.454044 154.641563 
L 388.958634 153.509585 
L 394.966502 150.603336 
L 397.970435 147.821084 
L 400.974369 147.382959 
L 405.48027 144.821034 
L 410.987482 142.302361 
L 416.494695 140.590521 
L 417.996662 139.474575 
L 420.49994 137.627839 
L 423.003218 136.127174 
L 426.007152 135.660332 
L 433.016331 131.421586 
L 442.028133 127.155562 
L 445.032067 125.345229 
L 448.036001 124.366745 
L 451.039935 122.506022 
L 454.043869 121.572232 
L 456.046491 120.340474 
L 458.049114 119.205087 
L 464.056982 116.481969 
L 466.56026 115.679938 
L 468.062227 114.333088 
L 469.564194 112.932615 
L 470.06485 112.737132 
L 472.568128 112.737132 
L 473.068784 112.577941 
L 476.072718 109.785249 
L 479.076652 109.347357 
L 482.080586 107.970809 
L 483.582553 106.864872 
L 485.585175 105.391496 
L 488.589109 104.410954 
L 491.593043 102.514516 
L 495.598288 100.995836 
L 498.602222 99.236546 
L 513.621892 92.146752 
L 516.625826 89.81296 
L 521.131727 88.186537 
L 529.642873 84.140176 
L 532.646807 82.301857 
L 536.151396 80.781925 
L 538.654675 79.968828 
L 542.159264 77.836327 
L 548.667788 74.886476 
L 551.171066 74.070709 
L 554.175 72.203832 
L 554.175 72.203832 
" clip-path="url(#pd654781b3f)" style="fill: none; stroke: #808080; stroke-opacity: 0.3; stroke-linecap: square"/>
   </g>
   <g id="line2d_30">
    <path d="M 54.02 318.04 
L 63.532457 313.585619 
L 73.545571 307.488535 
L 83.058028 303.067756 
L 86.061962 301.56161 
L 92.06983 297.987206 
L 94.573108 297.217495 
L 97.076386 295.703196 
L 98.578353 294.901072 
L 101.582287 293.401677 
L 104.586221 291.596929 
L 111.094745 288.43329 
L 114.098679 286.691443 
L 116.601957 285.516347 
L 119.605891 283.163655 
L 121.107858 283.154089 
L 122.609825 283.192612 
L 123.11048 282.898708 
L 126.114414 280.179641 
L 133.123594 276.747113 
L 135.626872 275.28378 
L 138.630806 274.363153 
L 145.139329 271.278928 
L 148.143263 269.450365 
L 154.651787 266.351344 
L 160.659655 262.723797 
L 163.663589 261.723642 
L 167.168178 259.624303 
L 179.183914 254.017184 
L 182.688504 251.930582 
L 185.692437 250.573489 
L 188.195716 249.834545 
L 189.197027 249.186417 
L 192.701617 246.663556 
L 194.704239 245.389198 
L 198.208829 244.244516 
L 204.717352 241.104767 
L 207.721286 239.336559 
L 220.738333 233.446752 
L 222.740956 232.830165 
L 224.242923 231.508988 
L 225.74489 230.138633 
L 226.746201 229.69821 
L 229.249479 228.844614 
L 232.253413 226.974857 
L 235.758003 225.79078 
L 239.262593 224.057736 
L 242.266527 222.333913 
L 257.786852 215.098111 
L 263.79472 212.267618 
L 266.798654 210.449133 
L 269.802588 209.496364 
L 273.307177 207.404701 
L 279.815701 204.254398 
L 282.318979 202.76191 
L 285.322913 202.335261 
L 288.827503 199.750653 
L 291.831436 198.333768 
L 295.336026 197.159887 
L 297.839304 196.003772 
L 300.843238 193.728268 
L 302.345205 193.191933 
L 307.351762 191.590132 
L 310.856351 189.50946 
L 322.872087 183.916122 
L 326.376677 181.330481 
L 333.886512 177.796744 
L 335.889134 176.789905 
L 338.893068 175.003024 
L 345.401592 172.061583 
L 347.90487 171.277327 
L 351.409459 169.184075 
L 369.933719 160.522826 
L 373.438308 158.445348 
L 384.953388 153.095841 
L 385.9547 152.722976 
L 388.457978 151.952179 
L 396.468468 147.258063 
L 398.471091 146.424662 
L 401.475025 145.421171 
L 404.478959 144.055215 
L 407.482893 143.060042 
L 413.490761 139.360357 
L 417.496006 137.989224 
L 419.999284 136.792928 
L 423.003218 134.94471 
L 426.007152 134.019769 
L 429.511742 131.939847 
L 433.016331 130.744763 
L 439.024199 127.852896 
L 442.028133 126.122762 
L 445.032067 125.15366 
L 460.552392 117.911654 
L 473.068784 112.066618 
L 476.072718 110.231599 
L 479.577307 109.081822 
L 499.603534 99.459994 
L 501.105501 98.556647 
L 504.61009 97.368864 
L 527.139595 87.055388 
L 529.142217 86.439104 
L 533.147462 84.071642 
L 536.151396 82.787927 
L 538.654675 81.95177 
L 542.159264 79.863615 
L 545.163198 78.497745 
L 548.167132 77.498456 
L 551.671722 75.429211 
L 554.175 74.239787 
L 554.175 74.239787 
" clip-path="url(#pd654781b3f)" style="fill: none; stroke: #808080; stroke-opacity: 0.3; stroke-linecap: square"/>
   </g>
   <g id="line2d_31">
    <path d="M 54.02 318.04 
L 57.52459 316.899328 
L 60.528524 315.466099 
L 64.033113 313.376563 
L 75.548193 307.963357 
L 77.05016 307.073677 
L 79.052783 305.81269 
L 82.056717 304.89588 
L 83.558684 303.724605 
L 85.561306 302.232398 
L 89.065896 300.985754 
L 94.573108 298.392655 
L 99.079009 295.73553 
L 102.082943 294.170913 
L 105.086877 292.5365 
L 107.590155 291.261464 
L 110.594089 289.454326 
L 113.598023 288.481171 
L 117.603268 286.064951 
L 125.113103 282.083896 
L 126.114414 281.537992 
L 129.118348 280.605591 
L 136.628183 276.12341 
L 139.131461 274.824611 
L 141.63474 273.345908 
L 144.638674 272.889906 
L 152.148509 268.441545 
L 154.651787 267.192344 
L 157.655721 265.357468 
L 160.659655 263.97936 
L 163.663589 263.068143 
L 166.667523 261.286768 
L 169.671456 260.752762 
L 177.681947 257.016361 
L 179.68457 255.990341 
L 182.688504 254.160516 
L 185.692437 252.65266 
L 188.696371 250.844361 
L 191.700305 250.026076 
L 195.204895 247.820132 
L 198.208829 246.377505 
L 201.212763 244.519766 
L 207.721286 241.611933 
L 210.224565 240.78696 
L 212.727843 239.227193 
L 214.22981 238.393643 
L 217.233744 236.86052 
L 219.737022 235.347137 
L 223.241612 234.07336 
L 226.245546 232.326613 
L 229.249479 231.2862 
L 232.253413 229.472693 
L 235.758003 228.317113 
L 240.76456 225.892759 
L 241.765871 225.402117 
L 245.27046 223.278447 
L 248.274394 221.827532 
L 251.278328 220.027365 
L 254.282262 219.041364 
L 257.286196 217.083912 
L 260.790786 215.959839 
L 263.79472 214.588624 
L 266.798654 212.685976 
L 269.802588 211.816326 
L 272.806522 209.910096 
L 276.311111 208.637557 
L 279.815701 206.523264 
L 284.321602 204.457853 
L 285.823569 203.712751 
L 288.827503 201.915822 
L 292.332092 200.645642 
L 299.341271 197.383338 
L 301.343894 196.40258 
L 304.848483 194.292305 
L 307.852417 192.954634 
L 310.355696 192.190727 
L 313.860285 190.093125 
L 316.864219 189.13887 
L 320.368809 187.424307 
L 323.372743 185.596637 
L 326.376677 184.227963 
L 329.380611 183.334919 
L 332.8852 181.544717 
L 335.388478 179.970929 
L 338.392412 179.513677 
L 340.395035 178.335491 
L 342.898313 176.940709 
L 345.902247 175.296465 
L 347.90487 174.089585 
L 351.910115 172.649744 
L 358.418639 169.565907 
L 360.921917 168.287381 
L 363.425195 166.763899 
L 367.931096 165.138161 
L 370.434374 164.05332 
L 373.438308 163.037513 
L 386.956011 156.636167 
L 389.459289 155.614471 
L 391.962568 154.69292 
L 394.966502 152.930571 
L 397.970435 151.971016 
L 400.974369 149.606971 
L 405.980926 147.705998 
L 408.484204 146.685395 
L 410.486827 145.946088 
L 413.490761 144.198006 
L 416.99535 143.007054 
L 420.49994 140.895138 
L 423.503874 139.555677 
L 426.507808 138.552811 
L 429.511742 137.169744 
L 432.515676 136.178548 
L 435.51961 134.386614 
L 438.523544 133.391082 
L 442.028133 131.284141 
L 445.032067 130.209799 
L 448.036001 128.349972 
L 451.039935 127.429621 
L 455.04518 125.105832 
L 460.552392 122.553395 
L 464.056982 121.32728 
L 471.066161 118.011676 
L 473.068784 117.079304 
L 476.072718 116.234045 
L 481.079274 113.786462 
L 482.581241 113.193513 
L 485.585175 112.648975 
L 489.089765 110.508893 
L 492.093699 109.136564 
L 495.097633 108.166433 
L 498.602222 106.386859 
L 501.105501 104.884087 
L 504.61009 103.668148 
L 508.11468 102.173237 
L 510.617958 101.287703 
L 513.621892 99.483902 
L 516.625826 98.490048 
L 520.631071 96.108548 
L 523.635005 94.847682 
L 526.638939 93.827184 
L 539.655986 87.654002 
L 542.159264 86.573242 
L 545.163198 85.477618 
L 548.667788 83.439392 
L 551.671722 82.099969 
L 554.175 81.338706 
L 554.175 81.338706 
" clip-path="url(#pd654781b3f)" style="fill: none; stroke: #808080; stroke-opacity: 0.3; stroke-linecap: square"/>
   </g>
   <g id="line2d_32">
    <path d="M 54.02 318.04 
L 58.025245 316.602751 
L 61.029179 315.404617 
L 63.532457 314.618525 
L 70.541637 310.535791 
L 79.052783 306.643974 
L 82.557372 304.59175 
L 89.065896 301.539748 
L 91.569174 300.021262 
L 94.573108 299.597564 
L 96.075075 298.515457 
L 98.077698 297.136715 
L 101.081632 296.176078 
L 104.586221 294.114302 
L 117.603268 288.026878 
L 119.605891 286.797661 
L 122.109169 286.417521 
L 122.609825 286.347119 
L 123.611136 285.826684 
L 126.114414 284.373154 
L 129.118348 283.405104 
L 132.622938 280.89871 
L 135.626872 279.589072 
L 138.630806 278.617233 
L 144.638674 274.963746 
L 148.643919 273.617456 
L 151.647853 272.148723 
L 154.651787 270.420543 
L 160.659655 267.756733 
L 163.162933 266.978321 
L 163.663589 266.685188 
L 166.667523 264.05777 
L 170.172112 262.895367 
L 182.688504 257.02212 
L 185.191782 255.134443 
L 186.693749 254.612874 
L 189.197027 253.732565 
L 194.704239 251.231171 
L 198.208829 249.236017 
L 201.212763 248.244916 
L 204.717352 246.198799 
L 207.721286 244.760199 
L 210.72522 243.070898 
L 213.729154 242.075911 
L 217.233744 240.031665 
L 220.237678 238.748448 
L 222.740956 237.965592 
L 226.746201 235.848696 
L 229.249479 235.038916 
L 232.754069 232.977084 
L 253.781607 223.400226 
L 254.782918 222.724698 
L 257.286196 220.858131 
L 260.29013 220.439455 
L 265.797342 217.927352 
L 267.299309 217.140549 
L 269.802588 215.657356 
L 273.307177 214.495278 
L 279.815701 211.442714 
L 285.823569 207.929578 
L 288.827503 206.965557 
L 292.332092 205.459592 
L 294.83537 204.670228 
L 298.33996 202.632052 
L 301.343894 201.217648 
L 304.347828 199.48194 
L 307.852417 198.323277 
L 316.864219 194.133918 
L 319.868153 191.863625 
L 323.372743 190.691636 
L 332.8852 186.285958 
L 335.889134 184.524675 
L 341.897002 181.762593 
L 344.900936 179.966335 
L 347.90487 179.048209 
L 351.409459 177.063812 
L 354.413393 176.068235 
L 357.917983 174.050035 
L 360.921917 172.752429 
L 363.425195 172.029488 
L 368.431752 169.244589 
L 376.942898 165.226739 
L 379.446176 163.788581 
L 382.950766 162.626795 
L 388.958634 159.83665 
L 391.962568 158.094364 
L 394.966502 157.124402 
L 398.471091 155.094702 
L 408.484204 150.352218 
L 410.486827 149.176245 
L 413.490761 148.232647 
L 416.99535 146.270153 
L 423.003218 144.330918 
L 426.007152 142.068837 
L 436.520921 137.091161 
L 438.523544 135.861185 
L 441.527477 134.916041 
L 443.5301 133.716453 
L 445.032067 132.875055 
L 448.536657 131.713889 
L 451.540591 130.244063 
L 454.544525 128.550355 
L 458.049114 127.339661 
L 467.060916 123.332553 
L 470.06485 122.34055 
L 473.068784 120.58255 
L 476.072718 119.663925 
L 479.577307 117.617384 
L 483.081897 116.144484 
L 485.585175 115.304454 
L 488.589109 113.513339 
L 491.593043 112.60878 
L 495.598288 110.461262 
L 498.101567 109.646343 
L 501.606156 107.589897 
L 505.110746 106.171457 
L 507.614024 105.289647 
L 511.118614 103.285216 
L 520.130415 99.275109 
L 522.633694 98.898161 
L 523.134349 98.654921 
L 526.138283 95.989566 
L 529.142217 95.989566 
L 533.147462 93.238691 
L 536.151396 91.961391 
L 538.654675 91.1746 
L 541.658609 89.365369 
L 545.663854 88.013198 
L 551.171066 85.456686 
L 554.175 83.154438 
L 554.175 83.154438 
" clip-path="url(#pd654781b3f)" style="fill: none; stroke: #808080; stroke-opacity: 0.3; stroke-linecap: square"/>
   </g>
   <g id="line2d_33">
    <path d="M 54.02 318.04 
L 63.532457 313.543206 
L 66.536391 310.780722 
L 69.540325 310.734575 
L 70.541637 310.031582 
L 73.044915 308.192316 
L 76.048849 307.225414 
L 82.557372 303.169428 
L 85.561306 301.701912 
L 88.56524 299.414999 
L 94.573108 297.507655 
L 97.076386 295.943791 
L 101.081632 293.456275 
L 104.085566 292.525793 
L 107.590155 290.375969 
L 116.601957 286.169208 
L 120.607202 283.847242 
L 123.11048 282.688491 
L 126.114414 281.63538 
L 129.619004 279.511721 
L 132.622938 278.059622 
L 135.626872 276.210651 
L 142.135395 273.132659 
L 144.638674 271.543415 
L 149.144575 269.953515 
L 151.147197 268.998123 
L 154.651787 266.865481 
L 161.16031 263.673918 
L 164.164244 261.89759 
L 170.172112 259.062399 
L 173.176046 257.221672 
L 176.680636 255.503471 
L 179.183914 254.01026 
L 182.688504 252.79238 
L 185.692437 251.349643 
L 188.696371 249.52973 
L 192.200961 248.347305 
L 195.204895 246.821306 
L 198.208829 244.985005 
L 201.713418 243.499016 
L 204.717352 242.467257 
L 207.721286 240.951961 
L 214.730465 236.794991 
L 220.237678 234.177434 
L 222.740956 232.589998 
L 225.244234 231.798832 
L 226.245546 231.447634 
L 229.750135 229.723006 
L 232.253413 228.153351 
L 235.758003 227.016828 
L 246.772427 221.85003 
L 248.77505 220.763663 
L 255.283574 216.898649 
L 271.80521 209.206832 
L 276.811767 206.688184 
L 279.815701 204.963059 
L 286.324224 202.058967 
L 288.827503 201.18379 
L 292.332092 199.137356 
L 299.841927 195.640216 
L 304.347828 193.466347 
L 307.351762 191.668444 
L 310.355696 190.747617 
L 313.860285 188.645099 
L 317.364875 187.396212 
L 320.368809 185.90632 
L 322.872087 184.32624 
L 325.876021 183.407871 
L 327.377988 182.306988 
L 329.380611 180.902265 
L 332.8852 179.730219 
L 343.899625 174.559137 
L 347.90487 172.709084 
L 354.413393 170.553024 
L 357.917983 168.451452 
L 360.921917 166.988193 
L 363.925851 165.274053 
L 367.43044 164.019329 
L 370.434374 162.535292 
L 372.937653 161.024697 
L 376.442242 159.874335 
L 379.446176 158.488202 
L 382.45011 157.506915 
L 385.9547 155.438788 
L 388.958634 153.925685 
L 391.962568 152.133761 
L 395.467157 150.951972 
L 412.489449 143.027507 
L 413.991416 142.242324 
L 416.99535 140.459225 
L 420.49994 138.94809 
L 423.503874 137.883802 
L 429.511742 135.240403 
L 432.01502 134.85724 
L 432.515676 134.620155 
L 435.51961 132.321779 
L 439.024199 131.160256 
L 448.036001 126.924461 
L 451.039935 125.998361 
L 454.544525 123.914079 
L 461.053048 121.011998 
L 464.056982 119.959493 
L 467.060916 118.643167 
L 470.06485 117.628287 
L 473.068784 115.782171 
L 476.072718 114.848059 
L 480.077963 112.498741 
L 482.581241 111.31101 
L 485.585175 110.422007 
L 494.096321 106.3984 
L 500.604845 103.395156 
L 502.106812 102.8251 
L 504.61009 101.844911 
L 508.11468 99.864659 
L 516.12517 96.138352 
L 517.126481 95.739825 
L 520.130415 94.705938 
L 528.641562 90.739736 
L 529.642873 90.342845 
L 533.147462 89.084188 
L 536.151396 87.592709 
L 538.654675 86.091161 
L 542.159264 84.88107 
L 548.667788 81.990722 
L 551.171066 81.092677 
L 554.175 78.144387 
L 554.175 78.144387 
" clip-path="url(#pd654781b3f)" style="fill: none; stroke: #808080; stroke-opacity: 0.3; stroke-linecap: square"/>
   </g>
   <g id="line2d_34">
    <path d="M 54.02 318.04 
L 57.52459 316.357179 
L 60.528524 314.58009 
L 64.033113 313.382825 
L 66.536391 312.154842 
L 69.540325 309.789289 
L 71.042292 309.278664 
L 73.044915 308.620398 
L 76.048849 307.125139 
L 79.052783 304.770399 
L 83.058028 303.350352 
L 85.561306 302.219441 
L 92.06983 298.176337 
L 95.073764 297.201848 
L 97.577042 296.060774 
L 98.578353 295.052436 
L 100.580976 292.748941 
L 101.081632 292.350167 
L 104.586221 291.82487 
L 107.590155 290.846804 
L 110.594089 289.420965 
L 114.098679 287.298291 
L 116.601957 286.070386 
L 119.605891 283.785789 
L 122.109169 282.931436 
L 123.11048 282.551179 
L 127.115726 280.495867 
L 130.11966 278.85455 
L 132.622938 277.727084 
L 135.126216 276.964371 
L 136.628183 276.030626 
L 138.630806 274.74827 
L 145.139329 271.693902 
L 148.143263 269.899568 
L 151.147197 268.911308 
L 154.651787 266.776496 
L 158.156376 264.96006 
L 161.16031 263.239076 
L 171.173423 258.523978 
L 173.176046 257.543442 
L 176.680636 255.430942 
L 182.187848 252.853664 
L 186.193093 251.439989 
L 190.698994 249.381978 
L 196.706862 246.58471 
L 199.710796 245.192016 
L 201.713418 244.107926 
L 207.220631 240.694573 
L 210.72522 239.07578 
L 214.22981 237.906923 
L 216.733088 236.790192 
L 220.237678 234.649016 
L 223.241612 233.136803 
L 225.74489 231.547778 
L 226.746201 231.297008 
L 228.748824 230.991661 
L 229.249479 230.77737 
L 232.253413 227.986856 
L 235.758003 226.775363 
L 238.761937 225.346714 
L 242.266527 223.243931 
L 247.773739 220.648284 
L 251.778984 218.238952 
L 257.286196 215.672716 
L 260.29013 214.68016 
L 264.295375 212.298389 
L 266.798654 211.116801 
L 270.303243 208.996251 
L 273.307177 207.540037 
L 276.311111 205.746981 
L 279.815701 204.568661 
L 288.326847 200.598329 
L 289.828814 199.462227 
L 291.831436 198.000182 
L 295.336026 196.82242 
L 301.343894 193.818604 
L 304.347828 191.600192 
L 307.852417 190.020612 
L 310.856351 189.02795 
L 321.37012 184.100134 
L 326.376677 181.572784 
L 329.380611 179.403074 
L 332.8852 178.345151 
L 335.388478 177.880844 
L 339.393724 174.945751 
L 341.897002 173.451081 
L 345.401592 172.281721 
L 357.417327 166.677247 
L 360.921917 164.551064 
L 363.925851 163.100182 
L 366.929785 161.296277 
L 369.933719 160.346586 
L 380.447487 155.183868 
L 382.950766 153.747175 
L 392.963879 149.028628 
L 403.978303 143.912785 
L 407.983549 141.696766 
L 410.987482 140.628731 
L 413.991416 139.168473 
L 416.99535 137.381441 
L 419.999284 136.385776 
L 423.503874 134.271061 
L 436.520921 128.382882 
L 438.523544 127.719898 
L 444.531411 123.977877 
L 445.532723 123.600839 
L 448.036001 122.789719 
L 451.039935 120.889883 
L 454.544525 119.622047 
L 458.049114 117.58377 
L 465.058293 114.318827 
L 467.060916 113.465407 
L 470.06485 112.50445 
L 480.578619 107.581465 
L 494.596977 100.899559 
L 496.5996 100.300463 
L 498.101567 99.844683 
L 501.105501 98.445899 
L 504.109434 96.081405 
L 507.113368 95.068841 
L 511.118614 93.65822 
L 514.122548 92.194332 
L 516.625826 90.666744 
L 520.631071 89.284179 
L 527.64025 86.02032 
L 534.148774 82.920372 
L 543.160576 78.688695 
L 552.172377 74.631954 
L 554.175 73.972127 
L 554.175 73.972127 
" clip-path="url(#pd654781b3f)" style="fill: none; stroke: #808080; stroke-opacity: 0.3; stroke-linecap: square"/>
   </g>
   <g id="line2d_35">
    <path d="M 54.02 318.04 
L 60.528524 315.010919 
L 63.532457 312.821074 
L 66.536391 312.75229 
L 70.040981 310.64156 
L 73.044915 309.255043 
L 76.048849 307.43637 
L 79.052783 306.534088 
L 82.557372 304.236887 
L 85.060651 301.936641 
L 85.561306 301.643944 
L 92.06983 299.636836 
L 94.573108 299.33798 
L 96.075075 298.025395 
L 97.577042 296.645264 
L 98.077698 296.403658 
L 101.081632 295.797507 
L 104.586221 293.714813 
L 110.093433 291.180458 
L 111.5954 290.117628 
L 113.598023 288.680721 
L 123.611136 284.060286 
L 127.115726 282.810057 
L 130.620315 281.262766 
L 132.622938 280.381757 
L 135.126216 279.566744 
L 136.127528 278.894518 
L 138.630806 277.094436 
L 145.139329 274.080527 
L 148.143263 273.0095 
L 151.147197 271.295253 
L 154.651787 270.149326 
L 157.655721 268.655321 
L 160.659655 266.84981 
L 164.164244 265.378654 
L 167.168178 264.309735 
L 170.172112 262.812919 
L 173.176046 261.052935 
L 176.17998 260.006788 
L 179.183914 258.261753 
L 182.688504 257.043718 
L 185.692437 255.698046 
L 188.696371 254.806828 
L 191.700305 252.978648 
L 195.204895 251.759268 
L 198.208829 250.275937 
L 201.212763 248.50335 
L 204.216697 247.67317 
L 214.22981 242.832376 
L 217.233744 241.151637 
L 220.237678 239.880685 
L 223.241612 238.839645 
L 226.746201 237.059643 
L 229.750135 235.290279 
L 235.257347 232.770745 
L 239.763248 231.13796 
L 241.765871 230.215345 
L 244.769805 228.377188 
L 247.773739 227.93251 
L 249.776361 226.136714 
L 250.777673 225.217121 
L 251.778984 224.784861 
L 254.782918 223.722301 
L 257.286196 222.631365 
L 260.29013 222.095989 
L 263.79472 219.665158 
L 267.299309 218.416529 
L 276.811767 214.025 
L 279.815701 212.776466 
L 282.819635 211.725404 
L 285.823569 210.305393 
L 289.328158 208.252025 
L 292.332092 206.936619 
L 295.336026 205.864899 
L 298.840616 204.085343 
L 301.343894 202.702763 
L 304.848483 201.447548 
L 320.368809 194.198873 
L 330.381922 189.848768 
L 332.384545 189.183474 
L 335.388478 186.883389 
L 338.893068 185.678481 
L 341.897002 184.304494 
L 344.900936 183.361828 
L 348.405526 181.26107 
L 351.409459 179.897966 
L 354.914049 178.659168 
L 363.425195 174.789119 
L 366.929785 172.71972 
L 369.933719 171.797102 
L 373.438308 170.218266 
L 375.941587 169.400311 
L 379.946832 167.264263 
L 382.45011 166.386323 
L 385.454044 164.543101 
L 388.958634 163.438737 
L 393.464535 161.325695 
L 394.966502 160.611691 
L 397.970435 159.695844 
L 401.475025 157.748019 
L 404.478959 156.714962 
L 410.987482 153.554973 
L 413.490761 152.074706 
L 416.99535 150.968633 
L 420.49994 149.415219 
L 423.003218 148.562122 
L 426.507808 146.469669 
L 430.012397 145.017625 
L 432.515676 144.132555 
L 435.51961 142.390813 
L 439.024199 141.186211 
L 446.033378 138.167588 
L 448.036001 137.528294 
L 451.039935 135.668996 
L 454.043869 135.224755 
L 455.545836 134.337428 
L 458.049114 132.894556 
L 464.056982 130.139015 
L 467.060916 129.176904 
L 470.565506 127.421116 
L 473.068784 125.985309 
L 476.573373 124.759403 
L 489.089765 118.933555 
L 492.594354 117.488819 
L 495.097633 116.624074 
L 498.101567 115.232933 
L 501.606156 114.094401 
L 507.113368 111.572516 
L 512.119925 109.663537 
L 516.625826 107.621283 
L 520.631071 106.209588 
L 526.638939 103.429263 
L 532.146151 100.908269 
L 537.653363 98.830597 
L 546.665165 94.954643 
L 548.667788 94.213269 
L 551.671722 92.95378 
L 554.175 92.135656 
L 554.175 92.135656 
" clip-path="url(#pd654781b3f)" style="fill: none; stroke: #808080; stroke-opacity: 0.3; stroke-linecap: square"/>
   </g>
   <g id="line2d_36">
    <path d="M 54.02 318.04 
L 57.52459 316.339314 
L 60.528524 314.48025 
L 64.033113 312.772023 
L 69.540325 309.330898 
L 71.542948 308.681283 
L 72.544259 308.373702 
L 73.545571 307.700726 
L 76.048849 305.836036 
L 79.052783 305.361789 
L 82.557372 302.751545 
L 89.065896 299.614431 
L 92.06983 297.826799 
L 98.077698 294.923298 
L 101.081632 292.695887 
L 104.085566 292.20463 
L 111.094745 287.963634 
L 114.098679 286.45331 
L 117.102613 284.668959 
L 129.619004 278.719536 
L 132.622938 276.777979 
L 135.126216 274.829065 
L 136.127528 274.564309 
L 138.630806 274.067571 
L 145.139329 270.099949 
L 148.143263 268.756374 
L 151.647853 267.552167 
L 157.655721 264.670542 
L 160.659655 262.853999 
L 163.663589 261.372254 
L 166.667523 259.091471 
L 169.671456 258.155774 
L 176.17998 254.166877 
L 179.68457 252.986412 
L 195.204895 245.659751 
L 198.208829 243.911147 
L 201.212763 242.933039 
L 207.721286 239.805828 
L 213.729154 236.155473 
L 216.733088 235.143517 
L 220.237678 232.494726 
L 222.740956 230.935278 
L 224.242923 230.665192 
L 225.74489 230.433224 
L 226.245546 230.123648 
L 228.748824 227.781217 
L 229.249479 227.476921 
L 232.253413 227.439202 
L 235.257347 225.099914 
L 237.25997 224.441597 
L 238.761937 223.924054 
L 241.765871 222.462055 
L 244.769805 220.153554 
L 248.274394 218.992722 
L 251.278328 217.539359 
L 257.286196 213.820622 
L 260.29013 212.884934 
L 263.79472 210.819008 
L 266.798654 209.811637 
L 272.806522 206.06949 
L 276.311111 204.859241 
L 279.815701 202.782714 
L 285.823569 200.050963 
L 288.827503 199.003283 
L 294.83537 195.296914 
L 297.839304 194.361302 
L 301.84455 192.004235 
L 307.852417 189.099429 
L 310.355696 187.54199 
L 313.860285 186.382403 
L 317.364875 184.628189 
L 320.368809 182.861286 
L 326.376677 180.101888 
L 328.879955 179.329811 
L 329.380611 179.001269 
L 332.384545 176.272694 
L 335.388478 175.346445 
L 338.893068 173.289886 
L 341.897002 172.256858 
L 345.401592 170.177711 
L 354.914049 165.617654 
L 357.917983 163.852176 
L 360.921917 162.53401 
L 363.425195 161.747652 
L 365.928473 159.829075 
L 366.429129 159.439255 
L 367.43044 159.039688 
L 369.933719 158.200598 
L 373.438308 156.104555 
L 385.9547 150.15044 
L 388.958634 148.359628 
L 395.467157 145.207529 
L 400.974369 141.777179 
L 404.979615 140.385755 
L 407.983549 138.859069 
L 413.490761 135.420428 
L 416.99535 134.211149 
L 420.49994 132.146423 
L 423.503874 130.652829 
L 426.507808 128.85071 
L 436.020265 124.308742 
L 439.024199 122.515311 
L 445.032067 119.751141 
L 448.536657 118.549024 
L 451.039935 117.372889 
L 457.548458 112.423798 
L 461.053048 111.230171 
L 467.060916 108.359604 
L 473.068784 104.670507 
L 476.072718 103.720456 
L 479.076652 101.849578 
L 481.57993 101.055558 
L 482.581241 100.650669 
L 485.585175 98.825946 
L 488.589109 97.871981 
L 492.093699 95.757464 
L 498.602222 92.596961 
L 501.606156 90.815285 
L 511.118614 86.271025 
L 513.621892 84.729763 
L 516.625826 83.81572 
L 521.131727 81.214692 
L 523.635005 79.929361 
L 526.138283 78.409244 
L 529.142217 77.473748 
L 532.646807 75.398861 
L 535.650741 74.401216 
L 539.15533 72.313385 
L 545.163198 69.554176 
L 548.167132 68.552343 
L 554.175 64.799514 
L 554.175 64.799514 
" clip-path="url(#pd654781b3f)" style="fill: none; stroke: #808080; stroke-opacity: 0.3; stroke-linecap: square"/>
   </g>
   <g id="line2d_37">
    <path d="M 54.02 318.04 
L 57.52459 316.461507 
L 60.528524 315.445892 
L 64.033113 313.361541 
L 67.037047 312.037927 
L 69.540325 311.258184 
L 71.542948 310.036525 
L 73.545571 308.903966 
L 79.553438 306.019623 
L 82.557372 304.219539 
L 88.56524 301.354689 
L 91.569174 299.022268 
L 94.573108 298.578398 
L 96.575731 297.367563 
L 98.578353 295.994196 
L 101.081632 294.124893 
L 104.586221 292.936709 
L 113.598023 288.709817 
L 120.106547 284.71513 
L 126.61507 281.782509 
L 129.118348 280.967965 
L 132.122282 278.629495 
L 135.126216 277.211755 
L 137.629494 276.40592 
L 139.131461 275.827603 
L 142.135395 274.330367 
L 144.638674 272.760781 
L 148.143263 271.553017 
L 151.647853 269.491385 
L 161.16031 264.905761 
L 163.663589 263.456465 
L 166.667523 262.936545 
L 170.172112 260.838879 
L 183.189159 254.593512 
L 185.692437 253.093872 
L 192.200961 249.942028 
L 195.204895 248.151771 
L 198.208829 246.687385 
L 201.713418 244.625224 
L 213.729154 238.895744 
L 216.733088 236.648598 
L 219.737022 235.700453 
L 223.241612 233.568144 
L 226.245546 232.211703 
L 229.249479 231.221996 
L 232.754069 229.123104 
L 239.262593 225.943831 
L 241.765871 224.443842 
L 244.769805 223.478081 
L 248.274394 220.889022 
L 251.278328 219.386002 
L 254.282262 217.172827 
L 257.286196 216.668717 
L 260.790786 214.555276 
L 267.299309 211.407302 
L 270.303243 209.625853 
L 273.307177 208.136825 
L 276.311111 206.320661 
L 279.815701 204.571183 
L 285.322913 201.12515 
L 288.827503 199.933365 
L 291.831436 198.137021 
L 294.83537 197.165775 
L 298.33996 195.060568 
L 307.852417 190.520273 
L 310.355696 188.963456 
L 313.860285 187.812392 
L 317.364875 186.053107 
L 320.368809 184.271015 
L 323.372743 182.787366 
L 329.881266 178.855569 
L 332.8852 177.350915 
L 335.889134 175.56057 
L 348.906181 169.321297 
L 350.908804 168.074247 
L 353.412082 167.270478 
L 354.413393 166.911948 
L 357.417327 165.45346 
L 360.421261 163.132719 
L 370.434374 158.563738 
L 372.937653 157.762853 
L 376.442242 155.650041 
L 379.446176 154.196345 
L 385.454044 150.48022 
L 388.958634 149.317335 
L 398.471091 144.779245 
L 401.475025 142.973536 
L 416.99535 135.689571 
L 420.49994 133.622257 
L 426.507808 130.894774 
L 429.011086 130.122772 
L 431.013709 128.909126 
L 433.016331 127.777688 
L 448.036001 120.736764 
L 451.039935 118.872563 
L 454.544525 117.718762 
L 461.053048 114.780653 
L 463.556326 113.990333 
L 467.060916 111.871762 
L 495.097633 98.715875 
L 498.602222 96.641194 
L 536.151396 79.214175 
L 538.654675 78.400454 
L 541.658609 76.529381 
L 545.663854 75.143127 
L 548.667788 73.623848 
L 551.671722 71.849728 
L 554.175 70.680298 
L 554.175 70.680298 
" clip-path="url(#pd654781b3f)" style="fill: none; stroke: #808080; stroke-opacity: 0.3; stroke-linecap: square"/>
   </g>
   <g id="line2d_38">
    <path d="M 54.02 318.04 
L 58.025245 316.572074 
L 61.029179 315.122838 
L 70.040981 309.71251 
L 72.544259 308.929326 
L 73.545571 308.263273 
L 76.048849 306.401311 
L 79.052783 305.471609 
L 82.557372 302.883058 
L 88.56524 300.031226 
L 91.569174 297.711439 
L 94.573108 297.275697 
L 96.575731 296.089407 
L 98.578353 294.978377 
L 101.081632 293.75403 
L 104.085566 291.439471 
L 107.089499 290.533498 
L 109.592778 288.644946 
L 110.594089 288.015768 
L 114.098679 286.820161 
L 116.601957 285.650273 
L 120.106547 283.013545 
L 123.611136 280.978551 
L 129.118348 278.401525 
L 132.622938 275.838939 
L 145.139329 269.969306 
L 151.147197 266.325166 
L 154.151131 265.366663 
L 157.655721 263.275257 
L 160.659655 261.934378 
L 163.663589 260.975633 
L 167.168178 259.252161 
L 170.172112 257.473001 
L 173.176046 256.023656 
L 176.680636 253.9669 
L 179.68457 252.66995 
L 182.187848 251.886294 
L 185.692437 249.78165 
L 189.197027 248.276302 
L 191.700305 247.461571 
L 195.204895 245.386495 
L 198.208829 244.046998 
L 201.212763 243.034459 
L 204.216697 241.213723 
L 207.721286 240.05041 
L 210.224565 238.891429 
L 212.227187 237.088276 
L 213.228498 236.165159 
L 213.729154 235.878206 
L 216.733088 234.89996 
L 220.237678 232.80541 
L 226.746201 229.671214 
L 235.257347 224.427732 
L 238.761937 223.134024 
L 241.765871 220.445693 
L 245.27046 218.728838 
L 248.274394 216.94913 
L 251.278328 215.508078 
L 254.782918 213.452047 
L 260.790786 210.597813 
L 263.79472 208.788052 
L 267.299309 207.054822 
L 273.307177 203.417333 
L 279.815701 200.281998 
L 282.819635 198.520362 
L 285.823569 197.054819 
L 288.827503 195.311037 
L 291.831436 194.273457 
L 294.83537 192.008451 
L 297.839304 191.080996 
L 301.84455 188.741731 
L 304.848483 187.227552 
L 307.852417 185.469842 
L 313.860285 182.615459 
L 319.868153 178.95113 
L 322.872087 178.017982 
L 329.380611 174.084428 
L 332.384545 173.10914 
L 341.897002 167.313593 
L 344.900936 166.335077 
L 347.90487 164.493948 
L 351.409459 163.345141 
L 357.917983 160.215645 
L 363.925851 156.439394 
L 366.429129 154.507536 
L 367.43044 154.111503 
L 370.434374 153.077467 
L 376.442242 150.213294 
L 379.946832 148.17722 
L 382.45011 146.955373 
L 385.454044 144.674897 
L 388.457978 143.747631 
L 392.963879 141.185073 
L 398.471091 138.543283 
L 404.979615 134.652761 
L 410.987482 131.767622 
L 413.991416 129.987979 
L 416.99535 128.539446 
L 420.49994 126.477932 
L 423.503874 124.991511 
L 426.507808 123.213877 
L 429.511742 121.763334 
L 433.016331 119.703283 
L 439.024199 116.843074 
L 445.032067 113.202396 
L 448.036001 112.244133 
L 454.544525 108.273783 
L 457.548458 106.838675 
L 463.556326 103.126541 
L 467.060916 101.996648 
L 470.565506 100.25192 
L 476.072718 96.851464 
L 479.076652 95.924336 
L 482.080586 94.093245 
L 486.085831 91.729372 
L 489.089765 90.261157 
L 492.093699 88.462255 
L 494.596977 87.3033 
L 495.598288 86.461602 
L 497.600911 84.607257 
L 498.101567 84.323311 
L 501.105501 84.267776 
L 504.61009 81.63303 
L 507.614024 79.880059 
L 511.118614 78.689191 
L 514.122548 77.205294 
L 517.126481 75.267321 
L 519.62976 73.335744 
L 520.631071 72.952807 
L 523.134349 72.078761 
L 526.138283 69.805268 
L 529.142217 68.863268 
L 533.147462 66.541486 
L 538.654675 64.012775 
L 541.658609 63.085579 
L 545.163198 60.485113 
L 548.667788 58.743936 
L 551.671722 56.976915 
L 554.175 55.830476 
L 554.175 55.830476 
" clip-path="url(#pd654781b3f)" style="fill: none; stroke: #808080; stroke-opacity: 0.3; stroke-linecap: square"/>
   </g>
   <g id="line2d_39">
    <path d="M 54.02 318.04 
L 57.52459 315.936203 
L 60.528524 314.987519 
L 66.536391 312.162538 
L 70.040981 310.067042 
L 73.044915 309.076134 
L 77.05016 306.809849 
L 84.559995 302.961548 
L 85.561306 302.449833 
L 88.56524 301.483078 
L 91.569174 299.162616 
L 94.573108 298.72923 
L 96.575731 297.534181 
L 104.085566 292.917144 
L 107.089499 291.969091 
L 110.093433 290.158347 
L 113.598023 288.094401 
L 116.601957 287.591979 
L 120.106547 285.013563 
L 132.622938 279.15021 
L 136.127528 277.115637 
L 145.139329 272.872022 
L 151.147197 269.232284 
L 154.151131 268.274287 
L 157.155065 266.420079 
L 160.659655 265.21179 
L 164.164244 262.944824 
L 166.667523 261.065448 
L 170.172112 259.907968 
L 173.176046 258.460266 
L 176.680636 256.412317 
L 182.688504 253.558496 
L 185.692437 251.762921 
L 198.208829 245.906761 
L 201.212763 244.136289 
L 204.717352 242.954042 
L 207.721286 241.481545 
L 210.72522 239.689249 
L 214.22981 237.94262 
L 217.233744 236.194075 
L 223.241612 233.347474 
L 226.245546 231.585758 
L 229.249479 230.603264 
L 232.754069 228.526142 
L 238.761937 225.695481 
L 242.266527 223.638123 
L 245.27046 222.334646 
L 248.274394 221.338807 
L 251.278328 219.898293 
L 254.782918 217.843906 
L 260.790786 214.991578 
L 263.79472 213.240268 
L 266.798654 212.246332 
L 272.806522 208.538333 
L 276.311111 207.339537 
L 279.315045 205.553618 
L 282.318979 204.578542 
L 285.322913 202.260383 
L 295.836682 197.212168 
L 298.33996 195.744901 
L 301.343894 194.411475 
L 304.347828 193.406938 
L 307.852417 191.340392 
L 313.860285 188.496497 
L 320.368809 184.573069 
L 323.372743 183.102076 
L 326.376677 181.308969 
L 332.8852 178.194568 
L 335.889134 176.421249 
L 345.401592 171.910637 
L 347.90487 170.383103 
L 350.908804 169.450607 
L 352.911426 167.64768 
L 353.912738 166.722207 
L 354.413393 166.490236 
L 357.417327 165.93881 
L 363.925851 161.981747 
L 370.434374 158.861745 
L 373.438308 157.0953 
L 382.950766 152.587504 
L 385.9547 150.818057 
L 388.958634 149.356305 
L 391.962568 147.605448 
L 395.467157 146.406501 
L 398.471091 144.924041 
L 401.475025 143.143768 
L 407.482893 140.290726 
L 410.486827 138.022346 
L 413.991416 136.871556 
L 420.49994 133.737876 
L 426.507808 130.106017 
L 433.016331 126.976356 
L 436.020265 125.219569 
L 439.024199 123.750103 
L 442.028133 122.015523 
L 445.032067 121.006806 
L 448.536657 118.947444 
L 451.540591 117.470925 
L 457.548458 113.848173 
L 461.053048 112.665054 
L 464.056982 111.192757 
L 467.060916 109.406416 
L 470.565506 107.656338 
L 473.569439 105.905311 
L 479.577307 103.058075 
L 483.081897 101.018742 
L 486.085831 99.522682 
L 489.089765 97.754741 
L 495.097633 95.021936 
L 498.101567 94.004505 
L 501.606156 91.382297 
L 504.109434 89.837014 
L 507.614024 88.638452 
L 511.118614 86.584186 
L 517.126481 83.731192 
L 520.130415 81.930171 
L 523.635005 80.200753 
L 526.638939 78.434924 
L 532.646807 75.712992 
L 535.650741 74.714314 
L 542.159264 70.77175 
L 551.671722 66.271403 
L 554.175 64.726051 
L 554.175 64.726051 
" clip-path="url(#pd654781b3f)" style="fill: none; stroke: #808080; stroke-opacity: 0.3; stroke-linecap: square"/>
   </g>
   <g id="line2d_40">
    <path d="M 54.02 318.04 
L 60.528524 315.049643 
L 66.536391 311.997073 
L 71.042292 309.690373 
L 74.046226 308.227927 
L 78.051471 306.194451 
L 80.55475 304.881601 
L 86.562618 301.679694 
L 89.065896 300.394001 
L 91.569174 298.907596 
L 94.573108 298.030709 
L 97.076386 296.543889 
L 101.081632 294.193286 
L 110.093433 289.819018 
L 115.600646 287.040149 
L 117.102613 286.237366 
L 120.106547 284.469224 
L 123.611136 283.010386 
L 127.115726 281.267781 
L 129.619004 280.077413 
L 135.126216 277.011854 
L 145.639985 271.926611 
L 156.654409 266.492475 
L 160.659655 264.472441 
L 164.6649 262.554223 
L 167.168178 261.259893 
L 170.672768 259.670041 
L 176.680636 256.648795 
L 184.691126 252.730833 
L 187.194404 251.575363 
L 192.701617 249.000828 
L 200.211451 245.240057 
L 212.227187 239.334152 
L 217.233744 236.763065 
L 221.739645 234.548179 
L 224.743579 233.058066 
L 227.246857 231.865335 
L 229.750135 230.672369 
L 232.754069 229.003401 
L 240.263904 225.541681 
L 244.769805 223.138856 
L 248.77505 221.238396 
L 255.283574 217.760508 
L 258.287508 216.398719 
L 260.790786 215.368754 
L 264.796031 213.305958 
L 268.300621 211.598465 
L 275.3098 208.071442 
L 279.315045 206.075007 
L 292.832748 199.489286 
L 296.837993 197.670549 
L 299.341271 196.350559 
L 302.345205 194.79654 
L 317.364875 187.674934 
L 320.869464 185.808468 
L 324.87471 183.8296 
L 330.381922 181.083561 
L 334.887823 178.868146 
L 342.397658 175.144331 
L 345.902247 173.456824 
L 348.906181 171.967736 
L 354.413393 169.521003 
L 365.427818 163.823523 
L 366.929785 163.02935 
L 370.434374 161.622211 
L 379.946832 157.049106 
L 382.950766 155.601124 
L 385.9547 153.957798 
L 389.459289 152.424083 
L 392.963879 150.683541 
L 396.969124 148.752429 
L 403.978303 145.324662 
L 408.98486 142.91816 
L 413.991416 140.468569 
L 417.496006 138.872475 
L 423.003218 136.109017 
L 430.513053 132.537629 
L 433.516987 131.10465 
L 436.520921 129.611034 
L 439.524855 128.199749 
L 444.531411 125.700435 
L 451.039935 122.707493 
L 456.547147 119.889163 
L 458.54977 118.923416 
L 471.066161 113.168036 
L 475.572062 110.997533 
L 490.091076 104.142122 
L 493.595666 102.511589 
L 497.100255 100.84894 
L 507.113368 96.038915 
L 512.620581 93.495072 
L 521.131727 89.429839 
L 523.635005 88.28042 
L 526.638939 86.735746 
L 529.642873 85.514145 
L 533.147462 83.725883 
L 538.654675 81.295598 
L 543.661231 78.868805 
L 551.171066 75.379077 
L 554.175 73.747752 
L 554.175 73.747752 
" clip-path="url(#pd654781b3f)" style="fill: none; stroke: #000000; stroke-width: 2.5; stroke-linecap: square"/>
   </g>
   <g id="patch_3">
    <path d="M 54.02 318.04 
L 54.02 42.72 
" style="fill: none; stroke: #000000; stroke-width: 0.8; stroke-linejoin: miter; stroke-linecap: square"/>
   </g>
   <g id="patch_4">
    <path d="M 554.175 318.04 
L 554.175 42.72 
" style="fill: none; stroke: #000000; stroke-width: 0.8; stroke-linejoin: miter; stroke-linecap: square"/>
   </g>
   <g id="patch_5">
    <path d="M 54.02 318.04 
L 554.175 318.04 
" style="fill: none; stroke: #000000; stroke-width: 0.8; stroke-linejoin: miter; stroke-linecap: square"/>
   </g>
   <g id="patch_6">
    <path d="M 54.02 42.72 
L 554.175 42.72 
" style="fill: none; stroke: #000000; stroke-width: 0.8; stroke-linejoin: miter; stroke-linecap: square"/>
   </g>
   <g id="text_17">
    <!-- Distance over time (n = 11) -->
    <g transform="translate(220.244687 23.282625) scale(0.12 -0.12)">
     <defs>
      <path id="DejaVuSans-6f" d="M 1959 3097 
Q 1497 3097 1228 2736 
Q 959 2375 959 1747 
Q 959 1119 1226 758 
Q 1494 397 1959 397 
Q 2419 397 2687 759 
Q 2956 1122 2956 1747 
Q 2956 2369 2687 2733 
Q 2419 3097 1959 3097 
z
M 1959 3584 
Q 2709 3584 3137 3096 
Q 3566 2609 3566 1747 
Q 3566 888 3137 398 
Q 2709 -91 1959 -91 
Q 1206 -91 779 398 
Q 353 888 353 1747 
Q 353 2609 779 3096 
Q 1206 3584 1959 3584 
z
" transform="scale(0.015625)"/>
      <path id="DejaVuSans-76" d="M 191 3500 
L 800 3500 
L 1894 563 
L 2988 3500 
L 3597 3500 
L 2284 0 
L 1503 0 
L 191 3500 
z
" transform="scale(0.015625)"/>
      <path id="DejaVuSans-72" d="M 2631 2963 
Q 2534 3019 2420 3045 
Q 2306 3072 2169 3072 
Q 1681 3072 1420 2755 
Q 1159 2438 1159 1844 
L 1159 0 
L 581 0 
L 581 3500 
L 1159 3500 
L 1159 2956 
Q 1341 3275 1631 3429 
Q 1922 3584 2338 3584 
Q 2397 3584 2469 3576 
Q 2541 3569 2628 3553 
L 2631 2963 
z
" transform="scale(0.015625)"/>
      <path id="DejaVuSans-28" d="M 1984 4856 
Q 1566 4138 1362 3434 
Q 1159 2731 1159 2009 
Q 1159 1288 1364 580 
Q 1569 -128 1984 -844 
L 1484 -844 
Q 1016 -109 783 600 
Q 550 1309 550 2009 
Q 550 2706 781 3412 
Q 1013 4119 1484 4856 
L 1984 4856 
z
" transform="scale(0.015625)"/>
      <path id="DejaVuSans-3d" d="M 678 2906 
L 4684 2906 
L 4684 2381 
L 678 2381 
L 678 2906 
z
M 678 1631 
L 4684 1631 
L 4684 1100 
L 678 1100 
L 678 1631 
z
" transform="scale(0.015625)"/>
      <path id="DejaVuSans-29" d="M 513 4856 
L 1013 4856 
Q 1481 4119 1714 3412 
Q 1947 2706 1947 2009 
Q 1947 1309 1714 600 
Q 1481 -109 1013 -844 
L 513 -844 
Q 928 -128 1133 580 
Q 1338 1288 1338 2009 
Q 1338 2731 1133 3434 
Q 928 4138 513 4856 
z
" transform="scale(0.015625)"/>
     </defs>
     <use xlink:href="#DejaVuSans-44"/>
     <use xlink:href="#DejaVuSans-69" x="77.001953"/>
     <use xlink:href="#DejaVuSans-73" x="104.785156"/>
     <use xlink:href="#DejaVuSans-74" x="156.884766"/>
     <use xlink:href="#DejaVuSans-61" x="196.09375"/>
     <use xlink:href="#DejaVuSans-6e" x="257.373047"/>
     <use xlink:href="#DejaVuSans-63" x="320.751953"/>
     <use xlink:href="#DejaVuSans-65" x="375.732422"/>
     <use xlink:href="#DejaVuSans-20" x="437.255859"/>
     <use xlink:href="#DejaVuSans-6f" x="469.042969"/>
     <use xlink:href="#DejaVuSans-76" x="530.224609"/>
     <use xlink:href="#DejaVuSans-65" x="589.404297"/>
     <use xlink:href="#DejaVuSans-72" x="650.927734"/>
     <use xlink:href="#DejaVuSans-20" x="692.041016"/>
     <use xlink:href="#DejaVuSans-74" x="723.828125"/>
     <use xlink:href="#DejaVuSans-69" x="763.037109"/>
     <use xlink:href="#DejaVuSans-6d" x="790.820312"/>
     <use xlink:href="#DejaVuSans-65" x="888.232422"/>
     <use xlink:href="#DejaVuSans-20" x="949.755859"/>
     <use xlink:href="#DejaVuSans-28" x="981.542969"/>
     <use xlink:href="#DejaVuSans-6e" x="1020.556641"/>
     <use xlink:href="#DejaVuSans-20" x="1083.935547"/>
     <use xlink:href="#DejaVuSans-3d" x="1115.722656"/>
     <use xlink:href="#DejaVuSans-20" x="1199.511719"/>
     <use xlink:href="#DejaVuSans-31" x="1231.298828"/>
     <use xlink:href="#DejaVuSans-31" x="1294.921875"/>
     <use xlink:href="#DejaVuSans-29" x="1358.544922"/>
    </g>
    <!-- $v_{\mathrm{desired}} = 6,944\,\mathrm{m/s}$ -->
    <g transform="translate(247.0975 36.72) scale(0.12 -0.12)">
     <defs>
      <path id="DejaVuSans-Oblique-76" d="M 459 3500 
L 1069 3500 
L 1581 525 
L 3256 3500 
L 3866 3500 
L 1875 0 
L 1100 0 
L 459 3500 
z
" transform="scale(0.015625)"/>
      <path id="DejaVuSans-64" d="M 2906 2969 
L 2906 4863 
L 3481 4863 
L 3481 0 
L 2906 0 
L 2906 525 
Q 2725 213 2448 61 
Q 2172 -91 1784 -91 
Q 1150 -91 751 415 
Q 353 922 353 1747 
Q 353 2572 751 3078 
Q 1150 3584 1784 3584 
Q 2172 3584 2448 3432 
Q 2725 3281 2906 2969 
z
M 947 1747 
Q 947 1113 1208 752 
Q 1469 391 1925 391 
Q 2381 391 2643 752 
Q 2906 1113 2906 1747 
Q 2906 2381 2643 2742 
Q 2381 3103 1925 3103 
Q 1469 3103 1208 2742 
Q 947 2381 947 1747 
z
" transform="scale(0.015625)"/>
      <path id="DejaVuSans-36" d="M 2113 2584 
Q 1688 2584 1439 2293 
Q 1191 2003 1191 1497 
Q 1191 994 1439 701 
Q 1688 409 2113 409 
Q 2538 409 2786 701 
Q 3034 994 3034 1497 
Q 3034 2003 2786 2293 
Q 2538 2584 2113 2584 
z
M 3366 4563 
L 3366 3988 
Q 3128 4100 2886 4159 
Q 2644 4219 2406 4219 
Q 1781 4219 1451 3797 
Q 1122 3375 1075 2522 
Q 1259 2794 1537 2939 
Q 1816 3084 2150 3084 
Q 2853 3084 3261 2657 
Q 3669 2231 3669 1497 
Q 3669 778 3244 343 
Q 2819 -91 2113 -91 
Q 1303 -91 875 529 
Q 447 1150 447 2328 
Q 447 3434 972 4092 
Q 1497 4750 2381 4750 
Q 2619 4750 2861 4703 
Q 3103 4656 3366 4563 
z
" transform="scale(0.015625)"/>
      <path id="DejaVuSans-2c" d="M 750 794 
L 1409 794 
L 1409 256 
L 897 -744 
L 494 -744 
L 750 256 
L 750 794 
z
" transform="scale(0.015625)"/>
      <path id="DejaVuSans-39" d="M 703 97 
L 703 672 
Q 941 559 1184 500 
Q 1428 441 1663 441 
Q 2288 441 2617 861 
Q 2947 1281 2994 2138 
Q 2813 1869 2534 1725 
Q 2256 1581 1919 1581 
Q 1219 1581 811 2004 
Q 403 2428 403 3163 
Q 403 3881 828 4315 
Q 1253 4750 1959 4750 
Q 2769 4750 3195 4129 
Q 3622 3509 3622 2328 
Q 3622 1225 3098 567 
Q 2575 -91 1691 -91 
Q 1453 -91 1209 -44 
Q 966 3 703 97 
z
M 1959 2075 
Q 2384 2075 2632 2365 
Q 2881 2656 2881 3163 
Q 2881 3666 2632 3958 
Q 2384 4250 1959 4250 
Q 1534 4250 1286 3958 
Q 1038 3666 1038 3163 
Q 1038 2656 1286 2365 
Q 1534 2075 1959 2075 
z
" transform="scale(0.015625)"/>
     </defs>
     <use xlink:href="#DejaVuSans-Oblique-76" transform="translate(0 0.78125)"/>
     <use xlink:href="#DejaVuSans-64" transform="translate(59.179688 -15.625) scale(0.7)"/>
     <use xlink:href="#DejaVuSans-65" transform="translate(103.613281 -15.625) scale(0.7)"/>
     <use xlink:href="#DejaVuSans-73" transform="translate(146.679688 -15.625) scale(0.7)"/>
     <use xlink:href="#DejaVuSans-69" transform="translate(183.149414 -15.625) scale(0.7)"/>
     <use xlink:href="#DejaVuSans-72" transform="translate(202.597656 -15.625) scale(0.7)"/>
     <use xlink:href="#DejaVuSans-65" transform="translate(231.376953 -15.625) scale(0.7)"/>
     <use xlink:href="#DejaVuSans-64" transform="translate(274.443359 -15.625) scale(0.7)"/>
     <use xlink:href="#DejaVuSans-3d" transform="translate(341.09375 0.78125)"/>
     <use xlink:href="#DejaVuSans-36" transform="translate(444.365234 0.78125)"/>
     <use xlink:href="#DejaVuSans-2c" transform="translate(507.988281 0.78125)"/>
     <use xlink:href="#DejaVuSans-39" transform="translate(559.257812 0.78125)"/>
     <use xlink:href="#DejaVuSans-34" transform="translate(622.880859 0.78125)"/>
     <use xlink:href="#DejaVuSans-34" transform="translate(686.503906 0.78125)"/>
     <use xlink:href="#DejaVuSans-6d" transform="translate(766.362629 0.78125)"/>
     <use xlink:href="#DejaVuSans-2f" transform="translate(863.774739 0.78125)"/>
     <use xlink:href="#DejaVuSans-73" transform="translate(897.466145 0.78125)"/>
    </g>
   </g>
   <g id="legend_1">
    <g id="patch_7">
     <path d="M 61.02 65.398125 
L 134.085625 65.398125 
Q 136.085625 65.398125 136.085625 63.398125 
L 136.085625 49.72 
Q 136.085625 47.72 134.085625 47.72 
L 61.02 47.72 
Q 59.02 47.72 59.02 49.72 
L 59.02 63.398125 
Q 59.02 65.398125 61.02 65.398125 
z
" style="fill: #ffffff; opacity: 0.8; stroke: #cccccc; stroke-linejoin: miter"/>
    </g>
    <g id="line2d_41">
     <path d="M 63.02 55.818438 
L 73.02 55.818438 
L 83.02 55.818438 
" style="fill: none; stroke: #000000; stroke-width: 2.5; stroke-linecap: square"/>
    </g>
    <g id="text_18">
     <!-- Average -->
     <g transform="translate(91.02 59.318438) scale(0.1 -0.1)">
      <defs>
       <path id="DejaVuSans-41" d="M 2188 4044 
L 1331 1722 
L 3047 1722 
L 2188 4044 
z
M 1831 4666 
L 2547 4666 
L 4325 0 
L 3669 0 
L 3244 1197 
L 1141 1197 
L 716 0 
L 50 0 
L 1831 4666 
z
" transform="scale(0.015625)"/>
       <path id="DejaVuSans-67" d="M 2906 1791 
Q 2906 2416 2648 2759 
Q 2391 3103 1925 3103 
Q 1463 3103 1205 2759 
Q 947 2416 947 1791 
Q 947 1169 1205 825 
Q 1463 481 1925 481 
Q 2391 481 2648 825 
Q 2906 1169 2906 1791 
z
M 3481 434 
Q 3481 -459 3084 -895 
Q 2688 -1331 1869 -1331 
Q 1566 -1331 1297 -1286 
Q 1028 -1241 775 -1147 
L 775 -588 
Q 1028 -725 1275 -790 
Q 1522 -856 1778 -856 
Q 2344 -856 2625 -561 
Q 2906 -266 2906 331 
L 2906 616 
Q 2728 306 2450 153 
Q 2172 0 1784 0 
Q 1141 0 747 490 
Q 353 981 353 1791 
Q 353 2603 747 3093 
Q 1141 3584 1784 3584 
Q 2172 3584 2450 3431 
Q 2728 3278 2906 2969 
L 2906 3500 
L 3481 3500 
L 3481 434 
z
" transform="scale(0.015625)"/>
      </defs>
      <use xlink:href="#DejaVuSans-41"/>
      <use xlink:href="#DejaVuSans-76" x="62.533203"/>
      <use xlink:href="#DejaVuSans-65" x="121.712891"/>
      <use xlink:href="#DejaVuSans-72" x="183.236328"/>
      <use xlink:href="#DejaVuSans-61" x="224.349609"/>
      <use xlink:href="#DejaVuSans-67" x="285.628906"/>
      <use xlink:href="#DejaVuSans-65" x="349.105469"/>
     </g>
    </g>
   </g>
  </g>
 </g>
 <defs>
  <clipPath id="pd654781b3f">
   <rect x="54.02" y="42.72" width="500.155" height="275.32"/>
  </clipPath>
 </defs>
</svg>
