<?xml version="1.0" encoding="utf-8" standalone="no"?>
<!DOCTYPE svg PUBLIC "-//W3C//DTD SVG 1.1//EN"
  "http://www.w3.org/Graphics/SVG/1.1/DTD/svg11.dtd">
<svg xmlns:xlink="http://www.w3.org/1999/xlink" width="576pt" height="360pt" viewBox="0 0 576 360" xmlns="http://www.w3.org/2000/svg" version="1.1">
 <metadata>
  <rdf:RDF xmlns:dc="http://purl.org/dc/elements/1.1/" xmlns:cc="http://creativecommons.org/ns#" xmlns:rdf="http://www.w3.org/1999/02/22-rdf-syntax-ns#">
   <cc:Work>
    <dc:type rdf:resource="http://purl.org/dc/dcmitype/StillImage"/>
    <dc:date>2026-01-22T10:12:34.311925</dc:date>
    <dc:format>image/svg+xml</dc:format>
    <dc:creator>
     <cc:Agent>
      <dc:title>Matplotlib v3.9.4, https://matplotlib.org/</dc:title>
     </cc:Agent>
    </dc:creator>
   </cc:Work>
  </rdf:RDF>
 </metadata>
 <defs>
  <style type="text/css">*{stroke-linejoin: round; stroke-linecap: butt}</style>
 </defs>
 <g id="figure_1">
  <g id="patch_1">
   <path d="M 0 360 
L 576 360 
L 576 0 
L 0 0 
z
" style="fill: #ffffff"/>
  </g>
  <g id="axes_1">
   <g id="patch_2">
    <path d="M 54.02 318.04 
L 554.175 318.04 
L 554.175 43.584 
L 54.02 43.584 
z
" style="fill: #ffffff"/>
   </g>
   <g id="matplotlib.axis_1">
    <g id="xtick_1">
     <g id="line2d_1">
      <path d="M 54.02 318.04 
L 54.02 43.584 
" clip-path="url(#p4d6713445c)" style="fill: none; stroke: #b0b0b0; stroke-width: 0.8; stroke-linecap: square"/>
     </g>
     <g id="line2d_2">
      <defs>
       <path id="m08b9fb6f44" d="M 0 0 
L 0 3.5 
" style="stroke: #000000; stroke-width: 0.8"/>
      </defs>
      <g>
       <use xlink:href="#m08b9fb6f44" x="54.02" y="318.04" style="stroke: #000000; stroke-width: 0.8"/>
      </g>
     </g>
     <g id="text_1">
      <!-- 0.00 -->
      <g transform="translate(42.887188 332.638438) scale(0.1 -0.1)">
       <defs>
        <path id="DejaVuSans-30" d="M 2034 4250 
Q 1547 4250 1301 3770 
Q 1056 3291 1056 2328 
Q 1056 1369 1301 889 
Q 1547 409 2034 409 
Q 2525 409 2770 889 
Q 3016 1369 3016 2328 
Q 3016 3291 2770 3770 
Q 2525 4250 2034 4250 
z
M 2034 4750 
Q 2819 4750 3233 4129 
Q 3647 3509 3647 2328 
Q 3647 1150 3233 529 
Q 2819 -91 2034 -91 
Q 1250 -91 836 529 
Q 422 1150 422 2328 
Q 422 3509 836 4129 
Q 1250 4750 2034 4750 
z
" transform="scale(0.015625)"/>
        <path id="DejaVuSans-2e" d="M 684 794 
L 1344 794 
L 1344 0 
L 684 0 
L 684 794 
z
" transform="scale(0.015625)"/>
       </defs>
       <use xlink:href="#DejaVuSans-30"/>
       <use xlink:href="#DejaVuSans-2e" x="63.623047"/>
       <use xlink:href="#DejaVuSans-30" x="95.410156"/>
       <use xlink:href="#DejaVuSans-30" x="159.033203"/>
      </g>
     </g>
    </g>
    <g id="xtick_2">
     <g id="line2d_3">
      <path d="M 154.051 318.04 
L 154.051 43.584 
" clip-path="url(#p4d6713445c)" style="fill: none; stroke: #b0b0b0; stroke-width: 0.8; stroke-linecap: square"/>
     </g>
     <g id="line2d_4">
      <g>
       <use xlink:href="#m08b9fb6f44" x="154.051" y="318.04" style="stroke: #000000; stroke-width: 0.8"/>
      </g>
     </g>
     <g id="text_2">
      <!-- 0.01 -->
      <g transform="translate(142.918187 332.638438) scale(0.1 -0.1)">
       <defs>
        <path id="DejaVuSans-31" d="M 794 531 
L 1825 531 
L 1825 4091 
L 703 3866 
L 703 4441 
L 1819 4666 
L 2450 4666 
L 2450 531 
L 3481 531 
L 3481 0 
L 794 0 
L 794 531 
z
" transform="scale(0.015625)"/>
       </defs>
       <use xlink:href="#DejaVuSans-30"/>
       <use xlink:href="#DejaVuSans-2e" x="63.623047"/>
       <use xlink:href="#DejaVuSans-30" x="95.410156"/>
       <use xlink:href="#DejaVuSans-31" x="159.033203"/>
      </g>
     </g>
    </g>
    <g id="xtick_3">
     <g id="line2d_5">
      <path d="M 254.082 318.04 
L 254.082 43.584 
" clip-path="url(#p4d6713445c)" style="fill: none; stroke: #b0b0b0; stroke-width: 0.8; stroke-linecap: square"/>
     </g>
     <g id="line2d_6">
      <g>
       <use xlink:href="#m08b9fb6f44" x="254.082" y="318.04" style="stroke: #000000; stroke-width: 0.8"/>
      </g>
     </g>
     <g id="text_3">
      <!-- 0.02 -->
      <g transform="translate(242.949187 332.638438) scale(0.1 -0.1)">
       <defs>
        <path id="DejaVuSans-32" d="M 1228 531 
L 3431 531 
L 3431 0 
L 469 0 
L 469 531 
Q 828 903 1448 1529 
Q 2069 2156 2228 2338 
Q 2531 2678 2651 2914 
Q 2772 3150 2772 3378 
Q 2772 3750 2511 3984 
Q 2250 4219 1831 4219 
Q 1534 4219 1204 4116 
Q 875 4013 500 3803 
L 500 4441 
Q 881 4594 1212 4672 
Q 1544 4750 1819 4750 
Q 2544 4750 2975 4387 
Q 3406 4025 3406 3419 
Q 3406 3131 3298 2873 
Q 3191 2616 2906 2266 
Q 2828 2175 2409 1742 
Q 1991 1309 1228 531 
z
" transform="scale(0.015625)"/>
       </defs>
       <use xlink:href="#DejaVuSans-30"/>
       <use xlink:href="#DejaVuSans-2e" x="63.623047"/>
       <use xlink:href="#DejaVuSans-30" x="95.410156"/>
       <use xlink:href="#DejaVuSans-32" x="159.033203"/>
      </g>
     </g>
    </g>
    <g id="xtick_4">
     <g id="line2d_7">
      <path d="M 354.113 318.04 
L 354.113 43.584 
" clip-path="url(#p4d6713445c)" style="fill: none; stroke: #b0b0b0; stroke-width: 0.8; stroke-linecap: square"/>
     </g>
     <g id="line2d_8">
      <g>
       <use xlink:href="#m08b9fb6f44" x="354.113" y="318.04" style="stroke: #000000; stroke-width: 0.8"/>
      </g>
     </g>
     <g id="text_4">
      <!-- 0.03 -->
      <g transform="translate(342.980187 332.638438) scale(0.1 -0.1)">
       <defs>
        <path id="DejaVuSans-33" d="M 2597 2516 
Q 3050 2419 3304 2112 
Q 3559 1806 3559 1356 
Q 3559 666 3084 287 
Q 2609 -91 1734 -91 
Q 1441 -91 1130 -33 
Q 819 25 488 141 
L 488 750 
Q 750 597 1062 519 
Q 1375 441 1716 441 
Q 2309 441 2620 675 
Q 2931 909 2931 1356 
Q 2931 1769 2642 2001 
Q 2353 2234 1838 2234 
L 1294 2234 
L 1294 2753 
L 1863 2753 
Q 2328 2753 2575 2939 
Q 2822 3125 2822 3475 
Q 2822 3834 2567 4026 
Q 2313 4219 1838 4219 
Q 1578 4219 1281 4162 
Q 984 4106 628 3988 
L 628 4550 
Q 988 4650 1302 4700 
Q 1616 4750 1894 4750 
Q 2613 4750 3031 4423 
Q 3450 4097 3450 3541 
Q 3450 3153 3228 2886 
Q 3006 2619 2597 2516 
z
" transform="scale(0.015625)"/>
       </defs>
       <use xlink:href="#DejaVuSans-30"/>
       <use xlink:href="#DejaVuSans-2e" x="63.623047"/>
       <use xlink:href="#DejaVuSans-30" x="95.410156"/>
       <use xlink:href="#DejaVuSans-33" x="159.033203"/>
      </g>
     </g>
    </g>
    <g id="xtick_5">
     <g id="line2d_9">
      <path d="M 454.144 318.04 
L 454.144 43.584 
" clip-path="url(#p4d6713445c)" style="fill: none; stroke: #b0b0b0; stroke-width: 0.8; stroke-linecap: square"/>
     </g>
     <g id="line2d_10">
      <g>
       <use xlink:href="#m08b9fb6f44" x="454.144" y="318.04" style="stroke: #000000; stroke-width: 0.8"/>
      </g>
     </g>
     <g id="text_5">
      <!-- 0.04 -->
      <g transform="translate(443.011188 332.638438) scale(0.1 -0.1)">
       <defs>
        <path id="DejaVuSans-34" d="M 2419 4116 
L 825 1625 
L 2419 1625 
L 2419 4116 
z
M 2253 4666 
L 3047 4666 
L 3047 1625 
L 3713 1625 
L 3713 1100 
L 3047 1100 
L 3047 0 
L 2419 0 
L 2419 1100 
L 313 1100 
L 313 1709 
L 2253 4666 
z
" transform="scale(0.015625)"/>
       </defs>
       <use xlink:href="#DejaVuSans-30"/>
       <use xlink:href="#DejaVuSans-2e" x="63.623047"/>
       <use xlink:href="#DejaVuSans-30" x="95.410156"/>
       <use xlink:href="#DejaVuSans-34" x="159.033203"/>
      </g>
     </g>
    </g>
    <g id="xtick_6">
     <g id="line2d_11">
      <path d="M 554.175 318.04 
L 554.175 43.584 
" clip-path="url(#p4d6713445c)" style="fill: none; stroke: #b0b0b0; stroke-width: 0.8; stroke-linecap: square"/>
     </g>
     <g id="line2d_12">
      <g>
       <use xlink:href="#m08b9fb6f44" x="554.175" y="318.04" style="stroke: #000000; stroke-width: 0.8"/>
      </g>
     </g>
     <g id="text_6">
      <!-- 0.05 -->
      <g transform="translate(543.042187 332.638438) scale(0.1 -0.1)">
       <defs>
        <path id="DejaVuSans-35" d="M 691 4666 
L 3169 4666 
L 3169 4134 
L 1269 4134 
L 1269 2991 
Q 1406 3038 1543 3061 
Q 1681 3084 1819 3084 
Q 2600 3084 3056 2656 
Q 3513 2228 3513 1497 
Q 3513 744 3044 326 
Q 2575 -91 1722 -91 
Q 1428 -91 1123 -41 
Q 819 9 494 109 
L 494 744 
Q 775 591 1075 516 
Q 1375 441 1709 441 
Q 2250 441 2565 725 
Q 2881 1009 2881 1497 
Q 2881 1984 2565 2268 
Q 2250 2553 1709 2553 
Q 1456 2553 1204 2497 
Q 953 2441 691 2322 
L 691 4666 
z
" transform="scale(0.015625)"/>
       </defs>
       <use xlink:href="#DejaVuSans-30"/>
       <use xlink:href="#DejaVuSans-2e" x="63.623047"/>
       <use xlink:href="#DejaVuSans-30" x="95.410156"/>
       <use xlink:href="#DejaVuSans-35" x="159.033203"/>
      </g>
     </g>
    </g>
    <g id="text_7">
     <!-- Time / s -->
     <g transform="translate(284.396719 346.316563) scale(0.1 -0.1)">
      <defs>
       <path id="DejaVuSans-54" d="M -19 4666 
L 3928 4666 
L 3928 4134 
L 2272 4134 
L 2272 0 
L 1638 0 
L 1638 4134 
L -19 4134 
L -19 4666 
z
" transform="scale(0.015625)"/>
       <path id="DejaVuSans-69" d="M 603 3500 
L 1178 3500 
L 1178 0 
L 603 0 
L 603 3500 
z
M 603 4863 
L 1178 4863 
L 1178 4134 
L 603 4134 
L 603 4863 
z
" transform="scale(0.015625)"/>
       <path id="DejaVuSans-6d" d="M 3328 2828 
Q 3544 3216 3844 3400 
Q 4144 3584 4550 3584 
Q 5097 3584 5394 3201 
Q 5691 2819 5691 2113 
L 5691 0 
L 5113 0 
L 5113 2094 
Q 5113 2597 4934 2840 
Q 4756 3084 4391 3084 
Q 3944 3084 3684 2787 
Q 3425 2491 3425 1978 
L 3425 0 
L 2847 0 
L 2847 2094 
Q 2847 2600 2669 2842 
Q 2491 3084 2119 3084 
Q 1678 3084 1418 2786 
Q 1159 2488 1159 1978 
L 1159 0 
L 581 0 
L 581 3500 
L 1159 3500 
L 1159 2956 
Q 1356 3278 1631 3431 
Q 1906 3584 2284 3584 
Q 2666 3584 2933 3390 
Q 3200 3197 3328 2828 
z
" transform="scale(0.015625)"/>
       <path id="DejaVuSans-65" d="M 3597 1894 
L 3597 1613 
L 953 1613 
Q 991 1019 1311 708 
Q 1631 397 2203 397 
Q 2534 397 2845 478 
Q 3156 559 3463 722 
L 3463 178 
Q 3153 47 2828 -22 
Q 2503 -91 2169 -91 
Q 1331 -91 842 396 
Q 353 884 353 1716 
Q 353 2575 817 3079 
Q 1281 3584 2069 3584 
Q 2775 3584 3186 3129 
Q 3597 2675 3597 1894 
z
M 3022 2063 
Q 3016 2534 2758 2815 
Q 2500 3097 2075 3097 
Q 1594 3097 1305 2825 
Q 1016 2553 972 2059 
L 3022 2063 
z
" transform="scale(0.015625)"/>
       <path id="DejaVuSans-20" transform="scale(0.015625)"/>
       <path id="DejaVuSans-2f" d="M 1625 4666 
L 2156 4666 
L 531 -594 
L 0 -594 
L 1625 4666 
z
" transform="scale(0.015625)"/>
       <path id="DejaVuSans-73" d="M 2834 3397 
L 2834 2853 
Q 2591 2978 2328 3040 
Q 2066 3103 1784 3103 
Q 1356 3103 1142 2972 
Q 928 2841 928 2578 
Q 928 2378 1081 2264 
Q 1234 2150 1697 2047 
L 1894 2003 
Q 2506 1872 2764 1633 
Q 3022 1394 3022 966 
Q 3022 478 2636 193 
Q 2250 -91 1575 -91 
Q 1294 -91 989 -36 
Q 684 19 347 128 
L 347 722 
Q 666 556 975 473 
Q 1284 391 1588 391 
Q 1994 391 2212 530 
Q 2431 669 2431 922 
Q 2431 1156 2273 1281 
Q 2116 1406 1581 1522 
L 1381 1569 
Q 847 1681 609 1914 
Q 372 2147 372 2553 
Q 372 3047 722 3315 
Q 1072 3584 1716 3584 
Q 2034 3584 2315 3537 
Q 2597 3491 2834 3397 
z
" transform="scale(0.015625)"/>
      </defs>
      <use xlink:href="#DejaVuSans-54"/>
      <use xlink:href="#DejaVuSans-69" x="57.958984"/>
      <use xlink:href="#DejaVuSans-6d" x="85.742188"/>
      <use xlink:href="#DejaVuSans-65" x="183.154297"/>
      <use xlink:href="#DejaVuSans-20" x="244.677734"/>
      <use xlink:href="#DejaVuSans-2f" x="276.464844"/>
      <use xlink:href="#DejaVuSans-20" x="310.15625"/>
      <use xlink:href="#DejaVuSans-73" x="341.943359"/>
     </g>
    </g>
   </g>
   <g id="matplotlib.axis_2">
    <g id="ytick_1">
     <g id="line2d_13">
      <path d="M 54.02 318.04 
L 554.175 318.04 
" clip-path="url(#p4d6713445c)" style="fill: none; stroke: #b0b0b0; stroke-width: 0.8; stroke-linecap: square"/>
     </g>
     <g id="line2d_14">
      <defs>
       <path id="m33e0da769e" d="M 0 0 
L -3.5 0 
" style="stroke: #000000; stroke-width: 0.8"/>
      </defs>
      <g>
       <use xlink:href="#m33e0da769e" x="54.02" y="318.04" style="stroke: #000000; stroke-width: 0.8"/>
      </g>
     </g>
     <g id="text_8">
      <!-- 0.00 -->
      <g transform="translate(24.754375 321.839219) scale(0.1 -0.1)">
       <use xlink:href="#DejaVuSans-30"/>
       <use xlink:href="#DejaVuSans-2e" x="63.623047"/>
       <use xlink:href="#DejaVuSans-30" x="95.410156"/>
       <use xlink:href="#DejaVuSans-30" x="159.033203"/>
      </g>
     </g>
    </g>
    <g id="ytick_2">
     <g id="line2d_15">
      <path d="M 54.02 282.052367 
L 554.175 282.052367 
" clip-path="url(#p4d6713445c)" style="fill: none; stroke: #b0b0b0; stroke-width: 0.8; stroke-linecap: square"/>
     </g>
     <g id="line2d_16">
      <g>
       <use xlink:href="#m33e0da769e" x="54.02" y="282.052367" style="stroke: #000000; stroke-width: 0.8"/>
      </g>
     </g>
     <g id="text_9">
      <!-- 0.05 -->
      <g transform="translate(24.754375 285.851586) scale(0.1 -0.1)">
       <use xlink:href="#DejaVuSans-30"/>
       <use xlink:href="#DejaVuSans-2e" x="63.623047"/>
       <use xlink:href="#DejaVuSans-30" x="95.410156"/>
       <use xlink:href="#DejaVuSans-35" x="159.033203"/>
      </g>
     </g>
    </g>
    <g id="ytick_3">
     <g id="line2d_17">
      <path d="M 54.02 246.064734 
L 554.175 246.064734 
" clip-path="url(#p4d6713445c)" style="fill: none; stroke: #b0b0b0; stroke-width: 0.8; stroke-linecap: square"/>
     </g>
     <g id="line2d_18">
      <g>
       <use xlink:href="#m33e0da769e" x="54.02" y="246.064734" style="stroke: #000000; stroke-width: 0.8"/>
      </g>
     </g>
     <g id="text_10">
      <!-- 0.10 -->
      <g transform="translate(24.754375 249.863953) scale(0.1 -0.1)">
       <use xlink:href="#DejaVuSans-30"/>
       <use xlink:href="#DejaVuSans-2e" x="63.623047"/>
       <use xlink:href="#DejaVuSans-31" x="95.410156"/>
       <use xlink:href="#DejaVuSans-30" x="159.033203"/>
      </g>
     </g>
    </g>
    <g id="ytick_4">
     <g id="line2d_19">
      <path d="M 54.02 210.077101 
L 554.175 210.077101 
" clip-path="url(#p4d6713445c)" style="fill: none; stroke: #b0b0b0; stroke-width: 0.8; stroke-linecap: square"/>
     </g>
     <g id="line2d_20">
      <g>
       <use xlink:href="#m33e0da769e" x="54.02" y="210.077101" style="stroke: #000000; stroke-width: 0.8"/>
      </g>
     </g>
     <g id="text_11">
      <!-- 0.15 -->
      <g transform="translate(24.754375 213.87632) scale(0.1 -0.1)">
       <use xlink:href="#DejaVuSans-30"/>
       <use xlink:href="#DejaVuSans-2e" x="63.623047"/>
       <use xlink:href="#DejaVuSans-31" x="95.410156"/>
       <use xlink:href="#DejaVuSans-35" x="159.033203"/>
      </g>
     </g>
    </g>
    <g id="ytick_5">
     <g id="line2d_21">
      <path d="M 54.02 174.089468 
L 554.175 174.089468 
" clip-path="url(#p4d6713445c)" style="fill: none; stroke: #b0b0b0; stroke-width: 0.8; stroke-linecap: square"/>
     </g>
     <g id="line2d_22">
      <g>
       <use xlink:href="#m33e0da769e" x="54.02" y="174.089468" style="stroke: #000000; stroke-width: 0.8"/>
      </g>
     </g>
     <g id="text_12">
      <!-- 0.20 -->
      <g transform="translate(24.754375 177.888687) scale(0.1 -0.1)">
       <use xlink:href="#DejaVuSans-30"/>
       <use xlink:href="#DejaVuSans-2e" x="63.623047"/>
       <use xlink:href="#DejaVuSans-32" x="95.410156"/>
       <use xlink:href="#DejaVuSans-30" x="159.033203"/>
      </g>
     </g>
    </g>
    <g id="ytick_6">
     <g id="line2d_23">
      <path d="M 54.02 138.101836 
L 554.175 138.101836 
" clip-path="url(#p4d6713445c)" style="fill: none; stroke: #b0b0b0; stroke-width: 0.8; stroke-linecap: square"/>
     </g>
     <g id="line2d_24">
      <g>
       <use xlink:href="#m33e0da769e" x="54.02" y="138.101836" style="stroke: #000000; stroke-width: 0.8"/>
      </g>
     </g>
     <g id="text_13">
      <!-- 0.25 -->
      <g transform="translate(24.754375 141.901054) scale(0.1 -0.1)">
       <use xlink:href="#DejaVuSans-30"/>
       <use xlink:href="#DejaVuSans-2e" x="63.623047"/>
       <use xlink:href="#DejaVuSans-32" x="95.410156"/>
       <use xlink:href="#DejaVuSans-35" x="159.033203"/>
      </g>
     </g>
    </g>
    <g id="ytick_7">
     <g id="line2d_25">
      <path d="M 54.02 102.114203 
L 554.175 102.114203 
" clip-path="url(#p4d6713445c)" style="fill: none; stroke: #b0b0b0; stroke-width: 0.8; stroke-linecap: square"/>
     </g>
     <g id="line2d_26">
      <g>
       <use xlink:href="#m33e0da769e" x="54.02" y="102.114203" style="stroke: #000000; stroke-width: 0.8"/>
      </g>
     </g>
     <g id="text_14">
      <!-- 0.30 -->
      <g transform="translate(24.754375 105.913421) scale(0.1 -0.1)">
       <use xlink:href="#DejaVuSans-30"/>
       <use xlink:href="#DejaVuSans-2e" x="63.623047"/>
       <use xlink:href="#DejaVuSans-33" x="95.410156"/>
       <use xlink:href="#DejaVuSans-30" x="159.033203"/>
      </g>
     </g>
    </g>
    <g id="ytick_8">
     <g id="line2d_27">
      <path d="M 54.02 66.12657 
L 554.175 66.12657 
" clip-path="url(#p4d6713445c)" style="fill: none; stroke: #b0b0b0; stroke-width: 0.8; stroke-linecap: square"/>
     </g>
     <g id="line2d_28">
      <g>
       <use xlink:href="#m33e0da769e" x="54.02" y="66.12657" style="stroke: #000000; stroke-width: 0.8"/>
      </g>
     </g>
     <g id="text_15">
      <!-- 0.35 -->
      <g transform="translate(24.754375 69.925788) scale(0.1 -0.1)">
       <use xlink:href="#DejaVuSans-30"/>
       <use xlink:href="#DejaVuSans-2e" x="63.623047"/>
       <use xlink:href="#DejaVuSans-33" x="95.410156"/>
       <use xlink:href="#DejaVuSans-35" x="159.033203"/>
      </g>
     </g>
    </g>
    <g id="text_16">
     <!-- Distance / m -->
     <g transform="translate(18.674688 212.407313) rotate(-90) scale(0.1 -0.1)">
      <defs>
       <path id="DejaVuSans-44" d="M 1259 4147 
L 1259 519 
L 2022 519 
Q 2988 519 3436 956 
Q 3884 1394 3884 2338 
Q 3884 3275 3436 3711 
Q 2988 4147 2022 4147 
L 1259 4147 
z
M 628 4666 
L 1925 4666 
Q 3281 4666 3915 4102 
Q 4550 3538 4550 2338 
Q 4550 1131 3912 565 
Q 3275 0 1925 0 
L 628 0 
L 628 4666 
z
" transform="scale(0.015625)"/>
       <path id="DejaVuSans-74" d="M 1172 4494 
L 1172 3500 
L 2356 3500 
L 2356 3053 
L 1172 3053 
L 1172 1153 
Q 1172 725 1289 603 
Q 1406 481 1766 481 
L 2356 481 
L 2356 0 
L 1766 0 
Q 1100 0 847 248 
Q 594 497 594 1153 
L 594 3053 
L 172 3053 
L 172 3500 
L 594 3500 
L 594 4494 
L 1172 4494 
z
" transform="scale(0.015625)"/>
       <path id="DejaVuSans-61" d="M 2194 1759 
Q 1497 1759 1228 1600 
Q 959 1441 959 1056 
Q 959 750 1161 570 
Q 1363 391 1709 391 
Q 2188 391 2477 730 
Q 2766 1069 2766 1631 
L 2766 1759 
L 2194 1759 
z
M 3341 1997 
L 3341 0 
L 2766 0 
L 2766 531 
Q 2569 213 2275 61 
Q 1981 -91 1556 -91 
Q 1019 -91 701 211 
Q 384 513 384 1019 
Q 384 1609 779 1909 
Q 1175 2209 1959 2209 
L 2766 2209 
L 2766 2266 
Q 2766 2663 2505 2880 
Q 2244 3097 1772 3097 
Q 1472 3097 1187 3025 
Q 903 2953 641 2809 
L 641 3341 
Q 956 3463 1253 3523 
Q 1550 3584 1831 3584 
Q 2591 3584 2966 3190 
Q 3341 2797 3341 1997 
z
" transform="scale(0.015625)"/>
       <path id="DejaVuSans-6e" d="M 3513 2113 
L 3513 0 
L 2938 0 
L 2938 2094 
Q 2938 2591 2744 2837 
Q 2550 3084 2163 3084 
Q 1697 3084 1428 2787 
Q 1159 2491 1159 1978 
L 1159 0 
L 581 0 
L 581 3500 
L 1159 3500 
L 1159 2956 
Q 1366 3272 1645 3428 
Q 1925 3584 2291 3584 
Q 2894 3584 3203 3211 
Q 3513 2838 3513 2113 
z
" transform="scale(0.015625)"/>
       <path id="DejaVuSans-63" d="M 3122 3366 
L 3122 2828 
Q 2878 2963 2633 3030 
Q 2388 3097 2138 3097 
Q 1578 3097 1268 2742 
Q 959 2388 959 1747 
Q 959 1106 1268 751 
Q 1578 397 2138 397 
Q 2388 397 2633 464 
Q 2878 531 3122 666 
L 3122 134 
Q 2881 22 2623 -34 
Q 2366 -91 2075 -91 
Q 1284 -91 818 406 
Q 353 903 353 1747 
Q 353 2603 823 3093 
Q 1294 3584 2113 3584 
Q 2378 3584 2631 3529 
Q 2884 3475 3122 3366 
z
" transform="scale(0.015625)"/>
      </defs>
      <use xlink:href="#DejaVuSans-44"/>
      <use xlink:href="#DejaVuSans-69" x="77.001953"/>
      <use xlink:href="#DejaVuSans-73" x="104.785156"/>
      <use xlink:href="#DejaVuSans-74" x="156.884766"/>
      <use xlink:href="#DejaVuSans-61" x="196.09375"/>
      <use xlink:href="#DejaVuSans-6e" x="257.373047"/>
      <use xlink:href="#DejaVuSans-63" x="320.751953"/>
      <use xlink:href="#DejaVuSans-65" x="375.732422"/>
      <use xlink:href="#DejaVuSans-20" x="437.255859"/>
      <use xlink:href="#DejaVuSans-2f" x="469.042969"/>
      <use xlink:href="#DejaVuSans-20" x="502.734375"/>
      <use xlink:href="#DejaVuSans-6d" x="534.521484"/>
     </g>
    </g>
   </g>
   <g id="line2d_29">
    <path d="M 54.02 318.04 
L 57.52459 316.349326 
L 60.528524 314.563944 
L 64.033113 313.377412 
L 67.037047 311.898984 
L 70.040981 310.153685 
L 73.044915 309.164806 
L 76.549505 307.404059 
L 79.553438 305.627143 
L 89.065896 301.10538 
L 95.073764 297.509433 
L 98.077698 296.484314 
L 101.582287 294.392238 
L 110.594089 290.155148 
L 114.098679 288.088267 
L 120.106547 285.358694 
L 123.11048 284.309482 
L 126.61507 282.260821 
L 132.622938 279.374888 
L 136.127528 277.300204 
L 142.636051 274.114004 
L 145.139329 272.634385 
L 169.671456 261.143445 
L 173.176046 259.118142 
L 176.17998 258.146562 
L 179.183914 256.685793 
L 182.187848 254.387055 
L 185.692437 253.214248 
L 195.204895 248.712212 
L 198.208829 246.907653 
L 211.726532 240.395516 
L 214.22981 238.95114 
L 229.249479 231.91393 
L 232.754069 229.827261 
L 235.758003 228.493721 
L 238.761937 227.491018 
L 242.266527 225.75522 
L 245.27046 223.981019 
L 251.278328 221.137894 
L 254.782918 219.067822 
L 274.308488 209.713784 
L 276.311111 208.526346 
L 282.819635 205.571313 
L 285.322913 204.8181 
L 289.328158 202.474515 
L 292.332092 201.192257 
L 295.336026 200.160279 
L 297.839304 198.974913 
L 300.843238 196.622285 
L 301.84455 196.258979 
L 304.347828 195.42574 
L 307.351762 193.603296 
L 310.856351 192.438399 
L 316.864219 189.601907 
L 320.368809 187.504508 
L 326.376677 184.772809 
L 329.380611 183.753954 
L 332.384545 181.914708 
L 335.388478 180.964023 
L 338.392412 178.1442 
L 339.393724 177.925984 
L 341.897002 177.468468 
L 344.900936 175.991762 
L 347.90487 173.180327 
L 350.908804 172.742157 
L 353.412082 171.603328 
L 354.413393 171.042048 
L 357.417327 168.772351 
L 360.921917 167.599955 
L 363.425195 166.436262 
L 366.929785 163.906926 
L 369.933719 163.38235 
L 372.937653 161.964706 
L 375.941587 159.637423 
L 377.944209 159.294139 
L 379.446176 158.960548 
L 382.45011 157.497303 
L 385.454044 155.154334 
L 388.958634 154.025909 
L 394.966502 151.12878 
L 397.970435 148.355259 
L 400.974369 147.918509 
L 405.48027 145.364624 
L 410.987482 142.853855 
L 416.494695 141.147387 
L 417.996662 140.034943 
L 420.49994 138.194003 
L 423.003218 136.698047 
L 426.007152 136.232669 
L 433.016331 132.007225 
L 442.028133 127.754589 
L 445.032067 125.949937 
L 448.036001 124.974524 
L 451.039935 123.119641 
L 454.043869 122.188781 
L 456.046491 120.960888 
L 458.049114 119.829064 
L 464.056982 117.114492 
L 466.56026 116.314977 
L 468.062227 114.972354 
L 469.564194 113.576276 
L 470.06485 113.381407 
L 472.568128 113.381407 
L 473.068784 113.222715 
L 476.072718 110.438787 
L 479.076652 110.002269 
L 482.080586 108.630041 
L 483.582553 107.527575 
L 485.585175 106.058822 
L 488.589109 105.081357 
L 491.593043 103.190871 
L 495.598288 101.676957 
L 498.602222 99.923187 
L 513.621892 92.855642 
L 516.625826 90.529175 
L 521.131727 88.907855 
L 529.642873 84.874193 
L 532.646807 83.041642 
L 536.151396 81.526481 
L 538.654675 80.715935 
L 542.159264 78.590126 
L 548.667788 75.649532 
L 551.171066 74.836325 
L 554.175 72.975307 
L 554.175 72.975307 
" clip-path="url(#p4d6713445c)" style="fill: none; stroke: #808080; stroke-opacity: 0.3; stroke-linecap: square"/>
   </g>
   <g id="line2d_30">
    <path d="M 54.02 318.04 
L 63.532457 313.599597 
L 73.545571 307.521647 
L 83.058028 303.114741 
L 86.061962 301.613322 
L 92.06983 298.050135 
L 94.573108 297.282839 
L 97.076386 295.773292 
L 98.578353 294.973686 
L 101.582287 293.478996 
L 104.586221 291.679911 
L 111.094745 288.526201 
L 114.098679 286.78982 
L 116.601957 285.618411 
L 119.605891 283.273103 
L 121.107858 283.263567 
L 122.609825 283.301969 
L 123.11048 283.008987 
L 126.114414 280.298453 
L 133.123594 276.876697 
L 135.626872 275.417956 
L 138.630806 274.500218 
L 145.139329 271.425672 
L 148.143263 269.602848 
L 154.651787 266.513552 
L 160.659655 262.897388 
L 163.663589 261.900372 
L 167.168178 259.807621 
L 179.183914 254.218098 
L 182.688504 252.138045 
L 185.692437 250.78521 
L 188.195716 250.048585 
L 189.197027 249.402491 
L 192.701617 246.887547 
L 194.704239 245.617189 
L 198.208829 244.476098 
L 204.717352 241.346202 
L 207.721286 239.583544 
L 220.738333 233.71222 
L 222.740956 233.097568 
L 224.242923 231.780537 
L 225.74489 230.414482 
L 226.746201 229.975441 
L 229.249479 229.124524 
L 232.253413 227.260635 
L 235.758003 226.080273 
L 239.262593 224.352668 
L 242.266527 222.634255 
L 257.786852 215.42116 
L 263.79472 212.599549 
L 266.798654 210.786771 
L 269.802588 209.836992 
L 273.307177 207.751893 
L 279.815701 204.611476 
L 282.318979 203.123672 
L 285.322913 202.698362 
L 288.827503 200.121864 
L 291.831436 198.709426 
L 295.336026 197.539229 
L 297.839304 196.386742 
L 300.843238 194.118379 
L 302.345205 193.583727 
L 307.351762 191.986952 
L 310.856351 189.91281 
L 322.872087 184.337025 
L 326.376677 181.759499 
L 333.886512 178.236851 
L 335.889134 177.233171 
L 338.893068 175.451898 
L 345.401592 172.519688 
L 347.90487 171.737893 
L 351.409459 169.651209 
L 369.933719 161.017141 
L 373.438308 158.946182 
L 384.953388 153.613463 
L 385.9547 153.241769 
L 388.457978 152.47339 
L 396.468468 147.794005 
L 398.471091 146.963219 
L 401.475025 145.962877 
L 404.478959 144.601208 
L 407.482893 143.609158 
L 413.490761 139.921084 
L 417.496006 138.554254 
L 419.999284 137.361712 
L 423.003218 135.519294 
L 426.007152 134.597255 
L 429.511742 132.52386 
L 433.016331 131.332527 
L 439.024199 128.449735 
L 442.028133 126.725031 
L 445.032067 125.75897 
L 460.552392 118.53969 
L 473.068784 112.712997 
L 476.072718 110.883736 
L 479.577307 109.737568 
L 499.603534 100.145934 
L 501.105501 99.245423 
L 504.61009 98.061366 
L 527.139595 87.780256 
L 529.142217 87.165906 
L 533.147462 84.805874 
L 536.151396 83.526187 
L 538.654675 82.692654 
L 542.159264 80.611053 
L 545.163198 79.249468 
L 548.167132 78.253315 
L 551.671722 76.190565 
L 554.175 75.004873 
L 554.175 75.004873 
" clip-path="url(#p4d6713445c)" style="fill: none; stroke: #808080; stroke-opacity: 0.3; stroke-linecap: square"/>
   </g>
   <g id="line2d_31">
    <path d="M 54.02 318.04 
L 57.52459 316.902907 
L 60.528524 315.474176 
L 64.033113 313.391197 
L 75.548193 307.994979 
L 77.05016 307.108091 
L 79.052783 305.851062 
L 82.056717 304.937129 
L 83.558684 303.769529 
L 85.561306 302.282005 
L 89.065896 301.039273 
L 94.573108 298.454312 
L 99.079009 295.805525 
L 102.082943 294.245818 
L 105.086877 292.616535 
L 107.590155 291.3455 
L 110.594089 289.544033 
L 113.598023 288.573932 
L 117.603268 286.165294 
L 125.113103 282.196732 
L 126.114414 281.652541 
L 129.118348 280.723066 
L 136.628183 276.254951 
L 139.131461 274.960228 
L 141.63474 273.486165 
L 144.638674 273.031594 
L 152.148509 268.597194 
L 154.651787 267.351913 
L 157.655721 265.522795 
L 160.659655 264.149011 
L 163.663589 263.240654 
L 166.667523 261.464869 
L 169.671456 260.932539 
L 178.182603 256.979908 
L 179.68457 256.185063 
L 182.688504 254.36098 
L 185.692437 252.857856 
L 188.696371 251.055232 
L 191.700305 250.239515 
L 195.204895 248.040494 
L 198.208829 246.602394 
L 201.212763 244.750485 
L 207.721286 241.851777 
L 210.224565 241.029393 
L 212.727843 239.474521 
L 214.22981 238.643587 
L 217.233744 237.115275 
L 219.737022 235.60664 
L 223.241612 234.336861 
L 226.245546 232.595596 
L 229.249479 231.558448 
L 232.253413 229.750632 
L 235.758003 228.598678 
L 240.76456 226.181932 
L 241.765871 225.69283 
L 245.27046 223.575825 
L 248.274394 222.129462 
L 251.278328 220.334945 
L 254.282262 219.352038 
L 257.286196 217.400729 
L 260.790786 216.280184 
L 263.79472 214.913272 
L 266.798654 213.016595 
L 269.802588 212.149673 
L 272.806522 210.249426 
L 276.311111 208.98088 
L 279.815701 206.873222 
L 284.321602 204.814293 
L 285.823569 204.071529 
L 288.827503 202.280239 
L 292.332092 201.014045 
L 299.341271 197.761979 
L 301.343894 196.784298 
L 304.848483 194.680646 
L 307.852417 193.347172 
L 310.355696 192.585663 
L 313.860285 190.494643 
L 317.364875 189.315483 
L 320.368809 187.8342 
L 323.372743 186.012266 
L 326.376677 184.647887 
L 329.380611 183.757646 
L 332.8852 181.973062 
L 335.388478 180.404213 
L 338.392412 179.948396 
L 340.395035 178.773907 
L 342.898313 177.383502 
L 345.902247 175.744418 
L 347.90487 174.541326 
L 351.910115 173.106003 
L 358.418639 170.031843 
L 360.921917 168.757329 
L 363.425195 167.238628 
L 367.931096 165.617992 
L 370.434374 164.536556 
L 373.438308 163.523937 
L 386.956011 157.142679 
L 389.459289 156.124189 
L 391.962568 155.20553 
L 394.966502 153.448712 
L 397.970435 152.492168 
L 400.974369 150.135542 
L 405.980926 148.240534 
L 408.484204 147.223134 
L 410.486827 146.486147 
L 413.490761 144.743551 
L 416.99535 143.556337 
L 420.49994 141.451049 
L 423.503874 140.11579 
L 426.507808 139.116071 
L 429.511742 137.737345 
L 432.515676 136.74926 
L 435.51961 134.962949 
L 438.523544 133.970541 
L 442.028133 131.870212 
L 445.032067 130.799242 
L 448.036001 128.94525 
L 451.039935 128.027788 
L 455.04518 125.711291 
L 460.552392 123.166864 
L 464.056982 121.944597 
L 471.066161 118.639399 
L 473.068784 117.709953 
L 476.072718 116.867345 
L 481.079274 114.427444 
L 482.581241 113.836355 
L 485.585175 113.293526 
L 489.089765 111.16016 
L 492.093699 109.792137 
L 495.097633 108.825051 
L 498.602222 107.051062 
L 501.105501 105.553006 
L 504.61009 104.340882 
L 508.11468 102.850663 
L 510.617958 101.967908 
L 513.621892 100.169767 
L 516.625826 99.179032 
L 520.631071 96.805006 
L 523.635005 95.548097 
L 526.638939 94.530801 
L 539.655986 88.376991 
L 542.159264 87.299623 
L 545.163198 86.207438 
L 548.667788 84.175608 
L 551.671722 82.840388 
L 554.175 82.081514 
L 554.175 82.081514 
" clip-path="url(#p4d6713445c)" style="fill: none; stroke: #808080; stroke-opacity: 0.3; stroke-linecap: square"/>
   </g>
   <g id="line2d_32">
    <path d="M 54.02 318.04 
L 58.025245 316.607261 
L 61.029179 315.412887 
L 63.532457 314.629263 
L 70.541637 310.559341 
L 79.052783 306.679737 
L 82.557372 304.633953 
L 89.065896 301.591528 
L 91.569174 300.077808 
L 94.573108 299.655439 
L 96.075075 298.576728 
L 98.077698 297.202313 
L 101.081632 296.244691 
L 104.586221 294.189384 
L 117.603268 288.121064 
L 119.605891 286.895705 
L 122.109169 286.516757 
L 122.609825 286.446577 
L 123.611136 285.927774 
L 126.114414 284.478807 
L 129.118348 283.513794 
L 132.622938 281.015266 
L 135.626872 279.709738 
L 138.630806 278.740948 
L 144.638674 275.098927 
L 148.643919 273.756861 
L 151.647853 272.292738 
L 154.651787 270.569981 
L 160.659655 267.91453 
L 163.162933 267.138561 
L 163.663589 266.846348 
L 166.667523 264.227175 
L 170.172112 263.06842 
L 182.688504 257.213604 
L 185.191782 255.331851 
L 186.693749 254.811919 
L 189.197027 253.934373 
L 194.704239 251.440829 
L 198.208829 249.451936 
L 201.212763 248.463944 
L 204.717352 246.424248 
L 207.721286 244.990163 
L 210.72522 243.306163 
L 213.729154 242.314299 
L 217.233744 240.276468 
L 220.237678 238.997278 
L 222.740956 238.216879 
L 226.746201 236.106626 
L 229.249479 235.299387 
L 232.754069 233.244025 
L 253.781607 223.697221 
L 254.782918 223.023813 
L 257.286196 221.163104 
L 260.29013 220.745742 
L 265.797342 218.241522 
L 267.299309 217.457189 
L 269.802588 215.978649 
L 273.307177 214.820219 
L 279.815701 211.777234 
L 285.823569 208.275123 
L 288.827503 207.314127 
L 292.332092 205.812888 
L 294.83537 205.026001 
L 298.33996 202.994221 
L 301.343894 201.584256 
L 304.347828 199.853995 
L 307.852417 198.698968 
L 316.864219 194.522756 
L 319.868153 192.259587 
L 323.372743 191.091277 
L 332.8852 186.699424 
L 335.889134 184.943668 
L 341.897002 182.190255 
L 344.900936 180.399633 
L 347.90487 179.484388 
L 351.409459 177.506219 
L 354.413393 176.513767 
L 357.917983 174.501899 
L 360.921917 173.208366 
L 363.425195 172.487693 
L 368.431752 169.711533 
L 376.942898 165.706293 
L 379.446176 164.272647 
L 382.950766 163.114508 
L 388.958634 160.333119 
L 391.962568 158.5963 
L 394.966502 157.629382 
L 398.471091 155.606052 
L 408.484204 150.878451 
L 410.486827 149.706167 
L 413.490761 148.765531 
L 416.99535 146.809196 
L 423.003218 144.876046 
L 426.007152 142.621063 
L 436.520921 137.659009 
L 438.523544 136.432892 
L 441.527477 135.490714 
L 443.5301 134.294891 
L 445.032067 133.456134 
L 448.536657 132.298612 
L 451.540591 130.833397 
L 454.544525 129.145005 
L 458.049114 127.938111 
L 467.060916 123.943578 
L 470.06485 122.954688 
L 473.068784 121.202204 
L 476.072718 120.286462 
L 479.577307 118.246343 
L 483.081897 116.778066 
L 485.585175 115.940672 
L 488.589109 114.155178 
L 491.593043 113.253457 
L 495.598288 111.112679 
L 498.101567 110.300317 
L 501.606156 108.250325 
L 505.110746 106.836335 
L 507.614024 105.957293 
L 511.118614 103.959153 
L 520.130415 99.96163 
L 522.633694 99.585865 
L 523.134349 99.343388 
L 526.138283 96.686398 
L 529.142217 96.686398 
L 533.147462 93.944155 
L 536.151396 92.670863 
L 538.654675 91.886541 
L 541.658609 90.082989 
L 545.663854 88.73506 
L 551.171066 86.186571 
L 554.175 83.891548 
L 554.175 83.891548 
" clip-path="url(#p4d6713445c)" style="fill: none; stroke: #808080; stroke-opacity: 0.3; stroke-linecap: square"/>
   </g>
   <g id="line2d_33">
    <path d="M 54.02 318.04 
L 63.532457 313.557318 
L 66.536391 310.803502 
L 69.540325 310.757501 
L 70.541637 310.056714 
L 73.044915 308.223219 
L 76.048849 307.259352 
L 82.557372 303.216094 
L 85.561306 301.753184 
L 88.56524 299.473447 
L 94.573108 297.572089 
L 97.076386 296.013132 
L 101.081632 293.533422 
L 104.085566 292.605861 
L 107.590155 290.462784 
L 116.601957 286.269224 
L 120.607202 283.954545 
L 123.11048 282.79943 
L 126.114414 281.749624 
L 129.619004 279.632629 
L 132.622938 278.185087 
L 135.626872 276.341919 
L 142.135395 273.273586 
L 144.638674 271.689329 
L 149.144575 270.104419 
L 151.147197 269.152024 
L 154.651787 267.026075 
L 161.16031 263.844528 
L 164.164244 262.073775 
L 170.172112 259.24748 
L 173.176046 257.41253 
L 176.680636 255.699721 
L 179.183914 254.211196 
L 182.688504 252.997138 
L 185.692437 251.558929 
L 188.696371 249.744727 
L 192.200961 248.566012 
L 195.204895 247.044802 
L 198.208829 245.214264 
L 201.713418 243.732938 
L 204.717352 242.704417 
L 207.721286 241.193876 
L 214.730465 237.049952 
L 220.237678 234.440609 
L 222.740956 232.858154 
L 225.244234 232.069471 
L 226.245546 231.719375 
L 229.750135 230.000159 
L 232.253413 228.43543 
L 235.758003 227.302474 
L 246.772427 222.15189 
L 248.77505 221.068932 
L 255.283574 217.216047 
L 271.80521 209.548368 
L 276.811767 207.037625 
L 279.815701 205.317913 
L 286.324224 202.422934 
L 288.827503 201.550504 
L 292.332092 199.510492 
L 299.841927 196.024326 
L 304.347828 193.85728 
L 307.351762 192.065019 
L 310.355696 191.147082 
L 313.860285 189.051161 
L 317.364875 187.806194 
L 320.368809 186.320977 
L 322.872087 184.745856 
L 325.876021 183.830369 
L 327.377988 182.73294 
L 329.380611 181.332626 
L 332.8852 180.164258 
L 343.899625 175.009404 
L 347.90487 173.165157 
L 354.413393 171.015863 
L 357.917983 168.920886 
L 360.921917 167.462219 
L 363.925851 165.753458 
L 367.43044 164.502671 
L 370.434374 163.023291 
L 372.937653 161.517437 
L 376.442242 160.370686 
L 379.446176 158.988902 
L 382.45011 158.010694 
L 385.9547 155.949057 
L 388.958634 154.440703 
L 391.962568 152.654402 
L 395.467157 151.476322 
L 412.489449 143.576725 
L 413.991416 142.794007 
L 416.99535 141.016503 
L 420.49994 139.51011 
L 423.503874 138.449162 
L 429.511742 135.814059 
L 432.01502 135.432098 
L 432.515676 135.195757 
L 435.51961 132.904594 
L 439.024199 131.746716 
L 448.036001 127.524214 
L 451.039935 126.601019 
L 454.544525 124.523279 
L 461.053048 121.630305 
L 464.056982 120.581103 
L 467.060916 119.268908 
L 470.06485 118.257212 
L 473.068784 116.41689 
L 476.072718 115.485709 
L 480.077963 113.143763 
L 482.581241 111.95976 
L 485.585175 111.073547 
L 494.096321 107.062567 
L 500.604845 104.068748 
L 502.106812 103.50048 
L 504.61009 102.523367 
L 508.11468 100.549329 
L 516.12517 96.834716 
L 517.126481 96.43744 
L 520.130415 95.406797 
L 528.641562 91.453042 
L 529.642873 91.057397 
L 533.147462 89.80269 
L 536.151396 88.315891 
L 538.654675 86.819055 
L 542.159264 85.612762 
L 548.667788 82.731483 
L 551.171066 81.836257 
L 554.175 78.897219 
L 554.175 78.897219 
" clip-path="url(#p4d6713445c)" style="fill: none; stroke: #808080; stroke-opacity: 0.3; stroke-linecap: square"/>
   </g>
   <g id="line2d_34">
    <path d="M 54.02 318.04 
L 57.52459 316.36246 
L 60.528524 314.590947 
L 64.033113 313.39744 
L 66.536391 312.17331 
L 69.540325 309.815181 
L 71.042292 309.306158 
L 73.044915 308.649958 
L 76.048849 307.159392 
L 79.052783 304.812041 
L 83.058028 303.39645 
L 85.561306 302.269088 
L 92.06983 298.238673 
L 95.073764 297.267242 
L 97.577042 296.129748 
L 98.578353 295.124575 
L 100.580976 292.828309 
L 101.081632 292.430786 
L 104.586221 291.907138 
L 107.590155 290.932141 
L 110.594089 289.510777 
L 114.098679 287.394763 
L 116.601957 286.170712 
L 119.605891 283.893285 
L 122.109169 283.041613 
L 123.11048 282.662549 
L 127.115726 280.613687 
L 130.11966 278.97752 
L 132.622938 277.853592 
L 135.126216 277.093273 
L 136.628183 276.162459 
L 138.630806 274.884126 
L 145.139329 271.839344 
L 148.143263 270.050641 
L 151.147197 269.065482 
L 154.651787 266.93737 
L 158.156376 265.126634 
L 161.16031 263.411051 
L 171.173423 258.710749 
L 173.176046 257.73329 
L 176.680636 255.627419 
L 182.187848 253.05823 
L 186.193093 251.648991 
L 190.698994 249.597439 
L 196.706862 246.808949 
L 199.710796 245.420625 
L 201.713418 244.339937 
L 207.220631 240.937296 
L 210.72522 239.323583 
L 214.22981 238.158394 
L 216.733088 237.045168 
L 220.237678 234.910711 
L 223.241612 233.403244 
L 225.74489 231.819205 
L 226.746201 231.569222 
L 228.748824 231.264833 
L 229.249479 231.051215 
L 232.253413 228.269457 
L 235.758003 227.061767 
L 238.761937 225.637601 
L 242.266527 223.541417 
L 247.773739 220.953916 
L 251.778984 218.552144 
L 257.286196 215.993962 
L 260.29013 215.00452 
L 264.295375 212.630224 
L 266.798654 211.452344 
L 270.303243 209.338449 
L 273.307177 207.886804 
L 276.311111 206.099375 
L 279.815701 204.924753 
L 288.326847 200.96688 
L 289.828814 199.834344 
L 291.831436 198.376887 
L 295.336026 197.202821 
L 301.343894 194.208431 
L 304.347828 191.996981 
L 307.852417 190.422358 
L 310.856351 189.432812 
L 321.37012 184.52046 
L 326.376677 182.001041 
L 329.380611 179.83814 
L 332.8852 178.783536 
L 335.388478 178.320686 
L 339.393724 175.394804 
L 341.897002 173.904825 
L 345.401592 172.739135 
L 357.417327 167.152249 
L 360.921917 165.032738 
L 363.925851 163.586409 
L 366.929785 161.788165 
L 369.933719 160.841455 
L 380.447487 155.694938 
L 382.950766 154.262754 
L 392.963879 149.559014 
L 403.978303 144.459225 
L 407.983549 142.250161 
L 410.987482 141.185477 
L 413.991416 139.729802 
L 416.99535 137.948378 
L 419.999284 136.955838 
L 423.503874 134.847759 
L 436.520921 128.978057 
L 438.523544 128.317154 
L 444.531411 124.586876 
L 445.532723 124.211021 
L 448.036001 123.402447 
L 451.039935 121.508573 
L 454.544525 120.244715 
L 458.049114 118.212835 
L 465.058293 114.958138 
L 467.060916 114.107396 
L 470.06485 113.149455 
L 480.578619 108.241919 
L 494.596977 101.580981 
L 496.5996 100.983766 
L 498.101567 100.529417 
L 501.105501 99.135022 
L 504.109434 96.777948 
L 507.113368 95.768561 
L 511.118614 94.362367 
L 514.122548 92.903074 
L 516.625826 91.380279 
L 520.631071 90.002053 
L 527.64025 86.748437 
L 534.148774 83.658216 
L 543.160576 79.439819 
L 552.172377 75.395809 
L 554.175 74.738053 
L 554.175 74.738053 
" clip-path="url(#p4d6713445c)" style="fill: none; stroke: #808080; stroke-opacity: 0.3; stroke-linecap: square"/>
   </g>
   <g id="line2d_35">
    <path d="M 54.02 318.04 
L 60.528524 315.020425 
L 63.532457 312.837452 
L 66.536391 312.768883 
L 70.040981 310.664778 
L 73.044915 309.282611 
L 76.048849 307.469646 
L 79.052783 306.570196 
L 82.557372 304.280203 
L 85.060651 301.987176 
L 85.561306 301.695398 
L 92.06983 299.694588 
L 94.573108 299.39667 
L 96.075075 298.088204 
L 97.577042 296.712405 
L 98.077698 296.471556 
L 101.081632 295.867307 
L 104.586221 293.79115 
L 110.093433 291.264748 
L 111.5954 290.205254 
L 113.598023 288.772856 
L 123.611136 284.16692 
L 127.115726 282.920615 
L 131.120971 281.141901 
L 132.622938 280.499935 
L 135.126216 279.687479 
L 136.127528 279.017363 
L 138.630806 277.22293 
L 145.139329 274.218479 
L 148.143263 273.150813 
L 151.147197 271.441945 
L 154.651787 270.299615 
L 157.655721 268.810298 
L 160.659655 267.010454 
L 164.164244 265.543914 
L 167.168178 264.478349 
L 170.172112 262.986231 
L 173.176046 261.23177 
L 176.17998 260.188906 
L 179.183914 258.449347 
L 182.688504 257.235134 
L 185.692437 255.893685 
L 188.696371 255.005264 
L 191.700305 253.182822 
L 195.204895 251.967267 
L 198.208829 250.488592 
L 201.212763 248.721568 
L 204.216697 247.893993 
L 214.22981 243.06839 
L 217.233744 241.392925 
L 220.237678 240.125962 
L 223.241612 239.088189 
L 226.746201 237.313773 
L 229.750135 235.549962 
L 235.257347 233.038334 
L 239.763248 231.410673 
L 241.765871 230.490953 
L 244.769805 228.658565 
L 247.773739 228.215282 
L 249.776361 226.425122 
L 250.777673 225.508415 
L 251.778984 225.077511 
L 254.782918 224.018285 
L 257.286196 222.930773 
L 260.29013 222.397077 
L 263.79472 219.973875 
L 267.299309 218.729164 
L 276.811767 214.351417 
L 279.815701 213.106801 
L 282.819635 212.059037 
L 285.823569 210.643482 
L 289.328158 208.596558 
L 292.332092 207.28528 
L 295.336026 206.216923 
L 298.840616 204.442952 
L 301.343894 203.064711 
L 304.848483 201.813434 
L 320.368809 194.587508 
L 330.381922 190.251053 
L 332.384545 189.587847 
L 335.388478 187.29498 
L 338.893068 186.093854 
L 341.897002 184.724178 
L 344.900936 183.784471 
L 348.405526 181.690305 
L 351.409459 180.331479 
L 354.914049 179.096569 
L 363.425195 175.238664 
L 366.929785 173.17576 
L 369.933719 172.256036 
L 373.438308 170.682155 
L 375.941587 169.866767 
L 379.946832 167.737422 
L 382.45011 166.862238 
L 385.454044 165.0248 
L 388.958634 163.923902 
L 393.464535 161.81749 
L 394.966502 161.105728 
L 397.970435 160.192754 
L 401.475025 158.251042 
L 404.478959 157.221227 
L 410.987482 154.071154 
L 413.490761 152.595533 
L 416.99535 151.492931 
L 420.49994 149.944392 
L 423.003218 149.093972 
L 426.507808 147.008085 
L 430.012397 145.560598 
L 432.515676 144.678306 
L 435.51961 142.942029 
L 439.024199 141.741208 
L 446.033378 138.732058 
L 448.036001 138.09477 
L 451.039935 136.241307 
L 454.043869 135.798459 
L 455.545836 134.913917 
L 458.049114 133.475573 
L 464.056982 130.72868 
L 467.060916 129.769588 
L 470.565506 128.01931 
L 473.068784 126.588008 
L 476.573373 125.36595 
L 489.089765 119.558384 
L 492.594354 118.118182 
L 495.097633 117.256151 
L 498.101567 115.869376 
L 501.606156 114.734416 
L 507.113368 112.220445 
L 512.119925 110.317457 
L 516.625826 108.281612 
L 520.631071 106.874347 
L 526.638939 104.102747 
L 532.146151 101.589665 
L 537.653363 99.518512 
L 546.665165 95.654722 
L 548.667788 94.915675 
L 551.671722 93.660138 
L 554.175 92.844582 
L 554.175 92.844582 
" clip-path="url(#p4d6713445c)" style="fill: none; stroke: #808080; stroke-opacity: 0.3; stroke-linecap: square"/>
   </g>
   <g id="line2d_36">
    <path d="M 54.02 318.04 
L 57.52459 316.344651 
L 60.528524 314.491421 
L 64.033113 312.788555 
L 69.540325 309.358228 
L 71.542948 308.710652 
L 72.544259 308.404036 
L 73.545571 307.733172 
L 76.048849 305.874334 
L 79.052783 305.401575 
L 82.557372 302.799522 
L 89.065896 299.672253 
L 92.06983 297.890232 
L 98.077698 294.995842 
L 101.081632 292.775421 
L 104.085566 292.285705 
L 111.094745 288.058019 
L 114.098679 286.552434 
L 117.102613 284.773683 
L 129.619004 278.84293 
L 132.622938 276.907466 
L 135.126216 274.964668 
L 136.127528 274.700743 
L 138.630806 274.205563 
L 145.139329 270.250393 
L 148.143263 268.911034 
L 151.647853 267.710607 
L 157.655721 264.838025 
L 160.659655 263.027182 
L 163.663589 261.550087 
L 166.667523 259.276461 
L 169.671456 258.3437 
L 176.17998 254.367321 
L 179.68457 253.190561 
L 195.204895 245.886893 
L 198.208829 244.143776 
L 201.212763 243.168737 
L 207.721286 240.05134 
L 213.729154 236.41244 
L 216.733088 235.40366 
L 220.237678 232.763181 
L 222.740956 231.208627 
L 224.743579 230.862309 
L 225.74489 230.708149 
L 226.245546 230.399544 
L 228.748824 228.064464 
L 229.249479 227.761123 
L 232.253413 227.723523 
L 235.257347 225.391575 
L 237.25997 224.735324 
L 238.761937 224.219405 
L 241.765871 222.761994 
L 244.769805 220.460738 
L 248.274394 219.303549 
L 251.278328 217.854747 
L 257.286196 214.14768 
L 260.29013 213.214928 
L 263.79472 211.155485 
L 266.798654 210.151276 
L 272.806522 206.420872 
L 276.311111 205.214421 
L 279.815701 203.144411 
L 285.823569 200.421232 
L 288.827503 199.37684 
L 294.83537 195.682102 
L 297.839304 194.749427 
L 301.84455 192.399756 
L 307.852417 189.504066 
L 310.355696 187.951515 
L 313.860285 186.795566 
L 317.364875 185.046858 
L 320.368809 183.285499 
L 326.376677 180.534761 
L 328.879955 179.765106 
L 329.380611 179.437596 
L 332.384545 176.717583 
L 335.388478 175.794241 
L 338.893068 173.744136 
L 341.897002 172.71435 
L 345.401592 170.641727 
L 354.914049 166.095981 
L 357.917983 164.336043 
L 360.921917 163.022014 
L 363.425195 162.238123 
L 365.928473 160.325567 
L 366.429129 159.93697 
L 367.43044 159.538658 
L 369.933719 158.7022 
L 373.438308 156.612735 
L 385.9547 150.677305 
L 388.958634 148.892113 
L 395.467157 145.749906 
L 400.974369 142.330321 
L 404.979615 140.943264 
L 407.983549 139.421369 
L 413.490761 135.993519 
L 416.99535 134.788035 
L 420.49994 132.729788 
L 423.503874 131.240882 
L 426.507808 129.444417 
L 436.020265 124.916703 
L 439.024199 123.1289 
L 445.032067 120.373405 
L 448.536657 119.17506 
L 451.039935 118.002616 
L 457.548458 113.069055 
L 461.053048 111.879175 
L 467.060916 109.017616 
L 473.068784 105.340096 
L 476.072718 104.393026 
L 479.076652 102.52802 
L 481.57993 101.736491 
L 482.581241 101.332873 
L 485.585175 99.513876 
L 488.589109 98.562905 
L 492.093699 96.455024 
L 498.602222 93.304439 
L 501.606156 91.528354 
L 511.118614 86.998354 
L 513.621892 85.461929 
L 516.625826 84.550755 
L 521.131727 81.957889 
L 523.635005 80.676592 
L 526.138283 79.161245 
L 529.142217 78.228685 
L 532.646807 76.160309 
L 535.650741 75.165795 
L 539.15533 73.084516 
L 545.163198 70.333966 
L 548.167132 69.335277 
L 554.175 65.594225 
L 554.175 65.594225 
" clip-path="url(#p4d6713445c)" style="fill: none; stroke: #808080; stroke-opacity: 0.3; stroke-linecap: square"/>
   </g>
   <g id="line2d_37">
    <path d="M 54.02 318.04 
L 57.52459 316.466461 
L 60.528524 315.454033 
L 64.033113 313.376223 
L 67.037047 312.056762 
L 69.540325 311.279466 
L 71.542948 310.061641 
L 73.545571 308.932637 
L 79.553438 306.057345 
L 82.557372 304.26291 
L 88.56524 301.40705 
L 91.569174 299.081948 
L 94.573108 298.639472 
L 96.575731 297.432437 
L 98.578353 296.06338 
L 101.081632 294.199942 
L 104.586221 293.015487 
L 113.598023 288.80186 
L 120.106547 284.819709 
L 126.61507 281.896291 
L 129.118348 281.084304 
L 132.122282 278.753172 
L 135.126216 277.339881 
L 137.629494 276.536575 
L 139.131461 275.960073 
L 142.135395 274.467535 
L 144.638674 272.902875 
L 148.143263 271.698901 
L 151.647853 269.643739 
L 161.16031 265.072505 
L 163.663589 263.627757 
L 166.667523 263.109468 
L 170.172112 261.018386 
L 183.189159 254.792618 
L 185.692437 253.297684 
L 192.200961 250.155731 
L 195.204895 248.371092 
L 198.208829 246.911302 
L 201.713418 244.855612 
L 213.729154 239.144112 
L 216.733088 236.904017 
L 219.737022 235.958848 
L 223.241612 233.833231 
L 226.245546 232.481047 
L 229.249479 231.494445 
L 232.754069 229.40214 
L 239.262593 226.232844 
L 241.765871 224.737562 
L 244.769805 223.774832 
L 248.274394 221.193898 
L 251.278328 219.695595 
L 254.282262 217.489365 
L 257.286196 216.986837 
L 260.790786 214.880028 
L 267.299309 211.741933 
L 270.303243 209.966075 
L 273.307177 208.48172 
L 276.311111 206.671255 
L 279.815701 204.927267 
L 285.322913 201.492049 
L 288.827503 200.304003 
L 291.831436 198.513297 
L 294.83537 197.545098 
L 298.33996 195.446498 
L 307.852417 190.920451 
L 310.355696 189.36852 
L 313.860285 188.221068 
L 317.364875 186.467304 
L 320.368809 184.690805 
L 323.372743 183.211812 
L 329.881266 179.292353 
L 332.8852 177.792421 
L 335.889134 176.007694 
L 348.906181 169.788001 
L 350.908804 168.544865 
L 353.412082 167.743618 
L 354.413393 167.386213 
L 357.417327 165.932302 
L 360.421261 163.618844 
L 370.434374 159.064201 
L 372.937653 158.265829 
L 376.442242 156.159648 
L 379.446176 154.710513 
L 385.454044 151.00605 
L 388.958634 149.846815 
L 398.471091 145.322966 
L 401.475025 143.522924 
L 416.99535 136.261818 
L 420.49994 134.20099 
L 426.507808 131.482066 
L 429.011086 130.712488 
L 431.013709 129.50265 
L 433.016331 128.374763 
L 448.036001 121.355934 
L 451.039935 119.497583 
L 454.544525 118.347403 
L 461.053048 115.418514 
L 463.556326 114.630674 
L 467.060916 112.518753 
L 495.097633 99.404151 
L 498.602222 97.33598 
L 536.151396 79.96365 
L 538.654675 79.152483 
L 541.658609 77.287282 
L 545.663854 75.905378 
L 548.667788 74.390867 
L 551.671722 72.622314 
L 554.175 71.456554 
L 554.175 71.456554 
" clip-path="url(#p4d6713445c)" style="fill: none; stroke: #808080; stroke-opacity: 0.3; stroke-linecap: square"/>
   </g>
   <g id="line2d_38">
    <path d="M 54.02 318.04 
L 58.025245 316.576681 
L 61.029179 315.131993 
L 70.040981 309.738643 
L 72.544259 308.957917 
L 73.545571 308.293954 
L 76.048849 306.437836 
L 79.052783 305.51105 
L 82.557372 302.930623 
L 88.56524 300.087741 
L 91.569174 297.775233 
L 94.573108 297.340859 
L 96.575731 296.158291 
L 98.578353 295.050748 
L 101.081632 293.830243 
L 104.085566 291.522948 
L 107.089499 290.619818 
L 109.592778 288.737192 
L 110.594089 288.109989 
L 114.098679 286.918134 
L 116.601957 285.751917 
L 120.106547 283.123464 
L 123.611136 281.094856 
L 129.118348 278.525917 
L 132.622938 275.971373 
L 145.139329 270.12016 
L 151.147197 266.487455 
L 154.151131 265.53196 
L 157.655721 263.447118 
L 160.659655 262.110446 
L 164.164244 260.922586 
L 167.168178 259.436647 
L 170.172112 257.66307 
L 173.176046 256.218273 
L 176.680636 254.167972 
L 179.68457 252.875092 
L 182.187848 252.093895 
L 185.692437 249.995856 
L 189.197027 248.495232 
L 191.700305 247.683058 
L 195.204895 245.614494 
L 198.208829 244.279201 
L 201.212763 243.269839 
L 204.216697 241.454816 
L 207.721286 240.295154 
L 210.224565 239.13981 
L 212.227187 237.342316 
L 213.228498 236.422096 
L 213.729154 236.136043 
L 216.733088 235.160868 
L 220.237678 233.072891 
L 226.746201 229.94853 
L 235.257347 224.721503 
L 238.761937 223.431855 
L 241.765871 220.75196 
L 245.27046 219.040493 
L 248.274394 217.26637 
L 251.278328 215.82984 
L 254.782918 213.780261 
L 260.790786 210.934985 
L 264.295375 208.899761 
L 267.299309 207.403112 
L 273.307177 203.777038 
L 279.815701 200.651543 
L 282.819635 198.895435 
L 285.823569 197.434491 
L 288.827503 195.696181 
L 291.831436 194.661857 
L 294.83537 192.403959 
L 297.839304 191.479415 
L 301.84455 189.14749 
L 304.848483 187.638063 
L 307.852417 185.885869 
L 313.860285 183.040444 
L 319.868153 179.387614 
L 322.872087 178.457395 
L 329.380611 174.536184 
L 332.384545 173.563957 
L 341.897002 167.786598 
L 344.900936 166.811152 
L 347.90487 164.975801 
L 351.409459 163.830599 
L 357.917983 160.710924 
L 363.925851 156.946523 
L 366.429129 155.020728 
L 367.43044 154.625938 
L 370.434374 153.595147 
L 376.442242 150.739962 
L 379.946832 148.710278 
L 382.45011 147.492265 
L 385.454044 145.218945 
L 388.457978 144.29459 
L 392.963879 141.740074 
L 398.471091 139.106574 
L 404.979615 135.228261 
L 410.987482 132.352176 
L 413.991416 130.578118 
L 416.99535 129.13413 
L 420.49994 127.079086 
L 423.503874 125.597329 
L 426.507808 123.825274 
L 429.511742 122.379283 
L 433.016331 120.325697 
L 439.024199 117.474463 
L 445.032067 113.84521 
L 448.036001 112.889955 
L 454.544525 108.932065 
L 457.548458 107.50146 
L 463.556326 103.800975 
L 467.060916 102.674628 
L 470.565506 100.935375 
L 476.072718 97.545591 
L 479.076652 96.621372 
L 482.080586 94.796027 
L 486.085831 92.439573 
L 489.089765 90.975965 
L 492.093699 89.182709 
L 494.596977 88.027391 
L 495.598288 87.188334 
L 497.600911 85.339808 
L 498.101567 85.056753 
L 501.105501 85.001393 
L 504.61009 82.374914 
L 507.614024 80.627445 
L 511.118614 79.440313 
L 514.122548 77.961074 
L 517.126481 76.029183 
L 519.62976 74.103667 
L 520.631071 73.721932 
L 523.134349 72.850629 
L 526.138283 70.58427 
L 529.142217 69.645226 
L 533.147462 67.33073 
L 538.654675 64.809954 
L 541.658609 63.885668 
L 545.163198 61.293363 
L 548.667788 59.557651 
L 551.671722 57.796175 
L 554.175 56.653333 
L 554.175 56.653333 
" clip-path="url(#p4d6713445c)" style="fill: none; stroke: #808080; stroke-opacity: 0.3; stroke-linecap: square"/>
   </g>
   <g id="line2d_39">
    <path d="M 54.02 318.04 
L 57.52459 315.942805 
L 60.528524 314.997099 
L 66.536391 312.180982 
L 70.040981 310.092062 
L 73.044915 309.104264 
L 77.05016 306.845091 
L 84.559995 303.008867 
L 85.561306 302.498758 
L 88.56524 301.535036 
L 91.569174 299.221857 
L 94.573108 298.789831 
L 96.575731 297.598532 
L 104.085566 292.995984 
L 107.089499 292.050906 
L 110.093433 290.245844 
L 113.598023 288.188375 
L 116.601957 287.68753 
L 120.106547 285.117205 
L 132.622938 279.272252 
L 136.127528 277.244064 
L 145.139329 273.013767 
L 151.147197 269.385451 
L 154.151131 268.43046 
L 157.155065 266.582071 
L 160.659655 265.377574 
L 164.164244 263.117722 
L 166.667523 261.244243 
L 170.172112 260.090396 
L 173.176046 258.647237 
L 176.680636 256.605715 
L 182.688504 253.760849 
L 185.692437 251.97091 
L 198.208829 246.133127 
L 201.212763 244.368212 
L 204.717352 243.189675 
L 207.721286 241.721798 
L 210.72522 239.935126 
L 214.22981 238.193979 
L 217.233744 236.450921 
L 223.241612 233.613253 
L 226.245546 231.857066 
L 229.249479 230.877655 
L 232.754069 228.807052 
L 238.761937 225.985273 
L 242.266527 223.934372 
L 245.27046 222.634986 
L 248.274394 221.642272 
L 251.278328 220.206278 
L 254.782918 218.158338 
L 260.790786 215.314961 
L 263.79472 213.569147 
L 266.798654 212.57833 
L 272.806522 208.881968 
L 276.311111 207.686933 
L 279.315045 205.906619 
L 282.318979 204.934603 
L 285.322913 202.623719 
L 295.836682 197.591346 
L 298.33996 196.128684 
L 301.343894 194.799442 
L 304.347828 193.798057 
L 307.852417 191.737996 
L 313.860285 188.903026 
L 320.368809 184.99191 
L 323.372743 183.525533 
L 326.376677 181.738053 
L 332.8852 178.633426 
L 335.889134 176.865672 
L 345.401592 172.369215 
L 347.90487 170.846475 
L 350.908804 169.916905 
L 352.911426 168.119636 
L 353.912738 167.197068 
L 354.413393 166.965824 
L 357.417327 166.416129 
L 363.925851 162.471484 
L 370.434374 159.361273 
L 373.438308 157.600371 
L 382.950766 153.106721 
L 385.9547 151.342827 
L 388.958634 149.885663 
L 391.962568 148.1403 
L 395.467157 146.945116 
L 398.471091 145.467308 
L 401.475025 143.692622 
L 407.482893 140.848533 
L 410.486827 138.587271 
L 413.991416 137.440093 
L 420.49994 134.316247 
L 426.507808 130.695785 
L 433.016331 127.575945 
L 436.020265 125.824671 
L 439.024199 124.359817 
L 442.028133 122.63068 
L 445.032067 121.625129 
L 448.536657 119.57223 
L 451.540591 118.100344 
L 457.548458 114.488961 
L 461.053048 113.309554 
L 464.056982 111.841878 
L 467.060916 110.061143 
L 470.565506 108.316557 
L 473.569439 106.571025 
L 479.577307 103.732724 
L 483.081897 101.699791 
L 486.085831 100.208426 
L 489.089765 98.446033 
L 495.097633 95.721804 
L 498.101567 94.707566 
L 501.606156 92.093587 
L 504.109434 90.553153 
L 507.614024 89.358353 
L 511.118614 87.310533 
L 517.126481 84.466492 
L 520.130415 82.671123 
L 523.635005 80.947132 
L 526.638939 79.186845 
L 532.646807 76.473455 
L 535.650741 75.477911 
L 542.159264 71.547719 
L 551.671722 67.061495 
L 554.175 65.520993 
L 554.175 65.520993 
" clip-path="url(#p4d6713445c)" style="fill: none; stroke: #808080; stroke-opacity: 0.3; stroke-linecap: square"/>
   </g>
   <g id="line2d_40">
    <path d="M 54.02 318.04 
L 60.528524 315.059027 
L 66.536391 312.016037 
L 71.042292 309.716575 
L 74.046226 308.258719 
L 78.051471 306.231624 
L 80.55475 304.922894 
L 86.562618 301.731035 
L 89.065896 300.449377 
L 91.569174 298.967636 
L 94.573108 298.093502 
L 97.076386 296.611347 
L 101.081632 294.268121 
L 110.093433 289.90758 
L 115.600646 287.137431 
L 117.102613 286.337168 
L 120.106547 284.574575 
L 123.611136 283.120315 
L 127.115726 281.383179 
L 129.619004 280.196546 
L 135.126216 277.140607 
L 145.639985 272.071322 
L 156.654409 266.65424 
L 160.659655 264.640545 
L 164.6649 262.728347 
L 167.168178 261.438079 
L 170.672768 259.853215 
L 176.680636 256.841451 
L 184.691126 252.935784 
L 187.194404 251.78394 
L 192.701617 249.217485 
L 200.211451 245.468515 
L 212.227187 239.581144 
L 217.233744 237.018125 
L 221.739645 234.81019 
L 224.743579 233.324753 
L 227.246857 232.135766 
L 229.750135 230.946543 
L 232.754069 229.282813 
L 240.263904 225.831956 
L 244.769805 223.436671 
L 248.77505 221.542176 
L 255.283574 218.075202 
L 258.287508 216.717686 
L 260.790786 215.690954 
L 264.796031 213.634631 
L 268.300621 211.932496 
L 275.3098 208.416541 
L 279.315045 206.426371 
L 292.832748 199.861318 
L 296.837993 198.048289 
L 299.341271 196.732441 
L 302.345205 195.183298 
L 317.364875 188.084041 
L 320.869464 186.223432 
L 324.87471 184.250775 
L 330.381922 181.513354 
L 334.887823 179.304891 
L 342.397658 175.592761 
L 345.902247 173.91055 
L 348.906181 172.426135 
L 354.413393 169.98708 
L 365.427818 164.30748 
L 366.929785 163.515799 
L 370.434374 162.113076 
L 379.946832 157.554322 
L 382.950766 156.110885 
L 385.9547 154.472716 
L 389.459289 152.943813 
L 392.963879 151.208733 
L 396.969124 149.283681 
L 403.978303 145.866671 
L 408.98486 143.467721 
L 413.991416 141.025818 
L 417.496006 139.434733 
L 423.003218 136.679947 
L 430.513053 133.119766 
L 433.516987 131.691285 
L 436.520921 130.202356 
L 439.524855 128.795499 
L 444.531411 126.304029 
L 451.039935 123.320479 
L 456.547147 120.510993 
L 458.54977 119.548277 
L 471.066161 113.810958 
L 475.572062 111.647267 
L 490.091076 104.813369 
L 493.595666 103.187953 
L 497.100255 101.530522 
L 507.113368 96.735592 
L 512.620581 94.199731 
L 521.131727 90.147255 
L 523.635005 89.001444 
L 526.638939 87.461618 
L 529.642873 86.243849 
L 533.147462 84.461199 
L 538.654675 82.038542 
L 543.661231 79.619364 
L 551.171066 76.140587 
L 554.175 74.514382 
L 554.175 74.514382 
" clip-path="url(#p4d6713445c)" style="fill: none; stroke: #000000; stroke-width: 2.5; stroke-linecap: square"/>
   </g>
   <g id="patch_3">
    <path d="M 54.02 318.04 
L 54.02 43.584 
" style="fill: none; stroke: #000000; stroke-width: 0.8; stroke-linejoin: miter; stroke-linecap: square"/>
   </g>
   <g id="patch_4">
    <path d="M 554.175 318.04 
L 554.175 43.584 
" style="fill: none; stroke: #000000; stroke-width: 0.8; stroke-linejoin: miter; stroke-linecap: square"/>
   </g>
   <g id="patch_5">
    <path d="M 54.02 318.04 
L 554.175 318.04 
" style="fill: none; stroke: #000000; stroke-width: 0.8; stroke-linejoin: miter; stroke-linecap: square"/>
   </g>
   <g id="patch_6">
    <path d="M 54.02 43.584 
L 554.175 43.584 
" style="fill: none; stroke: #000000; stroke-width: 0.8; stroke-linejoin: miter; stroke-linecap: square"/>
   </g>
   <g id="text_17">
    <!-- Distance over time (n = 11) -->
    <g transform="translate(220.244687 24.146625) scale(0.12 -0.12)">
     <defs>
      <path id="DejaVuSans-6f" d="M 1959 3097 
Q 1497 3097 1228 2736 
Q 959 2375 959 1747 
Q 959 1119 1226 758 
Q 1494 397 1959 397 
Q 2419 397 2687 759 
Q 2956 1122 2956 1747 
Q 2956 2369 2687 2733 
Q 2419 3097 1959 3097 
z
M 1959 3584 
Q 2709 3584 3137 3096 
Q 3566 2609 3566 1747 
Q 3566 888 3137 398 
Q 2709 -91 1959 -91 
Q 1206 -91 779 398 
Q 353 888 353 1747 
Q 353 2609 779 3096 
Q 1206 3584 1959 3584 
z
" transform="scale(0.015625)"/>
      <path id="DejaVuSans-76" d="M 191 3500 
L 800 3500 
L 1894 563 
L 2988 3500 
L 3597 3500 
L 2284 0 
L 1503 0 
L 191 3500 
z
" transform="scale(0.015625)"/>
      <path id="DejaVuSans-72" d="M 2631 2963 
Q 2534 3019 2420 3045 
Q 2306 3072 2169 3072 
Q 1681 3072 1420 2755 
Q 1159 2438 1159 1844 
L 1159 0 
L 581 0 
L 581 3500 
L 1159 3500 
L 1159 2956 
Q 1341 3275 1631 3429 
Q 1922 3584 2338 3584 
Q 2397 3584 2469 3576 
Q 2541 3569 2628 3553 
L 2631 2963 
z
" transform="scale(0.015625)"/>
      <path id="DejaVuSans-28" d="M 1984 4856 
Q 1566 4138 1362 3434 
Q 1159 2731 1159 2009 
Q 1159 1288 1364 580 
Q 1569 -128 1984 -844 
L 1484 -844 
Q 1016 -109 783 600 
Q 550 1309 550 2009 
Q 550 2706 781 3412 
Q 1013 4119 1484 4856 
L 1984 4856 
z
" transform="scale(0.015625)"/>
      <path id="DejaVuSans-3d" d="M 678 2906 
L 4684 2906 
L 4684 2381 
L 678 2381 
L 678 2906 
z
M 678 1631 
L 4684 1631 
L 4684 1100 
L 678 1100 
L 678 1631 
z
" transform="scale(0.015625)"/>
      <path id="DejaVuSans-29" d="M 513 4856 
L 1013 4856 
Q 1481 4119 1714 3412 
Q 1947 2706 1947 2009 
Q 1947 1309 1714 600 
Q 1481 -109 1013 -844 
L 513 -844 
Q 928 -128 1133 580 
Q 1338 1288 1338 2009 
Q 1338 2731 1133 3434 
Q 928 4138 513 4856 
z
" transform="scale(0.015625)"/>
     </defs>
     <use xlink:href="#DejaVuSans-44"/>
     <use xlink:href="#DejaVuSans-69" x="77.001953"/>
     <use xlink:href="#DejaVuSans-73" x="104.785156"/>
     <use xlink:href="#DejaVuSans-74" x="156.884766"/>
     <use xlink:href="#DejaVuSans-61" x="196.09375"/>
     <use xlink:href="#DejaVuSans-6e" x="257.373047"/>
     <use xlink:href="#DejaVuSans-63" x="320.751953"/>
     <use xlink:href="#DejaVuSans-65" x="375.732422"/>
     <use xlink:href="#DejaVuSans-20" x="437.255859"/>
     <use xlink:href="#DejaVuSans-6f" x="469.042969"/>
     <use xlink:href="#DejaVuSans-76" x="530.224609"/>
     <use xlink:href="#DejaVuSans-65" x="589.404297"/>
     <use xlink:href="#DejaVuSans-72" x="650.927734"/>
     <use xlink:href="#DejaVuSans-20" x="692.041016"/>
     <use xlink:href="#DejaVuSans-74" x="723.828125"/>
     <use xlink:href="#DejaVuSans-69" x="763.037109"/>
     <use xlink:href="#DejaVuSans-6d" x="790.820312"/>
     <use xlink:href="#DejaVuSans-65" x="888.232422"/>
     <use xlink:href="#DejaVuSans-20" x="949.755859"/>
     <use xlink:href="#DejaVuSans-28" x="981.542969"/>
     <use xlink:href="#DejaVuSans-6e" x="1020.556641"/>
     <use xlink:href="#DejaVuSans-20" x="1083.935547"/>
     <use xlink:href="#DejaVuSans-3d" x="1115.722656"/>
     <use xlink:href="#DejaVuSans-20" x="1199.511719"/>
     <use xlink:href="#DejaVuSans-31" x="1231.298828"/>
     <use xlink:href="#DejaVuSans-31" x="1294.921875"/>
     <use xlink:href="#DejaVuSans-29" x="1358.544922"/>
    </g>
    <!-- $v_{\mathrm{desired}} = 25\,\mathrm{km/h} \equiv 6.944\,\mathrm{m/s}$ -->
    <g transform="translate(217.1575 37.584) scale(0.12 -0.12)">
     <defs>
      <path id="DejaVuSans-Oblique-76" d="M 459 3500 
L 1069 3500 
L 1581 525 
L 3256 3500 
L 3866 3500 
L 1875 0 
L 1100 0 
L 459 3500 
z
" transform="scale(0.015625)"/>
      <path id="DejaVuSans-64" d="M 2906 2969 
L 2906 4863 
L 3481 4863 
L 3481 0 
L 2906 0 
L 2906 525 
Q 2725 213 2448 61 
Q 2172 -91 1784 -91 
Q 1150 -91 751 415 
Q 353 922 353 1747 
Q 353 2572 751 3078 
Q 1150 3584 1784 3584 
Q 2172 3584 2448 3432 
Q 2725 3281 2906 2969 
z
M 947 1747 
Q 947 1113 1208 752 
Q 1469 391 1925 391 
Q 2381 391 2643 752 
Q 2906 1113 2906 1747 
Q 2906 2381 2643 2742 
Q 2381 3103 1925 3103 
Q 1469 3103 1208 2742 
Q 947 2381 947 1747 
z
" transform="scale(0.015625)"/>
      <path id="DejaVuSans-6b" d="M 581 4863 
L 1159 4863 
L 1159 1991 
L 2875 3500 
L 3609 3500 
L 1753 1863 
L 3688 0 
L 2938 0 
L 1159 1709 
L 1159 0 
L 581 0 
L 581 4863 
z
" transform="scale(0.015625)"/>
      <path id="DejaVuSans-68" d="M 3513 2113 
L 3513 0 
L 2938 0 
L 2938 2094 
Q 2938 2591 2744 2837 
Q 2550 3084 2163 3084 
Q 1697 3084 1428 2787 
Q 1159 2491 1159 1978 
L 1159 0 
L 581 0 
L 581 4863 
L 1159 4863 
L 1159 2956 
Q 1366 3272 1645 3428 
Q 1925 3584 2291 3584 
Q 2894 3584 3203 3211 
Q 3513 2838 3513 2113 
z
" transform="scale(0.015625)"/>
      <path id="DejaVuSans-2261" d="M 678 2272 
L 4684 2272 
L 4684 1741 
L 678 1741 
L 678 2272 
z
M 678 3438 
L 4684 3438 
L 4684 2906 
L 678 2906 
L 678 3438 
z
M 678 1106 
L 4684 1106 
L 4684 575 
L 678 575 
L 678 1106 
z
" transform="scale(0.015625)"/>
      <path id="DejaVuSans-36" d="M 2113 2584 
Q 1688 2584 1439 2293 
Q 1191 2003 1191 1497 
Q 1191 994 1439 701 
Q 1688 409 2113 409 
Q 2538 409 2786 701 
Q 3034 994 3034 1497 
Q 3034 2003 2786 2293 
Q 2538 2584 2113 2584 
z
M 3366 4563 
L 3366 3988 
Q 3128 4100 2886 4159 
Q 2644 4219 2406 4219 
Q 1781 4219 1451 3797 
Q 1122 3375 1075 2522 
Q 1259 2794 1537 2939 
Q 1816 3084 2150 3084 
Q 2853 3084 3261 2657 
Q 3669 2231 3669 1497 
Q 3669 778 3244 343 
Q 2819 -91 2113 -91 
Q 1303 -91 875 529 
Q 447 1150 447 2328 
Q 447 3434 972 4092 
Q 1497 4750 2381 4750 
Q 2619 4750 2861 4703 
Q 3103 4656 3366 4563 
z
" transform="scale(0.015625)"/>
      <path id="DejaVuSans-39" d="M 703 97 
L 703 672 
Q 941 559 1184 500 
Q 1428 441 1663 441 
Q 2288 441 2617 861 
Q 2947 1281 2994 2138 
Q 2813 1869 2534 1725 
Q 2256 1581 1919 1581 
Q 1219 1581 811 2004 
Q 403 2428 403 3163 
Q 403 3881 828 4315 
Q 1253 4750 1959 4750 
Q 2769 4750 3195 4129 
Q 3622 3509 3622 2328 
Q 3622 1225 3098 567 
Q 2575 -91 1691 -91 
Q 1453 -91 1209 -44 
Q 966 3 703 97 
z
M 1959 2075 
Q 2384 2075 2632 2365 
Q 2881 2656 2881 3163 
Q 2881 3666 2632 3958 
Q 2384 4250 1959 4250 
Q 1534 4250 1286 3958 
Q 1038 3666 1038 3163 
Q 1038 2656 1286 2365 
Q 1534 2075 1959 2075 
z
" transform="scale(0.015625)"/>
     </defs>
     <use xlink:href="#DejaVuSans-Oblique-76" transform="translate(0 0.015625)"/>
     <use xlink:href="#DejaVuSans-64" transform="translate(59.179688 -16.390625) scale(0.7)"/>
     <use xlink:href="#DejaVuSans-65" transform="translate(103.613281 -16.390625) scale(0.7)"/>
     <use xlink:href="#DejaVuSans-73" transform="translate(146.679688 -16.390625) scale(0.7)"/>
     <use xlink:href="#DejaVuSans-69" transform="translate(183.149414 -16.390625) scale(0.7)"/>
     <use xlink:href="#DejaVuSans-72" transform="translate(202.597656 -16.390625) scale(0.7)"/>
     <use xlink:href="#DejaVuSans-65" transform="translate(231.376953 -16.390625) scale(0.7)"/>
     <use xlink:href="#DejaVuSans-64" transform="translate(274.443359 -16.390625) scale(0.7)"/>
     <use xlink:href="#DejaVuSans-3d" transform="translate(341.09375 0.015625)"/>
     <use xlink:href="#DejaVuSans-32" transform="translate(444.365234 0.015625)"/>
     <use xlink:href="#DejaVuSans-35" transform="translate(507.988281 0.015625)"/>
     <use xlink:href="#DejaVuSans-6b" transform="translate(587.847004 0.015625)"/>
     <use xlink:href="#DejaVuSans-6d" transform="translate(645.757161 0.015625)"/>
     <use xlink:href="#DejaVuSans-2f" transform="translate(743.16927 0.015625)"/>
     <use xlink:href="#DejaVuSans-68" transform="translate(776.860676 0.015625)"/>
     <use xlink:href="#DejaVuSans-2261" transform="translate(859.722004 0.015625)"/>
     <use xlink:href="#DejaVuSans-36" transform="translate(962.993489 0.015625)"/>
     <use xlink:href="#DejaVuSans-2e" transform="translate(1026.616536 0.015625)"/>
     <use xlink:href="#DejaVuSans-39" transform="translate(1058.403645 0.015625)"/>
     <use xlink:href="#DejaVuSans-34" transform="translate(1122.026692 0.015625)"/>
     <use xlink:href="#DejaVuSans-34" transform="translate(1185.649739 0.015625)"/>
     <use xlink:href="#DejaVuSans-6d" transform="translate(1265.508462 0.015625)"/>
     <use xlink:href="#DejaVuSans-2f" transform="translate(1362.920571 0.015625)"/>
     <use xlink:href="#DejaVuSans-73" transform="translate(1396.611978 0.015625)"/>
    </g>
   </g>
   <g id="legend_1">
    <g id="patch_7">
     <path d="M 61.02 66.262125 
L 134.085625 66.262125 
Q 136.085625 66.262125 136.085625 64.262125 
L 136.085625 50.584 
Q 136.085625 48.584 134.085625 48.584 
L 61.02 48.584 
Q 59.02 48.584 59.02 50.584 
L 59.02 64.262125 
Q 59.02 66.262125 61.02 66.262125 
z
" style="fill: #ffffff; opacity: 0.8; stroke: #cccccc; stroke-linejoin: miter"/>
    </g>
    <g id="line2d_41">
     <path d="M 63.02 56.682437 
L 73.02 56.682437 
L 83.02 56.682437 
" style="fill: none; stroke: #000000; stroke-width: 2.5; stroke-linecap: square"/>
    </g>
    <g id="text_18">
     <!-- Average -->
     <g transform="translate(91.02 60.182437) scale(0.1 -0.1)">
      <defs>
       <path id="DejaVuSans-41" d="M 2188 4044 
L 1331 1722 
L 3047 1722 
L 2188 4044 
z
M 1831 4666 
L 2547 4666 
L 4325 0 
L 3669 0 
L 3244 1197 
L 1141 1197 
L 716 0 
L 50 0 
L 1831 4666 
z
" transform="scale(0.015625)"/>
       <path id="DejaVuSans-67" d="M 2906 1791 
Q 2906 2416 2648 2759 
Q 2391 3103 1925 3103 
Q 1463 3103 1205 2759 
Q 947 2416 947 1791 
Q 947 1169 1205 825 
Q 1463 481 1925 481 
Q 2391 481 2648 825 
Q 2906 1169 2906 1791 
z
M 3481 434 
Q 3481 -459 3084 -895 
Q 2688 -1331 1869 -1331 
Q 1566 -1331 1297 -1286 
Q 1028 -1241 775 -1147 
L 775 -588 
Q 1028 -725 1275 -790 
Q 1522 -856 1778 -856 
Q 2344 -856 2625 -561 
Q 2906 -266 2906 331 
L 2906 616 
Q 2728 306 2450 153 
Q 2172 0 1784 0 
Q 1141 0 747 490 
Q 353 981 353 1791 
Q 353 2603 747 3093 
Q 1141 3584 1784 3584 
Q 2172 3584 2450 3431 
Q 2728 3278 2906 2969 
L 2906 3500 
L 3481 3500 
L 3481 434 
z
" transform="scale(0.015625)"/>
      </defs>
      <use xlink:href="#DejaVuSans-41"/>
      <use xlink:href="#DejaVuSans-76" x="62.533203"/>
      <use xlink:href="#DejaVuSans-65" x="121.712891"/>
      <use xlink:href="#DejaVuSans-72" x="183.236328"/>
      <use xlink:href="#DejaVuSans-61" x="224.349609"/>
      <use xlink:href="#DejaVuSans-67" x="285.628906"/>
      <use xlink:href="#DejaVuSans-65" x="349.105469"/>
     </g>
    </g>
   </g>
  </g>
 </g>
 <defs>
  <clipPath id="p4d6713445c">
   <rect x="54.02" y="43.584" width="500.155" height="274.456"/>
  </clipPath>
 </defs>
</svg>
