<?xml version="1.0" encoding="utf-8" standalone="no"?>
<!DOCTYPE svg PUBLIC "-//W3C//DTD SVG 1.1//EN"
  "http://www.w3.org/Graphics/SVG/1.1/DTD/svg11.dtd">
<svg xmlns:xlink="http://www.w3.org/1999/xlink" width="576pt" height="360pt" viewBox="0 0 576 360" xmlns="http://www.w3.org/2000/svg" version="1.1">
 <metadata>
  <rdf:RDF xmlns:dc="http://purl.org/dc/elements/1.1/" xmlns:cc="http://creativecommons.org/ns#" xmlns:rdf="http://www.w3.org/1999/02/22-rdf-syntax-ns#">
   <cc:Work>
    <dc:type rdf:resource="http://purl.org/dc/dcmitype/StillImage"/>
    <dc:date>2026-01-22T10:12:51.230837</dc:date>
    <dc:format>image/svg+xml</dc:format>
    <dc:creator>
     <cc:Agent>
      <dc:title>Matplotlib v3.9.4, https://matplotlib.org/</dc:title>
     </cc:Agent>
    </dc:creator>
   </cc:Work>
  </rdf:RDF>
 </metadata>
 <defs>
  <style type="text/css">*{stroke-linejoin: round; stroke-linecap: butt}</style>
 </defs>
 <g id="figure_1">
  <g id="patch_1">
   <path d="M 0 360 
L 576 360 
L 576 0 
L 0 0 
z
" style="fill: #ffffff"/>
  </g>
  <g id="axes_1">
   <g id="patch_2">
    <path d="M 47.72 318.04 
L 551.025 318.04 
L 551.025 43.584 
L 47.72 43.584 
z
" style="fill: #ffffff"/>
   </g>
   <g id="matplotlib.axis_1">
    <g id="xtick_1">
     <g id="line2d_1">
      <path d="M 47.72 318.04 
L 47.72 43.584 
" clip-path="url(#p96cb4ab34f)" style="fill: none; stroke: #b0b0b0; stroke-width: 0.8; stroke-linecap: square"/>
     </g>
     <g id="line2d_2">
      <defs>
       <path id="mfbd0cf7836" d="M 0 0 
L 0 3.5 
" style="stroke: #000000; stroke-width: 0.8"/>
      </defs>
      <g>
       <use xlink:href="#mfbd0cf7836" x="47.72" y="318.04" style="stroke: #000000; stroke-width: 0.8"/>
      </g>
     </g>
     <g id="text_1">
      <!-- 0.000 -->
      <g transform="translate(33.405938 332.638438) scale(0.1 -0.1)">
       <defs>
        <path id="DejaVuSans-30" d="M 2034 4250 
Q 1547 4250 1301 3770 
Q 1056 3291 1056 2328 
Q 1056 1369 1301 889 
Q 1547 409 2034 409 
Q 2525 409 2770 889 
Q 3016 1369 3016 2328 
Q 3016 3291 2770 3770 
Q 2525 4250 2034 4250 
z
M 2034 4750 
Q 2819 4750 3233 4129 
Q 3647 3509 3647 2328 
Q 3647 1150 3233 529 
Q 2819 -91 2034 -91 
Q 1250 -91 836 529 
Q 422 1150 422 2328 
Q 422 3509 836 4129 
Q 1250 4750 2034 4750 
z
" transform="scale(0.015625)"/>
        <path id="DejaVuSans-2e" d="M 684 794 
L 1344 794 
L 1344 0 
L 684 0 
L 684 794 
z
" transform="scale(0.015625)"/>
       </defs>
       <use xlink:href="#DejaVuSans-30"/>
       <use xlink:href="#DejaVuSans-2e" x="63.623047"/>
       <use xlink:href="#DejaVuSans-30" x="95.410156"/>
       <use xlink:href="#DejaVuSans-30" x="159.033203"/>
       <use xlink:href="#DejaVuSans-30" x="222.65625"/>
      </g>
     </g>
    </g>
    <g id="xtick_2">
     <g id="line2d_3">
      <path d="M 103.642778 318.04 
L 103.642778 43.584 
" clip-path="url(#p96cb4ab34f)" style="fill: none; stroke: #b0b0b0; stroke-width: 0.8; stroke-linecap: square"/>
     </g>
     <g id="line2d_4">
      <g>
       <use xlink:href="#mfbd0cf7836" x="103.642778" y="318.04" style="stroke: #000000; stroke-width: 0.8"/>
      </g>
     </g>
     <g id="text_2">
      <!-- 0.005 -->
      <g transform="translate(89.328715 332.638438) scale(0.1 -0.1)">
       <defs>
        <path id="DejaVuSans-35" d="M 691 4666 
L 3169 4666 
L 3169 4134 
L 1269 4134 
L 1269 2991 
Q 1406 3038 1543 3061 
Q 1681 3084 1819 3084 
Q 2600 3084 3056 2656 
Q 3513 2228 3513 1497 
Q 3513 744 3044 326 
Q 2575 -91 1722 -91 
Q 1428 -91 1123 -41 
Q 819 9 494 109 
L 494 744 
Q 775 591 1075 516 
Q 1375 441 1709 441 
Q 2250 441 2565 725 
Q 2881 1009 2881 1497 
Q 2881 1984 2565 2268 
Q 2250 2553 1709 2553 
Q 1456 2553 1204 2497 
Q 953 2441 691 2322 
L 691 4666 
z
" transform="scale(0.015625)"/>
       </defs>
       <use xlink:href="#DejaVuSans-30"/>
       <use xlink:href="#DejaVuSans-2e" x="63.623047"/>
       <use xlink:href="#DejaVuSans-30" x="95.410156"/>
       <use xlink:href="#DejaVuSans-30" x="159.033203"/>
       <use xlink:href="#DejaVuSans-35" x="222.65625"/>
      </g>
     </g>
    </g>
    <g id="xtick_3">
     <g id="line2d_5">
      <path d="M 159.565556 318.04 
L 159.565556 43.584 
" clip-path="url(#p96cb4ab34f)" style="fill: none; stroke: #b0b0b0; stroke-width: 0.8; stroke-linecap: square"/>
     </g>
     <g id="line2d_6">
      <g>
       <use xlink:href="#mfbd0cf7836" x="159.565556" y="318.04" style="stroke: #000000; stroke-width: 0.8"/>
      </g>
     </g>
     <g id="text_3">
      <!-- 0.010 -->
      <g transform="translate(145.251493 332.638438) scale(0.1 -0.1)">
       <defs>
        <path id="DejaVuSans-31" d="M 794 531 
L 1825 531 
L 1825 4091 
L 703 3866 
L 703 4441 
L 1819 4666 
L 2450 4666 
L 2450 531 
L 3481 531 
L 3481 0 
L 794 0 
L 794 531 
z
" transform="scale(0.015625)"/>
       </defs>
       <use xlink:href="#DejaVuSans-30"/>
       <use xlink:href="#DejaVuSans-2e" x="63.623047"/>
       <use xlink:href="#DejaVuSans-30" x="95.410156"/>
       <use xlink:href="#DejaVuSans-31" x="159.033203"/>
       <use xlink:href="#DejaVuSans-30" x="222.65625"/>
      </g>
     </g>
    </g>
    <g id="xtick_4">
     <g id="line2d_7">
      <path d="M 215.488333 318.04 
L 215.488333 43.584 
" clip-path="url(#p96cb4ab34f)" style="fill: none; stroke: #b0b0b0; stroke-width: 0.8; stroke-linecap: square"/>
     </g>
     <g id="line2d_8">
      <g>
       <use xlink:href="#mfbd0cf7836" x="215.488333" y="318.04" style="stroke: #000000; stroke-width: 0.8"/>
      </g>
     </g>
     <g id="text_4">
      <!-- 0.015 -->
      <g transform="translate(201.174271 332.638438) scale(0.1 -0.1)">
       <use xlink:href="#DejaVuSans-30"/>
       <use xlink:href="#DejaVuSans-2e" x="63.623047"/>
       <use xlink:href="#DejaVuSans-30" x="95.410156"/>
       <use xlink:href="#DejaVuSans-31" x="159.033203"/>
       <use xlink:href="#DejaVuSans-35" x="222.65625"/>
      </g>
     </g>
    </g>
    <g id="xtick_5">
     <g id="line2d_9">
      <path d="M 271.411111 318.04 
L 271.411111 43.584 
" clip-path="url(#p96cb4ab34f)" style="fill: none; stroke: #b0b0b0; stroke-width: 0.8; stroke-linecap: square"/>
     </g>
     <g id="line2d_10">
      <g>
       <use xlink:href="#mfbd0cf7836" x="271.411111" y="318.04" style="stroke: #000000; stroke-width: 0.8"/>
      </g>
     </g>
     <g id="text_5">
      <!-- 0.020 -->
      <g transform="translate(257.097049 332.638438) scale(0.1 -0.1)">
       <defs>
        <path id="DejaVuSans-32" d="M 1228 531 
L 3431 531 
L 3431 0 
L 469 0 
L 469 531 
Q 828 903 1448 1529 
Q 2069 2156 2228 2338 
Q 2531 2678 2651 2914 
Q 2772 3150 2772 3378 
Q 2772 3750 2511 3984 
Q 2250 4219 1831 4219 
Q 1534 4219 1204 4116 
Q 875 4013 500 3803 
L 500 4441 
Q 881 4594 1212 4672 
Q 1544 4750 1819 4750 
Q 2544 4750 2975 4387 
Q 3406 4025 3406 3419 
Q 3406 3131 3298 2873 
Q 3191 2616 2906 2266 
Q 2828 2175 2409 1742 
Q 1991 1309 1228 531 
z
" transform="scale(0.015625)"/>
       </defs>
       <use xlink:href="#DejaVuSans-30"/>
       <use xlink:href="#DejaVuSans-2e" x="63.623047"/>
       <use xlink:href="#DejaVuSans-30" x="95.410156"/>
       <use xlink:href="#DejaVuSans-32" x="159.033203"/>
       <use xlink:href="#DejaVuSans-30" x="222.65625"/>
      </g>
     </g>
    </g>
    <g id="xtick_6">
     <g id="line2d_11">
      <path d="M 327.333889 318.04 
L 327.333889 43.584 
" clip-path="url(#p96cb4ab34f)" style="fill: none; stroke: #b0b0b0; stroke-width: 0.8; stroke-linecap: square"/>
     </g>
     <g id="line2d_12">
      <g>
       <use xlink:href="#mfbd0cf7836" x="327.333889" y="318.04" style="stroke: #000000; stroke-width: 0.8"/>
      </g>
     </g>
     <g id="text_6">
      <!-- 0.025 -->
      <g transform="translate(313.019826 332.638438) scale(0.1 -0.1)">
       <use xlink:href="#DejaVuSans-30"/>
       <use xlink:href="#DejaVuSans-2e" x="63.623047"/>
       <use xlink:href="#DejaVuSans-30" x="95.410156"/>
       <use xlink:href="#DejaVuSans-32" x="159.033203"/>
       <use xlink:href="#DejaVuSans-35" x="222.65625"/>
      </g>
     </g>
    </g>
    <g id="xtick_7">
     <g id="line2d_13">
      <path d="M 383.256667 318.04 
L 383.256667 43.584 
" clip-path="url(#p96cb4ab34f)" style="fill: none; stroke: #b0b0b0; stroke-width: 0.8; stroke-linecap: square"/>
     </g>
     <g id="line2d_14">
      <g>
       <use xlink:href="#mfbd0cf7836" x="383.256667" y="318.04" style="stroke: #000000; stroke-width: 0.8"/>
      </g>
     </g>
     <g id="text_7">
      <!-- 0.030 -->
      <g transform="translate(368.942604 332.638438) scale(0.1 -0.1)">
       <defs>
        <path id="DejaVuSans-33" d="M 2597 2516 
Q 3050 2419 3304 2112 
Q 3559 1806 3559 1356 
Q 3559 666 3084 287 
Q 2609 -91 1734 -91 
Q 1441 -91 1130 -33 
Q 819 25 488 141 
L 488 750 
Q 750 597 1062 519 
Q 1375 441 1716 441 
Q 2309 441 2620 675 
Q 2931 909 2931 1356 
Q 2931 1769 2642 2001 
Q 2353 2234 1838 2234 
L 1294 2234 
L 1294 2753 
L 1863 2753 
Q 2328 2753 2575 2939 
Q 2822 3125 2822 3475 
Q 2822 3834 2567 4026 
Q 2313 4219 1838 4219 
Q 1578 4219 1281 4162 
Q 984 4106 628 3988 
L 628 4550 
Q 988 4650 1302 4700 
Q 1616 4750 1894 4750 
Q 2613 4750 3031 4423 
Q 3450 4097 3450 3541 
Q 3450 3153 3228 2886 
Q 3006 2619 2597 2516 
z
" transform="scale(0.015625)"/>
       </defs>
       <use xlink:href="#DejaVuSans-30"/>
       <use xlink:href="#DejaVuSans-2e" x="63.623047"/>
       <use xlink:href="#DejaVuSans-30" x="95.410156"/>
       <use xlink:href="#DejaVuSans-33" x="159.033203"/>
       <use xlink:href="#DejaVuSans-30" x="222.65625"/>
      </g>
     </g>
    </g>
    <g id="xtick_8">
     <g id="line2d_15">
      <path d="M 439.179444 318.04 
L 439.179444 43.584 
" clip-path="url(#p96cb4ab34f)" style="fill: none; stroke: #b0b0b0; stroke-width: 0.8; stroke-linecap: square"/>
     </g>
     <g id="line2d_16">
      <g>
       <use xlink:href="#mfbd0cf7836" x="439.179444" y="318.04" style="stroke: #000000; stroke-width: 0.8"/>
      </g>
     </g>
     <g id="text_8">
      <!-- 0.035 -->
      <g transform="translate(424.865382 332.638438) scale(0.1 -0.1)">
       <use xlink:href="#DejaVuSans-30"/>
       <use xlink:href="#DejaVuSans-2e" x="63.623047"/>
       <use xlink:href="#DejaVuSans-30" x="95.410156"/>
       <use xlink:href="#DejaVuSans-33" x="159.033203"/>
       <use xlink:href="#DejaVuSans-35" x="222.65625"/>
      </g>
     </g>
    </g>
    <g id="xtick_9">
     <g id="line2d_17">
      <path d="M 495.102222 318.04 
L 495.102222 43.584 
" clip-path="url(#p96cb4ab34f)" style="fill: none; stroke: #b0b0b0; stroke-width: 0.8; stroke-linecap: square"/>
     </g>
     <g id="line2d_18">
      <g>
       <use xlink:href="#mfbd0cf7836" x="495.102222" y="318.04" style="stroke: #000000; stroke-width: 0.8"/>
      </g>
     </g>
     <g id="text_9">
      <!-- 0.040 -->
      <g transform="translate(480.78816 332.638438) scale(0.1 -0.1)">
       <defs>
        <path id="DejaVuSans-34" d="M 2419 4116 
L 825 1625 
L 2419 1625 
L 2419 4116 
z
M 2253 4666 
L 3047 4666 
L 3047 1625 
L 3713 1625 
L 3713 1100 
L 3047 1100 
L 3047 0 
L 2419 0 
L 2419 1100 
L 313 1100 
L 313 1709 
L 2253 4666 
z
" transform="scale(0.015625)"/>
       </defs>
       <use xlink:href="#DejaVuSans-30"/>
       <use xlink:href="#DejaVuSans-2e" x="63.623047"/>
       <use xlink:href="#DejaVuSans-30" x="95.410156"/>
       <use xlink:href="#DejaVuSans-34" x="159.033203"/>
       <use xlink:href="#DejaVuSans-30" x="222.65625"/>
      </g>
     </g>
    </g>
    <g id="xtick_10">
     <g id="line2d_19">
      <path d="M 551.025 318.04 
L 551.025 43.584 
" clip-path="url(#p96cb4ab34f)" style="fill: none; stroke: #b0b0b0; stroke-width: 0.8; stroke-linecap: square"/>
     </g>
     <g id="line2d_20">
      <g>
       <use xlink:href="#mfbd0cf7836" x="551.025" y="318.04" style="stroke: #000000; stroke-width: 0.8"/>
      </g>
     </g>
     <g id="text_10">
      <!-- 0.045 -->
      <g transform="translate(536.710938 332.638438) scale(0.1 -0.1)">
       <use xlink:href="#DejaVuSans-30"/>
       <use xlink:href="#DejaVuSans-2e" x="63.623047"/>
       <use xlink:href="#DejaVuSans-30" x="95.410156"/>
       <use xlink:href="#DejaVuSans-34" x="159.033203"/>
       <use xlink:href="#DejaVuSans-35" x="222.65625"/>
      </g>
     </g>
    </g>
    <g id="text_11">
     <!-- Time / s -->
     <g transform="translate(279.671719 346.316563) scale(0.1 -0.1)">
      <defs>
       <path id="DejaVuSans-54" d="M -19 4666 
L 3928 4666 
L 3928 4134 
L 2272 4134 
L 2272 0 
L 1638 0 
L 1638 4134 
L -19 4134 
L -19 4666 
z
" transform="scale(0.015625)"/>
       <path id="DejaVuSans-69" d="M 603 3500 
L 1178 3500 
L 1178 0 
L 603 0 
L 603 3500 
z
M 603 4863 
L 1178 4863 
L 1178 4134 
L 603 4134 
L 603 4863 
z
" transform="scale(0.015625)"/>
       <path id="DejaVuSans-6d" d="M 3328 2828 
Q 3544 3216 3844 3400 
Q 4144 3584 4550 3584 
Q 5097 3584 5394 3201 
Q 5691 2819 5691 2113 
L 5691 0 
L 5113 0 
L 5113 2094 
Q 5113 2597 4934 2840 
Q 4756 3084 4391 3084 
Q 3944 3084 3684 2787 
Q 3425 2491 3425 1978 
L 3425 0 
L 2847 0 
L 2847 2094 
Q 2847 2600 2669 2842 
Q 2491 3084 2119 3084 
Q 1678 3084 1418 2786 
Q 1159 2488 1159 1978 
L 1159 0 
L 581 0 
L 581 3500 
L 1159 3500 
L 1159 2956 
Q 1356 3278 1631 3431 
Q 1906 3584 2284 3584 
Q 2666 3584 2933 3390 
Q 3200 3197 3328 2828 
z
" transform="scale(0.015625)"/>
       <path id="DejaVuSans-65" d="M 3597 1894 
L 3597 1613 
L 953 1613 
Q 991 1019 1311 708 
Q 1631 397 2203 397 
Q 2534 397 2845 478 
Q 3156 559 3463 722 
L 3463 178 
Q 3153 47 2828 -22 
Q 2503 -91 2169 -91 
Q 1331 -91 842 396 
Q 353 884 353 1716 
Q 353 2575 817 3079 
Q 1281 3584 2069 3584 
Q 2775 3584 3186 3129 
Q 3597 2675 3597 1894 
z
M 3022 2063 
Q 3016 2534 2758 2815 
Q 2500 3097 2075 3097 
Q 1594 3097 1305 2825 
Q 1016 2553 972 2059 
L 3022 2063 
z
" transform="scale(0.015625)"/>
       <path id="DejaVuSans-20" transform="scale(0.015625)"/>
       <path id="DejaVuSans-2f" d="M 1625 4666 
L 2156 4666 
L 531 -594 
L 0 -594 
L 1625 4666 
z
" transform="scale(0.015625)"/>
       <path id="DejaVuSans-73" d="M 2834 3397 
L 2834 2853 
Q 2591 2978 2328 3040 
Q 2066 3103 1784 3103 
Q 1356 3103 1142 2972 
Q 928 2841 928 2578 
Q 928 2378 1081 2264 
Q 1234 2150 1697 2047 
L 1894 2003 
Q 2506 1872 2764 1633 
Q 3022 1394 3022 966 
Q 3022 478 2636 193 
Q 2250 -91 1575 -91 
Q 1294 -91 989 -36 
Q 684 19 347 128 
L 347 722 
Q 666 556 975 473 
Q 1284 391 1588 391 
Q 1994 391 2212 530 
Q 2431 669 2431 922 
Q 2431 1156 2273 1281 
Q 2116 1406 1581 1522 
L 1381 1569 
Q 847 1681 609 1914 
Q 372 2147 372 2553 
Q 372 3047 722 3315 
Q 1072 3584 1716 3584 
Q 2034 3584 2315 3537 
Q 2597 3491 2834 3397 
z
" transform="scale(0.015625)"/>
      </defs>
      <use xlink:href="#DejaVuSans-54"/>
      <use xlink:href="#DejaVuSans-69" x="57.958984"/>
      <use xlink:href="#DejaVuSans-6d" x="85.742188"/>
      <use xlink:href="#DejaVuSans-65" x="183.154297"/>
      <use xlink:href="#DejaVuSans-20" x="244.677734"/>
      <use xlink:href="#DejaVuSans-2f" x="276.464844"/>
      <use xlink:href="#DejaVuSans-20" x="310.15625"/>
      <use xlink:href="#DejaVuSans-73" x="341.943359"/>
     </g>
    </g>
   </g>
   <g id="matplotlib.axis_2">
    <g id="ytick_1">
     <g id="line2d_21">
      <path d="M 47.72 318.04 
L 551.025 318.04 
" clip-path="url(#p96cb4ab34f)" style="fill: none; stroke: #b0b0b0; stroke-width: 0.8; stroke-linecap: square"/>
     </g>
     <g id="line2d_22">
      <defs>
       <path id="m97f3865d24" d="M 0 0 
L -3.5 0 
" style="stroke: #000000; stroke-width: 0.8"/>
      </defs>
      <g>
       <use xlink:href="#m97f3865d24" x="47.72" y="318.04" style="stroke: #000000; stroke-width: 0.8"/>
      </g>
     </g>
     <g id="text_12">
      <!-- 0.0 -->
      <g transform="translate(24.816875 321.839219) scale(0.1 -0.1)">
       <use xlink:href="#DejaVuSans-30"/>
       <use xlink:href="#DejaVuSans-2e" x="63.623047"/>
       <use xlink:href="#DejaVuSans-30" x="95.410156"/>
      </g>
     </g>
    </g>
    <g id="ytick_2">
     <g id="line2d_23">
      <path d="M 47.72 272.836267 
L 551.025 272.836267 
" clip-path="url(#p96cb4ab34f)" style="fill: none; stroke: #b0b0b0; stroke-width: 0.8; stroke-linecap: square"/>
     </g>
     <g id="line2d_24">
      <g>
       <use xlink:href="#m97f3865d24" x="47.72" y="272.836267" style="stroke: #000000; stroke-width: 0.8"/>
      </g>
     </g>
     <g id="text_13">
      <!-- 0.1 -->
      <g transform="translate(24.816875 276.635485) scale(0.1 -0.1)">
       <use xlink:href="#DejaVuSans-30"/>
       <use xlink:href="#DejaVuSans-2e" x="63.623047"/>
       <use xlink:href="#DejaVuSans-31" x="95.410156"/>
      </g>
     </g>
    </g>
    <g id="ytick_3">
     <g id="line2d_25">
      <path d="M 47.72 227.632533 
L 551.025 227.632533 
" clip-path="url(#p96cb4ab34f)" style="fill: none; stroke: #b0b0b0; stroke-width: 0.8; stroke-linecap: square"/>
     </g>
     <g id="line2d_26">
      <g>
       <use xlink:href="#m97f3865d24" x="47.72" y="227.632533" style="stroke: #000000; stroke-width: 0.8"/>
      </g>
     </g>
     <g id="text_14">
      <!-- 0.2 -->
      <g transform="translate(24.816875 231.431752) scale(0.1 -0.1)">
       <use xlink:href="#DejaVuSans-30"/>
       <use xlink:href="#DejaVuSans-2e" x="63.623047"/>
       <use xlink:href="#DejaVuSans-32" x="95.410156"/>
      </g>
     </g>
    </g>
    <g id="ytick_4">
     <g id="line2d_27">
      <path d="M 47.72 182.4288 
L 551.025 182.4288 
" clip-path="url(#p96cb4ab34f)" style="fill: none; stroke: #b0b0b0; stroke-width: 0.8; stroke-linecap: square"/>
     </g>
     <g id="line2d_28">
      <g>
       <use xlink:href="#m97f3865d24" x="47.72" y="182.4288" style="stroke: #000000; stroke-width: 0.8"/>
      </g>
     </g>
     <g id="text_15">
      <!-- 0.3 -->
      <g transform="translate(24.816875 186.228018) scale(0.1 -0.1)">
       <use xlink:href="#DejaVuSans-30"/>
       <use xlink:href="#DejaVuSans-2e" x="63.623047"/>
       <use xlink:href="#DejaVuSans-33" x="95.410156"/>
      </g>
     </g>
    </g>
    <g id="ytick_5">
     <g id="line2d_29">
      <path d="M 47.72 137.225066 
L 551.025 137.225066 
" clip-path="url(#p96cb4ab34f)" style="fill: none; stroke: #b0b0b0; stroke-width: 0.8; stroke-linecap: square"/>
     </g>
     <g id="line2d_30">
      <g>
       <use xlink:href="#m97f3865d24" x="47.72" y="137.225066" style="stroke: #000000; stroke-width: 0.8"/>
      </g>
     </g>
     <g id="text_16">
      <!-- 0.4 -->
      <g transform="translate(24.816875 141.024285) scale(0.1 -0.1)">
       <use xlink:href="#DejaVuSans-30"/>
       <use xlink:href="#DejaVuSans-2e" x="63.623047"/>
       <use xlink:href="#DejaVuSans-34" x="95.410156"/>
      </g>
     </g>
    </g>
    <g id="ytick_6">
     <g id="line2d_31">
      <path d="M 47.72 92.021333 
L 551.025 92.021333 
" clip-path="url(#p96cb4ab34f)" style="fill: none; stroke: #b0b0b0; stroke-width: 0.8; stroke-linecap: square"/>
     </g>
     <g id="line2d_32">
      <g>
       <use xlink:href="#m97f3865d24" x="47.72" y="92.021333" style="stroke: #000000; stroke-width: 0.8"/>
      </g>
     </g>
     <g id="text_17">
      <!-- 0.5 -->
      <g transform="translate(24.816875 95.820552) scale(0.1 -0.1)">
       <use xlink:href="#DejaVuSans-30"/>
       <use xlink:href="#DejaVuSans-2e" x="63.623047"/>
       <use xlink:href="#DejaVuSans-35" x="95.410156"/>
      </g>
     </g>
    </g>
    <g id="ytick_7">
     <g id="line2d_33">
      <path d="M 47.72 46.817599 
L 551.025 46.817599 
" clip-path="url(#p96cb4ab34f)" style="fill: none; stroke: #b0b0b0; stroke-width: 0.8; stroke-linecap: square"/>
     </g>
     <g id="line2d_34">
      <g>
       <use xlink:href="#m97f3865d24" x="47.72" y="46.817599" style="stroke: #000000; stroke-width: 0.8"/>
      </g>
     </g>
     <g id="text_18">
      <!-- 0.6 -->
      <g transform="translate(24.816875 50.616818) scale(0.1 -0.1)">
       <defs>
        <path id="DejaVuSans-36" d="M 2113 2584 
Q 1688 2584 1439 2293 
Q 1191 2003 1191 1497 
Q 1191 994 1439 701 
Q 1688 409 2113 409 
Q 2538 409 2786 701 
Q 3034 994 3034 1497 
Q 3034 2003 2786 2293 
Q 2538 2584 2113 2584 
z
M 3366 4563 
L 3366 3988 
Q 3128 4100 2886 4159 
Q 2644 4219 2406 4219 
Q 1781 4219 1451 3797 
Q 1122 3375 1075 2522 
Q 1259 2794 1537 2939 
Q 1816 3084 2150 3084 
Q 2853 3084 3261 2657 
Q 3669 2231 3669 1497 
Q 3669 778 3244 343 
Q 2819 -91 2113 -91 
Q 1303 -91 875 529 
Q 447 1150 447 2328 
Q 447 3434 972 4092 
Q 1497 4750 2381 4750 
Q 2619 4750 2861 4703 
Q 3103 4656 3366 4563 
z
" transform="scale(0.015625)"/>
       </defs>
       <use xlink:href="#DejaVuSans-30"/>
       <use xlink:href="#DejaVuSans-2e" x="63.623047"/>
       <use xlink:href="#DejaVuSans-36" x="95.410156"/>
      </g>
     </g>
    </g>
    <g id="text_19">
     <!-- Distance / m -->
     <g transform="translate(18.737187 212.407313) rotate(-90) scale(0.1 -0.1)">
      <defs>
       <path id="DejaVuSans-44" d="M 1259 4147 
L 1259 519 
L 2022 519 
Q 2988 519 3436 956 
Q 3884 1394 3884 2338 
Q 3884 3275 3436 3711 
Q 2988 4147 2022 4147 
L 1259 4147 
z
M 628 4666 
L 1925 4666 
Q 3281 4666 3915 4102 
Q 4550 3538 4550 2338 
Q 4550 1131 3912 565 
Q 3275 0 1925 0 
L 628 0 
L 628 4666 
z
" transform="scale(0.015625)"/>
       <path id="DejaVuSans-74" d="M 1172 4494 
L 1172 3500 
L 2356 3500 
L 2356 3053 
L 1172 3053 
L 1172 1153 
Q 1172 725 1289 603 
Q 1406 481 1766 481 
L 2356 481 
L 2356 0 
L 1766 0 
Q 1100 0 847 248 
Q 594 497 594 1153 
L 594 3053 
L 172 3053 
L 172 3500 
L 594 3500 
L 594 4494 
L 1172 4494 
z
" transform="scale(0.015625)"/>
       <path id="DejaVuSans-61" d="M 2194 1759 
Q 1497 1759 1228 1600 
Q 959 1441 959 1056 
Q 959 750 1161 570 
Q 1363 391 1709 391 
Q 2188 391 2477 730 
Q 2766 1069 2766 1631 
L 2766 1759 
L 2194 1759 
z
M 3341 1997 
L 3341 0 
L 2766 0 
L 2766 531 
Q 2569 213 2275 61 
Q 1981 -91 1556 -91 
Q 1019 -91 701 211 
Q 384 513 384 1019 
Q 384 1609 779 1909 
Q 1175 2209 1959 2209 
L 2766 2209 
L 2766 2266 
Q 2766 2663 2505 2880 
Q 2244 3097 1772 3097 
Q 1472 3097 1187 3025 
Q 903 2953 641 2809 
L 641 3341 
Q 956 3463 1253 3523 
Q 1550 3584 1831 3584 
Q 2591 3584 2966 3190 
Q 3341 2797 3341 1997 
z
" transform="scale(0.015625)"/>
       <path id="DejaVuSans-6e" d="M 3513 2113 
L 3513 0 
L 2938 0 
L 2938 2094 
Q 2938 2591 2744 2837 
Q 2550 3084 2163 3084 
Q 1697 3084 1428 2787 
Q 1159 2491 1159 1978 
L 1159 0 
L 581 0 
L 581 3500 
L 1159 3500 
L 1159 2956 
Q 1366 3272 1645 3428 
Q 1925 3584 2291 3584 
Q 2894 3584 3203 3211 
Q 3513 2838 3513 2113 
z
" transform="scale(0.015625)"/>
       <path id="DejaVuSans-63" d="M 3122 3366 
L 3122 2828 
Q 2878 2963 2633 3030 
Q 2388 3097 2138 3097 
Q 1578 3097 1268 2742 
Q 959 2388 959 1747 
Q 959 1106 1268 751 
Q 1578 397 2138 397 
Q 2388 397 2633 464 
Q 2878 531 3122 666 
L 3122 134 
Q 2881 22 2623 -34 
Q 2366 -91 2075 -91 
Q 1284 -91 818 406 
Q 353 903 353 1747 
Q 353 2603 823 3093 
Q 1294 3584 2113 3584 
Q 2378 3584 2631 3529 
Q 2884 3475 3122 3366 
z
" transform="scale(0.015625)"/>
      </defs>
      <use xlink:href="#DejaVuSans-44"/>
      <use xlink:href="#DejaVuSans-69" x="77.001953"/>
      <use xlink:href="#DejaVuSans-73" x="104.785156"/>
      <use xlink:href="#DejaVuSans-74" x="156.884766"/>
      <use xlink:href="#DejaVuSans-61" x="196.09375"/>
      <use xlink:href="#DejaVuSans-6e" x="257.373047"/>
      <use xlink:href="#DejaVuSans-63" x="320.751953"/>
      <use xlink:href="#DejaVuSans-65" x="375.732422"/>
      <use xlink:href="#DejaVuSans-20" x="437.255859"/>
      <use xlink:href="#DejaVuSans-2f" x="469.042969"/>
      <use xlink:href="#DejaVuSans-20" x="502.734375"/>
      <use xlink:href="#DejaVuSans-6d" x="534.521484"/>
     </g>
    </g>
   </g>
   <g id="line2d_35">
    <path d="M 47.72 318.04 
L 51.246662 315.243108 
L 54.773323 314.32217 
L 65.857117 307.75027 
L 68.87997 306.630346 
L 75.933293 302.334564 
L 79.459955 301.028165 
L 83.490425 298.731344 
L 86.513278 296.785803 
L 89.536131 295.751682 
L 91.047558 294.723855 
L 93.566602 293.049341 
L 97.597072 291.232667 
L 101.123734 289.279693 
L 103.642778 287.704437 
L 107.169439 286.439564 
L 111.19991 283.726093 
L 114.726572 281.971722 
L 117.749424 280.853694 
L 121.276086 278.448514 
L 124.802748 277.148511 
L 129.840836 274.259365 
L 139.917012 268.829513 
L 144.9551 265.767447 
L 145.962718 265.234226 
L 148.985571 264.117928 
L 151.504615 262.425716 
L 152.512232 261.736956 
L 157.046512 259.805808 
L 160.069364 258.042358 
L 164.099835 256.176012 
L 182.236952 246.53129 
L 184.755996 245.113699 
L 188.786466 243.228702 
L 202.893113 235.684102 
L 205.412157 234.212711 
L 212.46548 231.063011 
L 216.495951 228.641458 
L 220.526421 226.629808 
L 223.045465 225.394653 
L 226.572127 223.339127 
L 230.602598 221.464659 
L 248.235906 212.273452 
L 251.258759 210.780501 
L 255.793038 208.176797 
L 258.312082 206.902483 
L 261.334935 205.505077 
L 265.869214 202.898858 
L 279.975861 195.584384 
L 282.494905 194.352206 
L 286.021567 192.343592 
L 289.044419 190.96998 
L 292.571081 188.573039 
L 296.097743 187.217972 
L 300.128213 184.928024 
L 303.654875 183.294042 
L 312.723433 178.286628 
L 313.731051 177.772281 
L 317.257713 176.486311 
L 324.814845 172.511393 
L 327.837698 171.135338 
L 334.891021 166.958085 
L 337.913874 165.858626 
L 342.448153 163.181304 
L 345.974815 161.424175 
L 349.501476 159.749315 
L 352.524329 158.001343 
L 355.547182 155.958556 
L 366.630976 150.986672 
L 370.661446 148.676662 
L 374.188108 146.920907 
L 377.71477 145.212202 
L 380.737623 143.704166 
L 383.760475 142.29199 
L 390.813799 138.156345 
L 393.836652 137.016593 
L 401.393784 132.610816 
L 405.424254 131.075087 
L 407.943298 129.926385 
L 412.981386 126.969419 
L 418.019474 124.339597 
L 420.538519 123.414017 
L 422.049945 122.817267 
L 430.110886 118.452688 
L 433.637548 116.41869 
L 437.164209 114.667304 
L 439.683253 113.448607 
L 443.209915 111.463136 
L 446.736577 110.077673 
L 450.767047 107.919305 
L 453.7899 106.211338 
L 459.835606 103.454095 
L 461.850841 102.290304 
L 464.369885 100.888125 
L 468.904164 98.723198 
L 472.430826 97.018891 
L 475.957487 95.309262 
L 484.018428 91.295264 
L 487.041281 90.022738 
L 490.064134 88.886734 
L 491.575561 88.349114 
L 496.10984 85.356327 
L 499.132693 83.813153 
L 502.155546 82.679033 
L 506.186016 80.324031 
L 510.216486 78.49116 
L 514.246957 76.250751 
L 516.262192 75.140691 
L 519.285045 74.839514 
L 519.788854 74.657614 
L 523.819324 71.97676 
L 530.368839 68.563882 
L 533.391692 67.789903 
L 534.399309 67.181026 
L 536.918353 65.496386 
L 538.42978 65.037688 
L 540.445015 64.493011 
L 541.956441 63.358562 
L 543.971677 61.781437 
L 547.498338 60.155435 
L 551.025 59.89215 
L 551.025 59.89215 
" clip-path="url(#p96cb4ab34f)" style="fill: none; stroke: #808080; stroke-opacity: 0.3; stroke-linecap: square"/>
   </g>
   <g id="line2d_36">
    <path d="M 47.72 318.04 
L 52.758088 315.270899 
L 59.811411 311.128505 
L 62.834264 309.661722 
L 69.383779 306.752626 
L 73.414249 304.551542 
L 75.933293 303.058235 
L 82.482808 300.183239 
L 83.994234 299.176253 
L 86.513278 297.543871 
L 89.536131 296.526497 
L 91.047558 295.52781 
L 93.566602 293.89222 
L 97.093263 292.27037 
L 100.619925 290.200308 
L 104.650395 288.375268 
L 108.177057 286.452833 
L 111.19991 284.703901 
L 114.726572 283.053969 
L 117.749424 281.239991 
L 121.779895 279.735987 
L 125.810365 277.744834 
L 128.833218 276.299456 
L 132.863689 273.96573 
L 136.39035 272.225981 
L 139.917012 270.564473 
L 143.443674 268.606691 
L 145.962718 267.148975 
L 150.496997 265.048093 
L 153.016041 263.665846 
L 156.542703 261.328347 
L 160.069364 259.697592 
L 163.596026 257.657936 
L 167.626496 255.805208 
L 171.153158 253.87771 
L 174.176011 252.143494 
L 180.725526 249.268712 
L 184.252187 246.841798 
L 188.786466 244.77923 
L 195.83979 241.234675 
L 198.358834 240.06974 
L 201.885495 237.979273 
L 206.419775 235.878325 
L 209.946436 234.167888 
L 212.46548 232.98462 
L 215.992142 230.93971 
L 222.541657 228.04919 
L 226.068318 225.649554 
L 229.59498 224.363093 
L 233.121642 221.983288 
L 236.648303 220.648311 
L 240.174965 218.293357 
L 243.701627 216.990845 
L 247.228288 214.654615 
L 250.75495 213.33184 
L 254.281612 211.258236 
L 259.3197 208.88902 
L 261.838744 207.520527 
L 264.861597 205.769015 
L 271.411111 202.894843 
L 275.441582 200.249767 
L 282.494905 197.055821 
L 286.021567 195.031668 
L 290.052037 193.171551 
L 296.601552 189.875828 
L 299.624404 188.724647 
L 303.151066 186.361866 
L 307.181537 184.438667 
L 310.204389 182.693791 
L 314.738669 180.59527 
L 325.318654 175.239507 
L 327.837698 174.047253 
L 330.860551 172.207685 
L 334.387212 170.948005 
L 337.913874 168.843966 
L 341.440536 167.55665 
L 344.967197 165.138821 
L 349.501476 163.072209 
L 356.050991 159.726086 
L 359.073844 158.3527 
L 363.608123 155.731081 
L 371.165255 151.94306 
L 377.71477 148.966534 
L 380.737623 147.327772 
L 383.760475 145.566887 
L 387.790946 143.699898 
L 391.317608 141.937581 
L 397.363313 139.291493 
L 401.393784 136.621282 
L 405.424254 134.607954 
L 408.950916 132.963973 
L 419.530901 127.585681 
L 423.057563 125.914639 
L 426.584224 124.199311 
L 429.103268 123.026329 
L 432.62993 121.00921 
L 437.164209 119.294064 
L 439.683253 118.121723 
L 444.217533 115.506813 
L 447.240385 114.011796 
L 454.797518 110.579746 
L 462.35465 106.83124 
L 464.369885 105.82766 
L 467.896547 103.824263 
L 475.453679 100.403808 
L 482.507002 96.864845 
L 486.033664 95.206128 
L 496.613649 89.837326 
L 499.636502 88.4368 
L 503.666972 86.443494 
L 507.193634 84.754633 
L 510.216486 83.093885 
L 512.735531 81.612351 
L 516.766001 80.055341 
L 524.826942 76.0475 
L 533.895501 72.012832 
L 537.422162 70.002102 
L 540.948824 68.665865 
L 545.483103 66.434457 
L 551.025 64.001703 
L 551.025 64.001703 
" clip-path="url(#p96cb4ab34f)" style="fill: none; stroke: #808080; stroke-opacity: 0.3; stroke-linecap: square"/>
   </g>
   <g id="line2d_37">
    <path d="M 47.72 318.04 
L 51.75047 316.052462 
L 54.773323 315.012257 
L 58.299985 312.067401 
L 61.826647 311.106783 
L 65.353308 308.734087 
L 68.87997 307.187171 
L 72.91044 304.544505 
L 76.940911 302.561593 
L 82.986617 299.911871 
L 86.513278 297.500541 
L 90.543749 295.372803 
L 93.566602 293.627937 
L 97.093263 292.057514 
L 100.619925 290.016776 
L 104.650395 288.189405 
L 107.673248 286.536348 
L 110.696101 284.479206 
L 117.749424 281.421314 
L 121.276086 278.813762 
L 124.802748 277.789585 
L 129.337027 275.178063 
L 132.863689 273.496089 
L 135.382733 272.377759 
L 139.917012 269.730683 
L 150.496997 264.139936 
L 153.016041 262.698899 
L 156.542703 261.092923 
L 160.573173 258.763851 
L 167.122688 255.355173 
L 171.153158 253.035014 
L 177.198864 249.884934 
L 182.236952 247.014763 
L 193.824555 240.80342 
L 194.832172 240.253733 
L 198.358834 238.673651 
L 201.885495 236.353889 
L 205.412157 234.79138 
L 208.938819 232.744243 
L 212.969289 230.907328 
L 216.495951 229.162904 
L 219.518804 227.81162 
L 223.549274 225.445911 
L 227.075936 223.726696 
L 233.121642 221.110923 
L 237.152112 218.838521 
L 240.174965 217.490854 
L 244.709244 214.83407 
L 251.762568 211.088453 
L 254.281612 209.65496 
L 257.808273 208.064747 
L 264.861597 203.932775 
L 268.388258 202.589355 
L 271.91492 200.585525 
L 274.937773 199.269151 
L 278.968243 196.611896 
L 284.006331 194.224431 
L 286.021567 193.237952 
L 289.548228 191.258522 
L 293.07489 189.615326 
L 297.10536 187.30724 
L 300.632022 185.401053 
L 304.158684 183.388378 
L 307.685345 181.676081 
L 311.212007 180.049923 
L 323.807227 173.595619 
L 327.837698 170.958111 
L 332.371977 168.83374 
L 348.997668 160.330659 
L 353.028138 158.495751 
L 356.5548 156.589787 
L 360.081461 154.590825 
L 377.210961 145.792272 
L 387.790946 140.232593 
L 390.813799 138.509648 
L 394.844269 136.672188 
L 402.401401 132.660205 
L 404.416637 131.495629 
L 407.943298 130.213497 
L 412.477578 127.627015 
L 416.004239 125.911983 
L 419.530901 124.288171 
L 422.049945 122.946361 
L 425.576607 120.620761 
L 429.103268 119.297118 
L 433.133739 117.077601 
L 437.668018 114.914332 
L 447.240385 109.964244 
L 450.767047 107.935591 
L 454.797518 105.971657 
L 458.324179 104.30245 
L 469.407973 98.780691 
L 474.446061 96.523693 
L 477.972723 94.222583 
L 481.499384 92.602353 
L 485.026046 90.583496 
L 489.056517 88.75924 
L 498.628884 83.851222 
L 502.659354 82.363398 
L 507.697442 79.976066 
L 511.224104 78.300015 
L 520.796471 73.622777 
L 523.315516 72.678834 
L 527.849795 70.025211 
L 530.872648 68.539633 
L 534.903118 66.724141 
L 550.521191 58.921821 
L 551.025 58.703775 
L 551.025 58.703775 
" clip-path="url(#p96cb4ab34f)" style="fill: none; stroke: #808080; stroke-opacity: 0.3; stroke-linecap: square"/>
   </g>
   <g id="line2d_38">
    <path d="M 47.72 318.04 
L 51.75047 315.691004 
L 55.780941 313.854318 
L 62.834264 310.288257 
L 66.360926 308.658175 
L 76.940911 303.26073 
L 80.467573 301.838616 
L 82.986617 300.855647 
L 89.536131 296.295887 
L 91.047558 295.721748 
L 93.062793 295.013135 
L 95.581837 293.28981 
L 96.589454 292.587428 
L 99.612307 291.500536 
L 100.116116 291.323005 
L 104.146587 288.338958 
L 108.680866 286.114426 
L 114.222763 283.660909 
L 118.757042 280.630518 
L 121.779895 278.914663 
L 125.810365 277.061184 
L 129.337027 275.34869 
L 132.863689 273.921067 
L 135.382733 272.951845 
L 141.932247 268.409201 
L 143.443674 267.814935 
L 145.962718 266.816212 
L 149.993188 264.439253 
L 154.023659 262.468175 
L 157.046512 261.058481 
L 163.596026 257.722651 
L 167.626496 255.876671 
L 171.656967 253.618083 
L 178.71029 249.466582 
L 181.733143 247.992349 
L 184.252187 246.86834 
L 188.786466 244.230657 
L 195.335981 240.890196 
L 199.366451 239.016126 
L 202.893113 237.071742 
L 208.938819 233.514584 
L 213.473098 231.379276 
L 216.495951 229.88755 
L 222.541657 227.239588 
L 226.068318 224.853625 
L 229.59498 223.265664 
L 233.121642 220.580601 
L 244.709244 215.402322 
L 254.78542 210.089691 
L 257.808273 208.329621 
L 261.334935 206.737772 
L 265.869214 204.104447 
L 268.892067 202.581843 
L 271.411111 201.459194 
L 274.937773 199.042391 
L 278.464434 198.376596 
L 282.494905 195.719774 
L 286.525375 193.702995 
L 289.044419 192.546485 
L 292.571081 189.912897 
L 296.097743 188.634867 
L 311.715816 180.663022 
L 313.731051 179.728702 
L 317.257713 177.664044 
L 320.784374 176.026612 
L 325.822462 173.149402 
L 337.410065 167.109569 
L 339.4253 166.190838 
L 342.448153 164.776013 
L 345.471006 163.325806 
L 348.493859 162.216382 
L 352.020521 159.83397 
L 355.547182 158.528681 
L 359.577653 156.21983 
L 362.600506 154.822801 
L 366.127167 152.753778 
L 370.661446 150.679123 
L 383.760475 143.788681 
L 387.287137 141.489852 
L 397.867122 136.752337 
L 402.401401 134.167324 
L 405.424254 132.68476 
L 408.950916 131.041622 
L 412.477578 129.307134 
L 416.004239 127.633458 
L 418.523283 126.368267 
L 422.049945 125.064736 
L 427.088033 122.181735 
L 438.675636 116.141122 
L 440.187062 115.442305 
L 443.713724 113.824479 
L 456.812753 107.03975 
L 460.843223 105.134376 
L 463.866076 103.364977 
L 467.392738 102.037833 
L 470.919399 99.676006 
L 477.972723 96.498875 
L 481.499384 94.216186 
L 485.026046 92.903635 
L 488.552708 91.129292 
L 491.575561 90.064512 
L 496.10984 87.509158 
L 499.132693 86.109529 
L 502.155546 84.27863 
L 509.712678 81.512974 
L 513.743148 79.51963 
L 517.26981 77.869885 
L 523.315516 74.768589 
L 526.842177 73.476841 
L 530.368839 71.405895 
L 533.391692 70.363322 
L 534.399309 69.636613 
L 536.918353 67.644291 
L 537.925971 67.399221 
L 540.445015 66.983637 
L 541.956441 66.102306 
L 547.498338 62.716219 
L 551.025 62.068006 
L 551.025 62.068006 
" clip-path="url(#p96cb4ab34f)" style="fill: none; stroke: #808080; stroke-opacity: 0.3; stroke-linecap: square"/>
   </g>
   <g id="line2d_39">
    <path d="M 47.72 318.04 
L 51.246662 316.81397 
L 55.780941 314.163463 
L 62.834264 310.403741 
L 65.857117 308.678432 
L 69.383779 307.022645 
L 73.414249 304.699491 
L 79.963764 301.201846 
L 82.986617 299.43374 
L 87.520896 297.33312 
L 91.047558 295.366531 
L 93.566602 293.903956 
L 97.093263 292.31298 
L 100.619925 290.268078 
L 105.154204 288.165248 
L 119.260851 280.999995 
L 121.779895 279.802296 
L 125.810365 277.468871 
L 129.337027 275.518089 
L 132.863689 273.48633 
L 135.886542 272.049676 
L 138.909394 270.891011 
L 147.474144 265.894097 
L 150.496997 264.434908 
L 153.016041 263.245388 
L 156.542703 261.240489 
L 159.565556 260.177856 
L 163.596026 257.534604 
L 171.153158 254.060405 
L 174.176011 252.312419 
L 177.198864 250.971141 
L 180.725526 248.584265 
L 184.252187 247.295557 
L 187.778849 244.95595 
L 191.305511 243.667364 
L 194.832172 241.574281 
L 198.358834 239.965645 
L 201.885495 237.613047 
L 205.915966 235.794319 
L 212.969289 232.200107 
L 216.495951 230.622178 
L 220.022613 228.714789 
L 223.045465 226.948989 
L 226.572127 225.290439 
L 230.098789 223.292125 
L 236.648303 220.379741 
L 240.174965 218.006509 
L 244.205435 216.099811 
L 247.228288 214.395829 
L 250.251141 213.593451 
L 251.258759 212.985824 
L 254.78542 210.71835 
L 261.838744 207.111837 
L 265.365405 205.506756 
L 269.395876 203.280522 
L 271.91492 201.846591 
L 278.968243 198.7102 
L 282.494905 196.647299 
L 289.548228 193.531108 
L 293.578699 191.339128 
L 297.10536 189.295353 
L 303.151066 186.18124 
L 306.677728 184.859592 
L 310.204389 182.489789 
L 317.761522 178.656722 
L 320.784374 177.243127 
L 324.311036 175.197386 
L 327.837698 173.571665 
L 331.364359 171.536288 
L 334.891021 169.900202 
L 337.913874 168.103706 
L 341.440536 166.832742 
L 344.967197 164.74751 
L 348.493859 163.437107 
L 352.524329 161.148888 
L 356.050991 159.460972 
L 360.081461 157.145472 
L 367.134785 153.5959 
L 370.661446 151.959996 
L 374.188108 150.261683 
L 376.707152 149.09586 
L 380.233814 147.008625 
L 383.760475 145.401529 
L 387.287137 143.348007 
L 390.813799 141.729603 
L 393.836652 139.911478 
L 397.363313 138.640188 
L 401.897593 136.010511 
L 409.454725 132.233433 
L 412.477578 130.825032 
L 419.530901 127.061142 
L 422.049945 125.645039 
L 425.072798 124.84271 
L 426.584224 123.85587 
L 429.103268 122.225017 
L 433.637548 120.127538 
L 440.690871 116.594857 
L 446.736577 113.841932 
L 450.263238 111.817135 
L 453.7899 110.165758 
L 457.316562 108.139677 
L 463.866076 105.254044 
L 467.896547 102.951921 
L 475.453679 99.557851 
L 478.476532 98.054716 
L 481.499384 96.654524 
L 484.522237 94.551907 
L 486.537472 93.825438 
L 488.552708 93.056342 
L 492.583178 90.892465 
L 495.606031 89.194904 
L 498.628884 88.101971 
L 502.659354 85.768777 
L 509.208869 82.897799 
L 512.735531 80.537777 
L 516.262192 79.537794 
L 520.796471 76.904359 
L 524.323133 75.166291 
L 527.849795 73.734119 
L 530.368839 72.742494 
L 533.895501 70.4003 
L 537.925971 68.694937 
L 540.948824 67.546472 
L 543.971677 65.703638 
L 545.986912 65.527171 
L 547.498338 65.420275 
L 551.025 62.659756 
L 551.025 62.659756 
" clip-path="url(#p96cb4ab34f)" style="fill: none; stroke: #808080; stroke-opacity: 0.3; stroke-linecap: square"/>
   </g>
   <g id="line2d_40">
    <path d="M 47.72 318.04 
L 59.307603 311.880738 
L 61.826647 310.372262 
L 65.857117 308.852436 
L 69.887588 306.849402 
L 73.414249 305.419666 
L 76.940911 304.080391 
L 80.467573 302.427846 
L 82.986617 301.05038 
L 86.513278 298.71286 
L 90.03994 297.384827 
L 93.566602 295.339373 
L 97.093263 294.024601 
L 101.123734 291.83502 
L 104.146587 290.127876 
L 107.673248 288.798232 
L 111.19991 287.051488 
L 114.222763 285.964874 
L 117.749424 283.855983 
L 121.779895 282.328574 
L 125.810365 280.124125 
L 128.833218 278.404504 
L 132.863689 276.751619 
L 135.382733 275.82476 
L 143.443674 271.73158 
L 150.496997 268.530177 
L 154.023659 266.808905 
L 157.046512 265.401908 
L 160.069364 263.907832 
L 163.092217 262.83796 
L 167.626496 260.165591 
L 170.649349 258.68943 
L 174.176011 257.348675 
L 178.206481 255.334984 
L 181.229334 253.897345 
L 184.755996 251.870382 
L 188.786466 250.216008 
L 191.305511 249.289546 
L 199.366451 245.203708 
L 202.893113 243.535529 
L 206.419775 241.815232 
L 209.442628 240.418298 
L 212.46548 238.925426 
L 215.488333 237.864161 
L 219.014995 235.721174 
L 222.541657 234.475567 
L 226.572127 232.127805 
L 234.129259 228.71781 
L 244.709244 223.289843 
L 257.808273 217.512543 
L 261.334935 215.460964 
L 264.861597 214.162085 
L 268.892067 212.131733 
L 275.441582 209.183415 
L 278.464434 207.353327 
L 281.991096 206.390305 
L 285.517758 203.964517 
L 290.052037 201.877864 
L 293.578699 200.141788 
L 297.10536 198.71536 
L 299.624404 197.765902 
L 303.151066 195.672289 
L 307.685345 193.576343 
L 310.204389 192.323552 
L 313.731051 191.012324 
L 318.26533 188.770042 
L 320.784374 187.589965 
L 324.311036 185.562378 
L 327.837698 184.245389 
L 331.868168 182.2258 
L 334.891021 180.804684 
L 337.913874 178.99351 
L 342.448153 177.304959 
L 345.471006 175.874515 
L 348.493859 174.087195 
L 352.020521 172.810725 
L 356.5548 170.549834 
L 366.630976 166.076108 
L 374.188108 162.248566 
L 377.210961 160.849226 
L 380.737623 159.090431 
L 384.264284 157.638936 
L 387.287137 156.486689 
L 395.348078 152.411303 
L 398.370931 150.99132 
L 401.393784 149.537142 
L 404.920445 148.181558 
L 412.477578 144.344002 
L 418.523283 141.640076 
L 422.049945 139.579464 
L 426.080415 138.097784 
L 436.6604 133.393679 
L 440.187062 131.462043 
L 442.706106 129.933648 
L 447.240385 128.253352 
L 450.767047 126.62442 
L 453.7899 125.147272 
L 456.812753 124.038788 
L 460.339414 121.679619 
L 463.866076 120.977086 
L 467.392738 118.861205 
L 481.499384 112.63977 
L 485.026046 110.558837 
L 489.560325 108.452573 
L 492.079369 107.223434 
L 495.606031 105.906371 
L 499.132693 104.154342 
L 502.659354 102.818434 
L 506.689825 100.804198 
L 513.743148 97.826143 
L 516.262192 96.915218 
L 520.796471 94.440852 
L 523.315516 92.997483 
L 526.842177 91.992863 
L 531.376456 89.733833 
L 537.925971 86.951208 
L 540.948824 85.826262 
L 544.979294 83.801348 
L 551.025 81.167288 
L 551.025 81.167288 
" clip-path="url(#p96cb4ab34f)" style="fill: none; stroke: #808080; stroke-opacity: 0.3; stroke-linecap: square"/>
   </g>
   <g id="line2d_41">
    <path d="M 47.72 318.04 
L 51.246662 316.461401 
L 54.773323 313.651413 
L 59.307603 311.609443 
L 66.360926 307.844349 
L 69.383779 306.122203 
L 72.406632 304.729669 
L 75.933293 302.320239 
L 83.490425 298.934937 
L 87.520896 296.684991 
L 91.047558 294.632861 
L 94.574219 292.888547 
L 97.093263 291.696524 
L 101.627543 289.030891 
L 112.711336 283.071353 
L 115.734189 281.361903 
L 122.283704 278.007513 
L 124.802748 276.865067 
L 128.833218 274.159002 
L 132.863689 272.146705 
L 135.886542 270.761317 
L 143.443674 266.676636 
L 149.489379 263.059736 
L 153.016041 261.689781 
L 156.542703 259.603797 
L 160.573173 257.760939 
L 171.656967 251.770075 
L 174.176011 250.351596 
L 178.206481 248.493486 
L 180.725526 247.12382 
L 184.252187 244.657639 
L 187.778849 243.33515 
L 191.305511 241.214242 
L 194.832172 239.633555 
L 199.366451 237.002654 
L 209.442628 231.65036 
L 212.46548 229.889886 
L 215.992142 228.212306 
L 219.518804 226.137732 
L 223.045465 224.50685 
L 226.572127 222.449489 
L 229.59498 221.144691 
L 234.129259 218.452834 
L 237.655921 216.482474 
L 240.174965 214.990219 
L 243.701627 213.678348 
L 247.228288 211.274202 
L 254.78542 207.814648 
L 258.312082 205.727099 
L 273.930155 197.703024 
L 275.441582 196.946251 
L 278.968243 194.900486 
L 282.998714 193.031194 
L 293.07489 187.700028 
L 297.609169 185.067203 
L 300.632022 183.559751 
L 303.151066 182.398139 
L 306.677728 180.34126 
L 310.204389 179.058921 
L 314.23486 176.878691 
L 317.257713 175.091638 
L 321.288183 173.25455 
L 328.341507 169.434288 
L 334.891021 165.498445 
L 338.921491 163.618785 
L 345.974815 159.997232 
L 352.524329 157.070946 
L 356.050991 155.184062 
L 362.600506 151.21173 
L 367.134785 149.10005 
L 370.661446 147.373627 
L 373.684299 145.956444 
L 381.74524 141.569434 
L 383.760475 140.429639 
L 387.790946 138.555681 
L 391.317608 136.791888 
L 394.34046 135.378475 
L 398.87474 132.754556 
L 408.950916 127.539569 
L 412.477578 125.890651 
L 416.004239 123.912247 
L 418.523283 122.442549 
L 422.049945 121.130301 
L 426.080415 118.941897 
L 429.103268 117.126217 
L 433.637548 115.020852 
L 441.698488 111.011254 
L 443.713724 110.029141 
L 449.759429 106.878527 
L 453.286091 105.568367 
L 456.812753 102.853201 
L 460.339414 101.551941 
L 464.369885 99.257469 
L 471.423208 96.024379 
L 474.446061 94.221786 
L 478.98034 92.533024 
L 481.499384 91.372653 
L 485.529855 88.977833 
L 488.552708 87.478496 
L 491.575561 86.402442 
L 495.102222 83.935575 
L 498.628884 83.007918 
L 506.186016 78.541206 
L 509.208869 77.432432 
L 513.239339 75.070722 
L 517.773619 73.221532 
L 519.788854 72.434013 
L 523.315516 70.38422 
L 526.842177 68.977042 
L 530.368839 66.723766 
L 533.895501 65.666894 
L 537.422162 63.808642 
L 540.445015 61.339007 
L 541.452633 61.094966 
L 544.475485 60.466179 
L 547.498338 59.389866 
L 551.025 56.653333 
L 551.025 56.653333 
" clip-path="url(#p96cb4ab34f)" style="fill: none; stroke: #808080; stroke-opacity: 0.3; stroke-linecap: square"/>
   </g>
   <g id="line2d_42">
    <path d="M 47.72 318.04 
L 51.75047 316.202607 
L 55.780941 313.845803 
L 59.307603 312.114571 
L 66.360926 308.951294 
L 69.887588 307.025142 
L 73.414249 305.002361 
L 98.100881 292.029833 
L 101.627543 290.018657 
L 118.253233 281.429561 
L 121.779895 279.778118 
L 125.306557 277.763053 
L 128.329409 276.403918 
L 132.863689 273.754737 
L 136.39035 272.032696 
L 139.917012 270.384119 
L 142.436056 269.020304 
L 145.962718 266.716089 
L 149.489379 265.42564 
L 153.51985 263.402783 
L 156.038894 262.315858 
L 160.069364 259.668738 
L 164.099835 257.823202 
L 167.626496 255.904556 
L 170.649349 254.178159 
L 174.67982 252.325092 
L 189.290275 244.871869 
L 192.313128 243.443832 
L 195.335981 241.81614 
L 199.366451 239.475322 
L 201.885495 238.223895 
L 204.908348 237.180573 
L 206.923584 235.810798 
L 208.43501 234.758597 
L 210.954054 234.079015 
L 211.961672 233.818199 
L 216.495951 231.278055 
L 220.022613 229.652707 
L 227.075936 225.877608 
L 234.129259 221.792252 
L 240.678774 218.835026 
L 244.205435 216.830803 
L 247.228288 215.437362 
L 250.75495 213.084335 
L 255.289229 211.244675 
L 257.304464 210.548999 
L 258.815891 209.413548 
L 260.831126 207.825226 
L 262.846361 206.922109 
L 268.388258 204.44957 
L 271.91492 202.403279 
L 279.975861 198.772195 
L 286.525375 195.263205 
L 290.052037 193.226726 
L 293.578699 191.483636 
L 297.10536 189.84976 
L 311.212007 182.752602 
L 313.731051 181.78529 
L 320.784374 177.616149 
L 323.807227 176.555145 
L 328.341507 173.998268 
L 331.868168 172.380977 
L 338.921491 168.78953 
L 341.944344 167.37677 
L 345.974815 165.036053 
L 352.524329 161.694106 
L 355.547182 160.344983 
L 359.073844 158.292003 
L 362.600506 157.253209 
L 366.127167 155.201694 
L 370.157638 153.381514 
L 373.18049 151.725854 
L 376.203343 149.603432 
L 379.226196 148.555324 
L 380.737623 147.946887 
L 383.256667 146.845255 
L 386.783328 144.444605 
L 390.30999 143.484441 
L 393.836652 141.081967 
L 397.867122 139.565979 
L 404.920445 136.026116 
L 407.943298 134.890403 
L 411.46996 132.519646 
L 414.996622 130.931916 
L 418.523283 128.898059 
L 422.049945 127.554307 
L 425.576607 125.487199 
L 429.103268 123.876728 
L 432.62993 121.860781 
L 436.156592 120.559282 
L 443.713724 116.712664 
L 446.736577 115.296256 
L 450.263238 113.269455 
L 454.293709 111.432748 
L 457.82037 109.700612 
L 461.347032 108.062241 
L 464.873694 106.342347 
L 467.392738 105.188827 
L 470.919399 102.833291 
L 474.446061 101.559863 
L 482.003193 97.699699 
L 486.033664 95.823253 
L 488.552708 94.592595 
L 491.575561 93.531478 
L 495.606031 90.933942 
L 498.628884 89.879566 
L 502.155546 87.452002 
L 505.682207 86.505952 
L 509.712678 84.16022 
L 513.743148 82.327625 
L 516.766001 80.887609 
L 520.292663 79.512717 
L 524.323133 77.527372 
L 527.849795 75.888874 
L 530.872648 74.251669 
L 533.895501 72.470034 
L 537.422162 71.171805 
L 540.948824 69.129228 
L 544.979294 67.645355 
L 549.009765 65.757193 
L 551.025 64.726246 
L 551.025 64.726246 
" clip-path="url(#p96cb4ab34f)" style="fill: none; stroke: #808080; stroke-opacity: 0.3; stroke-linecap: square"/>
   </g>
   <g id="line2d_43">
    <path d="M 47.72 318.04 
L 52.254279 315.599648 
L 55.277132 313.853404 
L 60.31522 311.47502 
L 62.330455 310.339757 
L 65.353308 308.28019 
L 68.87997 306.730682 
L 73.414249 304.083346 
L 76.940911 302.146851 
L 80.467573 300.109539 
L 90.543749 294.958475 
L 93.566602 293.548997 
L 98.100881 290.935584 
L 101.627543 288.974214 
L 104.146587 287.537636 
L 111.19991 284.326291 
L 114.222763 282.508262 
L 118.253233 281.011603 
L 135.382733 272.125767 
L 139.917012 270.037819 
L 146.466527 266.550846 
L 150.496997 264.214877 
L 154.023659 262.476713 
L 156.542703 261.235509 
L 160.069364 258.942039 
L 167.122688 255.738325 
L 170.145541 253.660076 
L 173.672202 252.082838 
L 177.702673 249.431789 
L 181.229334 247.722642 
L 184.755996 246.328225 
L 188.786466 244.107678 
L 191.305511 242.649807 
L 194.832172 241.387894 
L 199.366451 238.738998 
L 202.893113 236.785283 
L 205.412157 235.335618 
L 208.938819 233.688554 
L 212.46548 231.653287 
L 216.495951 229.829286 
L 219.518804 228.342109 
L 222.541657 227.288464 
L 226.068318 225.161366 
L 229.59498 223.842619 
L 233.62545 221.185671 
L 237.655921 219.187508 
L 240.174965 218.065631 
L 243.701627 215.928525 
L 251.258759 212.611377 
L 255.289229 210.382959 
L 258.815891 208.35103 
L 262.342553 206.624017 
L 265.869214 204.967947 
L 268.892067 203.329611 
L 272.922538 201.025814 
L 282.494905 196.094234 
L 289.548228 192.895366 
L 293.07489 190.891063 
L 297.609169 188.788176 
L 301.135831 187.125073 
L 303.151066 186.195975 
L 307.685345 183.57484 
L 317.257713 178.62908 
L 320.784374 177.314348 
L 336.402447 169.158819 
L 352.020521 161.060233 
L 356.5548 158.964683 
L 360.081461 157.005698 
L 363.608123 154.981274 
L 367.638594 153.031102 
L 369.653829 152.074222 
L 373.18049 150.054555 
L 377.71477 147.956802 
L 381.241431 146.255212 
L 384.264284 144.843831 
L 394.844269 139.404137 
L 398.370931 137.784284 
L 401.897593 136.047175 
L 404.416637 134.916959 
L 407.943298 132.539582 
L 411.46996 131.255212 
L 429.607077 121.971735 
L 432.62993 120.796652 
L 436.156592 118.756696 
L 439.683253 117.124376 
L 443.209915 115.065492 
L 447.744194 112.958126 
L 453.7899 109.944059 
L 457.316562 108.565603 
L 470.919399 101.476546 
L 474.446061 99.411051 
L 482.507002 95.772164 
L 486.033664 94.051991 
L 488.552708 92.856164 
L 492.079369 90.861442 
L 495.102222 89.824853 
L 499.132693 87.458771 
L 505.682207 84.5288 
L 509.208869 82.118942 
L 513.743148 80.431164 
L 516.766001 79.01706 
L 520.292663 77.010955 
L 524.826942 74.861846 
L 531.880265 71.355009 
L 539.941206 67.619298 
L 541.956441 66.676288 
L 544.979294 65.411176 
L 548.002147 64.2327 
L 551.025 62.449399 
L 551.025 62.449399 
" clip-path="url(#p96cb4ab34f)" style="fill: none; stroke: #808080; stroke-opacity: 0.3; stroke-linecap: square"/>
   </g>
   <g id="line2d_44">
    <path d="M 47.72 318.04 
L 56.788559 313.150905 
L 59.307603 311.724832 
L 62.834264 309.98957 
L 66.360926 308.361059 
L 69.887588 306.421257 
L 72.406632 304.953321 
L 79.459955 302.430558 
L 90.543749 295.844406 
L 93.566602 294.420977 
L 96.589454 292.35277 
L 99.612307 291.25332 
L 100.116116 291.073514 
L 103.642778 288.651609 
L 107.169439 287.72541 
L 111.19991 285.02432 
L 115.734189 282.824073 
L 117.749424 281.910887 
L 121.779895 279.223768 
L 125.810365 277.040859 
L 128.329409 275.587539 
L 131.856071 274.309696 
L 135.382733 272.532559 
L 138.909394 271.260682 
L 143.443674 268.788754 
L 146.970335 266.766858 
L 156.542703 261.873558 
L 160.069364 260.563684 
L 164.099835 258.540059 
L 167.122688 257.148476 
L 170.649349 255.102583 
L 174.176011 253.448986 
L 177.702673 251.399495 
L 181.229334 249.759378 
L 185.259805 247.431939 
L 188.786466 245.490659 
L 192.313128 243.466785 
L 195.83979 241.752851 
L 198.358834 240.581391 
L 201.885495 238.54767 
L 205.412157 237.241574 
L 208.938819 235.340588 
L 212.46548 233.02648 
L 215.992142 231.400651 
L 219.014995 229.58372 
L 222.541657 228.34551 
L 226.068318 225.962702 
L 230.098789 224.44429 
L 237.655921 220.409436 
L 240.174965 218.9439 
L 243.701627 217.6432 
L 247.228288 215.560719 
L 251.762568 213.464786 
L 255.289229 211.743613 
L 257.808273 210.589764 
L 262.342553 207.947309 
L 268.388258 204.866314 
L 271.91492 203.562915 
L 275.94539 201.387698 
L 282.494905 197.532959 
L 289.548228 194.342697 
L 293.07489 192.341611 
L 297.609169 190.213644 
L 308.692963 184.66132 
L 310.204389 183.936006 
L 313.731051 181.871957 
L 317.257713 180.242639 
L 320.280566 178.138825 
L 323.303418 177.073796 
L 324.311036 176.644662 
L 328.845315 174.410258 
L 331.364359 173.20781 
L 334.891021 171.176514 
L 338.417683 169.548865 
L 341.440536 167.738967 
L 344.967197 166.494215 
L 349.501476 164.017043 
L 352.524329 162.302975 
L 356.5548 160.448679 
L 359.577653 158.943444 
L 362.600506 157.573235 
L 366.127167 155.240167 
L 369.653829 153.925773 
L 374.188108 151.310414 
L 376.707152 150.07748 
L 380.233814 148.742425 
L 383.760475 146.830682 
L 386.783328 144.755709 
L 390.813799 143.246458 
L 401.897593 137.604264 
L 404.920445 136.167185 
L 407.943298 134.39786 
L 411.46996 133.096271 
L 416.004239 130.462336 
L 422.553754 127.127947 
L 429.103268 124.216982 
L 433.637548 121.595671 
L 439.683253 118.538623 
L 442.706106 117.469481 
L 446.232768 115.356326 
L 450.263238 113.84179 
L 458.324179 109.782866 
L 461.347032 108.364968 
L 468.400355 104.829864 
L 471.927017 103.170476 
L 475.453679 101.451564 
L 478.98034 99.792243 
L 485.529855 96.468945 
L 489.056517 94.861012 
L 499.132693 89.702184 
L 502.155546 88.643249 
L 505.682207 86.53769 
L 509.208869 85.235776 
L 512.735531 82.877583 
L 517.26981 81.181965 
L 519.788854 80.024349 
L 523.315516 77.700237 
L 526.842177 76.714621 
L 530.368839 74.831694 
L 533.391692 72.708305 
L 534.399309 72.377797 
L 537.422162 71.528304 
L 545.483103 67.904272 
L 551.025 65.019021 
L 551.025 65.019021 
" clip-path="url(#p96cb4ab34f)" style="fill: none; stroke: #808080; stroke-opacity: 0.3; stroke-linecap: square"/>
   </g>
   <g id="line2d_45">
    <path d="M 47.72 318.04 
L 51.75047 315.676484 
L 58.803794 312.583813 
L 62.330455 310.622964 
L 65.857117 308.264995 
L 68.87997 306.778706 
L 72.406632 305.745832 
L 75.933293 303.335105 
L 79.459955 301.586177 
L 82.482808 300.78066 
L 83.490425 300.089737 
L 86.513278 297.813781 
L 90.03994 295.865802 
L 93.566602 293.211787 
L 97.597072 291.186526 
L 101.123734 289.588129 
L 104.650395 287.674137 
L 107.673248 285.925332 
L 114.222763 283.062588 
L 118.757042 280.391365 
L 122.283704 278.451441 
L 125.306557 276.752236 
L 132.35988 273.618374 
L 135.886542 271.849638 
L 138.909394 270.516934 
L 143.443674 267.853612 
L 146.970335 265.865611 
L 149.489379 264.39774 
L 153.016041 262.778385 
L 156.542703 260.738772 
L 160.573173 258.911304 
L 164.099835 256.971803 
L 170.649349 253.075346 
L 177.198864 250.16167 
L 180.725526 247.801605 
L 184.252187 246.502033 
L 192.816937 241.456828 
L 195.83979 239.984075 
L 199.366451 238.332701 
L 202.893113 236.634181 
L 205.412157 235.474166 
L 208.938819 233.371501 
L 213.473098 231.310514 
L 216.99976 229.627043 
L 223.045465 226.860179 
L 226.572127 224.50671 
L 233.62545 220.894581 
L 236.648303 219.534335 
L 241.182583 216.852145 
L 244.709244 214.914436 
L 248.235906 212.871875 
L 250.75495 211.604141 
L 253.777803 210.537144 
L 255.289229 209.538427 
L 257.808273 207.848639 
L 261.334935 206.068086 
L 264.861597 204.717613 
L 268.388258 202.703081 
L 271.91492 201.073548 
L 275.94539 198.739058 
L 295.090125 188.748589 
L 309.700581 181.176997 
L 314.738669 178.729049 
L 317.257713 177.315506 
L 320.784374 175.95788 
L 327.837698 171.737815 
L 331.364359 170.103357 
L 334.387212 168.300862 
L 337.913874 167.033106 
L 342.951962 164.128557 
L 348.997668 161.049694 
L 352.020521 159.935194 
L 355.547182 157.573771 
L 360.081461 155.473354 
L 377.210961 146.60743 
L 380.737623 144.999663 
L 384.768093 142.768905 
L 386.783328 141.565061 
L 390.30999 140.331323 
L 393.836652 137.930371 
L 398.370931 135.843752 
L 411.46996 129.048574 
L 414.996622 127.733838 
L 418.523283 125.362056 
L 422.049945 124.086506 
L 425.576607 122.030612 
L 428.599459 120.964127 
L 430.614695 119.445331 
L 432.126121 118.276439 
L 434.645165 117.338811 
L 437.668018 116.12854 
L 439.683253 115.180764 
L 443.209915 113.097077 
L 446.736577 111.4794 
L 449.759429 109.658865 
L 453.286091 108.402308 
L 456.812753 105.986507 
L 461.347032 103.894241 
L 464.873694 102.160605 
L 467.392738 101.032839 
L 470.919399 98.95508 
L 474.446061 97.66183 
L 477.972723 95.596913 
L 481.499384 93.988177 
L 485.026046 91.964883 
L 488.552708 90.582955 
L 492.079369 88.542972 
L 496.10984 86.715558 
L 499.636502 84.95456 
L 503.666972 83.065279 
L 507.193634 81.370445 
L 510.216486 79.957116 
L 517.773619 76.175218 
L 520.796471 74.759779 
L 527.345986 71.422868 
L 531.376456 69.541015 
L 536.918353 66.663982 
L 538.933589 66.094874 
L 540.445015 65.691538 
L 541.956441 64.570463 
L 543.971677 63.011897 
L 545.986912 62.424443 
L 547.498338 62.007348 
L 551.025 59.896436 
L 551.025 59.896436 
" clip-path="url(#p96cb4ab34f)" style="fill: none; stroke: #808080; stroke-opacity: 0.3; stroke-linecap: square"/>
   </g>
   <g id="line2d_46">
    <path d="M 47.72 318.04 
L 66.360926 308.248074 
L 70.391396 306.217973 
L 77.44472 302.562114 
L 82.986617 299.905744 
L 87.017087 297.491891 
L 91.047558 295.369366 
L 94.574219 293.450699 
L 101.123734 290.030278 
L 104.650395 288.148196 
L 108.177057 286.415088 
L 112.207528 284.286148 
L 118.253233 281.212708 
L 123.291321 278.613692 
L 126.817983 276.769944 
L 131.352262 274.425167 
L 141.428438 269.37606 
L 147.977953 265.846962 
L 168.634114 255.246852 
L 172.160776 253.384257 
L 179.214099 249.699899 
L 188.786466 244.716466 
L 215.992142 230.820967 
L 221.03023 228.386272 
L 223.045465 227.386055 
L 226.572127 225.336247 
L 230.098789 223.677147 
L 234.129259 221.4837 
L 238.15973 219.428408 
L 241.686391 217.609622 
L 245.213053 215.782655 
L 248.235906 214.235054 
L 252.266376 212.272943 
L 280.47967 197.794667 
L 291.059655 192.338991 
L 293.578699 191.008909 
L 301.135831 187.231157 
L 307.685345 183.869267 
L 319.272948 178.0594 
L 323.807227 175.735037 
L 346.478624 164.19625 
L 352.524329 161.190182 
L 384.768093 144.847231 
L 387.790946 143.252374 
L 392.829034 140.776985 
L 396.355696 139.088416 
L 398.370931 138.045756 
L 402.401401 135.925346 
L 412.981386 130.696355 
L 417.011857 128.612917 
L 419.530901 127.374619 
L 423.561371 125.440843 
L 434.645165 119.859648 
L 439.683253 117.399901 
L 444.721341 114.881631 
L 448.248003 113.125205 
L 452.278473 111.153765 
L 455.301326 109.617055 
L 459.331797 107.631649 
L 466.38512 104.144169 
L 487.54509 93.749694 
L 491.575561 91.851495 
L 496.613649 89.248341 
L 503.666972 85.878727 
L 517.26981 79.422321 
L 520.796471 77.718518 
L 523.819324 76.159677 
L 527.849795 74.321166 
L 532.887883 71.860795 
L 551.025 63.385192 
L 551.025 63.385192 
" clip-path="url(#p96cb4ab34f)" style="fill: none; stroke: #000000; stroke-width: 2.5; stroke-linecap: square"/>
   </g>
   <g id="patch_3">
    <path d="M 47.72 318.04 
L 47.72 43.584 
" style="fill: none; stroke: #000000; stroke-width: 0.8; stroke-linejoin: miter; stroke-linecap: square"/>
   </g>
   <g id="patch_4">
    <path d="M 551.025 318.04 
L 551.025 43.584 
" style="fill: none; stroke: #000000; stroke-width: 0.8; stroke-linejoin: miter; stroke-linecap: square"/>
   </g>
   <g id="patch_5">
    <path d="M 47.72 318.04 
L 551.025 318.04 
" style="fill: none; stroke: #000000; stroke-width: 0.8; stroke-linejoin: miter; stroke-linecap: square"/>
   </g>
   <g id="patch_6">
    <path d="M 47.72 43.584 
L 551.025 43.584 
" style="fill: none; stroke: #000000; stroke-width: 0.8; stroke-linejoin: miter; stroke-linecap: square"/>
   </g>
   <g id="text_20">
    <!-- Distance over time (n = 11) -->
    <g transform="translate(215.519687 24.146625) scale(0.12 -0.12)">
     <defs>
      <path id="DejaVuSans-6f" d="M 1959 3097 
Q 1497 3097 1228 2736 
Q 959 2375 959 1747 
Q 959 1119 1226 758 
Q 1494 397 1959 397 
Q 2419 397 2687 759 
Q 2956 1122 2956 1747 
Q 2956 2369 2687 2733 
Q 2419 3097 1959 3097 
z
M 1959 3584 
Q 2709 3584 3137 3096 
Q 3566 2609 3566 1747 
Q 3566 888 3137 398 
Q 2709 -91 1959 -91 
Q 1206 -91 779 398 
Q 353 888 353 1747 
Q 353 2609 779 3096 
Q 1206 3584 1959 3584 
z
" transform="scale(0.015625)"/>
      <path id="DejaVuSans-76" d="M 191 3500 
L 800 3500 
L 1894 563 
L 2988 3500 
L 3597 3500 
L 2284 0 
L 1503 0 
L 191 3500 
z
" transform="scale(0.015625)"/>
      <path id="DejaVuSans-72" d="M 2631 2963 
Q 2534 3019 2420 3045 
Q 2306 3072 2169 3072 
Q 1681 3072 1420 2755 
Q 1159 2438 1159 1844 
L 1159 0 
L 581 0 
L 581 3500 
L 1159 3500 
L 1159 2956 
Q 1341 3275 1631 3429 
Q 1922 3584 2338 3584 
Q 2397 3584 2469 3576 
Q 2541 3569 2628 3553 
L 2631 2963 
z
" transform="scale(0.015625)"/>
      <path id="DejaVuSans-28" d="M 1984 4856 
Q 1566 4138 1362 3434 
Q 1159 2731 1159 2009 
Q 1159 1288 1364 580 
Q 1569 -128 1984 -844 
L 1484 -844 
Q 1016 -109 783 600 
Q 550 1309 550 2009 
Q 550 2706 781 3412 
Q 1013 4119 1484 4856 
L 1984 4856 
z
" transform="scale(0.015625)"/>
      <path id="DejaVuSans-3d" d="M 678 2906 
L 4684 2906 
L 4684 2381 
L 678 2381 
L 678 2906 
z
M 678 1631 
L 4684 1631 
L 4684 1100 
L 678 1100 
L 678 1631 
z
" transform="scale(0.015625)"/>
      <path id="DejaVuSans-29" d="M 513 4856 
L 1013 4856 
Q 1481 4119 1714 3412 
Q 1947 2706 1947 2009 
Q 1947 1309 1714 600 
Q 1481 -109 1013 -844 
L 513 -844 
Q 928 -128 1133 580 
Q 1338 1288 1338 2009 
Q 1338 2731 1133 3434 
Q 928 4138 513 4856 
z
" transform="scale(0.015625)"/>
     </defs>
     <use xlink:href="#DejaVuSans-44"/>
     <use xlink:href="#DejaVuSans-69" x="77.001953"/>
     <use xlink:href="#DejaVuSans-73" x="104.785156"/>
     <use xlink:href="#DejaVuSans-74" x="156.884766"/>
     <use xlink:href="#DejaVuSans-61" x="196.09375"/>
     <use xlink:href="#DejaVuSans-6e" x="257.373047"/>
     <use xlink:href="#DejaVuSans-63" x="320.751953"/>
     <use xlink:href="#DejaVuSans-65" x="375.732422"/>
     <use xlink:href="#DejaVuSans-20" x="437.255859"/>
     <use xlink:href="#DejaVuSans-6f" x="469.042969"/>
     <use xlink:href="#DejaVuSans-76" x="530.224609"/>
     <use xlink:href="#DejaVuSans-65" x="589.404297"/>
     <use xlink:href="#DejaVuSans-72" x="650.927734"/>
     <use xlink:href="#DejaVuSans-20" x="692.041016"/>
     <use xlink:href="#DejaVuSans-74" x="723.828125"/>
     <use xlink:href="#DejaVuSans-69" x="763.037109"/>
     <use xlink:href="#DejaVuSans-6d" x="790.820312"/>
     <use xlink:href="#DejaVuSans-65" x="888.232422"/>
     <use xlink:href="#DejaVuSans-20" x="949.755859"/>
     <use xlink:href="#DejaVuSans-28" x="981.542969"/>
     <use xlink:href="#DejaVuSans-6e" x="1020.556641"/>
     <use xlink:href="#DejaVuSans-20" x="1083.935547"/>
     <use xlink:href="#DejaVuSans-3d" x="1115.722656"/>
     <use xlink:href="#DejaVuSans-20" x="1199.511719"/>
     <use xlink:href="#DejaVuSans-31" x="1231.298828"/>
     <use xlink:href="#DejaVuSans-31" x="1294.921875"/>
     <use xlink:href="#DejaVuSans-29" x="1358.544922"/>
    </g>
    <!-- $v_{\mathrm{desired}} = 45\,\mathrm{km/h} \equiv 12.5\,\mathrm{m/s}$ -->
    <g transform="translate(216.2125 37.584) scale(0.12 -0.12)">
     <defs>
      <path id="DejaVuSans-Oblique-76" d="M 459 3500 
L 1069 3500 
L 1581 525 
L 3256 3500 
L 3866 3500 
L 1875 0 
L 1100 0 
L 459 3500 
z
" transform="scale(0.015625)"/>
      <path id="DejaVuSans-64" d="M 2906 2969 
L 2906 4863 
L 3481 4863 
L 3481 0 
L 2906 0 
L 2906 525 
Q 2725 213 2448 61 
Q 2172 -91 1784 -91 
Q 1150 -91 751 415 
Q 353 922 353 1747 
Q 353 2572 751 3078 
Q 1150 3584 1784 3584 
Q 2172 3584 2448 3432 
Q 2725 3281 2906 2969 
z
M 947 1747 
Q 947 1113 1208 752 
Q 1469 391 1925 391 
Q 2381 391 2643 752 
Q 2906 1113 2906 1747 
Q 2906 2381 2643 2742 
Q 2381 3103 1925 3103 
Q 1469 3103 1208 2742 
Q 947 2381 947 1747 
z
" transform="scale(0.015625)"/>
      <path id="DejaVuSans-6b" d="M 581 4863 
L 1159 4863 
L 1159 1991 
L 2875 3500 
L 3609 3500 
L 1753 1863 
L 3688 0 
L 2938 0 
L 1159 1709 
L 1159 0 
L 581 0 
L 581 4863 
z
" transform="scale(0.015625)"/>
      <path id="DejaVuSans-68" d="M 3513 2113 
L 3513 0 
L 2938 0 
L 2938 2094 
Q 2938 2591 2744 2837 
Q 2550 3084 2163 3084 
Q 1697 3084 1428 2787 
Q 1159 2491 1159 1978 
L 1159 0 
L 581 0 
L 581 4863 
L 1159 4863 
L 1159 2956 
Q 1366 3272 1645 3428 
Q 1925 3584 2291 3584 
Q 2894 3584 3203 3211 
Q 3513 2838 3513 2113 
z
" transform="scale(0.015625)"/>
      <path id="DejaVuSans-2261" d="M 678 2272 
L 4684 2272 
L 4684 1741 
L 678 1741 
L 678 2272 
z
M 678 3438 
L 4684 3438 
L 4684 2906 
L 678 2906 
L 678 3438 
z
M 678 1106 
L 4684 1106 
L 4684 575 
L 678 575 
L 678 1106 
z
" transform="scale(0.015625)"/>
     </defs>
     <use xlink:href="#DejaVuSans-Oblique-76" transform="translate(0 0.015625)"/>
     <use xlink:href="#DejaVuSans-64" transform="translate(59.179688 -16.390625) scale(0.7)"/>
     <use xlink:href="#DejaVuSans-65" transform="translate(103.613281 -16.390625) scale(0.7)"/>
     <use xlink:href="#DejaVuSans-73" transform="translate(146.679688 -16.390625) scale(0.7)"/>
     <use xlink:href="#DejaVuSans-69" transform="translate(183.149414 -16.390625) scale(0.7)"/>
     <use xlink:href="#DejaVuSans-72" transform="translate(202.597656 -16.390625) scale(0.7)"/>
     <use xlink:href="#DejaVuSans-65" transform="translate(231.376953 -16.390625) scale(0.7)"/>
     <use xlink:href="#DejaVuSans-64" transform="translate(274.443359 -16.390625) scale(0.7)"/>
     <use xlink:href="#DejaVuSans-3d" transform="translate(341.09375 0.015625)"/>
     <use xlink:href="#DejaVuSans-34" transform="translate(444.365234 0.015625)"/>
     <use xlink:href="#DejaVuSans-35" transform="translate(507.988281 0.015625)"/>
     <use xlink:href="#DejaVuSans-6b" transform="translate(587.847004 0.015625)"/>
     <use xlink:href="#DejaVuSans-6d" transform="translate(645.757161 0.015625)"/>
     <use xlink:href="#DejaVuSans-2f" transform="translate(743.16927 0.015625)"/>
     <use xlink:href="#DejaVuSans-68" transform="translate(776.860676 0.015625)"/>
     <use xlink:href="#DejaVuSans-2261" transform="translate(859.722004 0.015625)"/>
     <use xlink:href="#DejaVuSans-31" transform="translate(962.993489 0.015625)"/>
     <use xlink:href="#DejaVuSans-32" transform="translate(1026.616536 0.015625)"/>
     <use xlink:href="#DejaVuSans-2e" transform="translate(1090.239583 0.015625)"/>
     <use xlink:href="#DejaVuSans-35" transform="translate(1122.026692 0.015625)"/>
     <use xlink:href="#DejaVuSans-6d" transform="translate(1201.885415 0.015625)"/>
     <use xlink:href="#DejaVuSans-2f" transform="translate(1299.297524 0.015625)"/>
     <use xlink:href="#DejaVuSans-73" transform="translate(1332.988931 0.015625)"/>
    </g>
   </g>
   <g id="legend_1">
    <g id="patch_7">
     <path d="M 54.72 66.262125 
L 127.785625 66.262125 
Q 129.785625 66.262125 129.785625 64.262125 
L 129.785625 50.584 
Q 129.785625 48.584 127.785625 48.584 
L 54.72 48.584 
Q 52.72 48.584 52.72 50.584 
L 52.72 64.262125 
Q 52.72 66.262125 54.72 66.262125 
z
" style="fill: #ffffff; opacity: 0.8; stroke: #cccccc; stroke-linejoin: miter"/>
    </g>
    <g id="line2d_47">
     <path d="M 56.72 56.682437 
L 66.72 56.682437 
L 76.72 56.682437 
" style="fill: none; stroke: #000000; stroke-width: 2.5; stroke-linecap: square"/>
    </g>
    <g id="text_21">
     <!-- Average -->
     <g transform="translate(84.72 60.182437) scale(0.1 -0.1)">
      <defs>
       <path id="DejaVuSans-41" d="M 2188 4044 
L 1331 1722 
L 3047 1722 
L 2188 4044 
z
M 1831 4666 
L 2547 4666 
L 4325 0 
L 3669 0 
L 3244 1197 
L 1141 1197 
L 716 0 
L 50 0 
L 1831 4666 
z
" transform="scale(0.015625)"/>
       <path id="DejaVuSans-67" d="M 2906 1791 
Q 2906 2416 2648 2759 
Q 2391 3103 1925 3103 
Q 1463 3103 1205 2759 
Q 947 2416 947 1791 
Q 947 1169 1205 825 
Q 1463 481 1925 481 
Q 2391 481 2648 825 
Q 2906 1169 2906 1791 
z
M 3481 434 
Q 3481 -459 3084 -895 
Q 2688 -1331 1869 -1331 
Q 1566 -1331 1297 -1286 
Q 1028 -1241 775 -1147 
L 775 -588 
Q 1028 -725 1275 -790 
Q 1522 -856 1778 -856 
Q 2344 -856 2625 -561 
Q 2906 -266 2906 331 
L 2906 616 
Q 2728 306 2450 153 
Q 2172 0 1784 0 
Q 1141 0 747 490 
Q 353 981 353 1791 
Q 353 2603 747 3093 
Q 1141 3584 1784 3584 
Q 2172 3584 2450 3431 
Q 2728 3278 2906 2969 
L 2906 3500 
L 3481 3500 
L 3481 434 
z
" transform="scale(0.015625)"/>
      </defs>
      <use xlink:href="#DejaVuSans-41"/>
      <use xlink:href="#DejaVuSans-76" x="62.533203"/>
      <use xlink:href="#DejaVuSans-65" x="121.712891"/>
      <use xlink:href="#DejaVuSans-72" x="183.236328"/>
      <use xlink:href="#DejaVuSans-61" x="224.349609"/>
      <use xlink:href="#DejaVuSans-67" x="285.628906"/>
      <use xlink:href="#DejaVuSans-65" x="349.105469"/>
     </g>
    </g>
   </g>
  </g>
 </g>
 <defs>
  <clipPath id="p96cb4ab34f">
   <rect x="47.72" y="43.584" width="503.305" height="274.456"/>
  </clipPath>
 </defs>
</svg>
