<?xml version="1.0" encoding="utf-8" standalone="no"?>
<!DOCTYPE svg PUBLIC "-//W3C//DTD SVG 1.1//EN"
  "http://www.w3.org/Graphics/SVG/1.1/DTD/svg11.dtd">
<svg xmlns:xlink="http://www.w3.org/1999/xlink" width="576pt" height="360pt" viewBox="0 0 576 360" xmlns="http://www.w3.org/2000/svg" version="1.1">
 <metadata>
  <rdf:RDF xmlns:dc="http://purl.org/dc/elements/1.1/" xmlns:cc="http://creativecommons.org/ns#" xmlns:rdf="http://www.w3.org/1999/02/22-rdf-syntax-ns#">
   <cc:Work>
    <dc:type rdf:resource="http://purl.org/dc/dcmitype/StillImage"/>
    <dc:date>2026-01-23T21:09:52.444429</dc:date>
    <dc:format>image/svg+xml</dc:format>
    <dc:creator>
     <cc:Agent>
      <dc:title>Matplotlib v3.9.4, https://matplotlib.org/</dc:title>
     </cc:Agent>
    </dc:creator>
   </cc:Work>
  </rdf:RDF>
 </metadata>
 <defs>
  <style type="text/css">*{stroke-linejoin: round; stroke-linecap: butt}</style>
 </defs>
 <g id="figure_1">
  <g id="patch_1">
   <path d="M 0 360 
L 576 360 
L 576 0 
L 0 0 
z
" style="fill: #ffffff"/>
  </g>
  <g id="axes_1">
   <g id="patch_2">
    <path d="M 47.72 318.04 
L 551.025 318.04 
L 551.025 43.584 
L 47.72 43.584 
z
" style="fill: #ffffff"/>
   </g>
   <g id="matplotlib.axis_1">
    <g id="xtick_1">
     <g id="line2d_1">
      <path d="M 47.72 318.04 
L 47.72 43.584 
" clip-path="url(#p46362aa1fe)" style="fill: none; stroke: #b0b0b0; stroke-width: 0.8; stroke-linecap: square"/>
     </g>
     <g id="line2d_2">
      <defs>
       <path id="mf19923a984" d="M 0 0 
L 0 3.5 
" style="stroke: #000000; stroke-width: 0.8"/>
      </defs>
      <g>
       <use xlink:href="#mf19923a984" x="47.72" y="318.04" style="stroke: #000000; stroke-width: 0.8"/>
      </g>
     </g>
     <g id="text_1">
      <!-- 0.000 -->
      <g transform="translate(33.405938 332.638438) scale(0.1 -0.1)">
       <defs>
        <path id="DejaVuSans-30" d="M 2034 4250 
Q 1547 4250 1301 3770 
Q 1056 3291 1056 2328 
Q 1056 1369 1301 889 
Q 1547 409 2034 409 
Q 2525 409 2770 889 
Q 3016 1369 3016 2328 
Q 3016 3291 2770 3770 
Q 2525 4250 2034 4250 
z
M 2034 4750 
Q 2819 4750 3233 4129 
Q 3647 3509 3647 2328 
Q 3647 1150 3233 529 
Q 2819 -91 2034 -91 
Q 1250 -91 836 529 
Q 422 1150 422 2328 
Q 422 3509 836 4129 
Q 1250 4750 2034 4750 
z
" transform="scale(0.015625)"/>
        <path id="DejaVuSans-2e" d="M 684 794 
L 1344 794 
L 1344 0 
L 684 0 
L 684 794 
z
" transform="scale(0.015625)"/>
       </defs>
       <use xlink:href="#DejaVuSans-30"/>
       <use xlink:href="#DejaVuSans-2e" x="63.623047"/>
       <use xlink:href="#DejaVuSans-30" x="95.410156"/>
       <use xlink:href="#DejaVuSans-30" x="159.033203"/>
       <use xlink:href="#DejaVuSans-30" x="222.65625"/>
      </g>
     </g>
    </g>
    <g id="xtick_2">
     <g id="line2d_3">
      <path d="M 110.633125 318.04 
L 110.633125 43.584 
" clip-path="url(#p46362aa1fe)" style="fill: none; stroke: #b0b0b0; stroke-width: 0.8; stroke-linecap: square"/>
     </g>
     <g id="line2d_4">
      <g>
       <use xlink:href="#mf19923a984" x="110.633125" y="318.04" style="stroke: #000000; stroke-width: 0.8"/>
      </g>
     </g>
     <g id="text_2">
      <!-- 0.005 -->
      <g transform="translate(96.319062 332.638438) scale(0.1 -0.1)">
       <defs>
        <path id="DejaVuSans-35" d="M 691 4666 
L 3169 4666 
L 3169 4134 
L 1269 4134 
L 1269 2991 
Q 1406 3038 1543 3061 
Q 1681 3084 1819 3084 
Q 2600 3084 3056 2656 
Q 3513 2228 3513 1497 
Q 3513 744 3044 326 
Q 2575 -91 1722 -91 
Q 1428 -91 1123 -41 
Q 819 9 494 109 
L 494 744 
Q 775 591 1075 516 
Q 1375 441 1709 441 
Q 2250 441 2565 725 
Q 2881 1009 2881 1497 
Q 2881 1984 2565 2268 
Q 2250 2553 1709 2553 
Q 1456 2553 1204 2497 
Q 953 2441 691 2322 
L 691 4666 
z
" transform="scale(0.015625)"/>
       </defs>
       <use xlink:href="#DejaVuSans-30"/>
       <use xlink:href="#DejaVuSans-2e" x="63.623047"/>
       <use xlink:href="#DejaVuSans-30" x="95.410156"/>
       <use xlink:href="#DejaVuSans-30" x="159.033203"/>
       <use xlink:href="#DejaVuSans-35" x="222.65625"/>
      </g>
     </g>
    </g>
    <g id="xtick_3">
     <g id="line2d_5">
      <path d="M 173.54625 318.04 
L 173.54625 43.584 
" clip-path="url(#p46362aa1fe)" style="fill: none; stroke: #b0b0b0; stroke-width: 0.8; stroke-linecap: square"/>
     </g>
     <g id="line2d_6">
      <g>
       <use xlink:href="#mf19923a984" x="173.54625" y="318.04" style="stroke: #000000; stroke-width: 0.8"/>
      </g>
     </g>
     <g id="text_3">
      <!-- 0.010 -->
      <g transform="translate(159.232187 332.638438) scale(0.1 -0.1)">
       <defs>
        <path id="DejaVuSans-31" d="M 794 531 
L 1825 531 
L 1825 4091 
L 703 3866 
L 703 4441 
L 1819 4666 
L 2450 4666 
L 2450 531 
L 3481 531 
L 3481 0 
L 794 0 
L 794 531 
z
" transform="scale(0.015625)"/>
       </defs>
       <use xlink:href="#DejaVuSans-30"/>
       <use xlink:href="#DejaVuSans-2e" x="63.623047"/>
       <use xlink:href="#DejaVuSans-30" x="95.410156"/>
       <use xlink:href="#DejaVuSans-31" x="159.033203"/>
       <use xlink:href="#DejaVuSans-30" x="222.65625"/>
      </g>
     </g>
    </g>
    <g id="xtick_4">
     <g id="line2d_7">
      <path d="M 236.459375 318.04 
L 236.459375 43.584 
" clip-path="url(#p46362aa1fe)" style="fill: none; stroke: #b0b0b0; stroke-width: 0.8; stroke-linecap: square"/>
     </g>
     <g id="line2d_8">
      <g>
       <use xlink:href="#mf19923a984" x="236.459375" y="318.04" style="stroke: #000000; stroke-width: 0.8"/>
      </g>
     </g>
     <g id="text_4">
      <!-- 0.015 -->
      <g transform="translate(222.145312 332.638438) scale(0.1 -0.1)">
       <use xlink:href="#DejaVuSans-30"/>
       <use xlink:href="#DejaVuSans-2e" x="63.623047"/>
       <use xlink:href="#DejaVuSans-30" x="95.410156"/>
       <use xlink:href="#DejaVuSans-31" x="159.033203"/>
       <use xlink:href="#DejaVuSans-35" x="222.65625"/>
      </g>
     </g>
    </g>
    <g id="xtick_5">
     <g id="line2d_9">
      <path d="M 299.3725 318.04 
L 299.3725 43.584 
" clip-path="url(#p46362aa1fe)" style="fill: none; stroke: #b0b0b0; stroke-width: 0.8; stroke-linecap: square"/>
     </g>
     <g id="line2d_10">
      <g>
       <use xlink:href="#mf19923a984" x="299.3725" y="318.04" style="stroke: #000000; stroke-width: 0.8"/>
      </g>
     </g>
     <g id="text_5">
      <!-- 0.020 -->
      <g transform="translate(285.058437 332.638438) scale(0.1 -0.1)">
       <defs>
        <path id="DejaVuSans-32" d="M 1228 531 
L 3431 531 
L 3431 0 
L 469 0 
L 469 531 
Q 828 903 1448 1529 
Q 2069 2156 2228 2338 
Q 2531 2678 2651 2914 
Q 2772 3150 2772 3378 
Q 2772 3750 2511 3984 
Q 2250 4219 1831 4219 
Q 1534 4219 1204 4116 
Q 875 4013 500 3803 
L 500 4441 
Q 881 4594 1212 4672 
Q 1544 4750 1819 4750 
Q 2544 4750 2975 4387 
Q 3406 4025 3406 3419 
Q 3406 3131 3298 2873 
Q 3191 2616 2906 2266 
Q 2828 2175 2409 1742 
Q 1991 1309 1228 531 
z
" transform="scale(0.015625)"/>
       </defs>
       <use xlink:href="#DejaVuSans-30"/>
       <use xlink:href="#DejaVuSans-2e" x="63.623047"/>
       <use xlink:href="#DejaVuSans-30" x="95.410156"/>
       <use xlink:href="#DejaVuSans-32" x="159.033203"/>
       <use xlink:href="#DejaVuSans-30" x="222.65625"/>
      </g>
     </g>
    </g>
    <g id="xtick_6">
     <g id="line2d_11">
      <path d="M 362.285625 318.04 
L 362.285625 43.584 
" clip-path="url(#p46362aa1fe)" style="fill: none; stroke: #b0b0b0; stroke-width: 0.8; stroke-linecap: square"/>
     </g>
     <g id="line2d_12">
      <g>
       <use xlink:href="#mf19923a984" x="362.285625" y="318.04" style="stroke: #000000; stroke-width: 0.8"/>
      </g>
     </g>
     <g id="text_6">
      <!-- 0.025 -->
      <g transform="translate(347.971563 332.638438) scale(0.1 -0.1)">
       <use xlink:href="#DejaVuSans-30"/>
       <use xlink:href="#DejaVuSans-2e" x="63.623047"/>
       <use xlink:href="#DejaVuSans-30" x="95.410156"/>
       <use xlink:href="#DejaVuSans-32" x="159.033203"/>
       <use xlink:href="#DejaVuSans-35" x="222.65625"/>
      </g>
     </g>
    </g>
    <g id="xtick_7">
     <g id="line2d_13">
      <path d="M 425.19875 318.04 
L 425.19875 43.584 
" clip-path="url(#p46362aa1fe)" style="fill: none; stroke: #b0b0b0; stroke-width: 0.8; stroke-linecap: square"/>
     </g>
     <g id="line2d_14">
      <g>
       <use xlink:href="#mf19923a984" x="425.19875" y="318.04" style="stroke: #000000; stroke-width: 0.8"/>
      </g>
     </g>
     <g id="text_7">
      <!-- 0.030 -->
      <g transform="translate(410.884687 332.638438) scale(0.1 -0.1)">
       <defs>
        <path id="DejaVuSans-33" d="M 2597 2516 
Q 3050 2419 3304 2112 
Q 3559 1806 3559 1356 
Q 3559 666 3084 287 
Q 2609 -91 1734 -91 
Q 1441 -91 1130 -33 
Q 819 25 488 141 
L 488 750 
Q 750 597 1062 519 
Q 1375 441 1716 441 
Q 2309 441 2620 675 
Q 2931 909 2931 1356 
Q 2931 1769 2642 2001 
Q 2353 2234 1838 2234 
L 1294 2234 
L 1294 2753 
L 1863 2753 
Q 2328 2753 2575 2939 
Q 2822 3125 2822 3475 
Q 2822 3834 2567 4026 
Q 2313 4219 1838 4219 
Q 1578 4219 1281 4162 
Q 984 4106 628 3988 
L 628 4550 
Q 988 4650 1302 4700 
Q 1616 4750 1894 4750 
Q 2613 4750 3031 4423 
Q 3450 4097 3450 3541 
Q 3450 3153 3228 2886 
Q 3006 2619 2597 2516 
z
" transform="scale(0.015625)"/>
       </defs>
       <use xlink:href="#DejaVuSans-30"/>
       <use xlink:href="#DejaVuSans-2e" x="63.623047"/>
       <use xlink:href="#DejaVuSans-30" x="95.410156"/>
       <use xlink:href="#DejaVuSans-33" x="159.033203"/>
       <use xlink:href="#DejaVuSans-30" x="222.65625"/>
      </g>
     </g>
    </g>
    <g id="xtick_8">
     <g id="line2d_15">
      <path d="M 488.111875 318.04 
L 488.111875 43.584 
" clip-path="url(#p46362aa1fe)" style="fill: none; stroke: #b0b0b0; stroke-width: 0.8; stroke-linecap: square"/>
     </g>
     <g id="line2d_16">
      <g>
       <use xlink:href="#mf19923a984" x="488.111875" y="318.04" style="stroke: #000000; stroke-width: 0.8"/>
      </g>
     </g>
     <g id="text_8">
      <!-- 0.035 -->
      <g transform="translate(473.797812 332.638438) scale(0.1 -0.1)">
       <use xlink:href="#DejaVuSans-30"/>
       <use xlink:href="#DejaVuSans-2e" x="63.623047"/>
       <use xlink:href="#DejaVuSans-30" x="95.410156"/>
       <use xlink:href="#DejaVuSans-33" x="159.033203"/>
       <use xlink:href="#DejaVuSans-35" x="222.65625"/>
      </g>
     </g>
    </g>
    <g id="xtick_9">
     <g id="line2d_17">
      <path d="M 551.025 318.04 
L 551.025 43.584 
" clip-path="url(#p46362aa1fe)" style="fill: none; stroke: #b0b0b0; stroke-width: 0.8; stroke-linecap: square"/>
     </g>
     <g id="line2d_18">
      <g>
       <use xlink:href="#mf19923a984" x="551.025" y="318.04" style="stroke: #000000; stroke-width: 0.8"/>
      </g>
     </g>
     <g id="text_9">
      <!-- 0.040 -->
      <g transform="translate(536.710938 332.638438) scale(0.1 -0.1)">
       <defs>
        <path id="DejaVuSans-34" d="M 2419 4116 
L 825 1625 
L 2419 1625 
L 2419 4116 
z
M 2253 4666 
L 3047 4666 
L 3047 1625 
L 3713 1625 
L 3713 1100 
L 3047 1100 
L 3047 0 
L 2419 0 
L 2419 1100 
L 313 1100 
L 313 1709 
L 2253 4666 
z
" transform="scale(0.015625)"/>
       </defs>
       <use xlink:href="#DejaVuSans-30"/>
       <use xlink:href="#DejaVuSans-2e" x="63.623047"/>
       <use xlink:href="#DejaVuSans-30" x="95.410156"/>
       <use xlink:href="#DejaVuSans-34" x="159.033203"/>
       <use xlink:href="#DejaVuSans-30" x="222.65625"/>
      </g>
     </g>
    </g>
    <g id="text_10">
     <!-- Time / s -->
     <g transform="translate(279.671719 346.316563) scale(0.1 -0.1)">
      <defs>
       <path id="DejaVuSans-54" d="M -19 4666 
L 3928 4666 
L 3928 4134 
L 2272 4134 
L 2272 0 
L 1638 0 
L 1638 4134 
L -19 4134 
L -19 4666 
z
" transform="scale(0.015625)"/>
       <path id="DejaVuSans-69" d="M 603 3500 
L 1178 3500 
L 1178 0 
L 603 0 
L 603 3500 
z
M 603 4863 
L 1178 4863 
L 1178 4134 
L 603 4134 
L 603 4863 
z
" transform="scale(0.015625)"/>
       <path id="DejaVuSans-6d" d="M 3328 2828 
Q 3544 3216 3844 3400 
Q 4144 3584 4550 3584 
Q 5097 3584 5394 3201 
Q 5691 2819 5691 2113 
L 5691 0 
L 5113 0 
L 5113 2094 
Q 5113 2597 4934 2840 
Q 4756 3084 4391 3084 
Q 3944 3084 3684 2787 
Q 3425 2491 3425 1978 
L 3425 0 
L 2847 0 
L 2847 2094 
Q 2847 2600 2669 2842 
Q 2491 3084 2119 3084 
Q 1678 3084 1418 2786 
Q 1159 2488 1159 1978 
L 1159 0 
L 581 0 
L 581 3500 
L 1159 3500 
L 1159 2956 
Q 1356 3278 1631 3431 
Q 1906 3584 2284 3584 
Q 2666 3584 2933 3390 
Q 3200 3197 3328 2828 
z
" transform="scale(0.015625)"/>
       <path id="DejaVuSans-65" d="M 3597 1894 
L 3597 1613 
L 953 1613 
Q 991 1019 1311 708 
Q 1631 397 2203 397 
Q 2534 397 2845 478 
Q 3156 559 3463 722 
L 3463 178 
Q 3153 47 2828 -22 
Q 2503 -91 2169 -91 
Q 1331 -91 842 396 
Q 353 884 353 1716 
Q 353 2575 817 3079 
Q 1281 3584 2069 3584 
Q 2775 3584 3186 3129 
Q 3597 2675 3597 1894 
z
M 3022 2063 
Q 3016 2534 2758 2815 
Q 2500 3097 2075 3097 
Q 1594 3097 1305 2825 
Q 1016 2553 972 2059 
L 3022 2063 
z
" transform="scale(0.015625)"/>
       <path id="DejaVuSans-20" transform="scale(0.015625)"/>
       <path id="DejaVuSans-2f" d="M 1625 4666 
L 2156 4666 
L 531 -594 
L 0 -594 
L 1625 4666 
z
" transform="scale(0.015625)"/>
       <path id="DejaVuSans-73" d="M 2834 3397 
L 2834 2853 
Q 2591 2978 2328 3040 
Q 2066 3103 1784 3103 
Q 1356 3103 1142 2972 
Q 928 2841 928 2578 
Q 928 2378 1081 2264 
Q 1234 2150 1697 2047 
L 1894 2003 
Q 2506 1872 2764 1633 
Q 3022 1394 3022 966 
Q 3022 478 2636 193 
Q 2250 -91 1575 -91 
Q 1294 -91 989 -36 
Q 684 19 347 128 
L 347 722 
Q 666 556 975 473 
Q 1284 391 1588 391 
Q 1994 391 2212 530 
Q 2431 669 2431 922 
Q 2431 1156 2273 1281 
Q 2116 1406 1581 1522 
L 1381 1569 
Q 847 1681 609 1914 
Q 372 2147 372 2553 
Q 372 3047 722 3315 
Q 1072 3584 1716 3584 
Q 2034 3584 2315 3537 
Q 2597 3491 2834 3397 
z
" transform="scale(0.015625)"/>
      </defs>
      <use xlink:href="#DejaVuSans-54"/>
      <use xlink:href="#DejaVuSans-69" x="57.958984"/>
      <use xlink:href="#DejaVuSans-6d" x="85.742188"/>
      <use xlink:href="#DejaVuSans-65" x="183.154297"/>
      <use xlink:href="#DejaVuSans-20" x="244.677734"/>
      <use xlink:href="#DejaVuSans-2f" x="276.464844"/>
      <use xlink:href="#DejaVuSans-20" x="310.15625"/>
      <use xlink:href="#DejaVuSans-73" x="341.943359"/>
     </g>
    </g>
   </g>
   <g id="matplotlib.axis_2">
    <g id="ytick_1">
     <g id="line2d_19">
      <path d="M 47.72 318.04 
L 551.025 318.04 
" clip-path="url(#p46362aa1fe)" style="fill: none; stroke: #b0b0b0; stroke-width: 0.8; stroke-linecap: square"/>
     </g>
     <g id="line2d_20">
      <defs>
       <path id="m24e96df29f" d="M 0 0 
L -3.5 0 
" style="stroke: #000000; stroke-width: 0.8"/>
      </defs>
      <g>
       <use xlink:href="#m24e96df29f" x="47.72" y="318.04" style="stroke: #000000; stroke-width: 0.8"/>
      </g>
     </g>
     <g id="text_11">
      <!-- 0.0 -->
      <g transform="translate(24.816875 321.839219) scale(0.1 -0.1)">
       <use xlink:href="#DejaVuSans-30"/>
       <use xlink:href="#DejaVuSans-2e" x="63.623047"/>
       <use xlink:href="#DejaVuSans-30" x="95.410156"/>
      </g>
     </g>
    </g>
    <g id="ytick_2">
     <g id="line2d_21">
      <path d="M 47.72 275.900878 
L 551.025 275.900878 
" clip-path="url(#p46362aa1fe)" style="fill: none; stroke: #b0b0b0; stroke-width: 0.8; stroke-linecap: square"/>
     </g>
     <g id="line2d_22">
      <g>
       <use xlink:href="#m24e96df29f" x="47.72" y="275.900878" style="stroke: #000000; stroke-width: 0.8"/>
      </g>
     </g>
     <g id="text_12">
      <!-- 0.1 -->
      <g transform="translate(24.816875 279.700097) scale(0.1 -0.1)">
       <use xlink:href="#DejaVuSans-30"/>
       <use xlink:href="#DejaVuSans-2e" x="63.623047"/>
       <use xlink:href="#DejaVuSans-31" x="95.410156"/>
      </g>
     </g>
    </g>
    <g id="ytick_3">
     <g id="line2d_23">
      <path d="M 47.72 233.761756 
L 551.025 233.761756 
" clip-path="url(#p46362aa1fe)" style="fill: none; stroke: #b0b0b0; stroke-width: 0.8; stroke-linecap: square"/>
     </g>
     <g id="line2d_24">
      <g>
       <use xlink:href="#m24e96df29f" x="47.72" y="233.761756" style="stroke: #000000; stroke-width: 0.8"/>
      </g>
     </g>
     <g id="text_13">
      <!-- 0.2 -->
      <g transform="translate(24.816875 237.560974) scale(0.1 -0.1)">
       <use xlink:href="#DejaVuSans-30"/>
       <use xlink:href="#DejaVuSans-2e" x="63.623047"/>
       <use xlink:href="#DejaVuSans-32" x="95.410156"/>
      </g>
     </g>
    </g>
    <g id="ytick_4">
     <g id="line2d_25">
      <path d="M 47.72 191.622634 
L 551.025 191.622634 
" clip-path="url(#p46362aa1fe)" style="fill: none; stroke: #b0b0b0; stroke-width: 0.8; stroke-linecap: square"/>
     </g>
     <g id="line2d_26">
      <g>
       <use xlink:href="#m24e96df29f" x="47.72" y="191.622634" style="stroke: #000000; stroke-width: 0.8"/>
      </g>
     </g>
     <g id="text_14">
      <!-- 0.3 -->
      <g transform="translate(24.816875 195.421852) scale(0.1 -0.1)">
       <use xlink:href="#DejaVuSans-30"/>
       <use xlink:href="#DejaVuSans-2e" x="63.623047"/>
       <use xlink:href="#DejaVuSans-33" x="95.410156"/>
      </g>
     </g>
    </g>
    <g id="ytick_5">
     <g id="line2d_27">
      <path d="M 47.72 149.483511 
L 551.025 149.483511 
" clip-path="url(#p46362aa1fe)" style="fill: none; stroke: #b0b0b0; stroke-width: 0.8; stroke-linecap: square"/>
     </g>
     <g id="line2d_28">
      <g>
       <use xlink:href="#m24e96df29f" x="47.72" y="149.483511" style="stroke: #000000; stroke-width: 0.8"/>
      </g>
     </g>
     <g id="text_15">
      <!-- 0.4 -->
      <g transform="translate(24.816875 153.28273) scale(0.1 -0.1)">
       <use xlink:href="#DejaVuSans-30"/>
       <use xlink:href="#DejaVuSans-2e" x="63.623047"/>
       <use xlink:href="#DejaVuSans-34" x="95.410156"/>
      </g>
     </g>
    </g>
    <g id="ytick_6">
     <g id="line2d_29">
      <path d="M 47.72 107.344389 
L 551.025 107.344389 
" clip-path="url(#p46362aa1fe)" style="fill: none; stroke: #b0b0b0; stroke-width: 0.8; stroke-linecap: square"/>
     </g>
     <g id="line2d_30">
      <g>
       <use xlink:href="#m24e96df29f" x="47.72" y="107.344389" style="stroke: #000000; stroke-width: 0.8"/>
      </g>
     </g>
     <g id="text_16">
      <!-- 0.5 -->
      <g transform="translate(24.816875 111.143608) scale(0.1 -0.1)">
       <use xlink:href="#DejaVuSans-30"/>
       <use xlink:href="#DejaVuSans-2e" x="63.623047"/>
       <use xlink:href="#DejaVuSans-35" x="95.410156"/>
      </g>
     </g>
    </g>
    <g id="ytick_7">
     <g id="line2d_31">
      <path d="M 47.72 65.205267 
L 551.025 65.205267 
" clip-path="url(#p46362aa1fe)" style="fill: none; stroke: #b0b0b0; stroke-width: 0.8; stroke-linecap: square"/>
     </g>
     <g id="line2d_32">
      <g>
       <use xlink:href="#m24e96df29f" x="47.72" y="65.205267" style="stroke: #000000; stroke-width: 0.8"/>
      </g>
     </g>
     <g id="text_17">
      <!-- 0.6 -->
      <g transform="translate(24.816875 69.004486) scale(0.1 -0.1)">
       <defs>
        <path id="DejaVuSans-36" d="M 2113 2584 
Q 1688 2584 1439 2293 
Q 1191 2003 1191 1497 
Q 1191 994 1439 701 
Q 1688 409 2113 409 
Q 2538 409 2786 701 
Q 3034 994 3034 1497 
Q 3034 2003 2786 2293 
Q 2538 2584 2113 2584 
z
M 3366 4563 
L 3366 3988 
Q 3128 4100 2886 4159 
Q 2644 4219 2406 4219 
Q 1781 4219 1451 3797 
Q 1122 3375 1075 2522 
Q 1259 2794 1537 2939 
Q 1816 3084 2150 3084 
Q 2853 3084 3261 2657 
Q 3669 2231 3669 1497 
Q 3669 778 3244 343 
Q 2819 -91 2113 -91 
Q 1303 -91 875 529 
Q 447 1150 447 2328 
Q 447 3434 972 4092 
Q 1497 4750 2381 4750 
Q 2619 4750 2861 4703 
Q 3103 4656 3366 4563 
z
" transform="scale(0.015625)"/>
       </defs>
       <use xlink:href="#DejaVuSans-30"/>
       <use xlink:href="#DejaVuSans-2e" x="63.623047"/>
       <use xlink:href="#DejaVuSans-36" x="95.410156"/>
      </g>
     </g>
    </g>
    <g id="text_18">
     <!-- Distance / m -->
     <g transform="translate(18.737187 212.407313) rotate(-90) scale(0.1 -0.1)">
      <defs>
       <path id="DejaVuSans-44" d="M 1259 4147 
L 1259 519 
L 2022 519 
Q 2988 519 3436 956 
Q 3884 1394 3884 2338 
Q 3884 3275 3436 3711 
Q 2988 4147 2022 4147 
L 1259 4147 
z
M 628 4666 
L 1925 4666 
Q 3281 4666 3915 4102 
Q 4550 3538 4550 2338 
Q 4550 1131 3912 565 
Q 3275 0 1925 0 
L 628 0 
L 628 4666 
z
" transform="scale(0.015625)"/>
       <path id="DejaVuSans-74" d="M 1172 4494 
L 1172 3500 
L 2356 3500 
L 2356 3053 
L 1172 3053 
L 1172 1153 
Q 1172 725 1289 603 
Q 1406 481 1766 481 
L 2356 481 
L 2356 0 
L 1766 0 
Q 1100 0 847 248 
Q 594 497 594 1153 
L 594 3053 
L 172 3053 
L 172 3500 
L 594 3500 
L 594 4494 
L 1172 4494 
z
" transform="scale(0.015625)"/>
       <path id="DejaVuSans-61" d="M 2194 1759 
Q 1497 1759 1228 1600 
Q 959 1441 959 1056 
Q 959 750 1161 570 
Q 1363 391 1709 391 
Q 2188 391 2477 730 
Q 2766 1069 2766 1631 
L 2766 1759 
L 2194 1759 
z
M 3341 1997 
L 3341 0 
L 2766 0 
L 2766 531 
Q 2569 213 2275 61 
Q 1981 -91 1556 -91 
Q 1019 -91 701 211 
Q 384 513 384 1019 
Q 384 1609 779 1909 
Q 1175 2209 1959 2209 
L 2766 2209 
L 2766 2266 
Q 2766 2663 2505 2880 
Q 2244 3097 1772 3097 
Q 1472 3097 1187 3025 
Q 903 2953 641 2809 
L 641 3341 
Q 956 3463 1253 3523 
Q 1550 3584 1831 3584 
Q 2591 3584 2966 3190 
Q 3341 2797 3341 1997 
z
" transform="scale(0.015625)"/>
       <path id="DejaVuSans-6e" d="M 3513 2113 
L 3513 0 
L 2938 0 
L 2938 2094 
Q 2938 2591 2744 2837 
Q 2550 3084 2163 3084 
Q 1697 3084 1428 2787 
Q 1159 2491 1159 1978 
L 1159 0 
L 581 0 
L 581 3500 
L 1159 3500 
L 1159 2956 
Q 1366 3272 1645 3428 
Q 1925 3584 2291 3584 
Q 2894 3584 3203 3211 
Q 3513 2838 3513 2113 
z
" transform="scale(0.015625)"/>
       <path id="DejaVuSans-63" d="M 3122 3366 
L 3122 2828 
Q 2878 2963 2633 3030 
Q 2388 3097 2138 3097 
Q 1578 3097 1268 2742 
Q 959 2388 959 1747 
Q 959 1106 1268 751 
Q 1578 397 2138 397 
Q 2388 397 2633 464 
Q 2878 531 3122 666 
L 3122 134 
Q 2881 22 2623 -34 
Q 2366 -91 2075 -91 
Q 1284 -91 818 406 
Q 353 903 353 1747 
Q 353 2603 823 3093 
Q 1294 3584 2113 3584 
Q 2378 3584 2631 3529 
Q 2884 3475 3122 3366 
z
" transform="scale(0.015625)"/>
      </defs>
      <use xlink:href="#DejaVuSans-44"/>
      <use xlink:href="#DejaVuSans-69" x="77.001953"/>
      <use xlink:href="#DejaVuSans-73" x="104.785156"/>
      <use xlink:href="#DejaVuSans-74" x="156.884766"/>
      <use xlink:href="#DejaVuSans-61" x="196.09375"/>
      <use xlink:href="#DejaVuSans-6e" x="257.373047"/>
      <use xlink:href="#DejaVuSans-63" x="320.751953"/>
      <use xlink:href="#DejaVuSans-65" x="375.732422"/>
      <use xlink:href="#DejaVuSans-20" x="437.255859"/>
      <use xlink:href="#DejaVuSans-2f" x="469.042969"/>
      <use xlink:href="#DejaVuSans-20" x="502.734375"/>
      <use xlink:href="#DejaVuSans-6d" x="534.521484"/>
     </g>
    </g>
   </g>
   <g id="line2d_33">
    <path d="M 47.72 318.04 
L 52.254279 315.704928 
L 56.28475 313.267438 
L 67.872352 307.628034 
L 71.399014 306.359868 
L 80.971381 300.424487 
L 83.994234 298.847903 
L 87.520896 297.292582 
L 95.581837 292.849845 
L 99.612307 291.038875 
L 104.146587 288.387459 
L 107.169439 286.569044 
L 111.19991 284.790892 
L 115.23038 282.616397 
L 119.76466 280.612641 
L 127.825601 276.538651 
L 130.848453 274.953983 
L 134.375115 273.681484 
L 139.917012 270.685268 
L 143.443674 268.852692 
L 147.474144 266.685519 
L 151.504615 264.590738 
L 154.023659 263.202067 
L 158.054129 261.717393 
L 162.588408 258.963544 
L 167.122688 256.628506 
L 171.153158 254.467696 
L 175.183629 252.59721 
L 177.702673 251.485862 
L 181.733143 249.00127 
L 185.763614 247.240172 
L 189.794084 245.080558 
L 193.320746 243.798139 
L 197.351216 241.021731 
L 202.389304 238.803071 
L 206.419775 236.917324 
L 209.442628 235.569316 
L 214.480716 232.845878 
L 218.511186 230.740725 
L 221.03023 229.38569 
L 225.060701 227.883447 
L 230.098789 225.151767 
L 234.129259 223.279549 
L 236.648303 222.176744 
L 241.182583 219.415643 
L 244.709244 217.621634 
L 248.739715 215.171173 
L 253.777803 212.932774 
L 257.808273 210.828834 
L 261.838744 208.684509 
L 265.365405 206.849211 
L 272.418729 202.957201 
L 277.456817 200.71201 
L 289.044419 194.899666 
L 293.07489 192.739164 
L 297.10536 190.636648 
L 301.135831 188.491751 
L 308.692963 184.665554 
L 311.715816 183.038846 
L 315.746286 181.246291 
L 319.776757 179.082605 
L 323.807227 177.264136 
L 339.4253 168.569242 
L 342.951962 167.011295 
L 346.982432 164.548834 
L 352.020521 162.316814 
L 355.043373 160.740267 
L 358.570035 158.552262 
L 363.608123 156.330137 
L 367.638594 154.246827 
L 374.691917 150.361941 
L 379.226196 148.361262 
L 383.256667 146.281647 
L 391.317608 141.852607 
L 399.378549 137.761898 
L 403.409019 135.619736 
L 406.935681 133.784189 
L 409.958534 132.151393 
L 414.996622 129.913063 
L 423.057563 125.814902 
L 426.584224 123.926998 
L 430.614695 122.046017 
L 433.637548 120.689117 
L 437.668018 118.516253 
L 441.698488 116.704147 
L 446.232768 114.248864 
L 454.293709 110.389871 
L 457.316562 109.02012 
L 462.35465 106.306502 
L 469.911782 102.68661 
L 473.942252 100.87514 
L 477.972723 98.773917 
L 482.003193 96.628655 
L 488.552708 93.463088 
L 492.583178 91.929136 
L 497.621266 89.209531 
L 501.147928 87.385629 
L 504.170781 85.751964 
L 508.201251 84.240994 
L 519.788854 77.810642 
L 523.315516 77.314294 
L 524.323133 76.70937 
L 528.353604 74.00327 
L 531.880265 72.092497 
L 535.910736 70.305729 
L 539.437397 68.391758 
L 542.964059 67.64284 
L 543.971677 67.086938 
L 548.505956 64.112393 
L 551.025 62.337739 
L 551.025 62.337739 
" clip-path="url(#p46362aa1fe)" style="fill: none; stroke: #808080; stroke-opacity: 0.3; stroke-linecap: square"/>
   </g>
   <g id="line2d_34">
    <path d="M 47.72 318.04 
L 53.261897 315.52741 
L 55.780941 314.23106 
L 59.811411 311.436191 
L 64.849499 309.175894 
L 80.467573 301.259533 
L 84.498043 298.849205 
L 87.520896 296.972044 
L 100.116116 290.573708 
L 104.146587 288.366927 
L 115.734189 282.482295 
L 119.260851 280.572294 
L 122.787513 279.004139 
L 127.825601 276.220968 
L 134.878924 272.595356 
L 138.909394 270.107828 
L 142.939865 267.966592 
L 146.466527 265.755314 
L 162.588408 257.562029 
L 166.11507 255.384254 
L 170.145541 253.57815 
L 182.236952 246.775988 
L 186.771231 244.727364 
L 194.832172 240.574038 
L 206.419775 234.043067 
L 218.007377 228.150464 
L 222.541657 225.685693 
L 230.098789 221.793615 
L 234.129259 219.599034 
L 238.15973 217.460357 
L 241.182583 215.844665 
L 244.709244 214.273095 
L 252.770185 209.789423 
L 256.296847 208.487577 
L 261.838744 205.443292 
L 264.357788 204.128136 
L 267.884449 201.857165 
L 272.418729 200.103524 
L 281.487287 195.038122 
L 304.662492 183.332621 
L 308.692963 181.129815 
L 312.723433 178.999943 
L 316.753904 176.81121 
L 320.280566 175.134175 
L 323.303418 173.787783 
L 328.341507 171.005734 
L 332.371977 169.098226 
L 335.39483 167.708085 
L 343.455771 163.212256 
L 347.99005 161.161824 
L 356.050991 157.010082 
L 360.081461 154.825333 
L 367.638594 150.935758 
L 375.699535 146.433766 
L 387.287137 140.525869 
L 391.317608 138.325741 
L 395.348078 136.193221 
L 399.378549 134.005839 
L 402.90521 132.332577 
L 406.935681 130.500894 
L 409.958534 128.914882 
L 413.989004 126.448735 
L 419.027092 124.161299 
L 422.553754 122.303044 
L 429.607077 118.334211 
L 433.133739 116.805132 
L 437.164209 114.246051 
L 441.698488 112.185015 
L 446.232768 109.689634 
L 453.286091 106.078932 
L 457.316562 103.574668 
L 461.850841 101.39426 
L 464.873694 100.045969 
L 469.911782 97.059445 
L 472.430826 95.453521 
L 476.461296 93.980446 
L 488.552708 87.150378 
L 492.583178 85.592838 
L 497.621266 82.826937 
L 500.644119 81.41758 
L 504.170781 80.081654 
L 509.208869 77.303731 
L 512.231722 75.719355 
L 515.758383 73.483378 
L 520.292663 71.757675 
L 527.849795 67.919748 
L 531.376456 65.655374 
L 535.406927 64.472753 
L 539.437397 62.399854 
L 542.964059 59.624196 
L 543.467868 59.424943 
L 546.99453 58.915346 
L 548.505956 58.093361 
L 551.025 56.653333 
L 551.025 56.653333 
" clip-path="url(#p46362aa1fe)" style="fill: none; stroke: #808080; stroke-opacity: 0.3; stroke-linecap: square"/>
   </g>
   <g id="line2d_35">
    <path d="M 47.72 318.04 
L 52.758088 315.583254 
L 58.299985 312.353161 
L 60.31522 311.250543 
L 66.864735 308.111987 
L 68.87997 307.215836 
L 71.902823 305.841936 
L 86.513278 297.668772 
L 96.085646 292.661984 
L 99.612307 290.950458 
L 107.673248 286.480179 
L 112.207528 284.278453 
L 117.749424 281.440758 
L 121.779895 279.554401 
L 123.79513 278.526673 
L 131.352262 274.615814 
L 134.878924 272.996601 
L 138.909394 270.644732 
L 142.939865 268.551462 
L 146.970335 266.218413 
L 153.016041 263.105364 
L 155.031276 262.153817 
L 158.557938 260.546835 
L 167.122688 255.790121 
L 172.664585 252.929776 
L 176.695055 250.894203 
L 178.206481 250.06566 
L 181.733143 247.996762 
L 186.267422 245.968106 
L 190.297893 243.932129 
L 193.320746 242.61863 
L 197.855025 239.826844 
L 204.40454 236.453004 
L 206.419775 235.480196 
L 210.450245 233.512312 
L 215.992142 230.673407 
L 218.511186 229.301666 
L 221.534039 227.699867 
L 225.56451 225.885109 
L 234.129259 221.439292 
L 237.152112 219.946919 
L 241.182583 217.630154 
L 244.709244 215.947365 
L 249.243524 213.319961 
L 253.777803 211.180535 
L 256.800656 209.797879 
L 261.838744 207.0639 
L 264.861597 205.468429 
L 268.388258 203.406901 
L 274.937773 200.277618 
L 278.968243 198.159865 
L 282.998714 196.132175 
L 290.555846 192.271336 
L 294.586316 190.235496 
L 298.616787 188.121748 
L 302.647257 186.093166 
L 306.677728 183.970498 
L 314.23486 180.055047 
L 318.26533 177.94121 
L 319.776757 177.216531 
L 323.807227 175.38158 
L 330.356742 171.786327 
L 346.982432 163.107234 
L 353.531947 159.980308 
L 355.547182 158.859824 
L 359.073844 156.83497 
L 365.623358 153.693513 
L 367.638594 152.591293 
L 375.195726 148.417904 
L 381.241431 145.511531 
L 385.271902 143.392308 
L 389.302372 141.125464 
L 391.317608 140.089174 
L 396.859505 137.224626 
L 402.90521 134.100243 
L 406.935681 132.142542 
L 414.996622 127.964077 
L 420.538519 125.293086 
L 422.553754 124.200787 
L 428.599459 120.888537 
L 430.110886 120.188341 
L 433.637548 118.584923 
L 437.668018 116.272734 
L 441.698488 114.444581 
L 446.232768 111.969249 
L 455.805135 107.102939 
L 461.850841 103.974469 
L 465.881311 102.01926 
L 473.438443 98.108192 
L 476.965105 96.516386 
L 483.51462 92.913369 
L 488.552708 90.306733 
L 492.583178 88.760987 
L 497.621266 86.018234 
L 503.163163 83.381893 
L 509.208869 80.488736 
L 513.239339 78.238099 
L 516.262192 76.504072 
L 520.292663 74.748705 
L 523.819324 73.527918 
L 531.880265 68.801481 
L 535.910736 67.263435 
L 542.964059 63.633518 
L 545.986912 62.435047 
L 547.498338 61.745814 
L 551.025 59.495536 
L 551.025 59.495536 
" clip-path="url(#p46362aa1fe)" style="fill: none; stroke: #000000; stroke-width: 2.5; stroke-linecap: square"/>
   </g>
   <g id="patch_3">
    <path d="M 47.72 318.04 
L 47.72 43.584 
" style="fill: none; stroke: #000000; stroke-width: 0.8; stroke-linejoin: miter; stroke-linecap: square"/>
   </g>
   <g id="patch_4">
    <path d="M 551.025 318.04 
L 551.025 43.584 
" style="fill: none; stroke: #000000; stroke-width: 0.8; stroke-linejoin: miter; stroke-linecap: square"/>
   </g>
   <g id="patch_5">
    <path d="M 47.72 318.04 
L 551.025 318.04 
" style="fill: none; stroke: #000000; stroke-width: 0.8; stroke-linejoin: miter; stroke-linecap: square"/>
   </g>
   <g id="patch_6">
    <path d="M 47.72 43.584 
L 551.025 43.584 
" style="fill: none; stroke: #000000; stroke-width: 0.8; stroke-linejoin: miter; stroke-linecap: square"/>
   </g>
   <g id="text_19">
    <!-- Distance over time (n = 2) -->
    <g transform="translate(219.337187 24.146625) scale(0.12 -0.12)">
     <defs>
      <path id="DejaVuSans-6f" d="M 1959 3097 
Q 1497 3097 1228 2736 
Q 959 2375 959 1747 
Q 959 1119 1226 758 
Q 1494 397 1959 397 
Q 2419 397 2687 759 
Q 2956 1122 2956 1747 
Q 2956 2369 2687 2733 
Q 2419 3097 1959 3097 
z
M 1959 3584 
Q 2709 3584 3137 3096 
Q 3566 2609 3566 1747 
Q 3566 888 3137 398 
Q 2709 -91 1959 -91 
Q 1206 -91 779 398 
Q 353 888 353 1747 
Q 353 2609 779 3096 
Q 1206 3584 1959 3584 
z
" transform="scale(0.015625)"/>
      <path id="DejaVuSans-76" d="M 191 3500 
L 800 3500 
L 1894 563 
L 2988 3500 
L 3597 3500 
L 2284 0 
L 1503 0 
L 191 3500 
z
" transform="scale(0.015625)"/>
      <path id="DejaVuSans-72" d="M 2631 2963 
Q 2534 3019 2420 3045 
Q 2306 3072 2169 3072 
Q 1681 3072 1420 2755 
Q 1159 2438 1159 1844 
L 1159 0 
L 581 0 
L 581 3500 
L 1159 3500 
L 1159 2956 
Q 1341 3275 1631 3429 
Q 1922 3584 2338 3584 
Q 2397 3584 2469 3576 
Q 2541 3569 2628 3553 
L 2631 2963 
z
" transform="scale(0.015625)"/>
      <path id="DejaVuSans-28" d="M 1984 4856 
Q 1566 4138 1362 3434 
Q 1159 2731 1159 2009 
Q 1159 1288 1364 580 
Q 1569 -128 1984 -844 
L 1484 -844 
Q 1016 -109 783 600 
Q 550 1309 550 2009 
Q 550 2706 781 3412 
Q 1013 4119 1484 4856 
L 1984 4856 
z
" transform="scale(0.015625)"/>
      <path id="DejaVuSans-3d" d="M 678 2906 
L 4684 2906 
L 4684 2381 
L 678 2381 
L 678 2906 
z
M 678 1631 
L 4684 1631 
L 4684 1100 
L 678 1100 
L 678 1631 
z
" transform="scale(0.015625)"/>
      <path id="DejaVuSans-29" d="M 513 4856 
L 1013 4856 
Q 1481 4119 1714 3412 
Q 1947 2706 1947 2009 
Q 1947 1309 1714 600 
Q 1481 -109 1013 -844 
L 513 -844 
Q 928 -128 1133 580 
Q 1338 1288 1338 2009 
Q 1338 2731 1133 3434 
Q 928 4138 513 4856 
z
" transform="scale(0.015625)"/>
     </defs>
     <use xlink:href="#DejaVuSans-44"/>
     <use xlink:href="#DejaVuSans-69" x="77.001953"/>
     <use xlink:href="#DejaVuSans-73" x="104.785156"/>
     <use xlink:href="#DejaVuSans-74" x="156.884766"/>
     <use xlink:href="#DejaVuSans-61" x="196.09375"/>
     <use xlink:href="#DejaVuSans-6e" x="257.373047"/>
     <use xlink:href="#DejaVuSans-63" x="320.751953"/>
     <use xlink:href="#DejaVuSans-65" x="375.732422"/>
     <use xlink:href="#DejaVuSans-20" x="437.255859"/>
     <use xlink:href="#DejaVuSans-6f" x="469.042969"/>
     <use xlink:href="#DejaVuSans-76" x="530.224609"/>
     <use xlink:href="#DejaVuSans-65" x="589.404297"/>
     <use xlink:href="#DejaVuSans-72" x="650.927734"/>
     <use xlink:href="#DejaVuSans-20" x="692.041016"/>
     <use xlink:href="#DejaVuSans-74" x="723.828125"/>
     <use xlink:href="#DejaVuSans-69" x="763.037109"/>
     <use xlink:href="#DejaVuSans-6d" x="790.820312"/>
     <use xlink:href="#DejaVuSans-65" x="888.232422"/>
     <use xlink:href="#DejaVuSans-20" x="949.755859"/>
     <use xlink:href="#DejaVuSans-28" x="981.542969"/>
     <use xlink:href="#DejaVuSans-6e" x="1020.556641"/>
     <use xlink:href="#DejaVuSans-20" x="1083.935547"/>
     <use xlink:href="#DejaVuSans-3d" x="1115.722656"/>
     <use xlink:href="#DejaVuSans-20" x="1199.511719"/>
     <use xlink:href="#DejaVuSans-32" x="1231.298828"/>
     <use xlink:href="#DejaVuSans-29" x="1294.921875"/>
    </g>
    <!-- $v_{\mathrm{desired}} = 55\,\mathrm{km/h} \equiv 15.277\,\mathrm{m/s}$ -->
    <g transform="translate(209.0125 37.584) scale(0.12 -0.12)">
     <defs>
      <path id="DejaVuSans-Oblique-76" d="M 459 3500 
L 1069 3500 
L 1581 525 
L 3256 3500 
L 3866 3500 
L 1875 0 
L 1100 0 
L 459 3500 
z
" transform="scale(0.015625)"/>
      <path id="DejaVuSans-64" d="M 2906 2969 
L 2906 4863 
L 3481 4863 
L 3481 0 
L 2906 0 
L 2906 525 
Q 2725 213 2448 61 
Q 2172 -91 1784 -91 
Q 1150 -91 751 415 
Q 353 922 353 1747 
Q 353 2572 751 3078 
Q 1150 3584 1784 3584 
Q 2172 3584 2448 3432 
Q 2725 3281 2906 2969 
z
M 947 1747 
Q 947 1113 1208 752 
Q 1469 391 1925 391 
Q 2381 391 2643 752 
Q 2906 1113 2906 1747 
Q 2906 2381 2643 2742 
Q 2381 3103 1925 3103 
Q 1469 3103 1208 2742 
Q 947 2381 947 1747 
z
" transform="scale(0.015625)"/>
      <path id="DejaVuSans-6b" d="M 581 4863 
L 1159 4863 
L 1159 1991 
L 2875 3500 
L 3609 3500 
L 1753 1863 
L 3688 0 
L 2938 0 
L 1159 1709 
L 1159 0 
L 581 0 
L 581 4863 
z
" transform="scale(0.015625)"/>
      <path id="DejaVuSans-68" d="M 3513 2113 
L 3513 0 
L 2938 0 
L 2938 2094 
Q 2938 2591 2744 2837 
Q 2550 3084 2163 3084 
Q 1697 3084 1428 2787 
Q 1159 2491 1159 1978 
L 1159 0 
L 581 0 
L 581 4863 
L 1159 4863 
L 1159 2956 
Q 1366 3272 1645 3428 
Q 1925 3584 2291 3584 
Q 2894 3584 3203 3211 
Q 3513 2838 3513 2113 
z
" transform="scale(0.015625)"/>
      <path id="DejaVuSans-2261" d="M 678 2272 
L 4684 2272 
L 4684 1741 
L 678 1741 
L 678 2272 
z
M 678 3438 
L 4684 3438 
L 4684 2906 
L 678 2906 
L 678 3438 
z
M 678 1106 
L 4684 1106 
L 4684 575 
L 678 575 
L 678 1106 
z
" transform="scale(0.015625)"/>
      <path id="DejaVuSans-37" d="M 525 4666 
L 3525 4666 
L 3525 4397 
L 1831 0 
L 1172 0 
L 2766 4134 
L 525 4134 
L 525 4666 
z
" transform="scale(0.015625)"/>
     </defs>
     <use xlink:href="#DejaVuSans-Oblique-76" transform="translate(0 0.015625)"/>
     <use xlink:href="#DejaVuSans-64" transform="translate(59.179688 -16.390625) scale(0.7)"/>
     <use xlink:href="#DejaVuSans-65" transform="translate(103.613281 -16.390625) scale(0.7)"/>
     <use xlink:href="#DejaVuSans-73" transform="translate(146.679688 -16.390625) scale(0.7)"/>
     <use xlink:href="#DejaVuSans-69" transform="translate(183.149414 -16.390625) scale(0.7)"/>
     <use xlink:href="#DejaVuSans-72" transform="translate(202.597656 -16.390625) scale(0.7)"/>
     <use xlink:href="#DejaVuSans-65" transform="translate(231.376953 -16.390625) scale(0.7)"/>
     <use xlink:href="#DejaVuSans-64" transform="translate(274.443359 -16.390625) scale(0.7)"/>
     <use xlink:href="#DejaVuSans-3d" transform="translate(341.09375 0.015625)"/>
     <use xlink:href="#DejaVuSans-35" transform="translate(444.365234 0.015625)"/>
     <use xlink:href="#DejaVuSans-35" transform="translate(507.988281 0.015625)"/>
     <use xlink:href="#DejaVuSans-6b" transform="translate(587.847004 0.015625)"/>
     <use xlink:href="#DejaVuSans-6d" transform="translate(645.757161 0.015625)"/>
     <use xlink:href="#DejaVuSans-2f" transform="translate(743.16927 0.015625)"/>
     <use xlink:href="#DejaVuSans-68" transform="translate(776.860676 0.015625)"/>
     <use xlink:href="#DejaVuSans-2261" transform="translate(859.722004 0.015625)"/>
     <use xlink:href="#DejaVuSans-31" transform="translate(962.993489 0.015625)"/>
     <use xlink:href="#DejaVuSans-35" transform="translate(1026.616536 0.015625)"/>
     <use xlink:href="#DejaVuSans-2e" transform="translate(1090.239583 0.015625)"/>
     <use xlink:href="#DejaVuSans-32" transform="translate(1116.526692 0.015625)"/>
     <use xlink:href="#DejaVuSans-37" transform="translate(1180.149739 0.015625)"/>
     <use xlink:href="#DejaVuSans-37" transform="translate(1242.022786 0.015625)"/>
     <use xlink:href="#DejaVuSans-6d" transform="translate(1321.881509 0.015625)"/>
     <use xlink:href="#DejaVuSans-2f" transform="translate(1419.293618 0.015625)"/>
     <use xlink:href="#DejaVuSans-73" transform="translate(1452.985024 0.015625)"/>
    </g>
   </g>
   <g id="legend_1">
    <g id="patch_7">
     <path d="M 54.72 66.262125 
L 127.785625 66.262125 
Q 129.785625 66.262125 129.785625 64.262125 
L 129.785625 50.584 
Q 129.785625 48.584 127.785625 48.584 
L 54.72 48.584 
Q 52.72 48.584 52.72 50.584 
L 52.72 64.262125 
Q 52.72 66.262125 54.72 66.262125 
z
" style="fill: #ffffff; opacity: 0.8; stroke: #cccccc; stroke-linejoin: miter"/>
    </g>
    <g id="line2d_36">
     <path d="M 56.72 56.682437 
L 66.72 56.682437 
L 76.72 56.682437 
" style="fill: none; stroke: #000000; stroke-width: 2.5; stroke-linecap: square"/>
    </g>
    <g id="text_20">
     <!-- Average -->
     <g transform="translate(84.72 60.182437) scale(0.1 -0.1)">
      <defs>
       <path id="DejaVuSans-41" d="M 2188 4044 
L 1331 1722 
L 3047 1722 
L 2188 4044 
z
M 1831 4666 
L 2547 4666 
L 4325 0 
L 3669 0 
L 3244 1197 
L 1141 1197 
L 716 0 
L 50 0 
L 1831 4666 
z
" transform="scale(0.015625)"/>
       <path id="DejaVuSans-67" d="M 2906 1791 
Q 2906 2416 2648 2759 
Q 2391 3103 1925 3103 
Q 1463 3103 1205 2759 
Q 947 2416 947 1791 
Q 947 1169 1205 825 
Q 1463 481 1925 481 
Q 2391 481 2648 825 
Q 2906 1169 2906 1791 
z
M 3481 434 
Q 3481 -459 3084 -895 
Q 2688 -1331 1869 -1331 
Q 1566 -1331 1297 -1286 
Q 1028 -1241 775 -1147 
L 775 -588 
Q 1028 -725 1275 -790 
Q 1522 -856 1778 -856 
Q 2344 -856 2625 -561 
Q 2906 -266 2906 331 
L 2906 616 
Q 2728 306 2450 153 
Q 2172 0 1784 0 
Q 1141 0 747 490 
Q 353 981 353 1791 
Q 353 2603 747 3093 
Q 1141 3584 1784 3584 
Q 2172 3584 2450 3431 
Q 2728 3278 2906 2969 
L 2906 3500 
L 3481 3500 
L 3481 434 
z
" transform="scale(0.015625)"/>
      </defs>
      <use xlink:href="#DejaVuSans-41"/>
      <use xlink:href="#DejaVuSans-76" x="62.533203"/>
      <use xlink:href="#DejaVuSans-65" x="121.712891"/>
      <use xlink:href="#DejaVuSans-72" x="183.236328"/>
      <use xlink:href="#DejaVuSans-61" x="224.349609"/>
      <use xlink:href="#DejaVuSans-67" x="285.628906"/>
      <use xlink:href="#DejaVuSans-65" x="349.105469"/>
     </g>
    </g>
   </g>
  </g>
 </g>
 <defs>
  <clipPath id="p46362aa1fe">
   <rect x="47.72" y="43.584" width="503.305" height="274.456"/>
  </clipPath>
 </defs>
</svg>
